<svg xmlns="http://www.w3.org/2000/svg" width="505" height="213" viewBox="0 0 505 213">
  <g id="Grupo_1072508" data-name="Grupo 1072508" transform="translate(-810.156 -2822)">
    <g id="Grupo_1072510" data-name="Grupo 1072510">
      <g id="Grupo_1072509" data-name="Grupo 1072509" transform="translate(57 -217.063)">
        <rect id="Rectángulo_376315" data-name="Rectángulo 376315" width="285" height="40" rx="12" transform="translate(867.156 3039.063)" fill="#dc40ed"/>
        <text id="SOAP" transform="translate(971.156 3042.063)" fill="#fff" font-size="18" font-family="Roboto-Black, Roboto" font-weight="800"><tspan x="-23.744" y="19">SOAP</tspan></text>
      </g>
      <g id="Grupo_1072506" data-name="Grupo 1072506">
        <rect id="Rectángulo_376026" data-name="Rectángulo 376026" width="505" height="186" rx="23" transform="translate(810.156 2849)" fill="#fff"/>
        <g id="Grupo_1072507" data-name="Grupo 1072507" transform="translate(871.156 2894.275)">
          <line id="Línea_433" data-name="Línea 433" x2="213" transform="translate(84.5 47.5)" fill="none" stroke="#1425dd" stroke-width="2"/>
          <g id="Grupo_1072505" data-name="Grupo 1072505">
            <g id="html" transform="translate(165.817 22.05)">
              <g id="Grupo_1072495" data-name="Grupo 1072495" transform="translate(0.949 0.949)">
                <g id="Grupo_1072494" data-name="Grupo 1072494" transform="translate(0 0)">
                  <path id="Trazado_818689" data-name="Trazado 818689" d="M69.568,123.36v39.352a2.063,2.063,0,0,1-2.063,2.063l-1.544.2H9.563A2.063,2.063,0,0,1,7.5,162.908V126.4l.831-3.036Z" transform="translate(-7.5 -115.309)" fill="#a8d3d8"/>
                  <path id="Trazado_818690" data-name="Trazado 818690" d="M70.375,109.224v39.548a2.063,2.063,0,0,1-2.063,2.063H65.529a2.063,2.063,0,0,0,2.063-2.063V114.791a2.53,2.53,0,0,0-2.53-2.53H7.5v-3.036l34.141-2.047Z" transform="translate(-7.5 -101.173)" fill="#8ebac5"/>
                  <path id="Trazado_818691" data-name="Trazado 818691" d="M70,62.062l-.107,5.2-3.056.511H7.5V61.783A2.063,2.063,0,0,1,9.563,59.72H65.3L67.933,60A2.063,2.063,0,0,1,70,62.062Z" transform="translate(-7.5 -59.72)" fill="#947df6"/>
                  <path id="Trazado_818692" data-name="Trazado 818692" d="M465.8,61.783v5.988h-3.542V61.783a2.063,2.063,0,0,0-2.063-2.063h3.542A2.063,2.063,0,0,1,465.8,61.783Z" transform="translate(-402.92 -59.72)" fill="#8769ef"/>
                </g>
              </g>
              <g id="Grupo_1072504" data-name="Grupo 1072504" transform="translate(0)">
                <g id="Grupo_1072496" data-name="Grupo 1072496" transform="translate(0 0)">
                  <path id="Trazado_818693" data-name="Trazado 818693" d="M61.765,103.78H3.008A3.014,3.014,0,0,1,0,100.768V55.232A3.014,3.014,0,0,1,3.008,52.22H61.765a3.014,3.014,0,0,1,3.008,3.012V90.279a.949.949,0,0,1-1.9,0V55.232a1.114,1.114,0,0,0-1.111-1.115H3.008A1.114,1.114,0,0,0,1.9,55.232v45.536a1.114,1.114,0,0,0,1.111,1.115H61.765a1.114,1.114,0,0,0,1.111-1.115V94.707a.949.949,0,0,1,1.9,0v6.061A3.014,3.014,0,0,1,61.765,103.78Z" transform="translate(0 -52.22)"/>
                  <path id="Línea_433-2" data-name="Línea 433" d="M23.534-5.6H-6.551A.949.949,0,0,1-7.5-6.551.949.949,0,0,1-6.551-7.5H23.534a.949.949,0,0,1,.949.949A.949.949,0,0,1,23.534-5.6Z" transform="translate(7.843 15.551)"/>
                  <path id="Línea_434" data-name="Línea 434" d="M21.125-5.6H-6.551A.949.949,0,0,1-7.5-6.551.949.949,0,0,1-6.551-7.5H21.125a.949.949,0,0,1,.949.949A.949.949,0,0,1,21.125-5.6Z" transform="translate(42.356 15.551)"/>
                  <path id="Línea_435" data-name="Línea 435" transform="translate(13.929 4.974)"/>
                  <path id="Línea_436" data-name="Línea 436" transform="translate(9.621 4.974)"/>
                  <path id="Línea_437" data-name="Línea 437" transform="translate(5.313 4.974)"/>
                </g>
                <g id="Grupo_1072503" data-name="Grupo 1072503" transform="translate(5.566 12.95)">
                  <g id="Grupo_1072501" data-name="Grupo 1072501" transform="translate(25.616)">
                    <text id="XML" transform="translate(12 10.725)" fill="#222b89" font-size="12" font-family="Roboto-Black, Roboto" font-weight="800"><tspan x="-12.34" y="0">XML</tspan></text>
                  </g>
                  <path id="Trazado_818696" data-name="Trazado 818696" d="M48.294,184.9a.946.946,0,0,1-.671-.278l-3.345-3.345a.949.949,0,0,1,0-1.342l3.345-3.345a.949.949,0,0,1,1.342,1.342L46.291,180.6l2.674,2.674a.949.949,0,0,1-.671,1.62Z" transform="translate(-44 -173.56)"/>
                  <path id="Trazado_818697" data-name="Trazado 818697" d="M427.509,340.039a.949.949,0,0,1-.671-1.62l2.674-2.674-2.674-2.674a.949.949,0,0,1,1.342-1.342l3.345,3.345a.949.949,0,0,1,0,1.342l-3.345,3.345A.946.946,0,0,1,427.509,340.039Z" transform="translate(-378.162 -309.077)"/>
                  <path id="Línea_443" data-name="Línea 443" d="M3.839-5.6H-6.551A.949.949,0,0,1-7.5-6.551.949.949,0,0,1-6.551-7.5H3.839a.949.949,0,0,1,.949.949A.949.949,0,0,1,3.839-5.6Z" transform="translate(14.914 10.425)"/>
                  <path id="Línea_444" data-name="Línea 444" d="M-3.571-5.6H-6.551A.949.949,0,0,1-7.5-6.551.949.949,0,0,1-6.551-7.5h2.981a.949.949,0,0,1,.949.949A.949.949,0,0,1-3.571-5.6Z" transform="translate(22.323 16.938)"/>
                  <path id="Línea_445" data-name="Línea 445" d="M-3.569-5.6H-6.551A.949.949,0,0,1-7.5-6.551.949.949,0,0,1-6.551-7.5h2.982a.949.949,0,0,1,.949.949A.949.949,0,0,1-3.569-5.6Z" transform="translate(14.913 16.938)"/>
                  <path id="Línea_446" data-name="Línea 446" d="M2.339-5.6h-8.89A.949.949,0,0,1-7.5-6.551.949.949,0,0,1-6.551-7.5h8.89a.949.949,0,0,1,.949.949A.949.949,0,0,1,2.339-5.6Z" transform="translate(18.3 23.451)"/>
                  <path id="Línea_447" data-name="Línea 447" d="M-.073-5.6H-6.551A.949.949,0,0,1-7.5-6.551.949.949,0,0,1-6.551-7.5H-.073a.949.949,0,0,1,.949.949A.949.949,0,0,1-.073-5.6Z" transform="translate(52.764 23.451)"/>
                  <path id="Línea_448" data-name="Línea 448" d="M10.167-5.6H-6.551A.949.949,0,0,1-7.5-6.551.949.949,0,0,1-6.551-7.5H10.167a.949.949,0,0,1,.949.949A.949.949,0,0,1,10.167-5.6Z" transform="translate(31.618 23.451)"/>
                  <path id="Línea_449" data-name="Línea 449" d="M-.179-5.6H-6.551A.949.949,0,0,1-7.5-6.551.949.949,0,0,1-6.551-7.5H-.179a.949.949,0,0,1,.949.949A.949.949,0,0,1-.179-5.6Z" transform="translate(7.5 23.451)"/>
                  <g id="Grupo_1072502" data-name="Grupo 1072502" transform="translate(0 22.463)">
                    <path id="Línea_450" data-name="Línea 450" d="M1.327-5.6H-6.551A.949.949,0,0,1-7.5-6.551.949.949,0,0,1-6.551-7.5H1.327a.949.949,0,0,1,.949.949A.949.949,0,0,1,1.327-5.6Z" transform="translate(39.003 7.5)"/>
                    <path id="Línea_451" data-name="Línea 451" d="M2.856-5.6H-6.551A.949.949,0,0,1-7.5-6.551.949.949,0,0,1-6.551-7.5H2.856a.949.949,0,0,1,.949.949A.949.949,0,0,1,2.856-5.6Z" transform="translate(7.5 7.5)"/>
                    <path id="Línea_452" data-name="Línea 452" d="M6.689-5.6H-6.551A.949.949,0,0,1-7.5-6.551.949.949,0,0,1-6.551-7.5H6.689a.949.949,0,0,1,.949.949A.949.949,0,0,1,6.689-5.6Z" transform="translate(21.335 7.5)"/>
                    <path id="Línea_453" data-name="Línea 453" d="M13.665-5.6H-6.551A.949.949,0,0,1-7.5-6.551.949.949,0,0,1-6.551-7.5H13.665a.949.949,0,0,1,.949.949A.949.949,0,0,1,13.665-5.6Z" transform="translate(17.708 14.013)"/>
                    <path id="Línea_454" data-name="Línea 454" d="M-3.793-5.6H-6.551A.949.949,0,0,1-7.5-6.551.949.949,0,0,1-6.551-7.5h2.758a.949.949,0,0,1,.949.949A.949.949,0,0,1-3.793-5.6Z" transform="translate(42.352 14.013)"/>
                    <path id="Línea_455" data-name="Línea 455" d="M-.771-5.6h-5.78A.949.949,0,0,1-7.5-6.551.949.949,0,0,1-6.551-7.5h5.78a.949.949,0,0,1,.949.949A.949.949,0,0,1-.771-5.6Z" transform="translate(7.5 14.013)"/>
                  </g>
                  <path id="Línea_456" data-name="Línea 456" d="M-6.552,3.818a.951.951,0,0,1-.221-.026.949.949,0,0,1-.7-1.143l2.249-9.421a.949.949,0,0,1,1.143-.7.949.949,0,0,1,.7,1.143L-5.63,3.089A.949.949,0,0,1-6.552,3.818Z" transform="translate(50.162 27.145)"/>
                </g>
              </g>
            </g>
            <path id="Polígono_13" data-name="Polígono 13" d="M6,0l6,11H0Z" transform="translate(95.5 52.83) rotate(-90)" fill="#222b89"/>
            <path id="Polígono_14" data-name="Polígono 14" d="M6,0l6,11H0Z" transform="translate(287 40.83) rotate(90)" fill="#222b89"/>
            <g id="servidor_2_" data-name="servidor (2)">
              <path id="Trazado_818656" data-name="Trazado 818656" d="M4,15H86.906V29.349H4Z" transform="translate(2.377 8.915)" fill="#1b3863"/>
              <path id="Trazado_818657" data-name="Trazado 818657" d="M4,36H86.906V50.349H4Z" transform="translate(2.377 21.397)" fill="#1b3863"/>
              <rect id="Rectángulo_376312" data-name="Rectángulo 376312" width="92" height="25" rx="3" transform="translate(2 1.725)" fill="#1f45b2"/>
              <path id="Trazado_818658" data-name="Trazado 818658" d="M28.915,13.377a3.189,3.189,0,1,0,0-6.377H8.189a3.189,3.189,0,0,0,0,6.377Z" transform="translate(2.972 4.16)" fill="#30c191"/>
              <rect id="Rectángulo_376313" data-name="Rectángulo 376313" width="92" height="26" rx="3" transform="translate(2 34.725)" fill="#1f45b2"/>
              <path id="Trazado_818659" data-name="Trazado 818659" d="M28.915,34.377a3.189,3.189,0,0,0,0-6.377H8.189a3.189,3.189,0,0,0,0,6.377Z" transform="translate(2.972 16.642)" fill="#f4c811"/>
              <rect id="Rectángulo_376314" data-name="Rectángulo 376314" width="92" height="25" rx="3" transform="translate(2 68.725)" fill="#1f45b2"/>
              <path id="Trazado_818660" data-name="Trazado 818660" d="M28.915,55.377a3.189,3.189,0,1,0,0-6.377H8.189a3.189,3.189,0,0,0,0,6.377Z" transform="translate(2.972 29.123)" fill="#de024b"/>
              <g id="Grupo_1072493" data-name="Grupo 1072493">
                <path id="Trazado_818661" data-name="Trazado 818661" d="M89.284,0H22.321a1.594,1.594,0,0,0,0,3.189H89.284a3.192,3.192,0,0,1,3.189,3.189V22.321a3.192,3.192,0,0,1-3.189,3.189H6.377a3.192,3.192,0,0,1-3.189-3.189V6.377A3.192,3.192,0,0,1,6.377,3.189h9.566a1.594,1.594,0,0,0,0-3.189H6.377A6.384,6.384,0,0,0,0,6.377V22.321a6.371,6.371,0,0,0,4.783,6.151v5.236A6.371,6.371,0,0,0,0,39.859V55.8a6.371,6.371,0,0,0,4.783,6.151v5.236A6.371,6.371,0,0,0,0,73.34V89.284a6.384,6.384,0,0,0,6.377,6.377H89.284a6.384,6.384,0,0,0,6.377-6.377V73.34a6.369,6.369,0,0,0-4.783-6.151V61.953A6.369,6.369,0,0,0,95.661,55.8V39.859a6.369,6.369,0,0,0-4.783-6.151V28.472a6.369,6.369,0,0,0,4.783-6.151V6.377A6.384,6.384,0,0,0,89.284,0ZM7.972,33.481V28.7H87.689v4.783Zm0,33.481V62.18H87.689v4.783Zm84.5,6.377V89.284a3.192,3.192,0,0,1-3.189,3.189H6.377a3.192,3.192,0,0,1-3.189-3.189V73.34a3.192,3.192,0,0,1,3.189-3.189H89.284A3.192,3.192,0,0,1,92.472,73.34Zm0-33.481V55.8a3.192,3.192,0,0,1-3.189,3.189H6.377A3.192,3.192,0,0,1,3.189,55.8V39.859A3.192,3.192,0,0,1,6.377,36.67H89.284A3.192,3.192,0,0,1,92.472,39.859Z" fill="#161616"/>
                <path id="Trazado_818662" data-name="Trazado 818662" d="M4,10.783a4.789,4.789,0,0,0,4.783,4.783H29.51A4.783,4.783,0,1,0,29.51,6H8.783A4.789,4.789,0,0,0,4,10.783Zm27.1,0a1.6,1.6,0,0,1-1.594,1.594H8.783a1.594,1.594,0,0,1,0-3.189H29.51A1.6,1.6,0,0,1,31.1,10.783Z" transform="translate(2.377 3.566)" fill="#161616"/>
                <path id="Trazado_818663" data-name="Trazado 818663" d="M29.51,27H8.783a4.783,4.783,0,0,0,0,9.566H29.51a4.783,4.783,0,1,0,0-9.566Zm0,6.377H8.783a1.594,1.594,0,0,1,0-3.189H29.51a1.594,1.594,0,0,1,0,3.189Z" transform="translate(2.377 16.048)" fill="#161616"/>
                <path id="Trazado_818664" data-name="Trazado 818664" d="M29.51,48H8.783a4.783,4.783,0,0,0,0,9.566H29.51a4.783,4.783,0,0,0,0-9.566Zm0,6.377H8.783a1.594,1.594,0,0,1,0-3.189H29.51a1.594,1.594,0,0,1,0,3.189Z" transform="translate(2.377 28.529)" fill="#161616"/>
                <path id="Trazado_818665" data-name="Trazado 818665" d="M38.594,9.189h1.594a1.594,1.594,0,1,0,0-3.189H38.594a1.594,1.594,0,1,0,0,3.189Z" transform="translate(21.991 3.566)" fill="#161616"/>
                <path id="Trazado_818666" data-name="Trazado 818666" d="M38.594,13.189h1.594a1.594,1.594,0,1,0,0-3.189H38.594a1.594,1.594,0,1,0,0,3.189Z" transform="translate(21.991 5.944)" fill="#161616"/>
                <path id="Trazado_818667" data-name="Trazado 818667" d="M43.594,9.189h1.594a1.594,1.594,0,1,0,0-3.189H43.594a1.594,1.594,0,1,0,0,3.189Z" transform="translate(24.963 3.566)" fill="#161616"/>
                <path id="Trazado_818668" data-name="Trazado 818668" d="M43.594,13.189h1.594a1.594,1.594,0,1,0,0-3.189H43.594a1.594,1.594,0,1,0,0,3.189Z" transform="translate(24.963 5.944)" fill="#161616"/>
                <path id="Trazado_818669" data-name="Trazado 818669" d="M48.594,9.189h1.594a1.594,1.594,0,1,0,0-3.189H48.594a1.594,1.594,0,1,0,0,3.189Z" transform="translate(27.935 3.566)" fill="#161616"/>
                <path id="Trazado_818670" data-name="Trazado 818670" d="M48.594,13.189h1.594a1.594,1.594,0,1,0,0-3.189H48.594a1.594,1.594,0,1,0,0,3.189Z" transform="translate(27.935 5.944)" fill="#161616"/>
                <path id="Trazado_818671" data-name="Trazado 818671" d="M53.594,9.189h1.594a1.594,1.594,0,1,0,0-3.189H53.594a1.594,1.594,0,1,0,0,3.189Z" transform="translate(30.906 3.566)" fill="#161616"/>
                <path id="Trazado_818672" data-name="Trazado 818672" d="M53.594,13.189h1.594a1.594,1.594,0,0,0,0-3.189H53.594a1.594,1.594,0,0,0,0,3.189Z" transform="translate(30.906 5.944)" fill="#161616"/>
                <path id="Trazado_818673" data-name="Trazado 818673" d="M40.189,27H38.594a1.594,1.594,0,1,0,0,3.189h1.594a1.594,1.594,0,1,0,0-3.189Z" transform="translate(21.991 16.048)" fill="#161616"/>
                <path id="Trazado_818674" data-name="Trazado 818674" d="M40.189,31H38.594a1.594,1.594,0,0,0,0,3.189h1.594a1.594,1.594,0,1,0,0-3.189Z" transform="translate(21.991 18.425)" fill="#161616"/>
                <path id="Trazado_818675" data-name="Trazado 818675" d="M45.189,27H43.594a1.594,1.594,0,1,0,0,3.189h1.594a1.594,1.594,0,1,0,0-3.189Z" transform="translate(24.963 16.048)" fill="#161616"/>
                <path id="Trazado_818676" data-name="Trazado 818676" d="M45.189,31H43.594a1.594,1.594,0,0,0,0,3.189h1.594a1.594,1.594,0,1,0,0-3.189Z" transform="translate(24.963 18.425)" fill="#161616"/>
                <path id="Trazado_818677" data-name="Trazado 818677" d="M50.189,27H48.594a1.594,1.594,0,1,0,0,3.189h1.594a1.594,1.594,0,1,0,0-3.189Z" transform="translate(27.935 16.048)" fill="#161616"/>
                <path id="Trazado_818678" data-name="Trazado 818678" d="M50.189,31H48.594a1.594,1.594,0,0,0,0,3.189h1.594a1.594,1.594,0,1,0,0-3.189Z" transform="translate(27.935 18.425)" fill="#161616"/>
                <path id="Trazado_818679" data-name="Trazado 818679" d="M55.189,27H53.594a1.594,1.594,0,1,0,0,3.189h1.594a1.594,1.594,0,1,0,0-3.189Z" transform="translate(30.906 16.048)" fill="#161616"/>
                <path id="Trazado_818680" data-name="Trazado 818680" d="M55.189,31H53.594a1.594,1.594,0,0,0,0,3.189h1.594a1.594,1.594,0,0,0,0-3.189Z" transform="translate(30.906 18.425)" fill="#161616"/>
                <path id="Trazado_818681" data-name="Trazado 818681" d="M40.189,48H38.594a1.594,1.594,0,0,0,0,3.189h1.594a1.594,1.594,0,1,0,0-3.189Z" transform="translate(21.991 28.529)" fill="#161616"/>
                <path id="Trazado_818682" data-name="Trazado 818682" d="M40.189,52H38.594a1.594,1.594,0,1,0,0,3.189h1.594a1.594,1.594,0,0,0,0-3.189Z" transform="translate(21.991 30.906)" fill="#161616"/>
                <path id="Trazado_818683" data-name="Trazado 818683" d="M45.189,48H43.594a1.594,1.594,0,0,0,0,3.189h1.594a1.594,1.594,0,1,0,0-3.189Z" transform="translate(24.963 28.529)" fill="#161616"/>
                <path id="Trazado_818684" data-name="Trazado 818684" d="M45.189,52H43.594a1.594,1.594,0,1,0,0,3.189h1.594a1.594,1.594,0,0,0,0-3.189Z" transform="translate(24.963 30.906)" fill="#161616"/>
                <path id="Trazado_818685" data-name="Trazado 818685" d="M50.189,48H48.594a1.594,1.594,0,0,0,0,3.189h1.594a1.594,1.594,0,1,0,0-3.189Z" transform="translate(27.935 28.529)" fill="#161616"/>
                <path id="Trazado_818686" data-name="Trazado 818686" d="M50.189,52H48.594a1.594,1.594,0,1,0,0,3.189h1.594a1.594,1.594,0,0,0,0-3.189Z" transform="translate(27.935 30.906)" fill="#161616"/>
                <path id="Trazado_818687" data-name="Trazado 818687" d="M55.189,48H53.594a1.594,1.594,0,0,0,0,3.189h1.594a1.594,1.594,0,0,0,0-3.189Z" transform="translate(30.906 28.529)" fill="#161616"/>
                <path id="Trazado_818688" data-name="Trazado 818688" d="M55.189,52H53.594a1.594,1.594,0,0,0,0,3.189h1.594a1.594,1.594,0,0,0,0-3.189Z" transform="translate(30.906 30.906)" fill="#161616"/>
              </g>
            </g>
            <g id="servidor_2_2" data-name="servidor (2)" transform="translate(287)">
              <path id="Trazado_818656-2" data-name="Trazado 818656" d="M4,15H86.906V29.349H4Z" transform="translate(2.377 8.915)" fill="#1b3863"/>
              <path id="Trazado_818657-2" data-name="Trazado 818657" d="M4,36H86.906V50.349H4Z" transform="translate(2.377 21.397)" fill="#1b3863"/>
              <rect id="Rectángulo_376312-2" data-name="Rectángulo 376312" width="92" height="25" rx="3" transform="translate(2 1.725)" fill="#1f45b2"/>
              <path id="Trazado_818658-2" data-name="Trazado 818658" d="M28.915,13.377a3.189,3.189,0,1,0,0-6.377H8.189a3.189,3.189,0,0,0,0,6.377Z" transform="translate(2.972 4.16)" fill="#30c191"/>
              <rect id="Rectángulo_376313-2" data-name="Rectángulo 376313" width="92" height="26" rx="3" transform="translate(2 34.725)" fill="#1f45b2"/>
              <path id="Trazado_818659-2" data-name="Trazado 818659" d="M28.915,34.377a3.189,3.189,0,0,0,0-6.377H8.189a3.189,3.189,0,0,0,0,6.377Z" transform="translate(2.972 16.642)" fill="#f4c811"/>
              <rect id="Rectángulo_376314-2" data-name="Rectángulo 376314" width="92" height="25" rx="3" transform="translate(2 68.725)" fill="#1f45b2"/>
              <path id="Trazado_818660-2" data-name="Trazado 818660" d="M28.915,55.377a3.189,3.189,0,1,0,0-6.377H8.189a3.189,3.189,0,0,0,0,6.377Z" transform="translate(2.972 29.123)" fill="#de024b"/>
              <g id="Grupo_1072493-2" data-name="Grupo 1072493">
                <path id="Trazado_818661-2" data-name="Trazado 818661" d="M89.284,0H22.321a1.594,1.594,0,0,0,0,3.189H89.284a3.192,3.192,0,0,1,3.189,3.189V22.321a3.192,3.192,0,0,1-3.189,3.189H6.377a3.192,3.192,0,0,1-3.189-3.189V6.377A3.192,3.192,0,0,1,6.377,3.189h9.566a1.594,1.594,0,0,0,0-3.189H6.377A6.384,6.384,0,0,0,0,6.377V22.321a6.371,6.371,0,0,0,4.783,6.151v5.236A6.371,6.371,0,0,0,0,39.859V55.8a6.371,6.371,0,0,0,4.783,6.151v5.236A6.371,6.371,0,0,0,0,73.34V89.284a6.384,6.384,0,0,0,6.377,6.377H89.284a6.384,6.384,0,0,0,6.377-6.377V73.34a6.369,6.369,0,0,0-4.783-6.151V61.953A6.369,6.369,0,0,0,95.661,55.8V39.859a6.369,6.369,0,0,0-4.783-6.151V28.472a6.369,6.369,0,0,0,4.783-6.151V6.377A6.384,6.384,0,0,0,89.284,0ZM7.972,33.481V28.7H87.689v4.783Zm0,33.481V62.18H87.689v4.783Zm84.5,6.377V89.284a3.192,3.192,0,0,1-3.189,3.189H6.377a3.192,3.192,0,0,1-3.189-3.189V73.34a3.192,3.192,0,0,1,3.189-3.189H89.284A3.192,3.192,0,0,1,92.472,73.34Zm0-33.481V55.8a3.192,3.192,0,0,1-3.189,3.189H6.377A3.192,3.192,0,0,1,3.189,55.8V39.859A3.192,3.192,0,0,1,6.377,36.67H89.284A3.192,3.192,0,0,1,92.472,39.859Z" fill="#161616"/>
                <path id="Trazado_818662-2" data-name="Trazado 818662" d="M4,10.783a4.789,4.789,0,0,0,4.783,4.783H29.51A4.783,4.783,0,1,0,29.51,6H8.783A4.789,4.789,0,0,0,4,10.783Zm27.1,0a1.6,1.6,0,0,1-1.594,1.594H8.783a1.594,1.594,0,0,1,0-3.189H29.51A1.6,1.6,0,0,1,31.1,10.783Z" transform="translate(2.377 3.566)" fill="#161616"/>
                <path id="Trazado_818663-2" data-name="Trazado 818663" d="M29.51,27H8.783a4.783,4.783,0,0,0,0,9.566H29.51a4.783,4.783,0,1,0,0-9.566Zm0,6.377H8.783a1.594,1.594,0,0,1,0-3.189H29.51a1.594,1.594,0,0,1,0,3.189Z" transform="translate(2.377 16.048)" fill="#161616"/>
                <path id="Trazado_818664-2" data-name="Trazado 818664" d="M29.51,48H8.783a4.783,4.783,0,0,0,0,9.566H29.51a4.783,4.783,0,0,0,0-9.566Zm0,6.377H8.783a1.594,1.594,0,0,1,0-3.189H29.51a1.594,1.594,0,0,1,0,3.189Z" transform="translate(2.377 28.529)" fill="#161616"/>
                <path id="Trazado_818665-2" data-name="Trazado 818665" d="M38.594,9.189h1.594a1.594,1.594,0,1,0,0-3.189H38.594a1.594,1.594,0,1,0,0,3.189Z" transform="translate(21.991 3.566)" fill="#161616"/>
                <path id="Trazado_818666-2" data-name="Trazado 818666" d="M38.594,13.189h1.594a1.594,1.594,0,1,0,0-3.189H38.594a1.594,1.594,0,1,0,0,3.189Z" transform="translate(21.991 5.944)" fill="#161616"/>
                <path id="Trazado_818667-2" data-name="Trazado 818667" d="M43.594,9.189h1.594a1.594,1.594,0,1,0,0-3.189H43.594a1.594,1.594,0,1,0,0,3.189Z" transform="translate(24.963 3.566)" fill="#161616"/>
                <path id="Trazado_818668-2" data-name="Trazado 818668" d="M43.594,13.189h1.594a1.594,1.594,0,1,0,0-3.189H43.594a1.594,1.594,0,1,0,0,3.189Z" transform="translate(24.963 5.944)" fill="#161616"/>
                <path id="Trazado_818669-2" data-name="Trazado 818669" d="M48.594,9.189h1.594a1.594,1.594,0,1,0,0-3.189H48.594a1.594,1.594,0,1,0,0,3.189Z" transform="translate(27.935 3.566)" fill="#161616"/>
                <path id="Trazado_818670-2" data-name="Trazado 818670" d="M48.594,13.189h1.594a1.594,1.594,0,1,0,0-3.189H48.594a1.594,1.594,0,1,0,0,3.189Z" transform="translate(27.935 5.944)" fill="#161616"/>
                <path id="Trazado_818671-2" data-name="Trazado 818671" d="M53.594,9.189h1.594a1.594,1.594,0,1,0,0-3.189H53.594a1.594,1.594,0,1,0,0,3.189Z" transform="translate(30.906 3.566)" fill="#161616"/>
                <path id="Trazado_818672-2" data-name="Trazado 818672" d="M53.594,13.189h1.594a1.594,1.594,0,0,0,0-3.189H53.594a1.594,1.594,0,0,0,0,3.189Z" transform="translate(30.906 5.944)" fill="#161616"/>
                <path id="Trazado_818673-2" data-name="Trazado 818673" d="M40.189,27H38.594a1.594,1.594,0,1,0,0,3.189h1.594a1.594,1.594,0,1,0,0-3.189Z" transform="translate(21.991 16.048)" fill="#161616"/>
                <path id="Trazado_818674-2" data-name="Trazado 818674" d="M40.189,31H38.594a1.594,1.594,0,0,0,0,3.189h1.594a1.594,1.594,0,1,0,0-3.189Z" transform="translate(21.991 18.425)" fill="#161616"/>
                <path id="Trazado_818675-2" data-name="Trazado 818675" d="M45.189,27H43.594a1.594,1.594,0,1,0,0,3.189h1.594a1.594,1.594,0,1,0,0-3.189Z" transform="translate(24.963 16.048)" fill="#161616"/>
                <path id="Trazado_818676-2" data-name="Trazado 818676" d="M45.189,31H43.594a1.594,1.594,0,0,0,0,3.189h1.594a1.594,1.594,0,1,0,0-3.189Z" transform="translate(24.963 18.425)" fill="#161616"/>
                <path id="Trazado_818677-2" data-name="Trazado 818677" d="M50.189,27H48.594a1.594,1.594,0,1,0,0,3.189h1.594a1.594,1.594,0,1,0,0-3.189Z" transform="translate(27.935 16.048)" fill="#161616"/>
                <path id="Trazado_818678-2" data-name="Trazado 818678" d="M50.189,31H48.594a1.594,1.594,0,0,0,0,3.189h1.594a1.594,1.594,0,1,0,0-3.189Z" transform="translate(27.935 18.425)" fill="#161616"/>
                <path id="Trazado_818679-2" data-name="Trazado 818679" d="M55.189,27H53.594a1.594,1.594,0,1,0,0,3.189h1.594a1.594,1.594,0,1,0,0-3.189Z" transform="translate(30.906 16.048)" fill="#161616"/>
                <path id="Trazado_818680-2" data-name="Trazado 818680" d="M55.189,31H53.594a1.594,1.594,0,0,0,0,3.189h1.594a1.594,1.594,0,0,0,0-3.189Z" transform="translate(30.906 18.425)" fill="#161616"/>
                <path id="Trazado_818681-2" data-name="Trazado 818681" d="M40.189,48H38.594a1.594,1.594,0,0,0,0,3.189h1.594a1.594,1.594,0,1,0,0-3.189Z" transform="translate(21.991 28.529)" fill="#161616"/>
                <path id="Trazado_818682-2" data-name="Trazado 818682" d="M40.189,52H38.594a1.594,1.594,0,1,0,0,3.189h1.594a1.594,1.594,0,0,0,0-3.189Z" transform="translate(21.991 30.906)" fill="#161616"/>
                <path id="Trazado_818683-2" data-name="Trazado 818683" d="M45.189,48H43.594a1.594,1.594,0,0,0,0,3.189h1.594a1.594,1.594,0,1,0,0-3.189Z" transform="translate(24.963 28.529)" fill="#161616"/>
                <path id="Trazado_818684-2" data-name="Trazado 818684" d="M45.189,52H43.594a1.594,1.594,0,1,0,0,3.189h1.594a1.594,1.594,0,0,0,0-3.189Z" transform="translate(24.963 30.906)" fill="#161616"/>
                <path id="Trazado_818685-2" data-name="Trazado 818685" d="M50.189,48H48.594a1.594,1.594,0,0,0,0,3.189h1.594a1.594,1.594,0,1,0,0-3.189Z" transform="translate(27.935 28.529)" fill="#161616"/>
                <path id="Trazado_818686-2" data-name="Trazado 818686" d="M50.189,52H48.594a1.594,1.594,0,1,0,0,3.189h1.594a1.594,1.594,0,0,0,0-3.189Z" transform="translate(27.935 30.906)" fill="#161616"/>
                <path id="Trazado_818687-2" data-name="Trazado 818687" d="M55.189,48H53.594a1.594,1.594,0,0,0,0,3.189h1.594a1.594,1.594,0,0,0,0-3.189Z" transform="translate(30.906 28.529)" fill="#161616"/>
                <path id="Trazado_818688-2" data-name="Trazado 818688" d="M55.189,52H53.594a1.594,1.594,0,0,0,0,3.189h1.594a1.594,1.594,0,0,0,0-3.189Z" transform="translate(30.906 30.906)" fill="#161616"/>
              </g>
            </g>
          </g>
        </g>
      </g>
    </g>
  </g>
</svg>
