<svg xmlns="http://www.w3.org/2000/svg" width="505" height="186" viewBox="0 0 505 186">
  <g id="Grupo_1072527" data-name="Grupo 1072527" transform="translate(5855 8816)">
    <rect id="Rectángulo_376026" data-name="Rectángulo 376026" width="505" height="186" rx="23" transform="translate(-5855 -8816)" fill="#fff"/>
    <line id="Línea_433" data-name="Línea 433" x2="213" transform="translate(-5709.5 -8724.5)" fill="none" stroke="#1425dd" stroke-width="2"/>
    <path id="Polígono_13" data-name="Polígono 13" d="M6,0l6,11H0Z" transform="translate(-5698.5 -8718) rotate(-90)" fill="#222b89"/>
    <path id="Polígono_14" data-name="Polígono 14" d="M6,0l6,11H0Z" transform="translate(-5507 -8730) rotate(90)" fill="#222b89"/>
    <g id="Grupo_1072526" data-name="Grupo 1072526" transform="translate(0 -1.275)">
      <path id="Trazado_818656" data-name="Trazado 818656" d="M4,15H86.906V29.349H4Z" transform="translate(-5504.623 -8761.81)" fill="#1b3863"/>
      <path id="Trazado_818657" data-name="Trazado 818657" d="M4,36H86.906V50.349H4Z" transform="translate(-5504.623 -8749.328)" fill="#1b3863"/>
      <rect id="Rectángulo_376312" data-name="Rectángulo 376312" width="92" height="25" rx="3" transform="translate(-5505 -8769)" fill="#1f45b2"/>
      <path id="Trazado_818658" data-name="Trazado 818658" d="M28.915,13.377a3.189,3.189,0,1,0,0-6.377H8.189a3.189,3.189,0,0,0,0,6.377Z" transform="translate(-5504.028 -8766.564)" fill="#30c191"/>
      <rect id="Rectángulo_376313" data-name="Rectángulo 376313" width="92" height="26" rx="3" transform="translate(-5505 -8736)" fill="#1f45b2"/>
      <path id="Trazado_818659" data-name="Trazado 818659" d="M28.915,34.377a3.189,3.189,0,0,0,0-6.377H8.189a3.189,3.189,0,0,0,0,6.377Z" transform="translate(-5504.028 -8754.083)" fill="#f4c811"/>
      <rect id="Rectángulo_376314" data-name="Rectángulo 376314" width="92" height="25" rx="3" transform="translate(-5505 -8702)" fill="#1f45b2"/>
      <path id="Trazado_818660" data-name="Trazado 818660" d="M28.915,55.377a3.189,3.189,0,1,0,0-6.377H8.189a3.189,3.189,0,0,0,0,6.377Z" transform="translate(-5504.028 -8741.602)" fill="#de024b"/>
      <g id="Grupo_1072493" data-name="Grupo 1072493" transform="translate(-5507 -8770.725)">
        <path id="Trazado_818661" data-name="Trazado 818661" d="M89.284,0H22.321a1.594,1.594,0,0,0,0,3.189H89.284a3.192,3.192,0,0,1,3.189,3.189V22.321a3.192,3.192,0,0,1-3.189,3.189H6.377a3.192,3.192,0,0,1-3.189-3.189V6.377A3.192,3.192,0,0,1,6.377,3.189h9.566a1.594,1.594,0,0,0,0-3.189H6.377A6.384,6.384,0,0,0,0,6.377V22.321a6.371,6.371,0,0,0,4.783,6.151v5.236A6.371,6.371,0,0,0,0,39.859V55.8a6.371,6.371,0,0,0,4.783,6.151v5.236A6.371,6.371,0,0,0,0,73.34V89.284a6.384,6.384,0,0,0,6.377,6.377H89.284a6.384,6.384,0,0,0,6.377-6.377V73.34a6.369,6.369,0,0,0-4.783-6.151V61.953A6.369,6.369,0,0,0,95.661,55.8V39.859a6.369,6.369,0,0,0-4.783-6.151V28.472a6.369,6.369,0,0,0,4.783-6.151V6.377A6.384,6.384,0,0,0,89.284,0ZM7.972,33.481V28.7H87.689v4.783Zm0,33.481V62.18H87.689v4.783Zm84.5,6.377V89.284a3.192,3.192,0,0,1-3.189,3.189H6.377a3.192,3.192,0,0,1-3.189-3.189V73.34a3.192,3.192,0,0,1,3.189-3.189H89.284A3.192,3.192,0,0,1,92.472,73.34Zm0-33.481V55.8a3.192,3.192,0,0,1-3.189,3.189H6.377A3.192,3.192,0,0,1,3.189,55.8V39.859A3.192,3.192,0,0,1,6.377,36.67H89.284A3.192,3.192,0,0,1,92.472,39.859Z" fill="#161616"/>
        <path id="Trazado_818662" data-name="Trazado 818662" d="M4,10.783a4.789,4.789,0,0,0,4.783,4.783H29.51A4.783,4.783,0,1,0,29.51,6H8.783A4.789,4.789,0,0,0,4,10.783Zm27.1,0a1.6,1.6,0,0,1-1.594,1.594H8.783a1.594,1.594,0,0,1,0-3.189H29.51A1.6,1.6,0,0,1,31.1,10.783Z" transform="translate(2.377 3.566)" fill="#161616"/>
        <path id="Trazado_818663" data-name="Trazado 818663" d="M29.51,27H8.783a4.783,4.783,0,0,0,0,9.566H29.51a4.783,4.783,0,1,0,0-9.566Zm0,6.377H8.783a1.594,1.594,0,0,1,0-3.189H29.51a1.594,1.594,0,0,1,0,3.189Z" transform="translate(2.377 16.048)" fill="#161616"/>
        <path id="Trazado_818664" data-name="Trazado 818664" d="M29.51,48H8.783a4.783,4.783,0,0,0,0,9.566H29.51a4.783,4.783,0,0,0,0-9.566Zm0,6.377H8.783a1.594,1.594,0,0,1,0-3.189H29.51a1.594,1.594,0,0,1,0,3.189Z" transform="translate(2.377 28.529)" fill="#161616"/>
        <path id="Trazado_818665" data-name="Trazado 818665" d="M38.594,9.189h1.594a1.594,1.594,0,1,0,0-3.189H38.594a1.594,1.594,0,1,0,0,3.189Z" transform="translate(21.991 3.566)" fill="#161616"/>
        <path id="Trazado_818666" data-name="Trazado 818666" d="M38.594,13.189h1.594a1.594,1.594,0,1,0,0-3.189H38.594a1.594,1.594,0,1,0,0,3.189Z" transform="translate(21.991 5.944)" fill="#161616"/>
        <path id="Trazado_818667" data-name="Trazado 818667" d="M43.594,9.189h1.594a1.594,1.594,0,1,0,0-3.189H43.594a1.594,1.594,0,1,0,0,3.189Z" transform="translate(24.963 3.566)" fill="#161616"/>
        <path id="Trazado_818668" data-name="Trazado 818668" d="M43.594,13.189h1.594a1.594,1.594,0,1,0,0-3.189H43.594a1.594,1.594,0,1,0,0,3.189Z" transform="translate(24.963 5.944)" fill="#161616"/>
        <path id="Trazado_818669" data-name="Trazado 818669" d="M48.594,9.189h1.594a1.594,1.594,0,1,0,0-3.189H48.594a1.594,1.594,0,1,0,0,3.189Z" transform="translate(27.935 3.566)" fill="#161616"/>
        <path id="Trazado_818670" data-name="Trazado 818670" d="M48.594,13.189h1.594a1.594,1.594,0,1,0,0-3.189H48.594a1.594,1.594,0,1,0,0,3.189Z" transform="translate(27.935 5.944)" fill="#161616"/>
        <path id="Trazado_818671" data-name="Trazado 818671" d="M53.594,9.189h1.594a1.594,1.594,0,1,0,0-3.189H53.594a1.594,1.594,0,1,0,0,3.189Z" transform="translate(30.906 3.566)" fill="#161616"/>
        <path id="Trazado_818672" data-name="Trazado 818672" d="M53.594,13.189h1.594a1.594,1.594,0,0,0,0-3.189H53.594a1.594,1.594,0,0,0,0,3.189Z" transform="translate(30.906 5.944)" fill="#161616"/>
        <path id="Trazado_818673" data-name="Trazado 818673" d="M40.189,27H38.594a1.594,1.594,0,1,0,0,3.189h1.594a1.594,1.594,0,1,0,0-3.189Z" transform="translate(21.991 16.048)" fill="#161616"/>
        <path id="Trazado_818674" data-name="Trazado 818674" d="M40.189,31H38.594a1.594,1.594,0,0,0,0,3.189h1.594a1.594,1.594,0,1,0,0-3.189Z" transform="translate(21.991 18.425)" fill="#161616"/>
        <path id="Trazado_818675" data-name="Trazado 818675" d="M45.189,27H43.594a1.594,1.594,0,1,0,0,3.189h1.594a1.594,1.594,0,1,0,0-3.189Z" transform="translate(24.963 16.048)" fill="#161616"/>
        <path id="Trazado_818676" data-name="Trazado 818676" d="M45.189,31H43.594a1.594,1.594,0,0,0,0,3.189h1.594a1.594,1.594,0,1,0,0-3.189Z" transform="translate(24.963 18.425)" fill="#161616"/>
        <path id="Trazado_818677" data-name="Trazado 818677" d="M50.189,27H48.594a1.594,1.594,0,1,0,0,3.189h1.594a1.594,1.594,0,1,0,0-3.189Z" transform="translate(27.935 16.048)" fill="#161616"/>
        <path id="Trazado_818678" data-name="Trazado 818678" d="M50.189,31H48.594a1.594,1.594,0,0,0,0,3.189h1.594a1.594,1.594,0,1,0,0-3.189Z" transform="translate(27.935 18.425)" fill="#161616"/>
        <path id="Trazado_818679" data-name="Trazado 818679" d="M55.189,27H53.594a1.594,1.594,0,1,0,0,3.189h1.594a1.594,1.594,0,1,0,0-3.189Z" transform="translate(30.906 16.048)" fill="#161616"/>
        <path id="Trazado_818680" data-name="Trazado 818680" d="M55.189,31H53.594a1.594,1.594,0,0,0,0,3.189h1.594a1.594,1.594,0,0,0,0-3.189Z" transform="translate(30.906 18.425)" fill="#161616"/>
        <path id="Trazado_818681" data-name="Trazado 818681" d="M40.189,48H38.594a1.594,1.594,0,0,0,0,3.189h1.594a1.594,1.594,0,1,0,0-3.189Z" transform="translate(21.991 28.529)" fill="#161616"/>
        <path id="Trazado_818682" data-name="Trazado 818682" d="M40.189,52H38.594a1.594,1.594,0,1,0,0,3.189h1.594a1.594,1.594,0,0,0,0-3.189Z" transform="translate(21.991 30.906)" fill="#161616"/>
        <path id="Trazado_818683" data-name="Trazado 818683" d="M45.189,48H43.594a1.594,1.594,0,0,0,0,3.189h1.594a1.594,1.594,0,1,0,0-3.189Z" transform="translate(24.963 28.529)" fill="#161616"/>
        <path id="Trazado_818684" data-name="Trazado 818684" d="M45.189,52H43.594a1.594,1.594,0,1,0,0,3.189h1.594a1.594,1.594,0,0,0,0-3.189Z" transform="translate(24.963 30.906)" fill="#161616"/>
        <path id="Trazado_818685" data-name="Trazado 818685" d="M50.189,48H48.594a1.594,1.594,0,0,0,0,3.189h1.594a1.594,1.594,0,1,0,0-3.189Z" transform="translate(27.935 28.529)" fill="#161616"/>
        <path id="Trazado_818686" data-name="Trazado 818686" d="M50.189,52H48.594a1.594,1.594,0,1,0,0,3.189h1.594a1.594,1.594,0,0,0,0-3.189Z" transform="translate(27.935 30.906)" fill="#161616"/>
        <path id="Trazado_818687" data-name="Trazado 818687" d="M55.189,48H53.594a1.594,1.594,0,0,0,0,3.189h1.594a1.594,1.594,0,0,0,0-3.189Z" transform="translate(30.906 28.529)" fill="#161616"/>
        <path id="Trazado_818688" data-name="Trazado 818688" d="M55.189,52H53.594a1.594,1.594,0,0,0,0,3.189h1.594a1.594,1.594,0,0,0,0-3.189Z" transform="translate(30.906 30.906)" fill="#161616"/>
      </g>
    </g>
    <g id="Page-1" transform="translate(-5794 -8772)">
      <g id="_016---PC-and-Monitor" data-name="016---PC-and-Monitor">
        <path id="Shape" d="M71.079,21.371V61.189H1V21.371A6.371,6.371,0,0,1,7.371,15H64.708A6.371,6.371,0,0,1,71.079,21.371Z" transform="translate(0.593 8.891)" fill="#02a9f4"/>
        <path id="Shape-2" data-name="Shape" d="M71.079,21.371V61.189H1V53.735C44.768,57.493,56.251,27.057,59.07,15h5.638A6.371,6.371,0,0,1,71.079,21.371Z" transform="translate(0.593 8.891)" fill="#0377bc"/>
        <path id="Shape-3" data-name="Shape" d="M71.079,44v1.593a6.371,6.371,0,0,1-6.371,6.371H7.371A6.371,6.371,0,0,1,1,45.593V44Z" transform="translate(0.593 26.079)" fill="#607d8b"/>
        <path id="Shape-4" data-name="Shape" d="M44.371,44v1.593A6.371,6.371,0,0,1,38,51.964h4.778a6.371,6.371,0,0,0,6.371-6.371V44Z" transform="translate(22.523 26.079)" fill="#37474f"/>
        <path id="Rectangle-path" d="M17,49H36.112v9.556H17Z" transform="translate(10.076 29.043)" fill="#607d8b"/>
        <path id="Rectangle-path-2" data-name="Rectangle-path" d="M26,49h4.778v9.556H26Z" transform="translate(15.41 29.043)" fill="#37474f"/>
        <path id="Shape-5" data-name="Shape" d="M49.225,58.185a3.185,3.185,0,0,1-3.185,3.185H14.185a3.185,3.185,0,0,1,0-6.371H46.04A3.185,3.185,0,0,1,49.225,58.185Z" transform="translate(6.52 32.599)" fill="#607d8b"/>
        <path id="Shape-6" data-name="Shape" d="M34.778,55H30a3.185,3.185,0,1,1,0,6.371h4.778a3.185,3.185,0,1,0,0-6.371Z" transform="translate(17.781 32.599)" fill="#37474f"/>
        <path id="Shape-7" data-name="Shape" d="M5.6,27.559a1.593,1.593,0,0,1-1.131-2.724l6.371-6.371A1.6,1.6,0,1,1,13.1,20.726L6.727,27.1A1.593,1.593,0,0,1,5.6,27.559Z" transform="translate(2.367 10.666)" fill="#f5f5f5"/>
        <path id="Shape-8" data-name="Shape" d="M5.6,37.115a1.593,1.593,0,0,1-1.131-2.724L20.392,18.464a1.6,1.6,0,1,1,2.262,2.262L6.727,36.653A1.593,1.593,0,0,1,5.6,37.115Z" transform="translate(2.367 10.666)" fill="#f5f5f5"/>
        <path id="Shape-9" data-name="Shape" d="M76.781,4.185V90.192A3.185,3.185,0,0,1,73.6,93.377H35.371a3.185,3.185,0,1,0,0-6.371H29V77.45H48.112a6.371,6.371,0,0,0,6.371-6.371V29.669A6.371,6.371,0,0,0,48.112,23.3H29V4.185A3.185,3.185,0,0,1,32.185,1H73.6A3.185,3.185,0,0,1,76.781,4.185Z" transform="translate(17.189 0.593)" fill="#3f51b5"/>
        <path id="Shape-10" data-name="Shape" d="M58.778,1H54a3.185,3.185,0,0,1,3.185,3.185V90.192A3.185,3.185,0,0,1,54,93.377h4.778a3.185,3.185,0,0,0,3.185-3.185V4.185A3.185,3.185,0,0,0,58.778,1Z" transform="translate(32.006 0.593)" fill="#283593"/>
        <rect id="Rectangle-path-3" data-name="Rectangle-path" width="35" height="6" rx="1" transform="translate(53 10)" fill="#283593"/>
        <circle id="Oval" cx="3" cy="3" r="3" transform="translate(80 24)" fill="#ffeb3a"/>
        <circle id="Oval-2" data-name="Oval" cx="3" cy="3" r="3" transform="translate(80 37)" fill="#ffeb3a"/>
        <g id="Grupo_1072523" data-name="Grupo 1072523">
          <path id="Shape-11" data-name="Shape" d="M90.784,0H49.374A4.778,4.778,0,0,0,44.6,4.778V22.3H7.964A7.964,7.964,0,0,0,0,30.261v41.41a7.964,7.964,0,0,0,7.964,7.964h17.52v6.371H20.705a4.778,4.778,0,0,0,0,9.556H90.784a4.778,4.778,0,0,0,4.778-4.778V4.778A4.778,4.778,0,0,0,90.784,0ZM7.964,25.483H65.3a4.778,4.778,0,0,1,4.778,4.778V68.486H3.185V30.261A4.778,4.778,0,0,1,7.964,25.483ZM3.185,71.672H70.079A4.778,4.778,0,0,1,65.3,76.45H7.964A4.778,4.778,0,0,1,3.185,71.672Zm25.483,7.964H44.6v6.371H28.669ZM49.374,92.377H20.705a1.593,1.593,0,1,1,0-3.185H52.559a1.593,1.593,0,1,1,0,3.185Zm43-1.593a1.593,1.593,0,0,1-1.593,1.593H57.051a4.778,4.778,0,0,0-4.491-6.371H47.781V79.635H65.3a7.964,7.964,0,0,0,7.964-7.964V30.261A7.964,7.964,0,0,0,65.3,22.3H47.781V4.778a1.593,1.593,0,0,1,1.593-1.593h41.41a1.593,1.593,0,0,1,1.593,1.593Z"/>
          <path id="Shape-12" data-name="Shape" d="M67.04,5H35.185A3.185,3.185,0,0,0,32,8.185v3.185a3.185,3.185,0,0,0,3.185,3.185H67.04a3.185,3.185,0,0,0,3.185-3.185V8.185A3.185,3.185,0,0,0,67.04,5ZM35.185,11.371V8.185H67.04v3.185Z" transform="translate(18.967 2.964)"/>
          <path id="Shape-13" data-name="Shape" d="M53.778,23.556A4.778,4.778,0,1,0,49,18.778,4.778,4.778,0,0,0,53.778,23.556Zm0-6.371a1.593,1.593,0,1,1-1.593,1.593A1.593,1.593,0,0,1,53.778,17.185Z" transform="translate(29.043 8.298)"/>
          <path id="Shape-14" data-name="Shape" d="M58.556,26.778a4.778,4.778,0,1,0-4.778,4.778A4.778,4.778,0,0,0,58.556,26.778Zm-4.778,1.593a1.593,1.593,0,1,1,1.593-1.593A1.593,1.593,0,0,1,53.778,28.371Z" transform="translate(29.043 13.04)"/>
          <path id="Shape-15" data-name="Shape" d="M39.593,52A1.593,1.593,0,0,0,38,53.593v3.185a1.593,1.593,0,0,0,3.185,0V53.593A1.593,1.593,0,0,0,39.593,52Z" transform="translate(22.523 30.821)"/>
          <path id="Shape-16" data-name="Shape" d="M43.593,52A1.593,1.593,0,0,0,42,53.593v3.185a1.593,1.593,0,0,0,3.185,0V53.593A1.593,1.593,0,0,0,43.593,52Z" transform="translate(24.894 30.821)"/>
          <path id="Shape-17" data-name="Shape" d="M47.593,52A1.593,1.593,0,0,0,46,53.593v3.185a1.593,1.593,0,1,0,3.185,0V53.593A1.593,1.593,0,0,0,47.593,52Z" transform="translate(27.265 30.821)"/>
          <path id="Shape-18" data-name="Shape" d="M51.593,52A1.593,1.593,0,0,0,50,53.593v3.185a1.593,1.593,0,0,0,3.185,0V53.593A1.593,1.593,0,0,0,51.593,52Z" transform="translate(29.635 30.821)"/>
          <path id="Shape-19" data-name="Shape" d="M55.593,52A1.593,1.593,0,0,0,54,53.593v3.185a1.593,1.593,0,0,0,3.185,0V53.593A1.593,1.593,0,0,0,55.593,52Z" transform="translate(32.006 30.821)"/>
        </g>
      </g>
    </g>
    <g id="Grupo_1072524" data-name="Grupo 1072524" transform="translate(1327 8)">
      <rect id="Rectángulo_376317" data-name="Rectángulo 376317" width="84" height="22" rx="11" transform="translate(-6967 -8743)" fill="#1425dd"/>
      <text id="Push" transform="translate(-6925 -8727)" fill="#fff" font-size="13" font-family="Roboto-BoldItalic, Roboto" font-weight="700" font-style="italic"><tspan x="-14.492" y="0">Push</tspan></text>
    </g>
  </g>
</svg>
