<svg xmlns="http://www.w3.org/2000/svg" width="505" height="213" viewBox="0 0 505 213">
  <g id="Grupo_1072528" data-name="Grupo 1072528" transform="translate(4581 8843)">
    <g id="Grupo_1072509" data-name="Grupo 1072509" transform="translate(-5334.156 -11882.063)">
      <rect id="Rectángulo_376315" data-name="Rectángulo 376315" width="285" height="40" rx="12" transform="translate(867.156 3039.063)" fill="#dc40ed"/>
      <text id="RESTful" transform="translate(971.156 3042.063)" fill="#fff" font-size="18" font-family="Roboto-BlackItalic, Roboto" font-weight="800" font-style="italic"><tspan x="-32.344" y="19">RESTful</tspan></text>
    </g>
    <rect id="Rectángulo_376026" data-name="Rectángulo 376026" width="505" height="186" rx="23" transform="translate(-4581 -8816)" fill="#fff"/>
    <line id="Línea_433" data-name="Línea 433" x2="213" transform="translate(-4435.5 -8723.225)" fill="none" stroke="#1425dd" stroke-width="2"/>
    <path id="Polígono_13" data-name="Polígono 13" d="M6,0l6,11H0Z" transform="translate(-4424.5 -8717.895) rotate(-90)" fill="#222b89"/>
    <path id="Polígono_14" data-name="Polígono 14" d="M6,0l6,11H0Z" transform="translate(-4233 -8729.895) rotate(90)" fill="#222b89"/>
    <g id="servidor_2_" data-name="servidor (2)" transform="translate(-4233 -8770.725)">
      <path id="Trazado_818656" data-name="Trazado 818656" d="M4,15H86.906V29.349H4Z" transform="translate(2.377 8.915)" fill="#1b3863"/>
      <path id="Trazado_818657" data-name="Trazado 818657" d="M4,36H86.906V50.349H4Z" transform="translate(2.377 21.397)" fill="#1b3863"/>
      <rect id="Rectángulo_376312" data-name="Rectángulo 376312" width="92" height="25" rx="3" transform="translate(2 1.725)" fill="#1f45b2"/>
      <path id="Trazado_818658" data-name="Trazado 818658" d="M28.915,13.377a3.189,3.189,0,1,0,0-6.377H8.189a3.189,3.189,0,0,0,0,6.377Z" transform="translate(2.972 4.16)" fill="#30c191"/>
      <rect id="Rectángulo_376313" data-name="Rectángulo 376313" width="92" height="26" rx="3" transform="translate(2 34.725)" fill="#1f45b2"/>
      <path id="Trazado_818659" data-name="Trazado 818659" d="M28.915,34.377a3.189,3.189,0,0,0,0-6.377H8.189a3.189,3.189,0,0,0,0,6.377Z" transform="translate(2.972 16.642)" fill="#f4c811"/>
      <rect id="Rectángulo_376314" data-name="Rectángulo 376314" width="92" height="25" rx="3" transform="translate(2 68.725)" fill="#1f45b2"/>
      <path id="Trazado_818660" data-name="Trazado 818660" d="M28.915,55.377a3.189,3.189,0,1,0,0-6.377H8.189a3.189,3.189,0,0,0,0,6.377Z" transform="translate(2.972 29.123)" fill="#de024b"/>
      <g id="Grupo_1072493" data-name="Grupo 1072493">
        <path id="Trazado_818661" data-name="Trazado 818661" d="M89.284,0H22.321a1.594,1.594,0,0,0,0,3.189H89.284a3.192,3.192,0,0,1,3.189,3.189V22.321a3.192,3.192,0,0,1-3.189,3.189H6.377a3.192,3.192,0,0,1-3.189-3.189V6.377A3.192,3.192,0,0,1,6.377,3.189h9.566a1.594,1.594,0,0,0,0-3.189H6.377A6.384,6.384,0,0,0,0,6.377V22.321a6.371,6.371,0,0,0,4.783,6.151v5.236A6.371,6.371,0,0,0,0,39.859V55.8a6.371,6.371,0,0,0,4.783,6.151v5.236A6.371,6.371,0,0,0,0,73.34V89.284a6.384,6.384,0,0,0,6.377,6.377H89.284a6.384,6.384,0,0,0,6.377-6.377V73.34a6.369,6.369,0,0,0-4.783-6.151V61.953A6.369,6.369,0,0,0,95.661,55.8V39.859a6.369,6.369,0,0,0-4.783-6.151V28.472a6.369,6.369,0,0,0,4.783-6.151V6.377A6.384,6.384,0,0,0,89.284,0ZM7.972,33.481V28.7H87.689v4.783Zm0,33.481V62.18H87.689v4.783Zm84.5,6.377V89.284a3.192,3.192,0,0,1-3.189,3.189H6.377a3.192,3.192,0,0,1-3.189-3.189V73.34a3.192,3.192,0,0,1,3.189-3.189H89.284A3.192,3.192,0,0,1,92.472,73.34Zm0-33.481V55.8a3.192,3.192,0,0,1-3.189,3.189H6.377A3.192,3.192,0,0,1,3.189,55.8V39.859A3.192,3.192,0,0,1,6.377,36.67H89.284A3.192,3.192,0,0,1,92.472,39.859Z" fill="#161616"/>
        <path id="Trazado_818662" data-name="Trazado 818662" d="M4,10.783a4.789,4.789,0,0,0,4.783,4.783H29.51A4.783,4.783,0,1,0,29.51,6H8.783A4.789,4.789,0,0,0,4,10.783Zm27.1,0a1.6,1.6,0,0,1-1.594,1.594H8.783a1.594,1.594,0,0,1,0-3.189H29.51A1.6,1.6,0,0,1,31.1,10.783Z" transform="translate(2.377 3.566)" fill="#161616"/>
        <path id="Trazado_818663" data-name="Trazado 818663" d="M29.51,27H8.783a4.783,4.783,0,0,0,0,9.566H29.51a4.783,4.783,0,1,0,0-9.566Zm0,6.377H8.783a1.594,1.594,0,0,1,0-3.189H29.51a1.594,1.594,0,0,1,0,3.189Z" transform="translate(2.377 16.048)" fill="#161616"/>
        <path id="Trazado_818664" data-name="Trazado 818664" d="M29.51,48H8.783a4.783,4.783,0,0,0,0,9.566H29.51a4.783,4.783,0,0,0,0-9.566Zm0,6.377H8.783a1.594,1.594,0,0,1,0-3.189H29.51a1.594,1.594,0,0,1,0,3.189Z" transform="translate(2.377 28.529)" fill="#161616"/>
        <path id="Trazado_818665" data-name="Trazado 818665" d="M38.594,9.189h1.594a1.594,1.594,0,1,0,0-3.189H38.594a1.594,1.594,0,1,0,0,3.189Z" transform="translate(21.991 3.566)" fill="#161616"/>
        <path id="Trazado_818666" data-name="Trazado 818666" d="M38.594,13.189h1.594a1.594,1.594,0,1,0,0-3.189H38.594a1.594,1.594,0,1,0,0,3.189Z" transform="translate(21.991 5.944)" fill="#161616"/>
        <path id="Trazado_818667" data-name="Trazado 818667" d="M43.594,9.189h1.594a1.594,1.594,0,1,0,0-3.189H43.594a1.594,1.594,0,1,0,0,3.189Z" transform="translate(24.963 3.566)" fill="#161616"/>
        <path id="Trazado_818668" data-name="Trazado 818668" d="M43.594,13.189h1.594a1.594,1.594,0,1,0,0-3.189H43.594a1.594,1.594,0,1,0,0,3.189Z" transform="translate(24.963 5.944)" fill="#161616"/>
        <path id="Trazado_818669" data-name="Trazado 818669" d="M48.594,9.189h1.594a1.594,1.594,0,1,0,0-3.189H48.594a1.594,1.594,0,1,0,0,3.189Z" transform="translate(27.935 3.566)" fill="#161616"/>
        <path id="Trazado_818670" data-name="Trazado 818670" d="M48.594,13.189h1.594a1.594,1.594,0,1,0,0-3.189H48.594a1.594,1.594,0,1,0,0,3.189Z" transform="translate(27.935 5.944)" fill="#161616"/>
        <path id="Trazado_818671" data-name="Trazado 818671" d="M53.594,9.189h1.594a1.594,1.594,0,1,0,0-3.189H53.594a1.594,1.594,0,1,0,0,3.189Z" transform="translate(30.906 3.566)" fill="#161616"/>
        <path id="Trazado_818672" data-name="Trazado 818672" d="M53.594,13.189h1.594a1.594,1.594,0,0,0,0-3.189H53.594a1.594,1.594,0,0,0,0,3.189Z" transform="translate(30.906 5.944)" fill="#161616"/>
        <path id="Trazado_818673" data-name="Trazado 818673" d="M40.189,27H38.594a1.594,1.594,0,1,0,0,3.189h1.594a1.594,1.594,0,1,0,0-3.189Z" transform="translate(21.991 16.048)" fill="#161616"/>
        <path id="Trazado_818674" data-name="Trazado 818674" d="M40.189,31H38.594a1.594,1.594,0,0,0,0,3.189h1.594a1.594,1.594,0,1,0,0-3.189Z" transform="translate(21.991 18.425)" fill="#161616"/>
        <path id="Trazado_818675" data-name="Trazado 818675" d="M45.189,27H43.594a1.594,1.594,0,1,0,0,3.189h1.594a1.594,1.594,0,1,0,0-3.189Z" transform="translate(24.963 16.048)" fill="#161616"/>
        <path id="Trazado_818676" data-name="Trazado 818676" d="M45.189,31H43.594a1.594,1.594,0,0,0,0,3.189h1.594a1.594,1.594,0,1,0,0-3.189Z" transform="translate(24.963 18.425)" fill="#161616"/>
        <path id="Trazado_818677" data-name="Trazado 818677" d="M50.189,27H48.594a1.594,1.594,0,1,0,0,3.189h1.594a1.594,1.594,0,1,0,0-3.189Z" transform="translate(27.935 16.048)" fill="#161616"/>
        <path id="Trazado_818678" data-name="Trazado 818678" d="M50.189,31H48.594a1.594,1.594,0,0,0,0,3.189h1.594a1.594,1.594,0,1,0,0-3.189Z" transform="translate(27.935 18.425)" fill="#161616"/>
        <path id="Trazado_818679" data-name="Trazado 818679" d="M55.189,27H53.594a1.594,1.594,0,1,0,0,3.189h1.594a1.594,1.594,0,1,0,0-3.189Z" transform="translate(30.906 16.048)" fill="#161616"/>
        <path id="Trazado_818680" data-name="Trazado 818680" d="M55.189,31H53.594a1.594,1.594,0,0,0,0,3.189h1.594a1.594,1.594,0,0,0,0-3.189Z" transform="translate(30.906 18.425)" fill="#161616"/>
        <path id="Trazado_818681" data-name="Trazado 818681" d="M40.189,48H38.594a1.594,1.594,0,0,0,0,3.189h1.594a1.594,1.594,0,1,0,0-3.189Z" transform="translate(21.991 28.529)" fill="#161616"/>
        <path id="Trazado_818682" data-name="Trazado 818682" d="M40.189,52H38.594a1.594,1.594,0,1,0,0,3.189h1.594a1.594,1.594,0,0,0,0-3.189Z" transform="translate(21.991 30.906)" fill="#161616"/>
        <path id="Trazado_818683" data-name="Trazado 818683" d="M45.189,48H43.594a1.594,1.594,0,0,0,0,3.189h1.594a1.594,1.594,0,1,0,0-3.189Z" transform="translate(24.963 28.529)" fill="#161616"/>
        <path id="Trazado_818684" data-name="Trazado 818684" d="M45.189,52H43.594a1.594,1.594,0,1,0,0,3.189h1.594a1.594,1.594,0,0,0,0-3.189Z" transform="translate(24.963 30.906)" fill="#161616"/>
        <path id="Trazado_818685" data-name="Trazado 818685" d="M50.189,48H48.594a1.594,1.594,0,0,0,0,3.189h1.594a1.594,1.594,0,1,0,0-3.189Z" transform="translate(27.935 28.529)" fill="#161616"/>
        <path id="Trazado_818686" data-name="Trazado 818686" d="M50.189,52H48.594a1.594,1.594,0,1,0,0,3.189h1.594a1.594,1.594,0,0,0,0-3.189Z" transform="translate(27.935 30.906)" fill="#161616"/>
        <path id="Trazado_818687" data-name="Trazado 818687" d="M55.189,48H53.594a1.594,1.594,0,0,0,0,3.189h1.594a1.594,1.594,0,0,0,0-3.189Z" transform="translate(30.906 28.529)" fill="#161616"/>
        <path id="Trazado_818688" data-name="Trazado 818688" d="M55.189,52H53.594a1.594,1.594,0,0,0,0,3.189h1.594a1.594,1.594,0,0,0,0-3.189Z" transform="translate(30.906 30.906)" fill="#161616"/>
      </g>
    </g>
    <g id="Grupo_1072525" data-name="Grupo 1072525" transform="translate(135.087 -323.95)">
      <path id="Trazado_818693" data-name="Trazado 818693" d="M81.171,49.521A2.181,2.181,0,0,1,78.99,47.34V19.269l1.454-6.71a2.181,2.181,0,0,1,2.181-2.181l43.321.449c1.2,0,3.192.977,3.192,1.606v31.88c0,1.78-2.159,4.779-3.364,4.779l-1.319.43H81.171Z" transform="translate(-4564.275 -8433.167)" fill="#f9f7f8"/>
      <path id="Trazado_818694" data-name="Trazado 818694" d="M130.019,9.883v6.171l-3.873.464-47.156.014V9.356a2.181,2.181,0,0,1,2.181-2.181h42.894l3.4.151A2.877,2.877,0,0,1,130.019,9.883Z" transform="translate(-4564.275 -8430.43)" fill="#8abbd5"/>
      <path id="Trazado_818695" data-name="Trazado 818695" d="M395.977,62.76l1.781,1.259V92.1a2.181,2.181,0,0,1-2.181,2.181H391.62l.46-.272a2.511,2.511,0,0,0,1.232-2.161V64.019Z" transform="translate(-4831.441 -8477.932)" fill="#efedef"/>
      <path id="Trazado_818696" data-name="Trazado 818696" d="M395.475,9.356v7.161h-4.446V10a2.857,2.857,0,0,0-1.5-2.514l-.581-.314h4.345A2.181,2.181,0,0,1,395.475,9.356Z" transform="translate(-4829.159 -8430.43)" fill="#6cabca"/>
      <path id="Línea_434" data-name="Línea 434" d="M44.284-5.319H-6.409A1.091,1.091,0,0,1-7.5-6.409,1.091,1.091,0,0,1-6.409-7.5H44.284a1.091,1.091,0,0,1,1.091,1.091A1.091,1.091,0,0,1,44.284-5.319Z" transform="translate(-4478.481 -8407.535)"/>
      <path id="Trazado_818707" data-name="Trazado 818707" d="M175.49,146.335a1.087,1.087,0,0,1-.771-.319l-4.459-4.459a1.091,1.091,0,0,1,0-1.542l4.459-4.459a1.091,1.091,0,0,1,1.542,1.542l-3.687,3.688,3.687,3.687a1.091,1.091,0,0,1-.771,1.862Z" transform="translate(-4642 -8539.868)"/>
      <path id="Trazado_818708" data-name="Trazado 818708" d="M297.491,146.335a1.091,1.091,0,0,1-.771-1.862l3.687-3.687-3.687-3.687a1.091,1.091,0,0,1,1.542-1.542l4.459,4.459a1.091,1.091,0,0,1,0,1.542l-4.459,4.459A1.087,1.087,0,0,1,297.491,146.335Z" transform="translate(-4750.068 -8539.868)"/>
      <path id="Línea_438" data-name="Línea 438" d="M-6.411,5.786a1.088,1.088,0,0,1-.37-.065,1.091,1.091,0,0,1-.655-1.4l4.01-11.106a1.091,1.091,0,0,1,1.4-.655,1.091,1.091,0,0,1,.655,1.4L-5.385,5.065A1.091,1.091,0,0,1-6.411,5.786Z" transform="translate(-4455.138 -8398.224)"/>
      <path id="Rectángulo_376317" data-name="Rectángulo 376317" d="M2.763,2.181a.582.582,0,0,0-.582.582V40.137a.582.582,0,0,0,.582.582h49.3a.582.582,0,0,0,.582-.582V2.763a.582.582,0,0,0-.582-.582H2.763M2.763,0h49.3a2.763,2.763,0,0,1,2.763,2.763V40.137A2.763,2.763,0,0,1,52.062,42.9H2.763A2.763,2.763,0,0,1,0,40.137V2.763A2.763,2.763,0,0,1,2.763,0Z" transform="translate(-4487 -8425)"/>
      <ellipse id="Elipse_9676" data-name="Elipse 9676" cx="1" cy="0.5" rx="1" ry="0.5" transform="translate(-4481.087 -8419.05)"/>
      <ellipse id="Elipse_9677" data-name="Elipse 9677" cx="1" cy="0.5" rx="1" ry="0.5" transform="translate(-4478.087 -8419.05)"/>
      <ellipse id="Elipse_9678" data-name="Elipse 9678" cx="1" cy="0.5" rx="1" ry="0.5" transform="translate(-4475.087 -8419.05)"/>
    </g>
    <g id="_016---PC-and-Monitor" data-name="016---PC-and-Monitor" transform="translate(-4519 -8772.563)">
      <path id="Shape" d="M71.079,21.371V61.189H1V21.371A6.371,6.371,0,0,1,7.371,15H64.708A6.371,6.371,0,0,1,71.079,21.371Z" transform="translate(0.593 8.891)" fill="#02a9f4"/>
      <path id="Shape-2" data-name="Shape" d="M71.079,21.371V61.189H1V53.735C44.768,57.493,56.251,27.057,59.07,15h5.638A6.371,6.371,0,0,1,71.079,21.371Z" transform="translate(0.593 8.891)" fill="#0377bc"/>
      <path id="Shape-3" data-name="Shape" d="M71.079,44v1.593a6.371,6.371,0,0,1-6.371,6.371H7.371A6.371,6.371,0,0,1,1,45.593V44Z" transform="translate(0.593 26.079)" fill="#607d8b"/>
      <path id="Shape-4" data-name="Shape" d="M44.371,44v1.593A6.371,6.371,0,0,1,38,51.964h4.778a6.371,6.371,0,0,0,6.371-6.371V44Z" transform="translate(22.523 26.079)" fill="#37474f"/>
      <path id="Rectangle-path" d="M17,49H36.112v9.556H17Z" transform="translate(10.076 29.043)" fill="#607d8b"/>
      <path id="Rectangle-path-2" data-name="Rectangle-path" d="M26,49h4.778v9.556H26Z" transform="translate(15.41 29.043)" fill="#37474f"/>
      <path id="Shape-5" data-name="Shape" d="M49.225,58.185a3.185,3.185,0,0,1-3.185,3.185H14.185a3.185,3.185,0,0,1,0-6.371H46.04A3.185,3.185,0,0,1,49.225,58.185Z" transform="translate(6.52 32.599)" fill="#607d8b"/>
      <path id="Shape-6" data-name="Shape" d="M34.778,55H30a3.185,3.185,0,1,1,0,6.371h4.778a3.185,3.185,0,1,0,0-6.371Z" transform="translate(17.781 32.599)" fill="#37474f"/>
      <path id="Shape-7" data-name="Shape" d="M5.6,27.559a1.593,1.593,0,0,1-1.131-2.724l6.371-6.371A1.6,1.6,0,1,1,13.1,20.726L6.727,27.1A1.593,1.593,0,0,1,5.6,27.559Z" transform="translate(2.367 10.666)" fill="#f5f5f5"/>
      <path id="Shape-8" data-name="Shape" d="M5.6,37.115a1.593,1.593,0,0,1-1.131-2.724L20.392,18.464a1.6,1.6,0,1,1,2.262,2.262L6.727,36.653A1.593,1.593,0,0,1,5.6,37.115Z" transform="translate(2.367 10.666)" fill="#f5f5f5"/>
      <path id="Shape-9" data-name="Shape" d="M76.781,4.185V90.192A3.185,3.185,0,0,1,73.6,93.377H35.371a3.185,3.185,0,1,0,0-6.371H29V77.45H48.112a6.371,6.371,0,0,0,6.371-6.371V29.669A6.371,6.371,0,0,0,48.112,23.3H29V4.185A3.185,3.185,0,0,1,32.185,1H73.6A3.185,3.185,0,0,1,76.781,4.185Z" transform="translate(17.189 0.593)" fill="#3f51b5"/>
      <path id="Shape-10" data-name="Shape" d="M58.778,1H54a3.185,3.185,0,0,1,3.185,3.185V90.192A3.185,3.185,0,0,1,54,93.377h4.778a3.185,3.185,0,0,0,3.185-3.185V4.185A3.185,3.185,0,0,0,58.778,1Z" transform="translate(32.006 0.593)" fill="#283593"/>
      <rect id="Rectangle-path-3" data-name="Rectangle-path" width="35" height="6" rx="1" transform="translate(53 10)" fill="#283593"/>
      <circle id="Oval" cx="3" cy="3" r="3" transform="translate(80 24)" fill="#ffeb3a"/>
      <circle id="Oval-2" data-name="Oval" cx="3" cy="3" r="3" transform="translate(80 37)" fill="#ffeb3a"/>
      <g id="Grupo_1072523" data-name="Grupo 1072523">
        <path id="Shape-11" data-name="Shape" d="M90.784,0H49.374A4.778,4.778,0,0,0,44.6,4.778V22.3H7.964A7.964,7.964,0,0,0,0,30.261v41.41a7.964,7.964,0,0,0,7.964,7.964h17.52v6.371H20.705a4.778,4.778,0,0,0,0,9.556H90.784a4.778,4.778,0,0,0,4.778-4.778V4.778A4.778,4.778,0,0,0,90.784,0ZM7.964,25.483H65.3a4.778,4.778,0,0,1,4.778,4.778V68.486H3.185V30.261A4.778,4.778,0,0,1,7.964,25.483ZM3.185,71.672H70.079A4.778,4.778,0,0,1,65.3,76.45H7.964A4.778,4.778,0,0,1,3.185,71.672Zm25.483,7.964H44.6v6.371H28.669ZM49.374,92.377H20.705a1.593,1.593,0,1,1,0-3.185H52.559a1.593,1.593,0,1,1,0,3.185Zm43-1.593a1.593,1.593,0,0,1-1.593,1.593H57.051a4.778,4.778,0,0,0-4.491-6.371H47.781V79.635H65.3a7.964,7.964,0,0,0,7.964-7.964V30.261A7.964,7.964,0,0,0,65.3,22.3H47.781V4.778a1.593,1.593,0,0,1,1.593-1.593h41.41a1.593,1.593,0,0,1,1.593,1.593Z"/>
        <path id="Shape-12" data-name="Shape" d="M67.04,5H35.185A3.185,3.185,0,0,0,32,8.185v3.185a3.185,3.185,0,0,0,3.185,3.185H67.04a3.185,3.185,0,0,0,3.185-3.185V8.185A3.185,3.185,0,0,0,67.04,5ZM35.185,11.371V8.185H67.04v3.185Z" transform="translate(18.967 2.964)"/>
        <path id="Shape-13" data-name="Shape" d="M53.778,23.556A4.778,4.778,0,1,0,49,18.778,4.778,4.778,0,0,0,53.778,23.556Zm0-6.371a1.593,1.593,0,1,1-1.593,1.593A1.593,1.593,0,0,1,53.778,17.185Z" transform="translate(29.043 8.298)"/>
        <path id="Shape-14" data-name="Shape" d="M58.556,26.778a4.778,4.778,0,1,0-4.778,4.778A4.778,4.778,0,0,0,58.556,26.778Zm-4.778,1.593a1.593,1.593,0,1,1,1.593-1.593A1.593,1.593,0,0,1,53.778,28.371Z" transform="translate(29.043 13.04)"/>
        <path id="Shape-15" data-name="Shape" d="M39.593,52A1.593,1.593,0,0,0,38,53.593v3.185a1.593,1.593,0,0,0,3.185,0V53.593A1.593,1.593,0,0,0,39.593,52Z" transform="translate(22.523 30.821)"/>
        <path id="Shape-16" data-name="Shape" d="M43.593,52A1.593,1.593,0,0,0,42,53.593v3.185a1.593,1.593,0,0,0,3.185,0V53.593A1.593,1.593,0,0,0,43.593,52Z" transform="translate(24.894 30.821)"/>
        <path id="Shape-17" data-name="Shape" d="M47.593,52A1.593,1.593,0,0,0,46,53.593v3.185a1.593,1.593,0,1,0,3.185,0V53.593A1.593,1.593,0,0,0,47.593,52Z" transform="translate(27.265 30.821)"/>
        <path id="Shape-18" data-name="Shape" d="M51.593,52A1.593,1.593,0,0,0,50,53.593v3.185a1.593,1.593,0,0,0,3.185,0V53.593A1.593,1.593,0,0,0,51.593,52Z" transform="translate(29.635 30.821)"/>
        <path id="Shape-19" data-name="Shape" d="M55.593,52A1.593,1.593,0,0,0,54,53.593v3.185a1.593,1.593,0,0,0,3.185,0V53.593A1.593,1.593,0,0,0,55.593,52Z" transform="translate(32.006 30.821)"/>
      </g>
    </g>
  </g>
</svg>
