<svg xmlns="http://www.w3.org/2000/svg" xmlns:xlink="http://www.w3.org/1999/xlink" width="85" height="85" viewBox="0 0 85 85">
  <defs>
    <clipPath id="clip-path">
      <path id="path225" d="M0-682.665H66.977v66.977H0Z" transform="translate(0 682.665)"/>
    </clipPath>
  </defs>
  <g id="Grupo_1072570" data-name="Grupo 1072570" transform="translate(-180.156 -2347)">
    <circle id="Elipse_9685" data-name="Elipse 9685" cx="42.5" cy="42.5" r="42.5" transform="translate(180.156 2347)" fill="#dc40ed"/>
    <g id="g219" transform="translate(189.168 3038.676)">
      <g id="g221" transform="translate(0 -682.665)">
        <g id="g223" clip-path="url(#clip-path)">
          <g id="g229" transform="translate(0.981 39.99)">
            <path id="path231" d="M-101.492-119.53a1.968,1.968,0,0,0,1.962-1.962,1.968,1.968,0,0,0,1.962,1.962,1.968,1.968,0,0,0-1.962,1.962,1.968,1.968,0,0,0-1.962-1.962m-9.079-13a1.968,1.968,0,0,0-1.962,1.962v9.079a1.968,1.968,0,0,0,1.962,1.962,1.968,1.968,0,0,0-1.962,1.962v9.079a1.968,1.968,0,0,0,1.962,1.962h9.079a1.968,1.968,0,0,0,1.962-1.962,1.968,1.968,0,0,0,1.962,1.962h9.079a1.968,1.968,0,0,0,1.962-1.962v-9.079a1.968,1.968,0,0,0-1.962-1.962,1.968,1.968,0,0,0,1.962-1.962v-9.079a1.968,1.968,0,0,0-1.962-1.962h-9.079a1.968,1.968,0,0,0-1.962,1.962,1.968,1.968,0,0,0-1.962-1.962Z" transform="translate(112.533 132.533)" fill="#feef8f" fill-rule="evenodd"/>
          </g>
          <g id="g233" transform="translate(26.987 39.99)">
            <path id="path235" d="M-239.06-18.038v9.079A1.968,1.968,0,0,0-237.1-7a1.968,1.968,0,0,0-1.962,1.962A1.968,1.968,0,0,0-241.022-7H-250.1a1.968,1.968,0,0,0-1.962,1.962A1.968,1.968,0,0,0-254.025-7H-263.1a1.968,1.968,0,0,0-1.962,1.962V4.044A1.968,1.968,0,0,0-263.1,6.006h9.079a1.968,1.968,0,0,0,1.962-1.962A1.968,1.968,0,0,0-250.1,6.006h9.079a1.968,1.968,0,0,0,1.962-1.962A1.968,1.968,0,0,0-237.1,6.006h9.079a1.968,1.968,0,0,0,1.962-1.962V-5.035A1.968,1.968,0,0,0-228.019-7a1.968,1.968,0,0,0,1.962-1.962v-9.079A1.968,1.968,0,0,0-228.019-20H-237.1a1.968,1.968,0,0,0-1.962,1.962" transform="translate(265.066 20)" fill="#ff5b5b" fill-rule="evenodd"/>
          </g>
          <g id="g237" transform="translate(39.99 13.984)">
            <path id="path239" d="M-119.53-18.038v9.079A1.968,1.968,0,0,0-117.568-7a1.968,1.968,0,0,0-1.962,1.962A1.968,1.968,0,0,0-121.492-7h-9.079a1.968,1.968,0,0,0-1.962,1.962V4.044a1.968,1.968,0,0,0,1.962,1.962,1.968,1.968,0,0,0-1.962,1.962v9.079a1.968,1.968,0,0,0,1.962,1.962h9.079a1.968,1.968,0,0,0,1.962-1.962V7.968a1.968,1.968,0,0,0-1.962-1.962,1.968,1.968,0,0,0,1.962-1.962,1.968,1.968,0,0,0,1.962,1.962h9.079a1.968,1.968,0,0,0,1.962-1.962V-5.035A1.968,1.968,0,0,0-108.489-7a1.968,1.968,0,0,0,1.962-1.962v-9.079A1.968,1.968,0,0,0-108.489-20h-9.079a1.968,1.968,0,0,0-1.962,1.962" transform="translate(132.533 20)" fill="#8ad8f6" fill-rule="evenodd"/>
          </g>
          <g id="g241" transform="translate(0.981 0.981)">
            <path id="path243" d="M-239.06-18.038A1.968,1.968,0,0,1-237.1-20h9.079a1.968,1.968,0,0,1,1.962,1.962v9.079A1.968,1.968,0,0,1-228.019-7H-237.1a1.968,1.968,0,0,1-1.962-1.962A1.968,1.968,0,0,1-241.022-7a1.968,1.968,0,0,1,1.962,1.962V4.044a1.968,1.968,0,0,1-1.962,1.962H-250.1a1.968,1.968,0,0,1-1.962-1.962V-5.035A1.968,1.968,0,0,1-250.1-7a1.968,1.968,0,0,1-1.962-1.962A1.968,1.968,0,0,1-254.025-7H-263.1a1.968,1.968,0,0,1-1.962-1.962v-9.079A1.968,1.968,0,0,1-263.1-20h9.079a1.968,1.968,0,0,1,1.962,1.962A1.968,1.968,0,0,1-250.1-20h9.079a1.968,1.968,0,0,1,1.962,1.962" transform="translate(265.066 20)" fill="#00dec1" fill-rule="evenodd"/>
          </g>
          <g id="g245" transform="translate(0.981 39.99)">
            <path id="path247" d="M-18.038,0A1.968,1.968,0,0,0-20,1.962v9.079A1.968,1.968,0,0,0-18.038,13,1.968,1.968,0,0,0-20,14.965v9.079a1.968,1.968,0,0,0,1.962,1.962h2.943a1.968,1.968,0,0,1-1.962-1.962V14.965A1.968,1.968,0,0,1-15.094,13a1.968,1.968,0,0,1-1.962-1.962V1.962A1.968,1.968,0,0,1-15.094,0Z" transform="translate(20)" fill="#ffbe81" fill-rule="evenodd"/>
          </g>
          <g id="g249" transform="translate(0.981 0.981)">
            <path id="path251" d="M-18.038-119.53A1.968,1.968,0,0,1-20-121.492v-9.079a1.968,1.968,0,0,1,1.962-1.962h2.943a1.968,1.968,0,0,0-1.962,1.962v9.079a1.968,1.968,0,0,0,1.962,1.962Zm13,13A1.968,1.968,0,0,1-7-108.489v-9.079a1.968,1.968,0,0,1,1.962-1.962h2.943a1.968,1.968,0,0,0-1.962,1.962v9.079a1.968,1.968,0,0,0,1.962,1.962Z" transform="translate(20 132.533)" fill="#00969c" fill-rule="evenodd"/>
          </g>
          <g id="g253" transform="translate(26.987 39.99)">
            <path id="path255" d="M-257.1,0a1.968,1.968,0,0,0-1.962,1.962v9.079A1.968,1.968,0,0,0-257.1,13h2.943a1.968,1.968,0,0,1-1.962-1.962V1.962A1.968,1.968,0,0,1-254.153,0ZM-283.1,13a1.968,1.968,0,0,0-1.962,1.962v9.079a1.968,1.968,0,0,0,1.962,1.962h2.943a1.968,1.968,0,0,1-1.962-1.962V14.965A1.968,1.968,0,0,1-280.159,13Z" transform="translate(285.065)" fill="#cb2e43" fill-rule="evenodd"/>
          </g>
          <g id="g257" transform="translate(39.99 13.984)">
            <path id="path259" d="M-137.568,0a1.968,1.968,0,0,0-1.962,1.962v9.079A1.968,1.968,0,0,0-137.568,13h2.943a1.968,1.968,0,0,1-1.962-1.962V1.962A1.968,1.968,0,0,1-134.624,0Zm-13,26.006a1.968,1.968,0,0,0-1.962,1.962v9.079a1.968,1.968,0,0,0,1.962,1.962h2.943a1.968,1.968,0,0,1-1.962-1.962V27.968a1.968,1.968,0,0,1,1.962-1.962,1.968,1.968,0,0,1-1.962-1.962V14.965A1.968,1.968,0,0,1-147.627,13h-2.943a1.968,1.968,0,0,0-1.962,1.962v9.079a1.968,1.968,0,0,0,1.962,1.962" transform="translate(152.533)" fill="#5b92f2" fill-rule="evenodd"/>
          </g>
          <g id="g261" transform="translate(61.091 16.927)">
            <path id="path263" d="M257.027,114.494h-1.962v-1.962h1.962Z" transform="translate(-255.065 -112.532)" fill="#fff"/>
          </g>
          <g id="g265" transform="translate(13.003 0)">
            <path id="path267" d="M-17.978-127.568v-1.962a.982.982,0,0,0,.981-.981v-9.079a.982.982,0,0,0-.981-.981h-9.079a.982.982,0,0,0-.981.981v9.079a.982.982,0,0,0,.981.981v1.962A2.947,2.947,0,0,1-30-130.511v-9.079a2.947,2.947,0,0,1,2.943-2.943h9.079a2.947,2.947,0,0,1,2.943,2.943v9.079A2.947,2.947,0,0,1-17.978-127.568Z" transform="translate(30 142.533)"/>
          </g>
          <g id="g269" transform="translate(0 0)">
            <path id="path271" d="M2.022-51.3H-7.057A2.947,2.947,0,0,1-10-54.245V-57.8h1.962v3.558a.982.982,0,0,0,.981.981H2.022A.982.982,0,0,0,3-54.245H4.965A2.947,2.947,0,0,1,2.022-51.3ZM4.965-62.342H-10v-.981a2.947,2.947,0,0,1,2.943-2.943H2.022a2.947,2.947,0,0,1,2.943,2.943ZM-7.057-64.3h0Z" transform="translate(10 66.266)"/>
          </g>
          <g id="g273" transform="translate(26.006 0)">
            <path id="path275" d="M-27.057-10h9.079a2.947,2.947,0,0,1,2.943,2.943V2.022a2.947,2.947,0,0,1-2.943,2.943h-9.079A2.947,2.947,0,0,1-30,2.022V-7.057A2.947,2.947,0,0,1-27.057-10Zm9.079,13A.982.982,0,0,0-17,2.022V-7.057a.982.982,0,0,0-.981-.981h-9.079a.982.982,0,0,0-.981.981V2.022A.982.982,0,0,0-27.057,3Z" transform="translate(30 10)"/>
          </g>
          <g id="g277" transform="translate(13.003 13.003)">
            <path id="path279" d="M-7.057-30H2.022a2.947,2.947,0,0,1,2.943,2.943v9.079a2.947,2.947,0,0,1-2.943,2.943H-7.057A2.947,2.947,0,0,1-10-17.978v-9.079A2.947,2.947,0,0,1-7.057-30ZM2.022-17A.982.982,0,0,0,3-17.978v-9.079a.982.982,0,0,0-.981-.981H-7.057a.982.982,0,0,0-.981.981v9.079A.982.982,0,0,0-7.057-17Z" transform="translate(10 30)"/>
          </g>
          <g id="g281" transform="translate(0 52.012)">
            <path id="path283" d="M-130.511-107.568h-9.079a2.947,2.947,0,0,1-2.943-2.943v-9.079a2.947,2.947,0,0,1,2.943-2.943h9.079a2.947,2.947,0,0,1,2.943,2.943h-1.962a.982.982,0,0,0-.981-.981h-9.079a.982.982,0,0,0-.981.981v9.079a.982.982,0,0,0,.981.981h9.079a.982.982,0,0,0,.981-.981h1.962A2.947,2.947,0,0,1-130.511-107.568Z" transform="translate(142.533 122.533)"/>
          </g>
          <g id="g285" transform="translate(13.003 52.012)">
            <path id="path287" d="M-27.057-10h9.079a2.947,2.947,0,0,1,2.943,2.943V2.022a2.947,2.947,0,0,1-2.943,2.943h-9.079A2.947,2.947,0,0,1-30,2.022V-7.057A2.947,2.947,0,0,1-27.057-10Zm9.079,13A.982.982,0,0,0-17,2.022V-7.057a.982.982,0,0,0-.981-.981h-9.079a.982.982,0,0,0-.981.981V2.022A.982.982,0,0,0-27.057,3Z" transform="translate(30 10)"/>
          </g>
          <g id="g289" transform="translate(26.006 52.012)">
            <path id="path291" d="M2.022-15.035H-7.057A2.947,2.947,0,0,1-10-17.978h1.962A.982.982,0,0,0-7.057-17H2.022A.982.982,0,0,0,3-17.978v-9.079a.982.982,0,0,0-.981-.981H-7.057a.982.982,0,0,0-.981.981H-10A2.947,2.947,0,0,1-7.057-30H2.022a2.947,2.947,0,0,1,2.943,2.943v9.079A2.947,2.947,0,0,1,2.022-15.035Z" transform="translate(10 30)"/>
          </g>
          <g id="g293" transform="translate(39.009 52.012)">
            <path id="path295" d="M2.022-15.035H-7.057A2.947,2.947,0,0,1-10-17.978h1.962A.982.982,0,0,0-7.057-17H2.022A.982.982,0,0,0,3-17.978v-9.079a.982.982,0,0,0-.981-.981H-7.057a.982.982,0,0,0-.981.981H-10A2.947,2.947,0,0,1-7.057-30H2.022a2.947,2.947,0,0,1,2.943,2.943v9.079A2.947,2.947,0,0,1,2.022-15.035Z" transform="translate(10 30)"/>
          </g>
          <g id="g297" transform="translate(52.012 52.012)">
            <path id="path299" d="M-34.245-127.568h-1.6v-1.962h1.6a.982.982,0,0,0,.981-.981v-9.079a.982.982,0,0,0-.981-.981h-9.079a.982.982,0,0,0-.981.981h-1.962a2.947,2.947,0,0,1,2.943-2.943h9.079A2.947,2.947,0,0,1-31.3-139.59v9.079A2.947,2.947,0,0,1-34.245-127.568Zm-6.71,0h-2.369a2.947,2.947,0,0,1-2.943-2.943v-2.369Z" transform="translate(46.267 142.533)"/>
          </g>
          <g id="g301" transform="translate(52.012 39.009)">
            <path id="path303" d="M2.022-15.035H1.589l-.292-.32C-9.421-27.121-8.9-28.3-8.518-29.166A1.457,1.457,0,0,1-7.057-30H2.022a2.947,2.947,0,0,1,2.943,2.943v9.079A2.947,2.947,0,0,1,2.022-15.035Zm-8.513-13c.515,1.044,2.377,3.8,8.882,10.969A.983.983,0,0,0,3-17.978v-9.079a.982.982,0,0,0-.981-.981Zm-.565,13A2.947,2.947,0,0,1-10-17.978h1.962A.982.982,0,0,0-7.057-17Z" transform="translate(10 30)"/>
          </g>
          <g id="g305" transform="translate(13.003 39.009)">
            <path id="path307" d="M-17.978-127.568v-1.962a.982.982,0,0,0,.981-.981v-9.079a.982.982,0,0,0-.981-.981h-9.079a.982.982,0,0,0-.981.981v9.079a.982.982,0,0,0,.981.981v1.962A2.947,2.947,0,0,1-30-130.511v-9.079a2.947,2.947,0,0,1,2.943-2.943h9.079a2.947,2.947,0,0,1,2.943,2.943v9.079A2.947,2.947,0,0,1-17.978-127.568Z" transform="translate(30 142.533)"/>
          </g>
          <g id="g309" transform="translate(52.012 26.006)">
            <path id="path311" d="M-17.978-127.568v-1.962a.982.982,0,0,0,.981-.981v-9.079a.982.982,0,0,0-.981-.981h-9.079a.982.982,0,0,0-.981.981v9.079a.982.982,0,0,0,.981.981v1.962A2.947,2.947,0,0,1-30-130.511v-9.079a2.947,2.947,0,0,1,2.943-2.943h9.079a2.947,2.947,0,0,1,2.943,2.943v9.079A2.947,2.947,0,0,1-17.978-127.568Z" transform="translate(30 142.533)"/>
          </g>
          <g id="g313" transform="translate(52.012 13.003)">
            <path id="path315" d="M-17.978-127.568v-1.962a.982.982,0,0,0,.981-.981v-9.079a.982.982,0,0,0-.981-.981h-9.079a.982.982,0,0,0-.981.981v9.079a.982.982,0,0,0,.981.981v1.962A2.947,2.947,0,0,1-30-130.511v-9.079a2.947,2.947,0,0,1,2.943-2.943h9.079a2.947,2.947,0,0,1,2.943,2.943v9.079A2.947,2.947,0,0,1-17.978-127.568Z" transform="translate(30 142.533)"/>
          </g>
          <g id="g317" transform="translate(39.009 39.009)">
            <path id="path319" d="M-17.978-127.568v-1.962a.982.982,0,0,0,.981-.981v-9.079a.982.982,0,0,0-.981-.981h-9.079a.982.982,0,0,0-.981.981v9.079a.982.982,0,0,0,.981.981v1.962A2.947,2.947,0,0,1-30-130.511v-9.079a2.947,2.947,0,0,1,2.943-2.943h9.079a2.947,2.947,0,0,1,2.943,2.943v9.079A2.947,2.947,0,0,1-17.978-127.568Z" transform="translate(30 142.533)"/>
          </g>
          <g id="g321" transform="translate(39.009 26.006)">
            <path id="path323" d="M-130.511-107.589h-4.672l4.277-1.879c1.007-.442,1.706-.694,2.237-.178l.474.46-.246.633C-128.76-107.765-130.075-107.589-130.511-107.589Zm-9.079,0a2.936,2.936,0,0,1-2.943-2.923v-9.079a2.947,2.947,0,0,1,2.943-2.943h9.079a2.947,2.947,0,0,1,2.943,2.943h-1.962a.982.982,0,0,0-.981-.981h-9.079a.982.982,0,0,0-.981.981v9.079a.972.972,0,0,0,.981.96Z" transform="translate(142.533 122.533)"/>
          </g>
          <g id="g325" transform="translate(0 39.009)">
            <path id="path327" d="M-17.978-127.568v-1.962a.982.982,0,0,0,.981-.981h1.962A2.947,2.947,0,0,1-17.978-127.568ZM-28.545-128.9a1.413,1.413,0,0,1-.621-.155A1.457,1.457,0,0,1-30-130.511v-9.079a2.947,2.947,0,0,1,2.943-2.943h9.079a2.947,2.947,0,0,1,2.943,2.943v.433l-.32.292C-24.816-130.245-27.434-128.9-28.545-128.9Zm1.489-11.676a.982.982,0,0,0-.981.981v8.513c1.044-.515,3.8-2.377,10.969-8.882a.983.983,0,0,0-.909-.613Z" transform="translate(30 142.533)"/>
          </g>
        </g>
      </g>
    </g>
  </g>
</svg>
