<svg xmlns="http://www.w3.org/2000/svg" xmlns:xlink="http://www.w3.org/1999/xlink" width="1135" height="200" viewBox="0 0 1135 200">
  <defs>
    <clipPath id="clip-path">
      <rect id="Rectángulo_376357" data-name="Rectángulo 376357" width="1135" height="200" rx="9" transform="translate(233 6104)" fill="#adb3f3"/>
    </clipPath>
    <filter id="Elipse_9703" x="1023.656" y="-97.5" width="197" height="197" filterUnits="userSpaceOnUse">
      <feOffset dy="1" input="SourceAlpha"/>
      <feGaussianBlur stdDeviation="5.5" result="blur"/>
      <feFlood flood-color="#fff" flood-opacity="0.902"/>
      <feComposite operator="in" in2="blur"/>
      <feComposite in="SourceGraphic"/>
    </filter>
    <filter id="Elipse_9704" x="529.656" y="81.5" width="161" height="161" filterUnits="userSpaceOnUse">
      <feOffset dy="1" input="SourceAlpha"/>
      <feGaussianBlur stdDeviation="5.5" result="blur-2"/>
      <feFlood flood-color="#fff" flood-opacity="0.902"/>
      <feComposite operator="in" in2="blur-2"/>
      <feComposite in="SourceGraphic"/>
    </filter>
    <clipPath id="clip-path-2">
      <rect id="Rectángulo_376346" data-name="Rectángulo 376346" width="468.871" height="305.894" fill="none"/>
    </clipPath>
    <clipPath id="clip-path-3">
      <rect id="Rectángulo_376353" data-name="Rectángulo 376353" width="198.49" height="557" fill="none"/>
    </clipPath>
    <clipPath id="clip-path-5">
      <path id="Trazado_818840" data-name="Trazado 818840" d="M68.5,45.586a7.431,7.431,0,0,1-4.739,1.235c-1.476-.118-3.622-.518-4.708.944-1.608,2.165-2.595,11.487,9.792,10.646,13.1-.892,12.935-12.357,7.974-14.441a6.238,6.238,0,0,0-2.437-.481,11.074,11.074,0,0,0-5.882,2.1" transform="translate(-58.119 -43.489)" fill="none"/>
    </clipPath>
    <clipPath id="clip-path-7">
      <rect id="Rectángulo_376350" data-name="Rectángulo 376350" width="39.589" height="44.53" fill="none"/>
    </clipPath>
    <clipPath id="clip-path-8">
      <rect id="Rectángulo_376351" data-name="Rectángulo 376351" width="45.99" height="42.112" fill="none"/>
    </clipPath>
    <clipPath id="clip-path-9">
      <rect id="Rectángulo_376356" data-name="Rectángulo 376356" width="307.171" height="214.415" fill="none"/>
    </clipPath>
    <filter id="Elipse_9705" x="111.656" y="95.5" width="106" height="106" filterUnits="userSpaceOnUse">
      <feOffset dy="1" input="SourceAlpha"/>
      <feGaussianBlur stdDeviation="5.5" result="blur-3"/>
      <feFlood flood-color="#fff" flood-opacity="0.902"/>
      <feComposite operator="in" in2="blur-3"/>
      <feComposite in="SourceGraphic"/>
    </filter>
  </defs>
  <g id="Enmascarar_grupo_1044168" data-name="Enmascarar grupo 1044168" transform="translate(-233 -6104)" clip-path="url(#clip-path)">
    <rect id="Rectángulo_376344" data-name="Rectángulo 376344" width="1135" height="183" transform="translate(233.156 6121)" fill="#222b89"/>
    <path id="Trazado_818807" data-name="Trazado 818807" d="M-8121.453-5419.49s-26.244-119.354-122.5-143.286S-8446.2-5427.245-8639.5-5427.245s-244.9-110.422-377.65-135.531c-237.057-44.837-252.469,68.113-316.009,108.293" transform="translate(9506.482 11723.49)" fill="none" stroke="#fff" stroke-linecap="round" stroke-width="1" stroke-dasharray="16 22"/>
    <path id="Trazado_818808" data-name="Trazado 818808" d="M67.937,42.461H38.852L65.815,0H31.846L0,63.692H25.052L0,123.137Z" transform="translate(1267.618 6231.881) rotate(-1)" fill="#dc40ed"/>
    <path id="Trazado_818809" data-name="Trazado 818809" d="M67.937,42.461H38.852L65.815,0H31.846L0,63.692H25.052L0,123.137Z" transform="translate(396.618 6072.498) rotate(-1)" fill="#dc40ed"/>
    <path id="Trazado_818810" data-name="Trazado 818810" d="M7.418,0,0,6.61c4.933,9.537,12.337,9.832,18.286,10.071,5.606.223,8.888.564,11.142,4.919s1.282,8.484-.629,15.406c-2.026,7.345-4.548,16.486.385,26.022S41.52,72.86,47.47,73.1c5.606.223,8.888.562,11.141,4.919s1.282,8.486-.626,15.407c-2.027,7.345-4.548,16.486.385,26.024s12.337,9.834,18.286,10.073c5.607.225,8.889.565,11.143,4.922l7.418-6.61C90.282,118.3,82.878,118,76.929,117.761c-5.606-.225-8.889-.565-11.143-4.922s-1.282-8.486.628-15.407c2.026-7.345,4.548-16.486-.385-26.024S53.691,61.576,47.742,61.337c-5.606-.225-8.888-.564-11.142-4.919s-1.282-8.484.629-15.406c2.026-7.345,4.548-16.486-.385-26.022S24.508,5.158,18.56,4.919C12.952,4.694,9.67,4.355,7.418,0" transform="translate(375.618 6142.5) rotate(90)" fill="#ff06cc"/>
    <path id="Trazado_818811" data-name="Trazado 818811" d="M7.418,0,0,6.61c4.933,9.537,12.337,9.832,18.286,10.071,5.606.223,8.888.564,11.142,4.919s1.282,8.484-.629,15.406c-2.026,7.345-4.548,16.486.385,26.022S41.52,72.86,47.47,73.1c5.606.223,8.888.562,11.141,4.919s1.282,8.486-.626,15.407c-2.027,7.345-4.548,16.486.385,26.024s12.337,9.834,18.286,10.073c5.607.225,8.889.565,11.143,4.922l7.418-6.61C90.282,118.3,82.878,118,76.929,117.761c-5.606-.225-8.889-.565-11.143-4.922s-1.282-8.486.628-15.407c2.026-7.345,4.548-16.486-.385-26.024S53.691,61.576,47.742,61.337c-5.606-.225-8.888-.564-11.142-4.919s-1.282-8.484.629-15.406c2.026-7.345,4.548-16.486-.385-26.022S24.508,5.158,18.56,4.919C12.952,4.694,9.67,4.355,7.418,0" transform="translate(1113.618 6128.784) rotate(90)" fill="#f7df3f"/>
    <path id="Trazado_818812" data-name="Trazado 818812" d="M5.431,0,0,4.839c3.612,6.982,9.032,7.2,13.387,7.373,4.1.163,6.507.413,8.157,3.6s.939,6.211-.46,11.278c-1.483,5.377-3.33,12.069.282,19.051s9.031,7.2,13.387,7.373c4.1.163,6.507.412,8.156,3.6s.939,6.212-.459,11.279c-1.484,5.377-3.33,12.069.282,19.052s9.032,7.2,13.387,7.374c4.105.164,6.508.414,8.158,3.6l5.431-4.839c-3.612-6.983-9.032-7.2-13.388-7.374-4.1-.164-6.508-.414-8.158-3.6s-.939-6.212.459-11.279c1.483-5.377,3.33-12.069-.282-19.052s-9.032-7.2-13.387-7.373c-4.1-.164-6.507-.413-8.157-3.6s-.939-6.211.46-11.278c1.483-5.377,3.33-12.069-.282-19.051S17.943,3.776,13.588,3.6C9.482,3.437,7.08,3.188,5.431,0" transform="translate(1437.458 6223.14) rotate(90)" fill="#f7df3f"/>
    <path id="Trazado_818813" data-name="Trazado 818813" d="M5.431,98.427,0,93.588c3.612-6.982,9.032-7.2,13.387-7.373,4.1-.163,6.507-.413,8.157-3.6s.939-6.211-.46-11.278c-1.483-5.377-3.33-12.069.282-19.051s9.031-7.2,13.387-7.373c4.1-.163,6.507-.412,8.156-3.6s.939-6.212-.459-11.279c-1.484-5.377-3.33-12.069.282-19.052s9.032-7.2,13.387-7.374c4.105-.164,6.508-.414,8.158-3.6l5.431,4.839c-3.612,6.983-9.032,7.2-13.388,7.374-4.1.164-6.508.414-8.158,3.6s-.939,6.212.459,11.279c1.483,5.377,3.33,12.069-.282,19.052s-9.032,7.2-13.387,7.373c-4.1.164-6.507.413-8.157,3.6s-.939,6.211.46,11.278c1.483,5.377,3.33,12.069-.282,19.051s-9.031,7.2-13.386,7.373c-4.105.164-6.508.413-8.157,3.6" transform="translate(177.191 6161.729) rotate(-90)" fill="#f7df3f"/>
    <ellipse id="Elipse_9699" data-name="Elipse 9699" cx="5.274" cy="5.023" rx="5.274" ry="5.023" transform="translate(251.625 6282.8)" fill="#fff"/>
    <ellipse id="Elipse_9700" data-name="Elipse 9700" cx="5.274" cy="5.023" rx="5.274" ry="5.023" transform="translate(939.625 6142.5)" fill="#fff"/>
    <ellipse id="Elipse_9701" data-name="Elipse 9701" cx="10.774" cy="10.023" rx="10.774" ry="10.023" transform="translate(805.625 6230.695)" fill="#fff"/>
    <ellipse id="Elipse_9702" data-name="Elipse 9702" cx="4.774" cy="4.523" rx="4.774" ry="4.523" transform="translate(1020.625 6255.695)" fill="#fff"/>
    <g id="Grupo_1072587" data-name="Grupo 1072587" transform="translate(1273.156 6022.605)">
      <g transform="matrix(1, 0, 0, 1, -1040.16, 81.4)" filter="url(#Elipse_9703)">
        <g id="Elipse_9703-2" data-name="Elipse 9703" transform="translate(1040.16 -82)" fill="none" stroke="#fff" stroke-width="20">
          <circle cx="82" cy="82" r="82" stroke="none"/>
          <circle cx="82" cy="82" r="72" fill="none"/>
        </g>
      </g>
    </g>
    <g id="Grupo_1072588" data-name="Grupo 1072588" transform="translate(779.156 6201.605)">
      <g transform="matrix(1, 0, 0, 1, -546.16, -97.6)" filter="url(#Elipse_9704)">
        <g id="Elipse_9704-2" data-name="Elipse 9704" transform="translate(546.16 97)" fill="none" stroke="#fff" stroke-width="20">
          <circle cx="64" cy="64" r="64" stroke="none"/>
          <circle cx="64" cy="64" r="54" fill="none"/>
        </g>
      </g>
    </g>
    <g id="Grupo_1072591" data-name="Grupo 1072591" transform="translate(-261 -86)">
      <g id="Grupo_1072590" data-name="Grupo 1072590" transform="translate(652.156 6190)">
        <g id="Grupo_1072589" data-name="Grupo 1072589" clip-path="url(#clip-path-2)">
          <path id="Trazado_818814" data-name="Trazado 818814" d="M430.454,305.894H38.417A38.417,38.417,0,0,1,0,267.478V38.419A38.417,38.417,0,0,1,38.417,0H430.454a38.417,38.417,0,0,1,38.417,38.419V267.478a38.417,38.417,0,0,1-38.417,38.417" fill="#0c1f5b"/>
          <path id="Trazado_818815" data-name="Trazado 818815" d="M421.686,281.948H32.853A23.143,23.143,0,0,1,9.709,258.8V33.081A23.143,23.143,0,0,1,32.853,9.939H421.686A23.144,23.144,0,0,1,444.83,33.081V258.8a23.144,23.144,0,0,1-23.144,23.144" transform="translate(5.635 5.769)" fill="#22acba"/>
          <path id="Trazado_818816" data-name="Trazado 818816" d="M444.83,198.457H9.71V29.2A19.266,19.266,0,0,1,28.977,9.939H425.563A19.266,19.266,0,0,1,444.83,29.2Z" transform="translate(5.636 5.769)" fill="#58e7f5"/>
          <rect id="Rectángulo_376345" data-name="Rectángulo 376345" width="435.12" height="43.007" transform="translate(15.346 206.868)" fill="#3dd4e3"/>
        </g>
      </g>
    </g>
    <g id="Grupo_1072605" data-name="Grupo 1072605" transform="translate(1031.511 6104)">
      <g id="Grupo_1072604" data-name="Grupo 1072604" clip-path="url(#clip-path-3)">
        <g id="Grupo_1072593" data-name="Grupo 1072593">
          <g id="Grupo_1072592" data-name="Grupo 1072592" clip-path="url(#clip-path-3)">
            <path id="Trazado_818817" data-name="Trazado 818817" d="M61.44,1.647S85.321-5.833,109.6,25.5c24.9,32.13,38.658,57.438,19.27,70.549S77.51,117.5,74.824,117.647s-13.384-116-13.384-116" transform="translate(25.01 0.352)" fill="#010c39"/>
            <path id="Trazado_818818" data-name="Trazado 818818" d="M91.276,2S58.741-11.089,40.927,29.713C25.066,66.041,3.735,70.854,23.845,96.4c14.479,18.39,51.361,21.449,54.047,21.6S91.276,2,91.276,2" transform="translate(6.375 0)" fill="#010c39"/>
            <path id="Trazado_818819" data-name="Trazado 818819" d="M61.194,87.277S40.793,79.4,30.15,97.784A147.691,147.691,0,0,1,7.185,127.892s12.755,23.141,27,21.669,27-62.284,27-62.284" transform="translate(2.925 34.845)" fill="#8156e4"/>
            <path id="Trazado_818820" data-name="Trazado 818820" d="M91.355,86.755s20.4-7.874,31.044,10.507a147.691,147.691,0,0,0,22.965,30.108s-12.755,23.141-27,21.669-27-62.284-27-62.284" transform="translate(37.188 34.633)" fill="#8156e4"/>
            <path id="Trazado_818821" data-name="Trazado 818821" d="M97.19,356.393l1.074,32.731s-26.2,5.728-37.55,15.009a4.066,4.066,0,0,0,2.453,7.208c18.441.566,64.887,1.618,65.66-2.1.965-4.639-1.057-45.917-1.057-45.917Z" transform="translate(24.105 145.077)" fill="#010c39"/>
            <path id="Trazado_818822" data-name="Trazado 818822" d="M45.644,356.393l1.074,32.731s-26.2,5.728-37.55,15.009a4.066,4.066,0,0,0,2.453,7.208c18.441.566,64.887,1.618,65.66-2.1.965-4.639-1.057-45.917-1.057-45.917Z" transform="translate(3.122 145.077)" fill="#010c39"/>
            <path id="Trazado_818823" data-name="Trazado 818823" d="M80.182,204.644c-26.77-2.443-51.317-10.283-55.778-24.58l116.538,11.265s-8.967,14.157-42.025,14.157c-6.216,0-12.536-.276-18.735-.841" transform="translate(9.934 73.299)" fill="#2e1691"/>
            <path id="Trazado_818824" data-name="Trazado 818824" d="M60.284,183.12v53.823l8.942-.176s4.854,58.609,28.011,204.8h30.452S145.983,213.1,117.321,184.313Z" transform="translate(24.54 74.543)" fill="#58e7f5"/>
            <path id="Trazado_818825" data-name="Trazado 818825" d="M86.541,184.35l-3.978,52.464-3.955.079s-10.96,85.335-7.794,203.488l-30.407.982S1.855,277.983,35.421,183.12Z" transform="translate(8.831 74.543)" fill="#58e7f5"/>
            <path id="Trazado_818826" data-name="Trazado 818826" d="M85.6,38.127c-3.82,6.043-4.359,15.785.592,18.914s13.521-1.535,17.339-7.578,2.9-13.48-2.049-16.61S89.416,32.084,85.6,38.127" transform="translate(33.625 12.81)" fill="#ffcaa6"/>
            <path id="Trazado_818827" data-name="Trazado 818827" d="M56.211,38.953c4.24,5.758,5.468,15.436.75,18.91s-13.6-.574-17.833-6.332-3.851-13.239.867-16.713S51.972,33.2,56.211,38.953" transform="translate(14.73 13.46)" fill="#ffcaa6"/>
            <path id="Trazado_818828" data-name="Trazado 818828" d="M45.1,97.735C74.718,88.5,66.64,57.927,66.64,57.927l13.654-1.666V56l1.058.129L82.411,56v.257l13.653,1.666S87.987,88.5,117.6,97.735c3.053.953,5.853,1.905,8.438,2.887.46,17.289-2.15,34.824-6.191,52.112H49.256a342.063,342.063,0,0,1-9.35-53.293q2.474-.859,5.2-1.707" transform="translate(16.245 22.798)" fill="#ffcaa6"/>
            <path id="Trazado_818829" data-name="Trazado 818829" d="M87.366,65.178a37.787,37.787,0,0,1,.964-7.249L74.676,56.262V56l-1.058.129L72.561,56v.257L58.907,57.928a40.7,40.7,0,0,1,.936,11.555c3,6.117,13.775,14.6,27.524-4.306" transform="translate(23.979 22.798)" fill="#eaa16e"/>
            <path id="Trazado_818830" data-name="Trazado 818830" d="M45.936,23.328c-.208.611-6.779,42.26,8.51,57.693s41.731,6.3,48.172-9.52c5.561-13.651,6.634-39.374-4.182-55.1s-41.828-24.375-52.5,6.923" transform="translate(18.056 0.907)" fill="#ffcaa6"/>
            <path id="Trazado_818831" data-name="Trazado 818831" d="M84.057,30.758c-1.362-5.451-2.725-12.264-1.362-17.715a14.727,14.727,0,0,1,5.792-5.784C74.65-1.183,54.152-.942,45.877,23.327A117.247,117.247,0,0,0,44.5,36.759c13.158,1.629,28.072-2.468,39.556-6" transform="translate(18.115 0.908)" fill="#eaa16e"/>
            <path id="Trazado_818832" data-name="Trazado 818832" d="M59.055,25.386Q59.987,35.7,60.922,46.02q.137,1.5.272,2.991a.392.392,0,0,0,.28.369l4.505.879c.48.094.685-.642.2-.736q-2.252-.441-4.505-.879l.28.367Q61.023,38.7,60.089,28.377q-.135-1.5-.272-2.991c-.044-.485-.808-.49-.763,0" transform="translate(24.039 10.185)" fill="#eaa16e"/>
            <path id="Trazado_818833" data-name="Trazado 818833" d="M71.652,35.34c-.063,1.432.7,2.63,1.7,2.673s1.864-1.082,1.928-2.514-.7-2.628-1.7-2.673-1.864,1.082-1.928,2.514" transform="translate(29.166 13.362)" fill="#010c39"/>
            <path id="Trazado_818834" data-name="Trazado 818834" d="M53.628,35.943c-.063,1.432.7,2.63,1.7,2.673s1.864-1.082,1.928-2.514-.7-2.628-1.7-2.673-1.864,1.082-1.928,2.514" transform="translate(21.829 13.607)" fill="#010c39"/>
            <path id="Trazado_818835" data-name="Trazado 818835" d="M94.795,37.738a6.789,6.789,0,0,0-2.865.874A4.975,4.975,0,0,0,90.078,40.4a5.478,5.478,0,0,0-.651,3.135,3.6,3.6,0,0,0,1.088,2.559,2.551,2.551,0,0,0,2.094.532A3.326,3.326,0,0,0,94.553,45.5a2.723,2.723,0,0,0,.7-2.417,2.365,2.365,0,0,0-2.237-1.5,3.411,3.411,0,0,0-2.858,1.206c-.3.38.234.924.54.54a2.657,2.657,0,0,1,2.044-.989,1.848,1.848,0,0,1,1.694.754,1.745,1.745,0,0,1-.362,1.786,2.651,2.651,0,0,1-1.486.972,1.794,1.794,0,0,1-1.539-.3,2.766,2.766,0,0,1-.86-1.98,4.326,4.326,0,0,1,1.984-4.224A6.149,6.149,0,0,1,94,38.633c.117-.027.234-.051.352-.072.051-.01.1-.018.155-.027.032-.006.17-.023.042-.007.083-.01.167-.021.25-.027.488-.03.491-.792,0-.763" transform="translate(36.396 15.362)" fill="#eaa16e"/>
            <path id="Trazado_818836" data-name="Trazado 818836" d="M40.682,39.923c.063,0,.127.011.189.018.11.013-.013,0,.028,0l.117.017c.1.017.205.037.307.058a6.422,6.422,0,0,1,1.562.525,4.2,4.2,0,0,1,2.41,3.637c.066,1.366-.37,3.208-2.019,3.148a2.517,2.517,0,0,1-1.563-.685,2.225,2.225,0,0,1-.794-1.776c.1-.723.889-1.058,1.539-1.1a2.705,2.705,0,0,1,2.317.982c.307.384.843-.159.54-.539-1.076-1.348-3.7-1.8-4.828-.25-1.078,1.484.453,3.426,1.869,3.951a2.709,2.709,0,0,0,2.17-.1,2.933,2.933,0,0,0,1.4-2,5.232,5.232,0,0,0-1.881-5.457,6.551,6.551,0,0,0-3.364-1.195c-.491-.031-.488.733,0,.763" transform="translate(16.334 15.941)" fill="#eaa16e"/>
          </g>
        </g>
        <g id="Grupo_1072595" data-name="Grupo 1072595" transform="translate(81.778 61.192)">
          <g id="Grupo_1072594" data-name="Grupo 1072594" clip-path="url(#clip-path-5)">
            <path id="Trazado_818837" data-name="Trazado 818837" d="M63.764,46.821A7.431,7.431,0,0,0,68.5,45.585c2.042-1.368,5.272-2.894,8.319-1.614,4.961,2.082,5.123,13.549-7.974,14.439-12.385.841-11.4-8.48-9.792-10.646,1.086-1.462,3.232-1.061,4.708-.944" transform="translate(-58.119 -43.489)" fill="#9e3a2d"/>
            <path id="Trazado_818838" data-name="Trazado 818838" d="M57.924,45.554s-2.514,5.59,5.329,4.932C78.469,49.209,79.231,46.757,77.9,41.9Z" transform="translate(-58.355 -44.135)" fill="#fff"/>
            <path id="Trazado_818839" data-name="Trazado 818839" d="M59.045,55.161s2.481-4.711,9.606-5.481S78.6,52.43,78.6,52.43s-5.8,8.212-19.551,2.731" transform="translate(-57.743 -41.013)" fill="#f4826c"/>
          </g>
        </g>
        <g id="Grupo_1072603" data-name="Grupo 1072603">
          <g id="Grupo_1072602" data-name="Grupo 1072602" clip-path="url(#clip-path-3)">
            <path id="Trazado_818841" data-name="Trazado 818841" d="M48.338,46.722c0,2.509,2.519,4.543,5.625,4.543s5.624-2.035,5.624-4.543-2.519-4.543-5.624-4.543-5.625,2.035-5.625,4.543" transform="translate(19.677 17.17)" fill="#f4826c"/>
            <path id="Trazado_818842" data-name="Trazado 818842" d="M75.126,44.8c0,2.509,2.519,4.543,5.625,4.543s5.624-2.035,5.624-4.543-2.517-4.543-5.624-4.543-5.625,2.035-5.625,4.543" transform="translate(30.582 16.389)" fill="#f4826c"/>
            <path id="Trazado_818843" data-name="Trazado 818843" d="M65.588,55.736c0,.352.613.637,1.37.637s1.37-.286,1.37-.637-.613-.637-1.37-.637-1.37.286-1.37.637" transform="translate(26.699 22.429)" fill="#eaa16e"/>
            <path id="Trazado_818844" data-name="Trazado 818844" d="M80.751,27.348c-.246,1.29-2.688.647-5.739.065s-5.558-.885-5.31-2.177,2.92-1.864,5.972-1.28,5.324,2.1,5.078,3.392" transform="translate(28.366 9.658)" fill="#010c39"/>
            <path id="Trazado_818845" data-name="Trazado 818845" d="M59.8,25.858c.253,1.29-2.253,1.6-5.3,2.2s-5.488,1.251-5.739-.039S50.773,25.2,53.822,24.6s5.725-.035,5.977,1.255" transform="translate(19.841 9.918)" fill="#010c39"/>
            <path id="Trazado_818846" data-name="Trazado 818846" d="M42.006,89.142c2.848-1.179,5.972-2.315,9.406-3.449.09-.03.176-.062.266-.093,16.09,16.484,42.516,19.82,61.818,8.881a75.852,75.852,0,0,0,12.146-8.207c3.592,1.226,6.512,2.077,9.436,3.376.6,3.336,1.406,7.065,1.8,10.418a181.089,181.089,0,0,1-4.518,65.152l-2.434,9.685a40.589,40.589,0,0,0-.751,16.041l11.767,38.838S65.336,245.342,24.4,218.517l15.637-32.166a16.924,16.924,0,0,0,.042-7.781l-4.541-19.689a124.562,124.562,0,0,1-2.887-38.773c.962-11.034,3.4-21.694,9.351-30.967" transform="translate(9.934 34.845)" fill="#8156e4"/>
            <path id="Trazado_818847" data-name="Trazado 818847" d="M131.649,166.675a22.932,22.932,0,0,1-5.344,6.207,75.869,75.869,0,0,1-89.939-5.451,20.536,20.536,0,0,1-1.849-2.151l-10.113,20.8c40.93,26.824,116.536,11.265,116.536,11.265Z" transform="translate(9.935 67.28)" fill="#5331bc"/>
            <path id="Trazado_818848" data-name="Trazado 818848" d="M41.693,86.547c.874-.287,1.766-.573,2.683-.86.09-.027.176-.058.266-.087,16.09,15.559,42.515,18.708,61.818,8.383A76.341,76.341,0,0,0,118.6,86.237c.336.107.654.217.984.325a51.353,51.353,0,0,1-32.626,14.877,62.191,62.191,0,0,1-45.27-14.892" transform="translate(16.972 34.845)" fill="#cc2340"/>
            <path id="Trazado_818849" data-name="Trazado 818849" d="M95.009,40.083A13.276,13.276,0,1,1,84.221,27.038,13.427,13.427,0,0,1,95.009,40.083a.764.764,0,0,0,1.527,0,14.805,14.805,0,1,0-12.1,14.551,15,15,0,0,0,12.1-14.551.764.764,0,0,0-1.527,0" transform="translate(27.257 10.297)" fill="#5331bc"/>
            <path id="Trazado_818850" data-name="Trazado 818850" d="M68.184,40.083A13.276,13.276,0,1,1,57.4,27.038,13.429,13.429,0,0,1,68.184,40.083a.763.763,0,0,0,1.525,0,14.8,14.8,0,1,0-12.1,14.551,15,15,0,0,0,12.1-14.551.763.763,0,0,0-1.525,0" transform="translate(16.338 10.297)" fill="#5331bc"/>
            <path id="Trazado_818851" data-name="Trazado 818851" d="M71.046,36.075A8.181,8.181,0,0,0,67.7,34.119,7.683,7.683,0,0,0,60.3,36.075c-.739.65.345,1.726,1.079,1.079a6.1,6.1,0,0,1,6.118-1.5,7.222,7.222,0,0,1,1.839.971l.16.117c.135.1-.1-.082.053.042.077.065.155.128.231.194s.129.114.19.176a.764.764,0,0,0,1.079-1.079" transform="translate(24.444 13.766)" fill="#5331bc"/>
            <path id="Trazado_818852" data-name="Trazado 818852" d="M49.567,92.983A109.147,109.147,0,0,0,50.7,80.707a3.083,3.083,0,0,1,3.183-3.132c2.392.131,5.141,1.945,4.857,9.741-.494,13.574-9.177,5.666-9.177,5.666" transform="translate(20.177 31.577)" fill="#eaa16e"/>
            <path id="Trazado_818853" data-name="Trazado 818853" d="M101.718,98.913s49.029,41.749,55.322,57.034.523,24.059-4.458,26.323-22.287-3.4-31.987-18.115S95.05,104.826,95.05,104.826Z" transform="translate(38.692 40.265)" fill="#ffcaa6"/>
            <path id="Trazado_818854" data-name="Trazado 818854" d="M94.16,92.983a109.144,109.144,0,0,1-1.137-12.275,3.083,3.083,0,0,0-3.183-3.132c-2.392.131-5.141,1.945-4.857,9.741.494,13.574,9.177,5.666,9.177,5.666" transform="translate(34.586 31.577)" fill="#eaa16e"/>
            <path id="Trazado_818855" data-name="Trazado 818855" d="M58.08,98.913S9.05,140.662,2.758,155.947s-.523,24.059,4.458,26.323,22.285-3.4,31.987-18.115,25.545-59.331,25.545-59.331Z" transform="translate(0 40.265)" fill="#ffcaa6"/>
            <path id="Trazado_818856" data-name="Trazado 818856" d="M125.144,131.518c-1.382-14.431-9.36-37.013-12.455-45.365a6.675,6.675,0,0,0-4.55-4.128l-6.2-1.643a6.687,6.687,0,0,0-5,.642l-6.185,3.5H74.832l-6.184-3.5a6.687,6.687,0,0,0-5-.642l-6.2,1.643A6.673,6.673,0,0,0,52.9,86.152c-3.1,8.352-11.074,30.934-12.457,45.365a6.7,6.7,0,0,0,2.317,5.738l.542.463a6.665,6.665,0,0,0,8.751-.065c6.44-5.716,19.232-15.6,30.742-15.734,11.508.138,24.3,10.018,30.74,15.734a6.665,6.665,0,0,0,8.751.065l.542-.463a6.7,6.7,0,0,0,2.317-5.738" transform="translate(16.451 32.63)" fill="#010c39"/>
            <path id="Trazado_818857" data-name="Trazado 818857" d="M59.185,105.28a4.959,4.959,0,1,0,4.96-4.96,4.96,4.96,0,0,0-4.96,4.96" transform="translate(24.092 40.837)" fill="#feffff"/>
            <path id="Trazado_818858" data-name="Trazado 818858" d="M75.046,105.28a4.959,4.959,0,1,0,4.96-4.96,4.96,4.96,0,0,0-4.96,4.96" transform="translate(30.549 40.837)" fill="#feffff"/>
            <path id="Trazado_818859" data-name="Trazado 818859" d="M54.9,92.99a3.552,3.552,0,1,0,3.553-3.553A3.553,3.553,0,0,0,54.9,92.99" transform="translate(22.347 36.407)" fill="#feffff"/>
            <path id="Trazado_818860" data-name="Trazado 818860" d="M82.772,88.689a1.776,1.776,0,1,0,1.776-1.776,1.776,1.776,0,0,0-1.776,1.776" transform="translate(33.694 35.38)" fill="#feffff"/>
            <path id="Trazado_818861" data-name="Trazado 818861" d="M82.772,96.488a1.776,1.776,0,1,0,1.776-1.776,1.776,1.776,0,0,0-1.776,1.776" transform="translate(33.694 38.554)" fill="#feffff"/>
            <path id="Trazado_818862" data-name="Trazado 818862" d="M88.447,90.812a1.776,1.776,0,1,0,1.776,1.776,1.776,1.776,0,0,0-1.776-1.776" transform="translate(35.281 36.967)" fill="#feffff"/>
            <path id="Trazado_818863" data-name="Trazado 818863" d="M80.649,90.812a1.776,1.776,0,1,0,1.776,1.776,1.776,1.776,0,0,0-1.776-1.776" transform="translate(32.107 36.967)" fill="#feffff"/>
            <rect id="Rectángulo_376348" data-name="Rectángulo 376348" width="3.782" height="2.046" transform="translate(91.731 129.556)" fill="#feffff"/>
            <rect id="Rectángulo_376349" data-name="Rectángulo 376349" width="3.782" height="2.046" transform="translate(101.813 129.556)" fill="#feffff"/>
            <path id="Trazado_818864" data-name="Trazado 818864" d="M101.6,93.541c-4.368,5.262-9.733,8.015-11.983,6.146s.82-6.523,5.189-11.786,8.381-9.138,10.629-7.269.533,7.646-3.836,12.908" transform="translate(36.171 32.629)" fill="#ffcaa6"/>
            <path id="Trazado_818865" data-name="Trazado 818865" d="M103.7,99.584c-6.074,3.142-12.087,3.585-13.43.988s3.3-5.687,9.374-8.829,11.279-5.147,12.623-2.55-2.492,7.249-8.566,10.391" transform="translate(36.652 35.822)" fill="#ffcaa6"/>
            <path id="Trazado_818866" data-name="Trazado 818866" d="M103.6,105.5c-6.819.53-12.53-1.4-12.756-4.318s5.254-3.954,12.071-4.484,12.393-.35,12.62,2.564-5.116,5.708-11.935,6.239" transform="translate(36.976 39.267)" fill="#ffcaa6"/>
            <path id="Trazado_818867" data-name="Trazado 818867" d="M89.661,99.325c2.427,1.327,7.463-1.4,11.607-6.391,3.467-4.176,5.255-8.67,4.724-11.285a20.907,20.907,0,0,1-16.33,17.676" transform="translate(36.498 33.237)" fill="#eaa16e"/>
            <path id="Trazado_818868" data-name="Trazado 818868" d="M44.552,93.541c4.368,5.262,9.733,8.015,11.983,6.146s-.82-6.523-5.189-11.786-8.379-9.138-10.629-7.269-.533,7.646,3.836,12.908" transform="translate(16.172 32.629)" fill="#ffcaa6"/>
            <path id="Trazado_818869" data-name="Trazado 818869" d="M43.872,99.584c6.074,3.142,12.088,3.585,13.43.988s-3.3-5.687-9.374-8.829-11.279-5.147-12.623-2.55,2.492,7.249,8.566,10.391" transform="translate(14.263 35.822)" fill="#ffcaa6"/>
            <path id="Trazado_818870" data-name="Trazado 818870" d="M44.616,105.5c6.819.53,12.53-1.4,12.756-4.318S52.118,97.226,45.3,96.7s-12.393-.35-12.62,2.564,5.116,5.708,11.935,6.239" transform="translate(13.301 39.267)" fill="#ffcaa6"/>
            <path id="Trazado_818871" data-name="Trazado 818871" d="M56.156,99.325c-2.429,1.327-7.463-1.4-11.607-6.391-3.467-4.176-5.255-8.67-4.724-11.285a20.907,20.907,0,0,0,16.33,17.676" transform="translate(16.174 33.237)" fill="#eaa16e"/>
            <g id="Grupo_1072598" data-name="Grupo 1072598" transform="translate(158.9 178.487)" opacity="0.5">
              <g id="Grupo_1072597" data-name="Grupo 1072597">
                <g id="Grupo_1072596" data-name="Grupo 1072596" clip-path="url(#clip-path-7)">
                  <path id="Trazado_818872" data-name="Trazado 818872" d="M149.761,144.575c-1.776-4.313-6.954-10.732-13.471-17.725,2.268,8.293,3.865,16.588.311,24.881-2.725,6.814-12.264,9.54-19.077,4.089-1.586-1.189-3.105-2.41-4.594-3.65.128.2.26.421.387.613,9.7,14.718,27.006,20.379,31.987,18.115s10.75-11.038,4.458-26.323" transform="translate(-112.93 -126.85)" fill="#eaa16e"/>
                </g>
              </g>
            </g>
            <g id="Grupo_1072601" data-name="Grupo 1072601" transform="translate(0 180.904)" opacity="0.5">
              <g id="Grupo_1072600" data-name="Grupo 1072600">
                <g id="Grupo_1072599" data-name="Grupo 1072599" clip-path="url(#clip-path-8)">
                  <path id="Trazado_818873" data-name="Trazado 818873" d="M13.6,152.4c-7.839-4.355-3.432-13.722.415-23.827-5.458,6.042-9.683,11.5-11.252,15.308-6.292,15.285-.525,24.059,4.456,26.323S29.5,166.8,39.2,152.084A108.585,108.585,0,0,0,45.99,139.4c-10.3,9.769-22.961,18.238-32.395,13" transform="translate(0 -128.568)" fill="#eaa16e"/>
                </g>
              </g>
            </g>
            <path id="Trazado_818874" data-name="Trazado 818874" d="M52.636,141.947c0,8.108,9.292,14.679,20.756,14.679s20.757-6.571,20.757-14.679-9.294-14.679-20.757-14.679-20.756,6.571-20.756,14.679" transform="translate(21.427 51.807)" fill="#5331bc"/>
            <path id="Trazado_818875" data-name="Trazado 818875" d="M56.291,135.161s-2.165-9.9-.428-10.863,8.548,5.755,8.548,5.755Z" transform="translate(22.465 50.56)" fill="#5331bc"/>
            <path id="Trazado_818876" data-name="Trazado 818876" d="M81.152,135.161s2.165-9.9.428-10.863-8.548,5.755-8.548,5.755Z" transform="translate(29.729 50.56)" fill="#5331bc"/>
            <path id="Trazado_818877" data-name="Trazado 818877" d="M80,13.619a19.443,19.443,0,0,0,1.454,16.443s-18.67,3.99-21.373,2.7-3.864-15.322-3.864-15.322-3.657,9.812,0,16.094L42.839,38.119S34.256-.712,75.687,1.476s35.044,41.193,35.044,41.193l-7.176,1s-1.573-28.24-18.846-32.584A3.988,3.988,0,0,0,80,13.619" transform="translate(17.139 0.564)" fill="#010c39"/>
            <path id="Trazado_818878" data-name="Trazado 818878" d="M30.976,183.775S69.018,202.3,134.4,190.528c0,0-69.46,28.824-103.424-6.753" transform="translate(12.609 74.809)" fill="#3dd4e3"/>
          </g>
        </g>
      </g>
    </g>
    <path id="Trazado_818879" data-name="Trazado 818879" d="M-9333.156-5573.125s26.244,119.354,122.5,143.286,202.244-135.531,395.542-135.531,244.9,110.422,377.65,135.531c237.057,44.837,252.468-68.113,316.009-108.293" transform="translate(9531.156 11700)" fill="none" stroke="#1425dd" stroke-linecap="round" stroke-width="5" stroke-dasharray="16 22"/>
    <g id="Grupo_1072607" data-name="Grupo 1072607" transform="translate(472.006 6132.631)">
      <g id="Grupo_1072606" data-name="Grupo 1072606" transform="translate(0 0)" clip-path="url(#clip-path-9)">
        <path id="Trazado_818880" data-name="Trazado 818880" d="M307.06,186.125c-5.008-52.295-33.921-134.134-45.138-164.4A24.176,24.176,0,0,0,245.435,6.768L222.98.81a24.209,24.209,0,0,0-18.128,2.325L182.439,15.8H124.732L102.319,3.136A24.208,24.208,0,0,0,84.191.81L61.737,6.768A24.173,24.173,0,0,0,45.251,21.726C34.034,51.992,5.119,133.831.111,186.125a24.267,24.267,0,0,0,8.4,20.8l1.963,1.675a24.155,24.155,0,0,0,31.713-.234c23.335-20.713,69.692-56.518,111.4-57.02,41.707.5,88.065,36.308,111.4,57.02a24.155,24.155,0,0,0,31.713.234l1.965-1.675a24.27,24.27,0,0,0,8.4-20.8" transform="translate(0 0)" fill="#010c39"/>
        <path id="Trazado_818881" data-name="Trazado 818881" d="M49.888,71.557A17.973,17.973,0,1,0,67.861,53.584,17.973,17.973,0,0,0,49.888,71.557" transform="translate(45.833 49.228)" fill="#feffff"/>
        <path id="Trazado_818882" data-name="Trazado 818882" d="M92.04,71.557a17.973,17.973,0,1,0,17.973-17.973A17.973,17.973,0,0,0,92.04,71.557" transform="translate(84.559 49.228)" fill="#feffff"/>
        <path id="Trazado_818883" data-name="Trazado 818883" d="M38.5,37.537A12.873,12.873,0,1,0,51.369,24.664,12.873,12.873,0,0,0,38.5,37.537" transform="translate(35.367 22.659)" fill="#feffff"/>
        <path id="Trazado_818884" data-name="Trazado 818884" d="M112.571,24.391a6.436,6.436,0,1,0,6.437-6.437,6.437,6.437,0,0,0-6.437,6.437" transform="translate(103.421 16.495)" fill="#feffff"/>
        <path id="Trazado_818885" data-name="Trazado 818885" d="M112.571,45.116a6.436,6.436,0,1,0,6.437-6.437,6.435,6.435,0,0,0-6.437,6.437" transform="translate(103.421 35.535)" fill="#feffff"/>
        <path id="Trazado_818886" data-name="Trazado 818886" d="M129.37,28.317a6.436,6.436,0,1,0,6.437,6.437,6.437,6.437,0,0,0-6.437-6.437" transform="translate(112.94 26.015)" fill="#feffff"/>
        <path id="Trazado_818887" data-name="Trazado 818887" d="M108.645,28.317a6.436,6.436,0,1,0,6.437,6.437,6.437,6.437,0,0,0-6.437-6.437" transform="translate(93.9 26.015)" fill="#feffff"/>
        <rect id="Rectángulo_376354" data-name="Rectángulo 376354" width="13.703" height="7.414" transform="translate(126.361 60.768)" fill="#feffff"/>
        <rect id="Rectángulo_376355" data-name="Rectángulo 376355" width="13.703" height="7.414" transform="translate(162.895 60.768)" fill="#feffff"/>
      </g>
    </g>
    <g id="Grupo_1072608" data-name="Grupo 1072608" transform="translate(361.156 6215.636)">
      <g transform="matrix(1, 0, 0, 1, -128.16, -111.64)" filter="url(#Elipse_9705)">
        <g id="Elipse_9705-2" data-name="Elipse 9705" transform="translate(128.16 111)" fill="none" stroke="#fff" stroke-width="10">
          <circle cx="36.5" cy="36.5" r="36.5" stroke="none"/>
          <circle cx="36.5" cy="36.5" r="31.5" fill="none"/>
        </g>
      </g>
    </g>
  </g>
</svg>
