<svg xmlns="http://www.w3.org/2000/svg" xmlns:xlink="http://www.w3.org/1999/xlink" width="504.5" height="226.964" viewBox="0 0 504.5 226.964">
  <defs>
    <clipPath id="clip-path">
      <rect id="Rectángulo_376262" data-name="Rectángulo 376262" width="393.753" height="216.464" fill="none"/>
    </clipPath>
    <filter id="Elipse_4719" x="360.5" y="130" width="85" height="85" filterUnits="userSpaceOnUse">
      <feOffset dy="1" input="SourceAlpha"/>
      <feGaussianBlur stdDeviation="5.5" result="blur"/>
      <feFlood flood-color="#fff" flood-opacity="0.902"/>
      <feComposite operator="in" in2="blur"/>
      <feComposite in="SourceGraphic"/>
    </filter>
    <filter id="Elipse_4719-2" x="47.5" y="0" width="53" height="53" filterUnits="userSpaceOnUse">
      <feOffset dy="1" input="SourceAlpha"/>
      <feGaussianBlur stdDeviation="5.5" result="blur-2"/>
      <feFlood flood-color="#fff" flood-opacity="0.902"/>
      <feComposite operator="in" in2="blur-2"/>
      <feComposite in="SourceGraphic"/>
    </filter>
  </defs>
  <g id="Grupo_1072490" data-name="Grupo 1072490" transform="translate(-180.156 -830.5)">
    <g id="Grupo_1072477" data-name="Grupo 1072477" transform="translate(-734.844 448)">
      <rect id="dispositivos-informaticos-tecnologia-nube-conectados-al-almacenamiento-digital-centro-datos-traves-internet-iot-smart-home-communication-laptop-tablet-phone-home-devices-with-online" width="504.5" height="125.464" rx="12" transform="translate(915 470)" fill="#f3bcf9"/>
      <path id="Trazado_771199" data-name="Trazado 771199" d="M33.229,20.768H19L32.191,0H15.576L0,31.153H12.253L0,60.229Z" transform="translate(1385.225 549.245) rotate(-1)" fill="#dc40ed"/>
      <path id="Trazado_771202" data-name="Trazado 771202" d="M2.557,0,0,2.278C1.7,5.565,4.252,5.667,6.3,5.75c1.932.077,3.064.194,3.84,1.7s.442,2.924-.217,5.31c-.7,2.532-1.568,5.682.133,8.969s4.252,3.389,6.3,3.471c1.932.077,3.064.194,3.84,1.7s.442,2.925-.216,5.31c-.7,2.532-1.568,5.682.133,8.97s4.252,3.389,6.3,3.472c1.933.077,3.064.195,3.841,1.7l2.557-2.278c-1.7-3.288-4.252-3.39-6.3-3.472-1.932-.077-3.064-.195-3.841-1.7s-.442-2.925.216-5.31c.7-2.532,1.568-5.682-.133-8.97s-4.252-3.389-6.3-3.471c-1.932-.077-3.064-.194-3.84-1.7s-.442-2.924.217-5.31c.7-2.532,1.568-5.682-.133-8.969S8.447,1.778,6.4,1.7C4.464,1.618,3.333,1.5,2.557,0" transform="translate(968.995 413.317) rotate(90)" fill="#ff06cc"/>
      <ellipse id="Elipse_4727" data-name="Elipse 4727" cx="10.548" cy="10.046" rx="10.548" ry="10.046" transform="translate(922.655 565.372)" fill="#fff"/>
      <ellipse id="Elipse_4729" data-name="Elipse 4729" cx="5.063" cy="5.316" rx="5.063" ry="5.316" transform="translate(1309.338 546.331)" fill="#fff"/>
    </g>
    <g id="Grupo_1072486" data-name="Grupo 1072486" transform="translate(389.668 841)">
      <g id="Grupo_1072487" data-name="Grupo 1072487" transform="translate(-189.032 11.039)">
        <path id="Trazado_818654" data-name="Trazado 818654" d="M31.965,28.61A31.965,31.965,0,1,0,63.929,60.575,31.965,31.965,0,0,0,31.965,28.61m0,52.4A20.437,20.437,0,1,1,52.4,60.575,20.436,20.436,0,0,1,31.965,81.012" transform="translate(0 61.988)" fill="#dc40ed"/>
        <path id="Trazado_818655" data-name="Trazado 818655" d="M192.348,56.444h-3.794a31.247,31.247,0,0,0-3.889-9.391l2.682-2.682a2.961,2.961,0,0,0,0-4.188l-5.96-5.96a2.961,2.961,0,0,0-4.187,0l-2.682,2.682a31.243,31.243,0,0,0-9.39-3.889V29.224a2.962,2.962,0,0,0-2.962-2.962h-8.428a2.962,2.962,0,0,0-2.962,2.962v3.793a31.244,31.244,0,0,0-9.39,3.889L138.7,34.224a2.961,2.961,0,0,0-4.188,0l-5.959,5.96a2.961,2.961,0,0,0,0,4.188l2.682,2.682a31.212,31.212,0,0,0-3.889,9.391h-3.794a2.961,2.961,0,0,0-2.961,2.961v8.428a2.961,2.961,0,0,0,2.961,2.961h3.794a31.236,31.236,0,0,0,3.888,9.391l-2.682,2.682a2.961,2.961,0,0,0,0,4.188l5.959,5.959a2.961,2.961,0,0,0,4.188,0l2.682-2.682a31.244,31.244,0,0,0,9.39,3.889v3.793a2.961,2.961,0,0,0,2.962,2.961h8.428a2.961,2.961,0,0,0,2.962-2.961V94.222a31.244,31.244,0,0,0,9.39-3.889l2.682,2.682a2.961,2.961,0,0,0,4.187,0l5.96-5.959a2.961,2.961,0,0,0,0-4.188l-2.682-2.682a31.271,31.271,0,0,0,3.888-9.391h3.794a2.961,2.961,0,0,0,2.961-2.961V59.405a2.961,2.961,0,0,0-2.961-2.961m-34.4,22.209a15.034,15.034,0,1,1,15.034-15.034,15.034,15.034,0,0,1-15.034,15.034" transform="translate(243.258 -26.262)" fill="#dc40ed"/>
        <rect id="Rectángulo_376303" data-name="Rectángulo 376303" width="19.178" height="3.435" transform="translate(435.496 86.204)" fill="#dc40ed"/>
        <rect id="Rectángulo_376304" data-name="Rectángulo 376304" width="28.917" height="3.434" transform="translate(435.496 93.933)" fill="#dc40ed"/>
        <rect id="Rectángulo_376305" data-name="Rectángulo 376305" width="35.66" height="3.435" transform="translate(435.496 101.66)" fill="#dc40ed"/>
        <rect id="Rectángulo_376306" data-name="Rectángulo 376306" width="13.635" height="3.435" transform="translate(435.496 109.387)" fill="#dc40ed"/>
        <rect id="Rectángulo_376307" data-name="Rectángulo 376307" width="64.061" height="6.681" transform="translate(255.535 106.687)" fill="#dc40ed" stroke="#289df2" stroke-miterlimit="10" stroke-width="1.128"/>
        <rect id="Rectángulo_376308" data-name="Rectángulo 376308" width="39.694" height="1.965" transform="translate(256.268 108.533)" fill="#dc40ed"/>
      </g>
    </g>
    <g id="Grupo_1072484" data-name="Grupo 1072484" transform="translate(226.156 841)">
      <g id="Grupo_1072479" data-name="Grupo 1072479">
        <g id="Grupo_1072478" data-name="Grupo 1072478" clip-path="url(#clip-path)">
          <path id="Trazado_818628" data-name="Trazado 818628" d="M348.945,188.228A36.435,36.435,0,1,1,369.068,169.3" transform="translate(20.809 8.181)" fill="none" stroke="#ff4d6b" stroke-linecap="round" stroke-linejoin="round" stroke-width="1.128" stroke-dasharray="0 5.638"/>
          <path id="Rectángulo_376227" data-name="Rectángulo 376227" d="M11.467,0H333.426a11.468,11.468,0,0,1,11.468,11.468V205a11.467,11.467,0,0,1-11.467,11.467H11.467A11.467,11.467,0,0,1,0,205V11.467A11.467,11.467,0,0,1,11.467,0Z" transform="translate(12.84)" fill="#222b89"/>
          <rect id="Rectángulo_376228" data-name="Rectángulo 376228" width="35.577" height="7.838" transform="translate(37.989 26.78)" fill="#284d89"/>
          <rect id="Rectángulo_376229" data-name="Rectángulo 376229" width="35.577" height="7.838" transform="translate(80.8 26.78)" fill="#284d89"/>
          <rect id="Rectángulo_376230" data-name="Rectángulo 376230" width="35.577" height="7.838" transform="translate(189.339 26.78)" fill="#284d89"/>
          <rect id="Rectángulo_376231" data-name="Rectángulo 376231" width="35.577" height="7.838" transform="translate(297.878 26.78)" fill="#284d89"/>
          <rect id="Rectángulo_376232" data-name="Rectángulo 376232" width="63.616" height="7.838" transform="translate(121.202 26.78)" fill="#dc40ed"/>
          <rect id="Rectángulo_376233" data-name="Rectángulo 376233" width="63.616" height="7.838" transform="translate(229.136 26.78)" fill="#2889db"/>
          <rect id="Rectángulo_376234" data-name="Rectángulo 376234" width="6.231" height="3.819" transform="translate(38.19 20.549)" fill="#2889db"/>
          <rect id="Rectángulo_376235" data-name="Rectángulo 376235" width="65.022" height="3.819" transform="translate(38.19 41.05)" fill="#fff"/>
          <rect id="Rectángulo_376236" data-name="Rectángulo 376236" width="19.296" height="3.819" transform="translate(38.19 47.784)" fill="#fff"/>
          <path id="Trazado_818629" data-name="Trazado 818629" d="M104.523,184.855h-60.3a8.14,8.14,0,0,1-8.14-8.14V67.573a8.139,8.139,0,0,1,8.14-8.14h60.3a8.139,8.139,0,0,1,8.14,8.14V176.715a8.14,8.14,0,0,1-8.14,8.14" transform="translate(2.508 4.13)" fill="#284d89"/>
          <rect id="Rectángulo_376237" data-name="Rectángulo 376237" width="25.627" height="3.92" transform="translate(48.24 81.953)" fill="#fff"/>
          <rect id="Rectángulo_376238" data-name="Rectángulo 376238" width="25.627" height="3.92" transform="translate(48.24 90.696)" fill="#fff"/>
          <rect id="Rectángulo_376239" data-name="Rectángulo 376239" width="25.627" height="3.92" transform="translate(48.24 99.441)" fill="#fff"/>
          <rect id="Rectángulo_376240" data-name="Rectángulo 376240" width="15.678" height="3.92" transform="translate(48.24 135.921)" fill="#fff"/>
          <rect id="Rectángulo_376241" data-name="Rectángulo 376241" width="15.678" height="3.92" transform="translate(48.24 144.664)" fill="#fff"/>
          <rect id="Rectángulo_376242" data-name="Rectángulo 376242" width="15.678" height="3.92" transform="translate(75.173 144.664)" fill="#fff"/>
          <rect id="Rectángulo_376243" data-name="Rectángulo 376243" width="9.849" height="3.92" transform="translate(48.24 125.972)" fill="#fff"/>
          <rect id="Rectángulo_376244" data-name="Rectángulo 376244" width="5.226" height="3.92" transform="translate(90.449 125.972)" fill="#fff"/>
          <rect id="Rectángulo_376245" data-name="Rectángulo 376245" width="26.934" height="3.92" transform="translate(61.505 125.972)" fill="#dc40ed"/>
          <rect id="Rectángulo_376246" data-name="Rectángulo 376246" width="3.769" height="3.92" transform="translate(48.24 111.199)" fill="#2889db"/>
          <rect id="Rectángulo_376247" data-name="Rectángulo 376247" width="3.769" height="3.92" transform="translate(48.24 118.133)" fill="#dc40ed"/>
          <path id="Trazado_818630" data-name="Trazado 818630" d="M64.742,140.008H63.334l3.367-5.024h1.407Z" transform="translate(4.401 9.381)" fill="#fff"/>
          <rect id="Rectángulo_376248" data-name="Rectángulo 376248" width="58.189" height="3.317" transform="translate(48.239 156.122)" fill="#282e5c"/>
          <rect id="Rectángulo_376249" data-name="Rectángulo 376249" width="58.189" height="3.317" transform="translate(48.239 163.659)" fill="#282e5c"/>
          <path id="Trazado_818631" data-name="Trazado 818631" d="M372.081,111.682H212.087a7.236,7.236,0,0,1-7.236-7.236V61.03a7.236,7.236,0,0,1,7.236-7.236H372.081a7.236,7.236,0,0,1,7.236,7.236v43.415a7.236,7.236,0,0,1-7.236,7.236" transform="translate(14.236 3.738)" fill="#1425dd"/>
          <path id="Trazado_818632" data-name="Trazado 818632" d="M253.338,89.874s8.844-21.708,34.169-16.482,38.19,33.768,70.751,10.452" transform="translate(17.606 5.044)" fill="none" stroke="#fff" stroke-miterlimit="10" stroke-width="1.128"/>
          <rect id="Rectángulo_376250" data-name="Rectángulo 376250" width="3.618" height="3.618" transform="translate(349.333 96.124)" fill="#1425dd"/>
          <rect id="Rectángulo_376251" data-name="Rectángulo 376251" width="3.618" height="3.618" transform="translate(349.333 96.124)" fill="none" stroke="#fff" stroke-miterlimit="10" stroke-width="1.128"/>
          <line id="Línea_426" data-name="Línea 426" x2="45.828" transform="translate(275.366 77.431)" fill="#1425dd"/>
          <line id="Línea_427" data-name="Línea 427" x2="45.828" transform="translate(275.366 77.431)" fill="none" stroke="#fff" stroke-miterlimit="10" stroke-width="0.564"/>
          <line id="Línea_428" data-name="Línea 428" x2="45.828" transform="translate(328.229 98.938)" fill="#1425dd"/>
          <line id="Línea_429" data-name="Línea 429" x2="45.828" transform="translate(328.229 98.938)" fill="none" stroke="#fff" stroke-miterlimit="10" stroke-width="0.564"/>
          <rect id="Rectángulo_376252" data-name="Rectángulo 376252" width="3.618" height="3.618" transform="translate(294.662 75.622)" fill="#1425dd"/>
          <rect id="Rectángulo_376253" data-name="Rectángulo 376253" width="3.618" height="3.618" transform="translate(294.662 75.622)" fill="none" stroke="#fff" stroke-miterlimit="10" stroke-width="1.128"/>
          <path id="Trazado_818633" data-name="Trazado 818633" d="M236,125.876H201.432a5.226,5.226,0,0,1-5.227-5.226V68.793a5.226,5.226,0,0,1,5.227-5.226H236a5.225,5.225,0,0,1,5.226,5.226V120.65A5.226,5.226,0,0,1,236,125.876" transform="translate(13.635 4.418)" fill="#284d89"/>
          <rect id="Rectángulo_376254" data-name="Rectángulo 376254" width="25.627" height="3.534" transform="translate(216.876 76.828)" fill="#fff"/>
          <rect id="Rectángulo_376255" data-name="Rectángulo 376255" width="25.627" height="3.534" transform="translate(216.876 84.709)" fill="#fff"/>
          <rect id="Rectángulo_376256" data-name="Rectángulo 376256" width="9.648" height="3.534" transform="translate(216.876 92.592)" fill="#fff"/>
          <rect id="Rectángulo_376257" data-name="Rectángulo 376257" width="16.683" height="3.534" transform="translate(216.876 100.745)" fill="#1425dd"/>
          <rect id="Rectángulo_376258" data-name="Rectángulo 376258" width="11.256" height="3.534" transform="translate(216.876 108.628)" fill="#1425dd"/>
          <rect id="Rectángulo_376259" data-name="Rectángulo 376259" width="11.256" height="3.534" transform="translate(216.876 116.509)" fill="#fff"/>
          <line id="Línea_430" data-name="Línea 430" x2="18.089" transform="translate(365.413 49.694)" fill="none" stroke="#284d89" stroke-linecap="round" stroke-linejoin="round" stroke-width="2.255"/>
          <path id="Trazado_818634" data-name="Trazado 818634" d="M316.288,142.08l-6.244,4.887-8.957,1.628s-8.416-.542-9.23-.542-6.515-4.615-6.515-4.615l-10.586-3.8-7.329,2.714-8.686-1.9-13.03-.814-12.486,4.885-10.315,1.629-9.23,2.986-10.315.815-11.129-8.686-10.315-1.9-10.586,5.972-8.415,2.714-9.554-.272-12.04,7.329h-7.18l-12.125,4.252" transform="translate(8.48 9.685)" fill="none" stroke="#ff5c66" stroke-miterlimit="10" stroke-width="1.015"/>
          <line id="Línea_431" data-name="Línea 431" x2="194.358" transform="translate(130.68 169.229)" fill="none" stroke="#f7f7f7" stroke-miterlimit="10" stroke-width="0.254"/>
          <rect id="Rectángulo_376260" data-name="Rectángulo 376260" width="1.99" height="4.887" transform="translate(128.78 166.785)" fill="#f7f7f7"/>
          <rect id="Rectángulo_376261" data-name="Rectángulo 376261" width="1.99" height="4.887" transform="translate(323.863 166.785)" fill="#f7f7f7"/>
          <line id="Línea_432" data-name="Línea 432" y1="16.377" transform="translate(324.858 152.852)" fill="none" stroke="#f7f7f7" stroke-miterlimit="10" stroke-width="0.254"/>
          <path id="Trazado_818635" data-name="Trazado 818635" d="M304.964,142.257a1.538,1.538,0,1,1-1.538-1.538,1.538,1.538,0,0,1,1.538,1.538" transform="translate(20.98 9.779)" fill="#f7f7f7"/>
        </g>
      </g>
      <text id="beta_test" data-name="beta test" transform="translate(130.951 180.274)" fill="#f7f7f7" font-size="8" font-family="BebasNeueRegular, Bebas Neue"><tspan x="0" y="0" letter-spacing="0.059em">b</tspan><tspan y="0" letter-spacing="0.06em">e</tspan><tspan y="0" letter-spacing="0.022em">t</tspan><tspan y="0" letter-spacing="0.059em">a </tspan><tspan y="0" letter-spacing="0.06em">tes</tspan><tspan y="0">t</tspan></text>
      <g id="Grupo_1072481" data-name="Grupo 1072481">
        <g id="Grupo_1072480" data-name="Grupo 1072480" clip-path="url(#clip-path)">
          <rect id="Rectángulo_376263" data-name="Rectángulo 376263" width="120.886" height="2.172" transform="translate(175.56 176.286)" fill="#28385e"/>
          <rect id="Rectángulo_376264" data-name="Rectángulo 376264" width="74.196" height="2.172" transform="translate(175.56 176.286)" fill="#dc40ed"/>
          <rect id="Rectángulo_376265" data-name="Rectángulo 376265" width="59.448" height="2.172" transform="translate(175.56 180.448)" fill="#28385e"/>
          <path id="Trazado_818636" data-name="Trazado 818636" d="M129.338,174.9h7.329l.95-2.036H122.824v3.394h5.157Z" transform="translate(8.536 12.014)" fill="#dc40ed"/>
          <rect id="Rectángulo_376266" data-name="Rectángulo 376266" width="0.814" height="0.814" transform="translate(152.249 184.86)" fill="#f7f7f7"/>
          <rect id="Rectángulo_376267" data-name="Rectángulo 376267" width="0.814" height="0.814" transform="translate(157.306 184.86)" fill="#f7f7f7"/>
          <rect id="Rectángulo_376268" data-name="Rectángulo 376268" width="0.814" height="0.814" transform="translate(162.361 184.86)" fill="#f7f7f7"/>
        </g>
      </g>
      <text id="_500" data-name="500" transform="translate(315.355 146.192)" fill="#f7f7f7" font-size="8" font-family="BebasNeueBook, Bebas Neue"><tspan x="0" y="0" letter-spacing="0.06em">50</tspan><tspan y="0">0</tspan></text>
      <g id="Grupo_1072483" data-name="Grupo 1072483">
        <g id="Grupo_1072482" data-name="Grupo 1072482" clip-path="url(#clip-path)">
          <path id="Trazado_818637" data-name="Trazado 818637" d="M285.611,171.346H283.8l-2.9-6.514h1.81Z" transform="translate(19.522 11.455)" fill="#28385e"/>
          <path id="Trazado_818638" data-name="Trazado 818638" d="M290.01,171.346H288.2l-2.9-6.514h1.81Z" transform="translate(19.828 11.455)" fill="#28385e"/>
          <path id="Trazado_818639" data-name="Trazado 818639" d="M294.409,171.346H292.6l-2.9-6.514h1.81Z" transform="translate(20.133 11.455)" fill="#28385e"/>
          <path id="Trazado_818640" data-name="Trazado 818640" d="M298.809,171.346H297l-2.9-6.514h1.81Z" transform="translate(20.439 11.455)" fill="#28385e"/>
          <path id="Trazado_818641" data-name="Trazado 818641" d="M303.124,171.346h-1.81l-2.9-6.514h1.81Z" transform="translate(20.739 11.455)" fill="#28385e"/>
          <rect id="Rectángulo_376270" data-name="Rectángulo 376270" width="6.03" height="36.983" transform="translate(111.755 78.839)" fill="none" stroke="#289df2" stroke-miterlimit="10" stroke-width="1.128"/>
          <path id="Trazado_818642" data-name="Trazado 818642" d="M355.646,153.159a20.783,20.783,0,1,1-20.782-20.784,20.782,20.782,0,0,1,20.782,20.784" transform="translate(21.827 9.2)" fill="#dc40ed"/>
          <path id="Trazado_818643" data-name="Trazado 818643" d="M332.871,150.185l-8.254,3.025,8.254,3v3.1l-11.8-4.487V151.6l11.8-4.487Z" transform="translate(22.313 10.224)" fill="#f9fbfc"/>
          <path id="Trazado_818644" data-name="Trazado 818644" d="M334.625,147.112l11.8,4.487v3.222l-11.8,4.488v-3.1l8.254-3-8.254-3.023Z" transform="translate(23.255 10.224)" fill="#f9fbfc"/>
          <circle id="Elipse_9673" data-name="Elipse 9673" cx="2.713" cy="2.713" r="2.713" transform="translate(385.915 176.624)" fill="none" stroke="#ff4d6b" stroke-miterlimit="10" stroke-width="1.128"/>
          <rect id="Rectángulo_376271" data-name="Rectángulo 376271" width="71.957" height="3.618" transform="translate(128.237 62.758)" fill="#284d89"/>
          <rect id="Rectángulo_376272" data-name="Rectángulo 376272" width="32.612" height="3.618" transform="translate(128.236 62.758)" fill="#2889db"/>
          <rect id="Rectángulo_376273" data-name="Rectángulo 376273" width="71.957" height="3.618" transform="translate(128.237 72.104)" fill="#284d89"/>
          <rect id="Rectángulo_376274" data-name="Rectángulo 376274" width="50.098" height="3.618" transform="translate(128.237 72.104)" fill="#dc40ed"/>
          <rect id="Rectángulo_376275" data-name="Rectángulo 376275" width="71.957" height="3.618" transform="translate(128.237 81.451)" fill="#284d89"/>
          <rect id="Rectángulo_376276" data-name="Rectángulo 376276" width="14.672" height="3.618" transform="translate(128.237 81.451)" fill="#1ae5ff"/>
          <rect id="Rectángulo_376277" data-name="Rectángulo 376277" width="1.407" height="1.407" transform="translate(128.537 56.427)" fill="#284d89"/>
          <rect id="Rectángulo_376278" data-name="Rectángulo 376278" width="1.407" height="1.407" transform="translate(133.362 56.427)" fill="#284d89"/>
          <rect id="Rectángulo_376279" data-name="Rectángulo 376279" width="1.407" height="1.407" transform="translate(138.185 56.427)" fill="#284d89"/>
          <rect id="Rectángulo_376280" data-name="Rectángulo 376280" width="2.345" height="2.345" transform="translate(262.435 105.705)" fill="#fff"/>
          <rect id="Rectángulo_376281" data-name="Rectángulo 376281" width="2.345" height="2.345" transform="translate(270.474 105.705)" fill="#fff"/>
          <rect id="Rectángulo_376282" data-name="Rectángulo 376282" width="2.345" height="2.345" transform="translate(278.515 105.705)" fill="#fff"/>
          <rect id="Rectángulo_376283" data-name="Rectángulo 376283" width="4.397" height="4.397" transform="translate(296.283 12.522)" fill="#fff"/>
          <rect id="Rectángulo_376284" data-name="Rectángulo 376284" width="4.397" height="4.397" transform="translate(311.357 12.522)" fill="#fff"/>
          <rect id="Rectángulo_376285" data-name="Rectángulo 376285" width="4.397" height="4.397" transform="translate(326.433 12.522)" fill="#fff"/>
          <rect id="Rectángulo_376286" data-name="Rectángulo 376286" width="4.397" height="4.397" transform="translate(233.974 194.224)" fill="#fff"/>
          <rect id="Rectángulo_376287" data-name="Rectángulo 376287" width="4.397" height="4.397" transform="translate(249.048 194.224)" fill="#fff"/>
          <rect id="Rectángulo_376288" data-name="Rectángulo 376288" width="4.397" height="4.397" transform="translate(264.123 194.224)" fill="#fff"/>
          <rect id="Rectángulo_376289" data-name="Rectángulo 376289" width="2.345" height="2.345" transform="translate(49.512 72.473)" fill="#fff"/>
          <rect id="Rectángulo_376290" data-name="Rectángulo 376290" width="2.345" height="2.345" transform="translate(57.552 72.473)" fill="#fff"/>
          <rect id="Rectángulo_376291" data-name="Rectángulo 376291" width="2.345" height="2.345" transform="translate(65.592 72.473)" fill="#fff"/>
          <rect id="Rectángulo_376292" data-name="Rectángulo 376292" width="38.994" height="3.819" transform="translate(339.284 69.592)" fill="#fff"/>
          <rect id="Rectángulo_376293" data-name="Rectángulo 376293" width="11.572" height="3.819" transform="translate(339.283 76.326)" fill="#287dd1"/>
          <path id="Trazado_818645" data-name="Trazado 818645" d="M24.723,72.948H16.281V64.507H8.442v8.442H0v7.838H8.442v8.443h7.839V80.787h8.442Z" transform="translate(0 4.483)" fill="#1ae5ff"/>
          <path id="Trazado_818646" data-name="Trazado 818646" d="M134.587,90.186a13.2,13.2,0,1,0,13.2,13.2,13.2,13.2,0,0,0-13.2-13.2m0,20.082a6.88,6.88,0,1,1,6.88-6.88,6.879,6.879,0,0,1-6.88,6.88" transform="translate(8.436 6.268)" fill="#284d89"/>
          <path id="Trazado_818647" data-name="Trazado 818647" d="M125.533,102.086a3.233,3.233,0,0,0,2.86-1.822,6.876,6.876,0,0,1,12.255,0,3.23,3.23,0,0,0,2.859,1.822,3.157,3.157,0,0,0,2.875-4.5,13.2,13.2,0,0,0-23.724,0,3.156,3.156,0,0,0,2.875,4.5" transform="translate(8.502 6.268)" fill="#1425dd"/>
          <path id="Trazado_818648" data-name="Trazado 818648" d="M154.461,103.388a13.2,13.2,0,1,0,13.2-13.2,13.2,13.2,0,0,0-13.2,13.2m20.082,0a6.88,6.88,0,1,1-6.88-6.88,6.879,6.879,0,0,1,6.88,6.88" transform="translate(10.734 6.268)" fill="#284d89"/>
          <path id="Trazado_818649" data-name="Trazado 818649" d="M166.362,112.308a3.233,3.233,0,0,0-1.822-2.86,6.876,6.876,0,0,1,0-12.255,3.231,3.231,0,0,0,1.822-2.859,3.156,3.156,0,0,0-4.5-2.875,13.2,13.2,0,0,0,0,23.724,3.156,3.156,0,0,0,4.5-2.875" transform="translate(10.734 6.334)" fill="#dc40ed"/>
          <rect id="Rectángulo_376294" data-name="Rectángulo 376294" width="24.119" height="57.888" transform="translate(81.204 57.532)" fill="none" stroke="#289df2" stroke-miterlimit="10" stroke-width="1.128"/>
          <rect id="Rectángulo_376295" data-name="Rectángulo 376295" width="7.035" height="2.079" transform="translate(84.62 68.688)" fill="#1ae5ff"/>
          <rect id="Rectángulo_376296" data-name="Rectángulo 376296" width="7.035" height="2.079" transform="translate(84.62 73.327)" fill="#1ae5ff"/>
          <rect id="Rectángulo_376297" data-name="Rectángulo 376297" width="7.035" height="2.079" transform="translate(84.62 77.965)" fill="#1ae5ff"/>
          <rect id="Rectángulo_376298" data-name="Rectángulo 376298" width="7.035" height="2.079" transform="translate(84.62 102.084)" fill="#1ae5ff"/>
          <rect id="Rectángulo_376299" data-name="Rectángulo 376299" width="10.251" height="2.079" transform="translate(84.62 84.768)" fill="#1ae5ff"/>
          <rect id="Rectángulo_376300" data-name="Rectángulo 376300" width="10.251" height="2.079" transform="translate(84.62 89.407)" fill="#fff"/>
          <rect id="Rectángulo_376301" data-name="Rectángulo 376301" width="10.251" height="2.079" transform="translate(84.62 94.045)" fill="#fff"/>
          <path id="Trazado_818650" data-name="Trazado 818650" d="M190.568,185.4h10.854l6.03,6.03h62.711l9.648-9.648h33.767" transform="translate(13.244 12.633)" fill="none" stroke="#fff" stroke-miterlimit="10" stroke-width="1.128"/>
          <circle id="Elipse_9674" data-name="Elipse 9674" cx="3.166" cy="3.166" r="3.166" transform="translate(197.48 195.015)" fill="none" stroke="#fff" stroke-miterlimit="10" stroke-width="1.128"/>
          <circle id="Elipse_9675" data-name="Elipse 9675" cx="3.166" cy="3.166" r="3.166" transform="translate(326.922 191.095)" fill="none" stroke="#fff" stroke-miterlimit="10" stroke-width="1.128"/>
          <path id="Trazado_818651" data-name="Trazado 818651" d="M348.956,26.24a4.02,4.02,0,1,1-4.02-4.019,4.02,4.02,0,0,1,4.02,4.019" transform="translate(23.692 1.544)" fill="#1425dd"/>
          <path id="Trazado_818652" data-name="Trazado 818652" d="M19.332,186.934A7.035,7.035,0,1,1,12.3,179.9a7.035,7.035,0,0,1,7.035,7.035" transform="translate(0.366 12.502)" fill="#dc40ed"/>
        </g>
      </g>
    </g>
    <g id="Grupo_1072488" data-name="Grupo 1072488" transform="translate(557.156 976)">
      <g transform="matrix(1, 0, 0, 1, -377, -145.5)" filter="url(#Elipse_4719)">
        <g id="Elipse_4719-3" data-name="Elipse 4719" transform="translate(377 145.5)" fill="none" stroke="#fff" stroke-width="6">
          <circle cx="26" cy="26" r="26" stroke="none"/>
          <circle cx="26" cy="26" r="23" fill="none"/>
        </g>
      </g>
    </g>
    <g id="Grupo_1072489" data-name="Grupo 1072489" transform="translate(244.156 846)">
      <g transform="matrix(1, 0, 0, 1, -64, -15.5)" filter="url(#Elipse_4719-2)">
        <g id="Elipse_4719-4" data-name="Elipse 4719" transform="translate(64 15.5)" fill="none" stroke="#fff" stroke-width="6">
          <circle cx="10" cy="10" r="10" stroke="none"/>
          <circle cx="10" cy="10" r="7" fill="none"/>
        </g>
      </g>
    </g>
  </g>
</svg>
