<svg xmlns="http://www.w3.org/2000/svg" xmlns:xlink="http://www.w3.org/1999/xlink" width="119" height="119" viewBox="0 0 119 119">
  <defs>
    <filter id="Elipse_9677" x="0" y="0" width="119" height="119" filterUnits="userSpaceOnUse">
      <feOffset dy="1" input="SourceAlpha"/>
      <feGaussianBlur stdDeviation="8" result="blur"/>
      <feFlood flood-color="#fff"/>
      <feComposite operator="in" in2="blur"/>
      <feComposite in="SourceGraphic"/>
    </filter>
  </defs>
  <g id="Grupo_1072160" data-name="Grupo 1072160" transform="translate(-206 -3215)">
    <g id="Grupo_61577" data-name="Grupo 61577" transform="translate(243.957 3251.608)">
      <g id="Grupo_61576" data-name="Grupo 61576" transform="translate(0)">
        <g id="Grupo_61574" data-name="Grupo 61574" transform="translate(0.701 0.701)">
          <g id="Grupo_61556" data-name="Grupo 61556">
            <path id="Trazado_110567" data-name="Trazado 110567" d="M839.564,3366.281h22.422V3390.1H839.564Z" transform="translate(-839.564 -3366.281)" fill="#b8aff8"/>
          </g>
          <g id="Grupo_61557" data-name="Grupo 61557" transform="translate(19.619 18.217)">
            <path id="Trazado_110568" data-name="Trazado 110568" d="M882.286,3405.95h22.422v23.823H882.286Z" transform="translate(-882.286 -3405.95)" fill="#b8aff8"/>
          </g>
          <g id="Grupo_61558" data-name="Grupo 61558" transform="translate(5.605 2.803)">
            <path id="Trazado_110569" data-name="Trazado 110569" d="M862.981,3376.125a5.173,5.173,0,0,1-2.046,4.12l-.063.05h-.007a.944.944,0,0,0,.014-.2v-2.3a.71.71,0,0,0-.477-.666,7.245,7.245,0,0,1-2.838-1.752l-.189-.189-.189.189a7.245,7.245,0,0,1-2.838,1.752.71.71,0,0,0-.476.666v2.3a.977.977,0,0,0,.014.2h-.007l-.063-.05a5.175,5.175,0,0,1-2.046-4.12,3.737,3.737,0,0,1,3.742-3.742h3.727a3.736,3.736,0,0,1,3.742,3.742Z" transform="translate(-851.77 -3372.384)" fill="#b27946"/>
          </g>
          <g id="Grupo_61559" data-name="Grupo 61559" transform="translate(4.204 15.415)">
            <path id="Trazado_110570" data-name="Trazado 110570" d="M862.733,3403.715v4.541H848.719v-4.541a3.513,3.513,0,0,1,2.831-3.454l2.074-.414.077.147a2.262,2.262,0,0,0,4.05,0l.077-.147,2.074.414a3.513,3.513,0,0,1,2.831,3.454Z" transform="translate(-848.719 -3399.847)" fill="#68d0e8"/>
          </g>
          <g id="Grupo_61560" data-name="Grupo 61560" transform="translate(25.224 21.02)">
            <path id="Trazado_110571" data-name="Trazado 110571" d="M896.538,3419.916a5.175,5.175,0,0,1-2.046-4.12,3.737,3.737,0,0,1,3.742-3.742H904.3a1.405,1.405,0,0,1,1.4,1.4,4.163,4.163,0,0,1-1.234,2.971,4.306,4.306,0,0,1-.869.673,4.167,4.167,0,0,1-2.1.56h-.182a2.152,2.152,0,0,1-.981-.231,1.7,1.7,0,0,1-.939-1.521.245.245,0,0,1,.007-.07H899.4l-1.479.6a2.092,2.092,0,0,0-1.324,1.948v1.38a.979.979,0,0,0,.014.2H896.6Z" transform="translate(-894.492 -3412.054)" fill="#b27946"/>
          </g>
          <g id="Grupo_61561" data-name="Grupo 61561" transform="translate(21.49 33.632)">
            <path id="Trazado_110572" data-name="Trazado 110572" d="M902.707,3443.386v4.54H886.36a3.738,3.738,0,0,0,3.734-3.735v-3.615a3.548,3.548,0,0,1,1.43-.645l2.074-.413.077.147a2.262,2.262,0,0,0,4.05,0l.077-.147,2.074.413a3.513,3.513,0,0,1,2.831,3.455Z" transform="translate(-886.36 -3439.519)" fill="#f1bf5e"/>
          </g>
          <g id="Grupo_61562" data-name="Grupo 61562" transform="translate(9.109 13.551)">
            <path id="Trazado_110573" data-name="Trazado 110573" d="M859.764,3395.789l1.738.462a3.484,3.484,0,0,0,1.738-.462l.364,1.864-.077.147a2.262,2.262,0,0,1-4.05,0l-.077-.147Z" transform="translate(-859.399 -3395.789)" fill="#f0d0b4"/>
          </g>
          <g id="Grupo_61563" data-name="Grupo 61563" transform="translate(7.708 5.605)">
            <path id="Trazado_110574" data-name="Trazado 110574" d="M863.355,3381.094v2.3a.939.939,0,0,1-.014.2,3.493,3.493,0,0,1-3.489,3.3l-1.738-.462a3.428,3.428,0,0,1-1.752-2.838.968.968,0,0,1-.014-.2v-2.3a.71.71,0,0,1,.476-.666,7.242,7.242,0,0,0,2.838-1.751l.189-.189.189.189a7.241,7.241,0,0,0,2.838,1.751A.711.711,0,0,1,863.355,3381.094Z" transform="translate(-856.348 -3378.487)" fill="#f0d0b4"/>
          </g>
          <g id="Grupo_61564" data-name="Grupo 61564" transform="translate(28.728 31.769)">
            <path id="Trazado_110575" data-name="Trazado 110575" d="M902.485,3435.46a3.5,3.5,0,0,0,3.475,0l.365,1.864-.077.147a2.262,2.262,0,0,1-4.05,0l-.077-.147Z" transform="translate(-902.121 -3435.46)" fill="#f0d0b4"/>
          </g>
          <g id="Grupo_61565" data-name="Grupo 61565" transform="translate(27.327 24.804)">
            <path id="Trazado_110576" data-name="Trazado 110576" d="M901.873,3420.363a1.7,1.7,0,0,0,.939,1.521,2.155,2.155,0,0,0,.981.23h.182a4.161,4.161,0,0,0,2.1-.56v2.663a3.52,3.52,0,0,1-1.023,2.48,3.5,3.5,0,0,1-5.97-2.278.982.982,0,0,1-.014-.2v-1.38a2.093,2.093,0,0,1,1.324-1.948l1.479-.6h.007A.247.247,0,0,0,901.873,3420.363Z" transform="translate(-899.07 -3420.292)" fill="#f0d0b4"/>
          </g>
          <g id="Grupo_61566" data-name="Grupo 61566" transform="translate(16.816 1.401)">
            <path id="Trazado_110577" data-name="Trazado 110577" d="M897.2,3369.332H880.387a4.208,4.208,0,0,0-4.2,4.2v6.075a3.732,3.732,0,0,0,3.734,3.734,3.661,3.661,0,0,0,1.864-.5,3.7,3.7,0,0,0,1.128-.987,3.257,3.257,0,0,1,2.614-1.31h6.544a3.257,3.257,0,0,1,2.614,1.31,3.738,3.738,0,0,0,6.726-2.242v-6.075A4.208,4.208,0,0,0,897.2,3369.332Z" transform="translate(-876.183 -3369.332)" fill="#aab2bd"/>
          </g>
          <g id="Grupo_61567" data-name="Grupo 61567" transform="translate(0 28.027)">
            <path id="Trazado_110578" data-name="Trazado 110578" d="M860.585,3427.312H843.768a4.207,4.207,0,0,0-4.2,4.2v6.074a3.732,3.732,0,0,0,3.735,3.735,3.662,3.662,0,0,0,1.863-.5,3.712,3.712,0,0,0,1.128-.988,3.255,3.255,0,0,1,2.613-1.311h6.544a3.256,3.256,0,0,1,2.613,1.311,3.738,3.738,0,0,0,6.726-2.243v-6.074A4.207,4.207,0,0,0,860.585,3427.312Z" transform="translate(-839.564 -3427.312)" fill="#aab2bd"/>
          </g>
          <g id="Grupo_61568" data-name="Grupo 61568" transform="translate(19.619 4.204)">
            <path id="Trazado_110579" data-name="Trazado 110579" d="M887.891,3377.537v1.4a.7.7,0,0,1-.7.7h-.7v.7a.7.7,0,0,1-.7.7h-1.4a.7.7,0,0,1-.7-.7v-.7h-.7a.7.7,0,0,1-.7-.7v-1.4a.7.7,0,0,1,.7-.7h.7v-.7a.7.7,0,0,1,.7-.7h1.4a.7.7,0,0,1,.7.7v.7h.7A.7.7,0,0,1,887.891,3377.537Z" transform="translate(-882.286 -3375.435)" fill="#f7d99e"/>
          </g>
          <g id="Grupo_61569" data-name="Grupo 61569" transform="translate(28.027 4.204)">
            <path id="Trazado_110580" data-name="Trazado 110580" d="M900.6,3375.435h2.8v2.8h-2.8Z" transform="translate(-900.595 -3375.435)" fill="#69e9f8"/>
          </g>
          <g id="Grupo_61570" data-name="Grupo 61570" transform="translate(28.027 1.401)">
            <path id="Trazado_110581" data-name="Trazado 110581" d="M900.6,3369.332h2.8v2.8h-2.8Z" transform="translate(-900.595 -3369.332)" fill="#69e9f8"/>
          </g>
          <g id="Grupo_61571" data-name="Grupo 61571" transform="translate(11.211 30.83)">
            <path id="Trazado_110582" data-name="Trazado 110582" d="M863.977,3433.415h2.8v2.8h-2.8Z" transform="translate(-863.977 -3433.415)" fill="#fcd770"/>
          </g>
          <g id="Grupo_61572" data-name="Grupo 61572" transform="translate(11.211 28.027)">
            <path id="Trazado_110583" data-name="Trazado 110583" d="M863.977,3427.312h2.8v2.8h-2.8Z" transform="translate(-863.977 -3427.312)" fill="#fcd770"/>
          </g>
          <g id="Grupo_61573" data-name="Grupo 61573" transform="translate(2.803 30.83)">
            <path id="Trazado_110584" data-name="Trazado 110584" d="M851.273,3435.517v1.4a.7.7,0,0,1-.7.7h-.7v.7a.7.7,0,0,1-.7.7h-1.4a.7.7,0,0,1-.7-.7v-.7h-.7a.7.7,0,0,1-.7-.7v-1.4a.7.7,0,0,1,.7-.7h.7v-.7a.7.7,0,0,1,.7-.7h1.4a.7.7,0,0,1,.7.7v.7h.7A.7.7,0,0,1,851.273,3435.517Z" transform="translate(-845.667 -3433.415)" fill="#05dbf3"/>
          </g>
        </g>
        <g id="Grupo_61575" data-name="Grupo 61575">
          <path id="Trazado_110585" data-name="Trazado 110585" d="M849.747,3433.291a1.4,1.4,0,0,0-1.4-1.4h-1.4a12998.374,12998.374,0,0,1-2.8,2.8v1.4a7000.307,7000.307,0,0,0,2.8,2.8h1.4a5352.919,5352.919,0,0,0,2.8-2.8v-1.4A1.4,1.4,0,0,0,849.747,3433.291Zm0,2.8h-1.4v1.4h-1.4v-1.4h-1.4v-1.4h1.4v-1.4h1.4v1.4h1.4Z" transform="translate(-841.339 -3401.059)" fill="#453d7a"/>
          <path id="Trazado_110586" data-name="Trazado 110586" d="M862.451,3444.1h1.4v1.4h-1.4Z" transform="translate(-851.24 -3407.66)" fill="#453d7a"/>
          <path id="Trazado_110587" data-name="Trazado 110587" d="M868.554,3444.1h1.4v1.4h-1.4Z" transform="translate(-854.54 -3407.66)" fill="#453d7a"/>
          <path id="Trazado_110588" data-name="Trazado 110588" d="M877.709,3444.1h1.4v1.4h-1.4Z" transform="translate(-859.491 -3407.66)" fill="#453d7a"/>
          <path id="Trazado_110589" data-name="Trazado 110589" d="M883.812,3444.1h1.4v1.4h-1.4Z" transform="translate(-862.791 -3407.66)" fill="#453d7a"/>
          <circle id="Elipse_4466" data-name="Elipse 4466" cx="0.701" cy="0.701" r="0.701" transform="translate(19.619 30.83)" fill="#453d7a"/>
          <circle id="Elipse_4467" data-name="Elipse 4467" cx="0.701" cy="0.701" r="0.701" transform="translate(19.619 33.633)" fill="#453d7a"/>
          <circle id="Elipse_4468" data-name="Elipse 4468" cx="0.701" cy="0.701" r="0.701" transform="translate(18.218 32.231)" fill="#453d7a"/>
          <circle id="Elipse_4469" data-name="Elipse 4469" cx="0.701" cy="0.701" r="0.701" transform="translate(21.021 32.231)" fill="#453d7a"/>
          <path id="Trazado_110590" data-name="Trazado 110590" d="M886.366,3375.311a1.4,1.4,0,0,0-1.4-1.4h-1.4a8271.636,8271.636,0,0,0-2.8,2.8v1.4a10111.419,10111.419,0,0,1,2.8,2.8h1.4a9100.575,9100.575,0,0,0,2.8-2.8v-1.4A1.4,1.4,0,0,0,886.366,3375.311Zm0,2.8h-1.4v1.4h-1.4v-1.4h-1.4v-1.4h1.4v-1.4h1.4v1.4h1.4Z" transform="translate(-861.141 -3369.706)" fill="#453d7a"/>
          <path id="Trazado_110591" data-name="Trazado 110591" d="M862.842,3379.8a2.582,2.582,0,0,1,2.055-1.028h6.54a2.583,2.583,0,0,1,2.055,1.027,4.437,4.437,0,0,0,7.987-2.662v-6.072a4.911,4.911,0,0,0-4.905-4.905H861.861v-1.4H838.038v25.224h19.619v2.8H842.943a4.911,4.911,0,0,0-4.905,4.9v6.073a4.438,4.438,0,0,0,7.987,2.662,2.583,2.583,0,0,1,2.056-1.028h6.54a2.585,2.585,0,0,1,2.056,1.028,4.456,4.456,0,0,0,3.549,1.775H881.48v-25.224H861.861v-2.231A4.438,4.438,0,0,0,862.842,3379.8Zm17.237-8.735v6.072a3.036,3.036,0,0,1-5.465,1.821,3.991,3.991,0,0,0-3.176-1.588H864.9a3.989,3.989,0,0,0-3.176,1.589,3.036,3.036,0,0,1-5.465-1.822v-6.072a3.507,3.507,0,0,1,3.5-3.5h6.306v5.605h4.2v-5.605h6.306A3.507,3.507,0,0,1,880.079,3371.061Zm-26.883,1.278a6.577,6.577,0,0,1-2.559-1.582l-.687-.687-.687.687a6.57,6.57,0,0,1-2.558,1.581,1.4,1.4,0,0,0-.959,1.33v.726a4.5,4.5,0,0,1-.7-2.4,3.039,3.039,0,0,1,3.039-3.039h3.732a3.038,3.038,0,0,1,3.039,3.04,4.5,4.5,0,0,1-.7,2.4v-.726a1.4,1.4,0,0,0-.958-1.329Zm3.06,16.239H843.644v-3.839a2.823,2.823,0,0,1,2.27-2.768l1.574-.314a2.963,2.963,0,0,0,4.925,0l1.574.314a2.823,2.823,0,0,1,2.269,2.768Zm-4.94-7.822a1.553,1.553,0,0,1-2.733,0l.149-.768a4.165,4.165,0,0,0,2.435,0Zm-1.366-1.987a2.806,2.806,0,0,1-2.8-2.8v-2.3a7.98,7.98,0,0,0,2.8-1.631,7.99,7.99,0,0,0,2.8,1.631v2.3A2.806,2.806,0,0,1,849.95,3378.769Zm17.517-8.409h1.4v1.4h-1.4Zm1.4-1.4h-1.4v-1.4h1.4Zm-29.428-2.8h20.32a4.912,4.912,0,0,0-4.53,3.027c-.053-.064-.095-.136-.151-.2a4.453,4.453,0,0,0-3.262-1.429h-3.732a4.441,4.441,0,0,0-4.44,4.44,5.906,5.906,0,0,0,2.144,4.528,4.2,4.2,0,0,0,1.646,2.8l-.185.95-1.61.322a4.225,4.225,0,0,0-3.4,4.142v3.839h-2.8Zm11.211,30.83h1.4v1.4h-1.4Zm1.4-1.4h-1.4v-1.4h1.4Zm5.745,10a3.991,3.991,0,0,0-3.176-1.588h-6.54a3.989,3.989,0,0,0-3.176,1.589,3.037,3.037,0,0,1-5.465-1.822v-6.073a3.507,3.507,0,0,1,3.5-3.5h6.306v5.6h4.2v-5.6h6.306a3.507,3.507,0,0,1,3.5,3.5v6.073a3.036,3.036,0,0,1-5.466,1.821Zm6.867-1.821v-3.22a2.832,2.832,0,0,1,.868-.351l1.573-.314a2.964,2.964,0,0,0,4.926,0l1.574.314a2.823,2.823,0,0,1,2.269,2.768v3.838H863.454a4.413,4.413,0,0,0,1.21-3.036Zm.713-11.126a4.5,4.5,0,0,1-.713-2.419,3.039,3.039,0,0,1,3.039-3.038h6.07a.7.7,0,0,1,.7.7,3.508,3.508,0,0,1-3.5,3.5h-.185a1.486,1.486,0,0,1-.664-.157,1,1,0,0,1,0-1.788l.461-.23-.627-1.254-.461.23a2.383,2.383,0,0,0-1.254,1.574l-1.114.446a2.783,2.783,0,0,0-1.749,2.432Zm1.389.17a1.392,1.392,0,0,1,.881-1.3l.7-.278a2.381,2.381,0,0,0,1.151,1.252,2.9,2.9,0,0,0,1.29.3h.185a4.868,4.868,0,0,0,1.4-.207v1.607a2.8,2.8,0,1,1-5.606,0Zm2.8,5.583a4.177,4.177,0,0,0,1.217-.181l.148.768a1.552,1.552,0,0,1-2.732,0l.149-.768A4.183,4.183,0,0,0,869.569,3398.387Zm10.51-14.013V3406.8h-2.8v-3.838a4.225,4.225,0,0,0-3.4-4.142l-1.611-.322-.184-.95a4.2,4.2,0,0,0,1.688-3.361V3391.9a4.9,4.9,0,0,0,2.1-4.019,2.1,2.1,0,0,0-2.1-2.1H867.7a4.44,4.44,0,0,0-4.44,4.44,5.9,5.9,0,0,0,2.144,4.528,4.2,4.2,0,0,0,1.646,2.8l-.184.95-1.61.322a4.055,4.055,0,0,0-.594.171v-1.3a4.911,4.911,0,0,0-4.9-4.9h-.7v-2.8h2.8v-5.605Zm-19.619,4.2h-2.8v-3.839a4.226,4.226,0,0,0-3.4-4.142l-1.611-.322-.184-.95a4.2,4.2,0,0,0,1.646-2.8,5.858,5.858,0,0,0,.743-.729v1.336a4.443,4.443,0,0,0,4.438,4.438,4.39,4.39,0,0,0,1.168-.165Z" transform="translate(-838.038 -3364.755)" fill="#12263f"/>
          <path id="Trazado_110592" data-name="Trazado 110592" d="M899.07,3386.116h1.4v1.4h-1.4Z" transform="translate(-871.043 -3376.306)" fill="#453d7a"/>
          <path id="Trazado_110593" data-name="Trazado 110593" d="M905.173,3386.116h1.4v1.4h-1.4Z" transform="translate(-874.343 -3376.306)" fill="#453d7a"/>
          <path id="Trazado_110594" data-name="Trazado 110594" d="M914.327,3386.116h1.4v1.4h-1.4Z" transform="translate(-879.293 -3376.306)" fill="#453d7a"/>
          <path id="Trazado_110595" data-name="Trazado 110595" d="M920.431,3386.116h1.4v1.4h-1.4Z" transform="translate(-882.594 -3376.306)" fill="#453d7a"/>
          <circle id="Elipse_4470" data-name="Elipse 4470" cx="0.701" cy="0.701" r="0.701" transform="translate(36.435 4.204)" fill="#453d7a"/>
          <circle id="Elipse_4471" data-name="Elipse 4471" cx="0.701" cy="0.701" r="0.701" transform="translate(36.435 7.007)" fill="#453d7a"/>
          <circle id="Elipse_4472" data-name="Elipse 4472" cx="0.701" cy="0.701" r="0.701" transform="translate(35.034 5.605)" fill="#453d7a"/>
          <circle id="Elipse_4473" data-name="Elipse 4473" cx="0.701" cy="0.701" r="0.701" transform="translate(37.837 5.605)" fill="#453d7a"/>
        </g>
      </g>
    </g>
    <g transform="matrix(1, 0, 0, 1, 206, 3215)" filter="url(#Elipse_9677)">
      <path id="Elipse_9677-2" data-name="Elipse 9677" d="M35.5,4.176A31.324,31.324,0,1,0,66.824,35.5,31.359,31.359,0,0,0,35.5,4.176M35.5,0A35.5,35.5,0,1,1,0,35.5,35.5,35.5,0,0,1,35.5,0Z" transform="translate(24 23)" fill="#fff"/>
    </g>
  </g>
</svg>
