<svg xmlns="http://www.w3.org/2000/svg" xmlns:xlink="http://www.w3.org/1999/xlink" width="1030" height="777" viewBox="0 0 1030 777">
  <defs>
    <clipPath id="clip-path">
      <rect id="Rectángulo_375910" data-name="Rectángulo 375910" width="563" height="588" transform="translate(600 1589.194)" fill="#fff" stroke="#707070" stroke-width="1"/>
    </clipPath>
    <clipPath id="clip-path-2">
      <rect id="Rectángulo_375874" data-name="Rectángulo 375874" width="32.178" height="141.883" fill="none"/>
    </clipPath>
    <clipPath id="clip-path-3">
      <rect id="Rectángulo_375876" data-name="Rectángulo 375876" width="87.99" height="76.762" fill="none"/>
    </clipPath>
    <clipPath id="clip-path-4">
      <rect id="Rectángulo_375877" data-name="Rectángulo 375877" width="9.924" height="207.987" fill="none"/>
    </clipPath>
    <clipPath id="clip-path-5">
      <rect id="Rectángulo_375878" data-name="Rectángulo 375878" width="20.523" height="211.067" fill="none"/>
    </clipPath>
    <clipPath id="clip-path-6">
      <rect id="Rectángulo_375879" data-name="Rectángulo 375879" width="39.137" height="215.13" fill="none"/>
    </clipPath>
    <clipPath id="clip-path-7">
      <rect id="Rectángulo_375880" data-name="Rectángulo 375880" width="64.572" height="218.404" fill="none"/>
    </clipPath>
    <clipPath id="clip-path-8">
      <rect id="Rectángulo_375881" data-name="Rectángulo 375881" width="76.837" height="224.05" fill="none"/>
    </clipPath>
    <clipPath id="clip-path-10">
      <rect id="Rectángulo_375888" data-name="Rectángulo 375888" width="87.99" height="76.761" fill="none"/>
    </clipPath>
    <clipPath id="clip-path-12">
      <rect id="Rectángulo_375890" data-name="Rectángulo 375890" width="20.523" height="211.064" fill="none"/>
    </clipPath>
    <clipPath id="clip-path-13">
      <rect id="Rectángulo_375891" data-name="Rectángulo 375891" width="39.139" height="215.131" fill="none"/>
    </clipPath>
    <clipPath id="clip-path-14">
      <rect id="Rectángulo_375892" data-name="Rectángulo 375892" width="64.573" height="218.405" fill="none"/>
    </clipPath>
    <clipPath id="clip-path-15">
      <rect id="Rectángulo_375893" data-name="Rectángulo 375893" width="76.836" height="224.05" fill="none"/>
    </clipPath>
    <clipPath id="clip-path-16">
      <rect id="Rectángulo_375903" data-name="Rectángulo 375903" width="16.62" height="16.62" fill="none"/>
    </clipPath>
    <clipPath id="clip-path-18">
      <rect id="Rectángulo_375905" data-name="Rectángulo 375905" width="16.618" height="16.62" fill="none"/>
    </clipPath>
    <clipPath id="clip-path-19">
      <rect id="Rectángulo_375906" data-name="Rectángulo 375906" width="16.62" height="16.618" fill="none"/>
    </clipPath>
  </defs>
  <g id="Grupo_1072226" data-name="Grupo 1072226" transform="translate(-285 -1250.205)">
    <g id="Grupo_1072222" data-name="Grupo 1072222" transform="translate(0 -45.795)">
      <rect id="Rectángulo_375832" data-name="Rectángulo 375832" width="1030" height="777" rx="31" transform="translate(285 1296)" fill="#fae2fd"/>
      <g id="Grupo_1072224" data-name="Grupo 1072224" transform="translate(847.552 1646.417)">
        <rect id="Rectángulo_375918" data-name="Rectángulo 375918" width="55.815" height="55.814" transform="translate(109.635 370.769)" fill="#f8d8fc"/>
        <rect id="Rectángulo_375919" data-name="Rectángulo 375919" width="55.814" height="55.814" transform="translate(161.464 318.941)" fill="#f8d8fc"/>
        <rect id="Rectángulo_375920" data-name="Rectángulo 375920" width="55.814" height="55.814" transform="translate(211.299 318.941)" fill="#f8d8fc"/>
        <rect id="Rectángulo_375921" data-name="Rectángulo 375921" width="55.814" height="55.814" transform="translate(211.299 370.769)" fill="#f8d8fc"/>
        <rect id="Rectángulo_375922" data-name="Rectángulo 375922" width="55.814" height="55.814" transform="translate(211.299 263.127)" fill="#f8d8fc"/>
        <rect id="Rectángulo_375923" data-name="Rectángulo 375923" width="55.814" height="55.814" transform="translate(263.126 318.941)" fill="#f8d8fc"/>
        <rect id="Rectángulo_375924" data-name="Rectángulo 375924" width="55.814" height="55.814" transform="translate(258.143 222.263)" fill="#f8d8fc"/>
        <rect id="Rectángulo_375925" data-name="Rectángulo 375925" width="55.814" height="55.814" transform="translate(309.971 170.434)" fill="#f8d8fc"/>
        <rect id="Rectángulo_375926" data-name="Rectángulo 375926" width="55.814" height="55.814" transform="translate(359.806 170.434)" fill="#f8d8fc"/>
        <rect id="Rectángulo_375927" data-name="Rectángulo 375927" width="55.814" height="55.814" transform="translate(359.806 222.263)" fill="#f8d8fc"/>
        <rect id="Rectángulo_375928" data-name="Rectángulo 375928" width="55.814" height="55.814" transform="translate(359.806 114.62)" fill="#f8d8fc"/>
        <rect id="Rectángulo_375929" data-name="Rectángulo 375929" width="55.814" height="55.814" transform="translate(411.634 170.434)" fill="#f8d8fc"/>
        <rect id="Rectángulo_375930" data-name="Rectángulo 375930" width="55.814" height="55.814" transform="translate(3.987 271.101)" fill="#f8d8fc"/>
        <rect id="Rectángulo_375931" data-name="Rectángulo 375931" width="55.814" height="55.814" transform="translate(55.815 219.272)" fill="#f8d8fc"/>
        <rect id="Rectángulo_375932" data-name="Rectángulo 375932" width="55.814" height="55.814" transform="translate(105.65 219.272)" fill="#f8d8fc"/>
        <rect id="Rectángulo_375933" data-name="Rectángulo 375933" width="55.814" height="55.814" transform="translate(105.65 271.101)" fill="#f8d8fc"/>
        <rect id="Rectángulo_375934" data-name="Rectángulo 375934" width="55.814" height="55.814" transform="translate(105.65 163.458)" fill="#f8d8fc"/>
        <rect id="Rectángulo_375935" data-name="Rectángulo 375935" width="55.814" height="55.814" transform="translate(157.478 219.272)" fill="#f8d8fc"/>
        <rect id="Rectángulo_375936" data-name="Rectángulo 375936" width="55.814" height="55.814" transform="translate(0 55.814)" fill="#f8d8fc"/>
        <rect id="Rectángulo_375937" data-name="Rectángulo 375937" width="55.814" height="55.814" transform="translate(49.836 55.816)" fill="#f8d8fc"/>
        <rect id="Rectángulo_375938" data-name="Rectángulo 375938" width="55.814" height="55.814" transform="translate(49.836 107.643)" fill="#f8d8fc"/>
        <rect id="Rectángulo_375939" data-name="Rectángulo 375939" width="55.814" height="55.815" transform="translate(49.834 -0.001)" fill="#f8d8fc"/>
        <rect id="Rectángulo_375940" data-name="Rectángulo 375940" width="55.814" height="55.814" transform="translate(95.683 67.775)" fill="#f8d8fc"/>
        <rect id="Rectángulo_375941" data-name="Rectángulo 375941" width="55.814" height="55.814" transform="translate(152.495 122.593)" fill="#f8d8fc"/>
        <rect id="Rectángulo_375942" data-name="Rectángulo 375942" width="55.814" height="55.814" transform="translate(204.322 70.766)" fill="#f8d8fc"/>
        <rect id="Rectángulo_375943" data-name="Rectángulo 375943" width="55.814" height="55.814" transform="translate(254.156 70.766)" fill="#f8d8fc"/>
        <rect id="Rectángulo_375944" data-name="Rectángulo 375944" width="55.814" height="55.814" transform="translate(254.156 122.593)" fill="#f8d8fc"/>
        <rect id="Rectángulo_375945" data-name="Rectángulo 375945" width="55.814" height="55.814" transform="translate(305.984 70.766)" fill="#f8d8fc"/>
      </g>
      <g id="Grupo_1072225" data-name="Grupo 1072225" transform="translate(294.552 1307.417)">
        <rect id="Rectángulo_375918-2" data-name="Rectángulo 375918" width="55.815" height="55.814" transform="translate(109.635 370.769)" fill="#f8d8fc"/>
        <rect id="Rectángulo_375919-2" data-name="Rectángulo 375919" width="55.814" height="55.814" transform="translate(161.464 318.941)" fill="#f8d8fc"/>
        <rect id="Rectángulo_375920-2" data-name="Rectángulo 375920" width="55.814" height="55.814" transform="translate(211.299 318.941)" fill="#f8d8fc"/>
        <rect id="Rectángulo_375921-2" data-name="Rectángulo 375921" width="55.814" height="55.814" transform="translate(211.299 370.769)" fill="#f8d8fc"/>
        <rect id="Rectángulo_375922-2" data-name="Rectángulo 375922" width="55.814" height="55.814" transform="translate(211.299 263.127)" fill="#f8d8fc"/>
        <rect id="Rectángulo_375923-2" data-name="Rectángulo 375923" width="55.814" height="55.814" transform="translate(263.126 318.941)" fill="#f8d8fc"/>
        <rect id="Rectángulo_375924-2" data-name="Rectángulo 375924" width="55.814" height="55.814" transform="translate(258.143 222.263)" fill="#f8d8fc"/>
        <rect id="Rectángulo_375925-2" data-name="Rectángulo 375925" width="55.814" height="55.814" transform="translate(309.971 170.434)" fill="#f8d8fc"/>
        <rect id="Rectángulo_375926-2" data-name="Rectángulo 375926" width="55.814" height="55.814" transform="translate(359.806 170.434)" fill="#f8d8fc"/>
        <rect id="Rectángulo_375927-2" data-name="Rectángulo 375927" width="55.814" height="55.814" transform="translate(359.806 222.263)" fill="#f8d8fc"/>
        <rect id="Rectángulo_375928-2" data-name="Rectángulo 375928" width="55.814" height="55.814" transform="translate(359.806 114.62)" fill="#f8d8fc"/>
        <rect id="Rectángulo_375929-2" data-name="Rectángulo 375929" width="55.814" height="55.814" transform="translate(411.634 170.434)" fill="#f8d8fc"/>
        <rect id="Rectángulo_375930-2" data-name="Rectángulo 375930" width="55.814" height="55.814" transform="translate(3.987 271.101)" fill="#f8d8fc"/>
        <rect id="Rectángulo_375931-2" data-name="Rectángulo 375931" width="55.814" height="55.814" transform="translate(55.815 219.272)" fill="#f8d8fc"/>
        <rect id="Rectángulo_375932-2" data-name="Rectángulo 375932" width="55.814" height="55.814" transform="translate(105.65 219.272)" fill="#f8d8fc"/>
        <rect id="Rectángulo_375933-2" data-name="Rectángulo 375933" width="55.814" height="55.814" transform="translate(105.65 271.101)" fill="#f8d8fc"/>
        <rect id="Rectángulo_375934-2" data-name="Rectángulo 375934" width="55.814" height="55.814" transform="translate(105.65 163.458)" fill="#f8d8fc"/>
        <rect id="Rectángulo_375935-2" data-name="Rectángulo 375935" width="55.814" height="55.814" transform="translate(157.478 219.272)" fill="#f8d8fc"/>
        <rect id="Rectángulo_375936-2" data-name="Rectángulo 375936" width="55.814" height="55.814" transform="translate(0 55.814)" fill="#f8d8fc"/>
        <rect id="Rectángulo_375937-2" data-name="Rectángulo 375937" width="55.814" height="55.814" transform="translate(49.836 55.816)" fill="#f8d8fc"/>
        <rect id="Rectángulo_375938-2" data-name="Rectángulo 375938" width="55.814" height="55.814" transform="translate(49.836 107.643)" fill="#f8d8fc"/>
        <rect id="Rectángulo_375939-2" data-name="Rectángulo 375939" width="55.814" height="55.815" transform="translate(49.834 -0.001)" fill="#f8d8fc"/>
        <rect id="Rectángulo_375940-2" data-name="Rectángulo 375940" width="55.814" height="55.814" transform="translate(95.683 67.775)" fill="#f8d8fc"/>
        <rect id="Rectángulo_375941-2" data-name="Rectángulo 375941" width="55.814" height="55.814" transform="translate(152.495 122.593)" fill="#f8d8fc"/>
        <rect id="Rectángulo_375942-2" data-name="Rectángulo 375942" width="55.814" height="55.814" transform="translate(204.322 70.766)" fill="#f8d8fc"/>
        <rect id="Rectángulo_375943-2" data-name="Rectángulo 375943" width="55.814" height="55.814" transform="translate(254.156 70.766)" fill="#f8d8fc"/>
        <rect id="Rectángulo_375944-2" data-name="Rectángulo 375944" width="55.814" height="55.814" transform="translate(254.156 122.593)" fill="#f8d8fc"/>
        <rect id="Rectángulo_375945-2" data-name="Rectángulo 375945" width="55.814" height="55.814" transform="translate(305.984 70.766)" fill="#f8d8fc"/>
      </g>
      <rect id="Rectángulo_375911" data-name="Rectángulo 375911" width="302" height="152" rx="26" transform="translate(626.5 1395)" fill="#f3bcf9"/>
      <rect id="Rectángulo_375915" data-name="Rectángulo 375915" width="302" height="152" rx="26" transform="translate(324.5 1510)" fill="#f3bcf9"/>
      <rect id="Rectángulo_375916" data-name="Rectángulo 375916" width="266" height="211" rx="26" transform="translate(337.5 1717)" fill="#f3bcf9"/>
      <rect id="Rectángulo_375912" data-name="Rectángulo 375912" width="324" height="213" rx="26" transform="translate(951.5 1497)" fill="#f3bcf9"/>
      <rect id="Rectángulo_375913" data-name="Rectángulo 375913" width="257" height="169" rx="26" transform="translate(975.5 1809)" fill="#f3bcf9"/>
      <text id="Ergonomía_La_comodidad_es_fundamental_sobre_todo_si_se_piensa_utilizar_el_mando_durante_muchas_horas." data-name="Ergonomía
La comodidad es fundamental, sobre todo si se piensa utilizar el mando durante muchas horas." transform="translate(348.5 1539)" fill="#222b89" font-size="20" font-family="Roboto-Bold, Roboto" font-weight="700"><tspan x="-48.647" y="21">Ergonomía</tspan><tspan font-size="16" font-family="Roboto-Regular, Roboto" font-weight="400"><tspan x="-109.719" y="45">La comodidad es fundamental, </tspan><tspan x="-116.215" y="69">sobre todo si se piensa utilizar el </tspan><tspan x="-108.477" y="93">mando durante muchas horas.</tspan></tspan></text>
      <text id="Con_cable_o_inalámbrico_Los_controladores_inalámbricos_ofrecen_mayor_libertad_de_movimiento_pero_los_controladores_con_cable_generalmente_tienen_menos_retraso_de_entrada_y_una_conexión_más_confiable." data-name="Con cable o inalámbrico
Los controladores inalámbricos ofrecen mayor libertad de movimiento, pero los controladores con cable generalmente tienen menos retraso de entrada y una conexión más confiable." transform="translate(976.5 1520)" fill="#222b89" font-size="20" font-family="Roboto-Black, Roboto" font-weight="800"><tspan x="-108.574" y="21">Con cable o inalámbrico</tspan><tspan font-size="16" font-family="Roboto-Regular, Roboto" font-weight="400"><tspan x="-112.383" y="45">Los controladores inalámbricos </tspan><tspan x="-136.809" y="69">ofrecen mayor libertad de movimiento, </tspan><tspan x="-116.246" y="93">pero los controladores con cable </tspan><tspan x="-136.77" y="117">generalmente tienen menos retraso de </tspan><tspan x="-136.387" y="141">entrada y una conexión más confiable.</tspan></tspan></text>
      <text id="Compatibilidad_No_todos_los_controladores_funcionan_con_PC_para_juegos." data-name="Compatibilidad
No todos los controladores funcionan con PC para juegos." transform="translate(658.5 1427)" fill="#222b89" font-size="20" font-family="Roboto-Black, Roboto" font-weight="800"><tspan x="-68.345" y="21">Compatibilidad</tspan><tspan font-size="16" font-family="Roboto-Regular, Roboto" font-weight="400"><tspan x="-96.539" y="48">No todos los controladores </tspan><tspan x="-108.395" y="75">funcionan con PC para juegos.</tspan></tspan></text>
      <g id="Enmascarar_grupo_1044149" data-name="Enmascarar grupo 1044149" transform="translate(-94.5 -104.194)" clip-path="url(#clip-path)">
        <g id="Grupo_1072218" data-name="Grupo 1072218" transform="translate(575.694 1406.52)">
          <g id="Grupo_1072219" data-name="Grupo 1072219">
            <g id="Grupo_1072216" data-name="Grupo 1072216">
              <g id="Grupo_1072220" data-name="Grupo 1072220">
                <path id="Trazado_818128" data-name="Trazado 818128" d="M33.3,809.637l62.85-313.763S60.814,419.577,60.8,364.026s27.97-44.718,30.608-24.533,5.332,50.026,19.472,28.855,25.565-155.511,32.427-176.938,22.351-13.792,21.117,4.485-7.971,114.565-7.971,114.565,19.216-148.643,30-158.507c4.758-4.351,17.965-1.14,18.331,10.889s-12.916,159.9-12.916,159.9l4.9.566L228.88,182a11.8,11.8,0,0,1,10.955-8.744,10.771,10.771,0,0,1,10.822,11.273l-1.043,25.594s13.217-.52,14.924,12.541,6.1,181.743-6.288,229.077c-11.53,44.038-33.644,65.991-33.644,65.991L203.261,816.407Z" transform="translate(18.073 81.468)" fill="#ff7898"/>
                <path id="Trazado_818129" data-name="Trazado 818129" d="M144.382,373.032l-1.54-.094c3.726-61.989-39.434-77.128-39.869-77.271l-6.657-2.223,104.922,10.867-.159,1.533-93.214-9.654c11.186,5.819,39.588,25.734,36.517,76.842" transform="translate(52.275 159.264)" fill="#231333"/>
                <path id="Trazado_818130" data-name="Trazado 818130" d="M76.185,348.385s28.255,37.652,96.085,2.217c0,0,15,57.584,49.25,57.151L40.85,634.077l51.872-245.3Z" transform="translate(22.171 189.083)" fill="#f26d93"/>
                <path id="Trazado_818131" data-name="Trazado 818131" d="M71.559,269.026s-7.589,9.542-3.351,23.48a29.838,29.838,0,0,0,15.767,18.559s-5.037-.491-8.837-23.593c-1.668-10.147-1.719-16.37-3.579-18.447" transform="translate(36.321 146.011)" fill="#f26d93"/>
                <g id="Grupo_1072163" data-name="Grupo 1072163" transform="translate(214.85 262.891)" opacity="0.56">
                  <g id="Grupo_1072162" data-name="Grupo 1072162">
                    <g id="Grupo_1072161" data-name="Grupo 1072161" clip-path="url(#clip-path-2)">
                      <path id="Trazado_818132" data-name="Trazado 818132" d="M171.443,170.4,158.2,280.78c-1.495,12.458-8.346,24.773-18.931,31.507Z" transform="translate(-139.264 -170.405)" fill="#5c82cc"/>
                    </g>
                  </g>
                </g>
                <path id="Trazado_818133" data-name="Trazado 818133" d="M174.114,201.259s9.107,43.041-6.861,71.111Z" transform="translate(90.775 109.231)" fill="#f26d93"/>
                <path id="Trazado_818134" data-name="Trazado 818134" d="M131.7,176.361s5.9,12.768,3.528,40.853-21.774,75.141-21.774,75.141Z" transform="translate(61.577 95.718)" fill="#f26d93"/>
                <rect id="Rectángulo_375875" data-name="Rectángulo 375875" width="1.542" height="13.951" transform="translate(203.375 318.85) rotate(-79.139)" fill="#231333"/>
                <path id="Trazado_818135" data-name="Trazado 818135" d="M160.816,388.993c-.133-.187-13.13-18.567-17.029-38.393a87.884,87.884,0,0,1-50.625,16.264h-.3l.006-1.543h.3c30.347,0,50.457-16.527,50.656-16.7l1.023-.856.231,1.314c3.521,19.945,16.865,38.826,17,39.014Z" transform="translate(50.398 188.748)" fill="#231333"/>
                <path id="Trazado_818136" data-name="Trazado 818136" d="M56.888,266.974s14.343-4.2,7.157,13.76-3.592,38.32,15.568,53.888,13.266,47.769-14.921,40.051c0,0-15.576-45.367-13.5-73.845s5.7-33.854,5.7-33.854" transform="translate(27.681 144.666)" fill="#ffaec1"/>
                <path id="Trazado_818137" data-name="Trazado 818137" d="M111.9,172.067s12.5-3.377,6.515,14.585-8.383,31.136-4.79,50.3-10.6,23.612-16.077,12.4l4.216-30.154s2.837-27.081,3.757-31.011,4.654-13.94,6.379-16.12" transform="translate(52.944 93.251)" fill="#ffaec1"/>
                <path id="Trazado_818138" data-name="Trazado 818138" d="M126.189,185.667s10.213,3.323,10.213-9.85,5.987-15.568,9.58-14.369a4.722,4.722,0,0,0,6.026-5.876c-1.237-3.7-10.816-8.494-15.606-3.7s-10.213,33.8-10.213,33.8" transform="translate(68.488 81.332)" fill="#ffaec1"/>
                <path id="Trazado_818139" data-name="Trazado 818139" d="M165.092,170.826s11.825-2.726,4.641,16.433-7.186,20.358-4.79,39.519-12.661,21.311-14.115,10.656c0,0,12.019-51.907,14.264-66.608" transform="translate(81.86 92.642)" fill="#f26d93"/>
                <path id="Trazado_818140" data-name="Trazado 818140" d="M186.4,200.061s-9.455-.727-7.274,11.635,3.636,19.636,0,25.454.542,16.478,9,14.057c0,0-1-43.874-1.723-51.146" transform="translate(96.504 108.577)" fill="#ffaec1"/>
                <path id="Trazado_818141" data-name="Trazado 818141" d="M81.662,437.143s-22.752,13.172-34.727,47.9S8.613,661.078,8.613,661.078H238.535s16.765-180.825,0-205.973S81.662,437.143,81.662,437.143" transform="translate(4.675 236.74)" fill="#222b89"/>
                <g id="Grupo_1072166" data-name="Grupo 1072166" transform="translate(43.985 672.685)" opacity="0.56">
                  <g id="Grupo_1072165" data-name="Grupo 1072165">
                    <g id="Grupo_1072164" data-name="Grupo 1072164" clip-path="url(#clip-path-3)">
                      <path id="Trazado_818142" data-name="Trazado 818142" d="M116.5,442.456l-87.99,70.338s5.228-49.218,42.351-76.761Z" transform="translate(-28.511 -436.032)" fill="#5c82cc"/>
                    </g>
                  </g>
                </g>
                <g id="Grupo_1072169" data-name="Grupo 1072169" transform="translate(227.766 689.929)" opacity="0.61">
                  <g id="Grupo_1072168" data-name="Grupo 1072168">
                    <g id="Grupo_1072167" data-name="Grupo 1072167" clip-path="url(#clip-path-4)">
                      <path id="Trazado_818143" data-name="Trazado 818143" d="M150.716,655.2l-3.079-.2c.079-1.245,7.9-124.789,6.719-153.118a361.9,361.9,0,0,0-6.688-54.022l3.016-.65a365.392,365.392,0,0,1,6.754,54.542c1.186,28.491-6.643,152.2-6.722,153.444" transform="translate(-147.637 -447.21)" fill="#aac4f7"/>
                    </g>
                  </g>
                </g>
                <g id="Grupo_1072172" data-name="Grupo 1072172" transform="translate(185.373 686.828)" opacity="0.61">
                  <g id="Grupo_1072171" data-name="Grupo 1072171">
                    <g id="Grupo_1072170" data-name="Grupo 1072170" clip-path="url(#clip-path-5)">
                      <path id="Trazado_818144" data-name="Trazado 818144" d="M123.243,656.266l-3.085-.039c.006-.5.68-50.654,6.6-124.1,5.938-73.635,10.85-86.415,11.055-86.923l2.86,1.159-1.43-.58,1.433.572c-.2.514-4.988,13.413-10.844,86.019-5.915,73.345-6.587,123.4-6.594,123.9" transform="translate(-120.158 -445.199)" fill="#aac4f7"/>
                    </g>
                  </g>
                </g>
                <g id="Grupo_1072175" data-name="Grupo 1072175" transform="translate(130.438 682.881)" opacity="0.61">
                  <g id="Grupo_1072174" data-name="Grupo 1072174">
                    <g id="Grupo_1072173" data-name="Grupo 1072173" clip-path="url(#clip-path-6)">
                      <path id="Trazado_818145" data-name="Trazado 818145" d="M87.623,657.772,84.55,657.5c.065-.725,6.555-73.09,14.857-116.963,8.294-43.84,21.151-97.358,21.281-97.893l3,.722c-.13.535-12.968,53.982-21.248,97.743-8.272,43.726-14.75,115.94-14.815,116.665" transform="translate(-84.55 -442.642)" fill="#aac4f7"/>
                    </g>
                  </g>
                </g>
                <g id="Grupo_1072178" data-name="Grupo 1072178" transform="translate(69.258 679.798)" opacity="0.61">
                  <g id="Grupo_1072177" data-name="Grupo 1072177">
                    <g id="Grupo_1072176" data-name="Grupo 1072176" clip-path="url(#clip-path-7)">
                      <path id="Trazado_818146" data-name="Trazado 818146" d="M47.909,659.047l-3.016-.654c.029-.139,3.138-14.6,14.963-79.641,11.874-65.315,46.483-137.389,46.831-138.109l2.777,1.344c-.346.716-34.775,72.422-46.574,137.318-11.842,65.135-14.952,79.6-14.982,79.743" transform="translate(-44.892 -440.643)" fill="#aac4f7"/>
                    </g>
                  </g>
                </g>
                <g id="Grupo_1072181" data-name="Grupo 1072181" transform="translate(26.099 674.059)" opacity="0.61">
                  <g id="Grupo_1072180" data-name="Grupo 1072180">
                    <g id="Grupo_1072179" data-name="Grupo 1072179" clip-path="url(#clip-path-8)">
                      <path id="Trazado_818147" data-name="Trazado 818147" d="M19.969,660.973l-3.052-.467s3.028-19.815,11.41-74.9c8.332-54.741,62.219-147.75,62.76-148.683l2.667,1.552c-.542.929-54.133,93.435-62.376,147.6-8.382,55.085-11.41,74.9-11.41,74.9" transform="translate(-16.918 -436.924)" fill="#aac4f7"/>
                    </g>
                  </g>
                </g>
                <path id="Trazado_818148" data-name="Trazado 818148" d="M69.431,394.6,55.963,461.938,212.837,479.9l4.523-71.231a4.366,4.366,0,0,0-3.932-4.62L74.911,390.534a5.085,5.085,0,0,0-5.48,4.064" transform="translate(30.373 211.945)" fill="#fce249"/>
                <path id="Trazado_818149" data-name="Trazado 818149" d="M191.253,401.891,119.7,469.243l-59.713-6.837-4.019-1.658,13.493-66.341a4.881,4.881,0,0,1,5.256-3.885Z" transform="translate(30.374 211.939)" fill="#edcc43"/>
                <rect id="Rectángulo_375882" data-name="Rectángulo 375882" width="75.422" height="1.543" transform="translate(231.695 690.593) rotate(-85.642)" fill="#edcc43"/>
                <rect id="Rectángulo_375883" data-name="Rectángulo 375883" width="73.294" height="1.543" transform="translate(214.889 686.992) rotate(-85.299)" fill="#edcc43"/>
                <rect id="Rectángulo_375884" data-name="Rectángulo 375884" width="73.294" height="1.543" transform="translate(198.124 686.992) rotate(-85.299)" fill="#edcc43"/>
                <rect id="Rectángulo_375885" data-name="Rectángulo 375885" width="75.679" height="1.543" transform="matrix(0.08, -0.997, 0.997, 0.08, 177.744, 684.596)" fill="#edcc43"/>
                <rect id="Rectángulo_375886" data-name="Rectángulo 375886" width="105.807" height="1.542" transform="translate(255.077 404.172) rotate(-84.49)" fill="#231333"/>
                <path id="Trazado_818150" data-name="Trazado 818150" d="M444.005,809.287l-62.85-313.763s35.335-76.3,35.349-131.849-27.97-44.718-30.608-24.533S380.565,389.17,366.424,368,340.859,212.488,334,191.059s-22.353-13.791-21.119,4.486,7.971,114.565,7.971,114.565-19.216-148.643-30-158.507c-4.759-4.351-17.965-1.14-18.331,10.889s12.916,159.9,12.916,159.9l-4.9.566-32.1-141.306a11.8,11.8,0,0,0-10.955-8.744,10.772,10.772,0,0,0-10.824,11.273l1.044,25.594s-13.217-.52-14.924,12.541-6.1,181.742,6.288,229.077c11.53,44.038,33.644,65.991,33.644,65.991l21.345,298.676Z" transform="translate(114.3 81.278)" fill="#ff7898"/>
                <path id="Trazado_818151" data-name="Trazado 818151" d="M287.722,372.681c-3.072-51.108,25.33-71.023,36.517-76.842l-93.214,9.654-.159-1.534L335.749,293.1l-6.618,2.219c-.435.145-43.592,15.339-39.869,77.271Z" transform="translate(125.3 159.075)" fill="#231333"/>
                <path id="Trazado_818152" data-name="Trazado 818152" d="M382.566,348.034s-28.255,37.652-96.087,2.217c0,0-15,57.584-49.249,57.151L417.9,633.726l-51.872-245.3Z" transform="translate(128.755 188.892)" fill="#f26d93"/>
                <path id="Trazado_818153" data-name="Trazado 818153" d="M329.631,268.676s7.589,9.542,3.351,23.481a29.838,29.838,0,0,1-15.767,18.559s5.037-.491,8.837-23.593c1.669-10.147,1.719-16.37,3.579-18.447" transform="translate(172.165 145.821)" fill="#f26d93"/>
                <g id="Grupo_1072184" data-name="Grupo 1072184" transform="translate(362.649 262.351)" opacity="0.56">
                  <g id="Grupo_1072183" data-name="Grupo 1072183">
                    <g id="Grupo_1072182" data-name="Grupo 1072182" clip-path="url(#clip-path-2)">
                      <path id="Trazado_818154" data-name="Trazado 818154" d="M235.068,170.055,248.314,280.43c1.495,12.458,8.345,24.773,18.931,31.509Z" transform="translate(-235.068 -170.055)" fill="#5c82cc"/>
                    </g>
                  </g>
                </g>
                <path id="Trazado_818155" data-name="Trazado 818155" d="M224.4,200.909s-9.107,43.041,6.861,71.111Z" transform="translate(120.388 109.041)" fill="#f26d93"/>
                <path id="Trazado_818156" data-name="Trazado 818156" d="M271.347,176.01s-5.9,12.766-3.528,40.853S289.593,292,289.593,292Z" transform="translate(145.051 95.528)" fill="#f26d93"/>
                <path id="Trazado_818157" data-name="Trazado 818157" d="M258.725,388.643l-1.256-.895c.133-.188,13.479-19.068,17-39.014l.231-1.314,1.024.856c.2.168,20.312,16.7,50.657,16.7h.3l.006,1.543h-.3a87.862,87.862,0,0,1-50.628-16.265c-3.9,19.827-16.9,38.206-17.029,38.393" transform="translate(139.739 188.558)" fill="#231333"/>
                <path id="Trazado_818158" data-name="Trazado 818158" d="M352.291,266.624s-14.343-4.2-7.157,13.76,3.592,38.32-15.568,53.888-13.266,47.771,14.921,40.051c0,0,15.575-45.367,13.5-73.845s-5.7-33.854-5.7-33.854" transform="translate(172.818 144.476)" fill="#ffaec1"/>
                <path id="Trazado_818159" data-name="Trazado 818159" d="M291.2,171.716s-12.5-3.377-6.515,14.585,8.383,31.136,4.79,50.295,10.6,23.613,16.077,12.405l-4.216-30.154s-2.837-27.081-3.757-31.011-4.654-13.94-6.379-16.12" transform="translate(153.63 93.06)" fill="#ffaec1"/>
                <path id="Trazado_818160" data-name="Trazado 818160" d="M278.172,185.317s-10.213,3.323-10.213-9.85-5.987-15.568-9.58-14.369a4.722,4.722,0,0,1-6.026-5.876c1.236-3.7,10.816-8.494,15.606-3.7s10.213,33.8,10.213,33.8" transform="translate(136.829 81.142)" fill="#ffaec1"/>
                <path id="Trazado_818161" data-name="Trazado 818161" d="M237.564,170.476s-11.825-2.726-4.639,16.433,7.185,20.358,4.789,39.519,12.661,21.311,14.115,10.656c0,0-12.019-51.907-14.264-66.608" transform="translate(125.16 92.452)" fill="#ffaec1"/>
                <path id="Trazado_818162" data-name="Trazado 818162" d="M212.421,199.71s9.454-.727,7.272,11.635-3.636,19.636,0,25.454-.541,16.478-9,14.057c0,0,1-43.874,1.725-51.146" transform="translate(114.353 108.386)" fill="#ffaec1"/>
                <path id="Trazado_818163" data-name="Trazado 818163" d="M397.038,436.793s22.752,13.172,34.727,47.9,38.322,176.034,38.322,176.034H240.164s-16.765-180.825,0-205.973,156.874-17.962,156.874-17.962" transform="translate(126.303 236.55)" fill="#222b89"/>
                <g id="Grupo_1072187" data-name="Grupo 1072187" transform="translate(477.702 672.146)" opacity="0.56">
                  <g id="Grupo_1072186" data-name="Grupo 1072186">
                    <g id="Grupo_1072185" data-name="Grupo 1072185" clip-path="url(#clip-path-10)">
                      <path id="Trazado_818164" data-name="Trazado 818164" d="M309.645,442.106l87.99,70.338s-5.228-49.22-42.351-76.762Z" transform="translate(-309.645 -435.684)" fill="#5c82cc"/>
                    </g>
                  </g>
                </g>
                <g id="Grupo_1072190" data-name="Grupo 1072190" transform="translate(371.989 689.387)" opacity="0.61">
                  <g id="Grupo_1072189" data-name="Grupo 1072189">
                    <g id="Grupo_1072188" data-name="Grupo 1072188" clip-path="url(#clip-path-4)">
                      <path id="Trazado_818165" data-name="Trazado 818165" d="M247.967,654.846c-.08-1.247-7.91-124.951-6.722-153.444A364.954,364.954,0,0,1,248,446.86l3.016.65a361.7,361.7,0,0,0-6.688,54.022c-1.182,28.331,6.638,151.874,6.719,153.118Z" transform="translate(-241.122 -446.858)" fill="#aac4f7"/>
                    </g>
                  </g>
                </g>
                <g id="Grupo_1072193" data-name="Grupo 1072193" transform="translate(403.781 686.289)" opacity="0.61">
                  <g id="Grupo_1072192" data-name="Grupo 1072192">
                    <g id="Grupo_1072191" data-name="Grupo 1072191" clip-path="url(#clip-path-12)">
                      <path id="Trazado_818166" data-name="Trazado 818166" d="M279.168,655.915c-.006-.5-.679-50.559-6.594-123.9-5.855-72.606-10.643-85.5-10.844-86.017l2.863-1.152c.207.509,5.117,13.288,11.057,86.923,5.923,73.45,6.6,123.606,6.6,124.1Z" transform="translate(-261.73 -444.852)" fill="#aac4f7"/>
                    </g>
                  </g>
                </g>
                <g id="Grupo_1072196" data-name="Grupo 1072196" transform="translate(440.101 682.34)" opacity="0.61">
                  <g id="Grupo_1072195" data-name="Grupo 1072195">
                    <g id="Grupo_1072194" data-name="Grupo 1072194" clip-path="url(#clip-path-13)">
                      <path id="Trazado_818167" data-name="Trazado 818167" d="M321.337,657.421c-.065-.725-6.543-72.938-14.816-116.665-8.28-43.76-21.119-97.208-21.248-97.743l3-.722c.128.535,12.985,54.055,21.279,97.893,8.3,43.874,14.793,116.238,14.858,116.963Z" transform="translate(-285.272 -442.291)" fill="#aac4f7"/>
                    </g>
                  </g>
                </g>
                <g id="Grupo_1072199" data-name="Grupo 1072199" transform="translate(475.847 679.256)" opacity="0.61">
                  <g id="Grupo_1072198" data-name="Grupo 1072198">
                    <g id="Grupo_1072197" data-name="Grupo 1072197" clip-path="url(#clip-path-14)">
                      <path id="Trazado_818168" data-name="Trazado 818168" d="M370,658.7c-.031-.139-3.139-14.608-14.982-79.741-11.8-64.9-46.228-136.6-46.574-137.319l2.777-1.344c.349.72,34.957,72.8,46.831,138.111,11.825,65.036,14.934,79.5,14.963,79.639Z" transform="translate(-308.442 -440.292)" fill="#aac4f7"/>
                    </g>
                  </g>
                </g>
                <g id="Grupo_1072202" data-name="Grupo 1072202" transform="translate(506.741 673.517)" opacity="0.61">
                  <g id="Grupo_1072201" data-name="Grupo 1072201">
                    <g id="Grupo_1072200" data-name="Grupo 1072200" clip-path="url(#clip-path-15)">
                      <path id="Trazado_818169" data-name="Trazado 818169" d="M402.256,660.623s-3.028-19.817-11.41-74.9c-8.243-54.161-61.838-146.667-62.378-147.6l2.666-1.552c.545.933,54.431,93.942,62.76,148.683,8.383,55.085,11.412,74.9,11.412,74.9Z" transform="translate(-328.468 -436.572)" fill="#aac4f7"/>
                    </g>
                  </g>
                </g>
                <path id="Trazado_818170" data-name="Trazado 818170" d="M383.012,396.543l12.993,64.966L239.132,479.473,234.625,408.5a4.631,4.631,0,0,1,4.173-4.9l135.851-13.254a7.761,7.761,0,0,1,8.363,6.2" transform="translate(127.335 211.834)" fill="#fce249"/>
                <path id="Trazado_818171" data-name="Trazado 818171" d="M251.534,401.473l71.555,67.351,59.715-6.837,4.019-1.658-13.076-64.3A7.2,7.2,0,0,0,366,390.305Z" transform="translate(136.518 211.816)" fill="#edcc43"/>
                <rect id="Rectángulo_375894" data-name="Rectángulo 375894" width="1.541" height="75.422" transform="translate(370.682 614.968) rotate(-4.405)" fill="#edcc43"/>
                <rect id="Rectángulo_375895" data-name="Rectángulo 375895" width="1.542" height="73.294" transform="matrix(0.997, -0.082, 0.082, 0.997, 387.253, 613.529)" fill="#edcc43"/>
                <rect id="Rectángulo_375896" data-name="Rectángulo 375896" width="1.542" height="73.294" transform="matrix(0.997, -0.082, 0.082, 0.997, 404.018, 613.529)" fill="#edcc43"/>
                <rect id="Rectángulo_375897" data-name="Rectángulo 375897" width="1.541" height="75.679" transform="translate(424.375 608.739) rotate(-4.539)" fill="#edcc43"/>
                <rect id="Rectángulo_375898" data-name="Rectángulo 375898" width="1.544" height="103.693" transform="translate(343.109 300.567) rotate(-5.51)" fill="#231333"/>
                <path id="Trazado_818172" data-name="Trazado 818172" d="M187.832,189.561s-7.123-20.181-29.678-17.806a115.654,115.654,0,0,0-48.923,17.078,9.763,9.763,0,0,0-4.494,8.24V203.8Z" transform="translate(56.845 93.113)" fill="#d3d3d3"/>
                <path id="Trazado_818173" data-name="Trazado 818173" d="M275.38,185.243H205.343s-18.994-17.806-53.419,0S113.937,205.424,108,218.481c0,0-45.255,100.206-46.453,171.272a70.872,70.872,0,0,0,5.666,29.506c6.075,13.963,18.369,29.482,42.376,23.536a50.433,50.433,0,0,0,21.262-11.432L183.017,385a57.682,57.682,0,0,1,38.32-14.568H275.38Z" transform="translate(33.399 96.244)" fill="#fff"/>
                <path id="Trazado_818174" data-name="Trazado 818174" d="M241.7,189.561s7.123-20.181,29.678-17.806A115.653,115.653,0,0,1,320.3,188.832a9.763,9.763,0,0,1,4.494,8.24V203.8Z" transform="translate(131.181 93.113)" fill="#d3d3d3"/>
                <path id="Trazado_818175" data-name="Trazado 818175" d="M200.15,185.243h70.037s18.993-17.806,53.419,0,37.987,20.181,43.922,33.238c0,0,49.857,110.4,46.3,181.622,0,0-6.731,52.885-47.885,42.692a50.433,50.433,0,0,1-21.262-11.432L292.512,385a57.675,57.675,0,0,0-38.319-14.568H200.15Z" transform="translate(108.629 96.244)" fill="#fff"/>
                <path id="Trazado_818176" data-name="Trazado 818176" d="M227.1,182.459H157.06l22.047,30.448a9.622,9.622,0,0,0,7.792,3.977h72.086a9.62,9.62,0,0,0,7.791-3.977l22.049-30.448Z" transform="translate(85.243 99.028)" fill="#f4f4f4"/>
                <path id="Trazado_818177" data-name="Trazado 818177" d="M167.169,225.217a29.677,29.677,0,1,1-29.678-29.678,29.678,29.678,0,0,1,29.678,29.678" transform="translate(58.516 106.127)" fill="#d3d3d3"/>
                <path id="Trazado_818178" data-name="Trazado 818178" d="M202.564,280.618a29.677,29.677,0,1,1-29.678-29.678,29.677,29.677,0,0,1,29.678,29.678" transform="translate(77.726 136.195)" fill="#d3d3d3"/>
                <path id="Trazado_818179" data-name="Trazado 818179" d="M271.046,280.618a29.677,29.677,0,1,1-29.678-29.678,29.677,29.677,0,0,1,29.678,29.678" transform="translate(114.894 136.195)" fill="#d3d3d3"/>
                <path id="Trazado_818180" data-name="Trazado 818180" d="M268.52,225.108a11.871,11.871,0,1,1-11.871-11.871,11.871,11.871,0,0,1,11.871,11.871" transform="translate(132.851 115.732)" fill="#29abe2"/>
                <path id="Trazado_818181" data-name="Trazado 818181" d="M301.607,225.108a11.871,11.871,0,1,1-11.871-11.871,11.871,11.871,0,0,1,11.871,11.871" transform="translate(150.809 115.732)" fill="red"/>
                <path id="Trazado_818182" data-name="Trazado 818182" d="M285.448,208.949a11.871,11.871,0,1,1-11.87-11.871,11.871,11.871,0,0,1,11.87,11.871" transform="translate(142.039 106.962)" fill="#fbb03b"/>
                <path id="Trazado_818183" data-name="Trazado 818183" d="M285.448,239.728a11.871,11.871,0,1,1-11.87-11.871,11.871,11.871,0,0,1,11.87,11.871" transform="translate(142.039 123.667)" fill="#72cc8e"/>
                <path id="Trazado_818184" data-name="Trazado 818184" d="M187.816,226.691a6.529,6.529,0,1,1-6.529-6.529,6.529,6.529,0,0,1,6.529,6.529" transform="translate(94.848 119.491)" fill="#d3d3d3"/>
                <path id="Trazado_818185" data-name="Trazado 818185" d="M225.519,226.691a6.529,6.529,0,1,1-6.529-6.529,6.529,6.529,0,0,1,6.529,6.529" transform="translate(115.311 119.491)" fill="#d3d3d3"/>
                <path id="Trazado_818186" data-name="Trazado 818186" d="M215.7,304.024s-28.49-15.432-58.167,11.871-57.015,49.28-93.2,33.542c0,0,6.14,25.96,31.865,28.26s49.468-25,49.468-25,40.36-46.3,70.037-48.67" transform="translate(34.913 162.648)" fill="#f4f4f4"/>
                <path id="Trazado_818187" data-name="Trazado 818187" d="M237.457,304.024s28.49-15.432,58.168,11.871,57.017,49.28,93.2,33.542c0,0-6.139,25.96-31.865,28.26s-49.468-25-49.468-25-40.36-46.3-70.037-48.67" transform="translate(128.877 162.648)" fill="#f4f4f4"/>
                <rect id="Rectángulo_375899" data-name="Rectángulo 375899" width="13.058" height="36.799" transform="translate(242.303 401.382)" fill="#b5b5b5"/>
                <rect id="Rectángulo_375900" data-name="Rectángulo 375900" width="36.799" height="13.058" transform="translate(230.433 413.252)" fill="#b5b5b5"/>
                <rect id="Rectángulo_375901" data-name="Rectángulo 375901" width="13.058" height="36.799" transform="translate(244.677 399.008)" fill="#f4f4f4"/>
                <rect id="Rectángulo_375902" data-name="Rectángulo 375902" width="36.799" height="13.058" transform="translate(232.807 410.878)" fill="#f4f4f4"/>
                <path id="Trazado_818188" data-name="Trazado 818188" d="M156.657,225.577a23.267,23.267,0,1,1-23.266-23.266,23.267,23.267,0,0,1,23.266,23.266" transform="translate(59.768 109.802)" fill="#b5b5b5"/>
                <path id="Trazado_818189" data-name="Trazado 818189" d="M158.811,223.423a23.267,23.267,0,1,1-23.266-23.266,23.266,23.266,0,0,1,23.266,23.266" transform="translate(60.937 108.633)" fill="#f4f4f4"/>
                <path id="Trazado_818190" data-name="Trazado 818190" d="M147.578,220.5a14.957,14.957,0,1,1-14.957-14.957A14.957,14.957,0,0,1,147.578,220.5" transform="translate(63.861 111.556)" fill="#fff"/>
                <path id="Trazado_818191" data-name="Trazado 818191" d="M260.534,280.209a23.267,23.267,0,1,1-23.266-23.266,23.267,23.267,0,0,1,23.266,23.266" transform="translate(116.146 139.453)" fill="#b5b5b5"/>
                <path id="Trazado_818192" data-name="Trazado 818192" d="M262.689,278.055a23.267,23.267,0,1,1-23.266-23.266,23.266,23.266,0,0,1,23.266,23.266" transform="translate(117.316 138.284)" fill="#f4f4f4"/>
                <path id="Trazado_818193" data-name="Trazado 818193" d="M251.455,275.132A14.958,14.958,0,1,1,236.5,260.175a14.957,14.957,0,0,1,14.957,14.957" transform="translate(120.239 141.207)" fill="#fff"/>
                <path id="Trazado_818194" data-name="Trazado 818194" d="M236.851,291.439a15.956,15.956,0,1,1,15.955-15.955,15.975,15.975,0,0,1-15.955,15.955m0-29.915a13.959,13.959,0,1,0,13.959,13.96,13.976,13.976,0,0,0-13.959-13.96" transform="translate(119.888 140.856)" fill="#231333"/>
                <path id="Trazado_818195" data-name="Trazado 818195" d="M132.4,237.208a15.956,15.956,0,1,1,15.955-15.957A15.974,15.974,0,0,1,132.4,237.208m0-29.915a13.959,13.959,0,1,0,13.959,13.959A13.974,13.974,0,0,0,132.4,207.292" transform="translate(63.201 111.422)" fill="#231333"/>
                <g id="Grupo_1072205" data-name="Grupo 1072205" transform="translate(404.932 305.228)" opacity="0.17">
                  <g id="Grupo_1072204" data-name="Grupo 1072204">
                    <g id="Grupo_1072203" data-name="Grupo 1072203" clip-path="url(#clip-path-16)">
                      <path id="Trazado_818196" data-name="Trazado 818196" d="M279.1,206.157a8.309,8.309,0,1,1-8.309-8.309,8.309,8.309,0,0,1,8.309,8.309" transform="translate(-262.475 -197.848)" fill="#fff"/>
                    </g>
                  </g>
                </g>
                <g id="Grupo_1072208" data-name="Grupo 1072208" transform="translate(378.817 331.343)" opacity="0.17">
                  <g id="Grupo_1072207" data-name="Grupo 1072207">
                    <g id="Grupo_1072206" data-name="Grupo 1072206" clip-path="url(#clip-path-16)">
                      <path id="Trazado_818197" data-name="Trazado 818197" d="M262.168,223.085a8.31,8.31,0,1,1-8.309-8.309,8.308,8.308,0,0,1,8.309,8.309" transform="translate(-245.548 -214.776)" fill="#fff"/>
                    </g>
                  </g>
                </g>
                <g id="Grupo_1072211" data-name="Grupo 1072211" transform="translate(429.861 331.343)" opacity="0.17">
                  <g id="Grupo_1072210" data-name="Grupo 1072210">
                    <g id="Grupo_1072209" data-name="Grupo 1072209" clip-path="url(#clip-path-18)">
                      <path id="Trazado_818198" data-name="Trazado 818198" d="M295.253,223.085a8.309,8.309,0,1,1-8.309-8.309,8.309,8.309,0,0,1,8.309,8.309" transform="translate(-278.635 -214.776)" fill="#fff"/>
                    </g>
                  </g>
                </g>
                <g id="Grupo_1072214" data-name="Grupo 1072214" transform="translate(404.932 352.712)" opacity="0.17">
                  <g id="Grupo_1072213" data-name="Grupo 1072213">
                    <g id="Grupo_1072212" data-name="Grupo 1072212" clip-path="url(#clip-path-19)">
                      <path id="Trazado_818199" data-name="Trazado 818199" d="M279.1,236.936a8.309,8.309,0,1,1-8.309-8.309,8.309,8.309,0,0,1,8.309,8.309" transform="translate(-262.475 -228.627)" fill="#fff"/>
                    </g>
                  </g>
                </g>
                <path id="Trazado_818200" data-name="Trazado 818200" d="M100.721,399.021a35.5,35.5,0,0,1-15.98-3.69c-10.475-5.282-27.476-20.884-23.633-66.029.059-.437,5.381-38.783,12.36-63.151l1.918.551c-6.939,24.23-12.243,62.435-12.3,62.819-3.737,43.926,12.524,58.973,22.549,64.027,12.368,6.237,28.562,3.94,39.382-5.583l1.319,1.5a39.064,39.064,0,0,1-25.619,9.559" transform="translate(32.865 144.451)" fill="#231333"/>
                <path id="Trazado_818201" data-name="Trazado 818201" d="M96.4,206.96,94.7,205.922c5.6-9.184,37-23.308,38.331-23.9l.815,1.824c-.319.143-32.166,14.462-37.439,23.119" transform="translate(51.395 98.788)" fill="#231333"/>
                <path id="Trazado_818202" data-name="Trazado 818202" d="M104.224,200.318c-.028-.083-2.609-8.431,8.166-14.013l2.488-1.3c9.509-4.989,21.342-11.2,41.76-13.727,22.468-2.772,31.623,16.094,31.711,16.284l-1.805.852a28.626,28.626,0,0,0-29.661-15.154c-20.057,2.485-31.713,8.6-41.077,13.513l-2.5,1.305c-9.216,4.775-7.272,11.35-7.185,11.626Z" transform="translate(56.409 92.808)" fill="#231333"/>
                <rect id="Rectángulo_375907" data-name="Rectángulo 375907" width="31.627" height="1.996" transform="translate(119.189 368.987) rotate(-69.787)" fill="#231333"/>
                <path id="Trazado_818203" data-name="Trazado 818203" d="M253.817,218.938H190.293a15.765,15.765,0,0,1-13.945-7.866l-19.414-28.2,1.645-1.131,19.48,28.311a13.817,13.817,0,0,0,12.234,6.891h63.524Z" transform="translate(85.174 98.637)" fill="#231333"/>
                <path id="Trazado_818204" data-name="Trazado 818204" d="M232.584,311.373a18.093,18.093,0,0,1-5.429-.7l.628-1.9c3.561,1.177,13.737,1.023,22.24-4.656,6.953-4.645,10.821-11.637,11.495-20.788,1.8-24.394-20.39-30.281-20.614-30.336l.486-1.933c.242.06,24.041,6.37,22.121,32.418-.714,9.658-5,17.37-12.38,22.3a34.517,34.517,0,0,1-18.547,5.594" transform="translate(123.286 136.26)" fill="#231333"/>
                <path id="Trazado_818205" data-name="Trazado 818205" d="M164.293,311.373a18.093,18.093,0,0,1-5.429-.7l.626-1.9c3.559,1.176,13.738,1.024,22.242-4.656,6.953-4.645,10.821-11.637,11.495-20.788,1.8-24.351-19.7-30.1-20.616-30.336l.488-1.933c.241.06,24.039,6.37,22.118,32.418-.711,9.656-4.991,17.368-12.376,22.3a34.512,34.512,0,0,1-18.548,5.6" transform="translate(86.222 136.26)" fill="#231333"/>
                <path id="Trazado_818206" data-name="Trazado 818206" d="M168.859,295.615h-2V282.223h10.845V271.615H166.862V258.432h2v11.186H179.7v14.6H168.859Z" transform="translate(90.563 140.261)" fill="#231333"/>
                <path id="Trazado_818207" data-name="Trazado 818207" d="M71.739,266.389s70.583-.528,90.994,94.32L181.122,346S170.089,250.375,77.717,246.08Z" transform="translate(38.936 133.557)" fill="#f4f4f4"/>
                <path id="Trazado_818208" data-name="Trazado 818208" d="M367.067,266.389s-70.583-.528-90.994,94.32L257.684,346s11.034-95.622,103.405-99.917Z" transform="translate(139.855 133.557)" fill="#f4f4f4"/>
                <path id="Trazado_818209" data-name="Trazado 818209" d="M351.7,208.466a34.146,34.146,0,0,1-20.608,20.608s16.486,10.306,20.608,20.609c4.122-10.3,20.608-20.609,20.608-20.609A34.147,34.147,0,0,1,351.7,208.466" transform="translate(210.786 169.619)" fill="#fce249"/>
                <path id="Trazado_818216" data-name="Trazado 818216" d="M351.7,208.466a34.146,34.146,0,0,1-20.608,20.608s16.486,10.306,20.608,20.609c4.122-10.3,20.608-20.609,20.608-20.609A34.147,34.147,0,0,1,351.7,208.466" transform="translate(-278.891 371.815)" fill="#fce249"/>
                <path id="Trazado_818217" data-name="Trazado 818217" d="M346.523,208.466a25.566,25.566,0,0,1-15.43,15.43s12.343,7.716,15.43,15.431c3.086-7.715,15.43-15.431,15.43-15.431a25.567,25.567,0,0,1-15.43-15.43" transform="translate(-46.395 15.708)" fill="#fce249"/>
                <path id="Trazado_818210" data-name="Trazado 818210" d="M199.033,385.35a22.373,22.373,0,0,1-13.5,13.5s10.8,6.751,13.5,13.5c2.7-6.751,13.5-13.5,13.5-13.5a22.368,22.368,0,0,1-13.5-13.5" transform="translate(100.695 209.145)" fill="#fce249"/>
                <path id="Trazado_818211" data-name="Trazado 818211" d="M97.416,132.461s-5.685,19.9-28.427,28.426c0,0,22.742,14.212,28.427,28.425,5.685-14.213,28.425-28.425,28.425-28.425-22.74-8.528-28.425-28.426-28.425-28.426" transform="translate(37.443 71.892)" fill="#fce249"/>
                <path id="Trazado_818212" data-name="Trazado 818212" d="M81.939,217.7a9.239,9.239,0,1,1-9.238-9.238,9.238,9.238,0,0,1,9.238,9.238" transform="translate(18.748 137.619)" fill="#fff"/>
                <path id="Trazado_818213" data-name="Trazado 818213" d="M220.613,168.575a18.538,18.538,0,1,1,18.538-18.538,18.559,18.559,0,0,1-18.538,18.538m0-35.532a16.995,16.995,0,1,0,16.995,16.995,17.016,17.016,0,0,0-16.995-16.995" transform="translate(254.247 104.997)" fill="#f4f4f4"/>
                <path id="Trazado_818214" data-name="Trazado 818214" d="M345.418,372.586a9.3,9.3,0,1,1,9.3-9.3,9.31,9.31,0,0,1-9.3,9.3m0-17.057a7.757,7.757,0,1,0,7.755,7.757,7.765,7.765,0,0,0-7.755-7.757" transform="translate(182.426 192.123)" fill="#f4f4f4"/>
              </g>
            </g>
          </g>
        </g>
      </g>
      <text id="Diseño_de_botones_Algunos_controladores_tienen_diferentes_configuraciones_de_botones_y_algunos_pueden_ser_más_útiles_para_tipos_específicos_de_juegos." data-name="Diseño de botones 
Algunos controladores tienen diferentes configuraciones de botones y algunos pueden ser más útiles para tipos específicos de juegos." transform="translate(354.5 1739)" fill="#222b89" font-size="20" font-family="Roboto-Bold, Roboto" font-weight="700"><tspan x="-83.291" y="21">Diseño de botones </tspan><tspan font-size="16" font-family="Roboto-Regular, Roboto" font-weight="400"><tspan x="-80.547" y="45">Algunos controladores </tspan><tspan x="-59.645" y="69">tienen diferentes </tspan><tspan x="-98.5" y="93">configuraciones de botones </tspan><tspan x="-92.859" y="117">y algunos pueden ser más </tspan><tspan x="-99.242" y="141">útiles para tipos específicos </tspan><tspan x="-36.57" y="165">de juegos.</tspan></tspan></text>
      <text id="Marca_Considere_comprar_marcas_reconocidas_que_produzcan_controladores_de_juegos_de_alta_calidad." data-name="Marca 
Considere comprar marcas reconocidas que produzcan controladores de juegos de alta calidad." transform="translate(1011.5 1834)" fill="#222b89" font-size="20" font-family="Roboto-Bold, Roboto" font-weight="700"><tspan x="-28.252" y="21">Marca </tspan><tspan font-size="16" font-family="Roboto-Regular, Roboto" font-weight="400"><tspan x="-67.785" y="45">Considere comprar </tspan><tspan x="-87.605" y="69">marcas reconocidas que </tspan><tspan x="-88.844" y="93">produzcan controladores </tspan><tspan x="-90.316" y="117">de juegos de alta calidad.</tspan></tspan></text>
      <g id="Grupo_1072221" data-name="Grupo 1072221" transform="translate(330.301 1287.338)">
        <path id="Trazado_771199" data-name="Trazado 771199" d="M44.168,27.605H25.259L42.788,0H20.7L0,41.408H16.287L0,80.056Z" transform="translate(640.14 118.29) rotate(-1)" fill="#fff"/>
        <ellipse id="Elipse_4729" data-name="Elipse 4729" cx="9.261" cy="9.724" rx="9.261" ry="9.724" transform="translate(385.28 27.616)" fill="#fff"/>
        <ellipse id="Elipse_4724" data-name="Elipse 4724" cx="9.261" cy="9.724" rx="9.261" ry="9.724" transform="translate(705.78 738.326)" fill="#fff"/>
        <path id="Trazado_771200" data-name="Trazado 771200" d="M24.419,15.262H13.964L23.655,0H11.446L0,22.892H9L0,44.259Z" transform="translate(179.832 180.031) rotate(-162)" fill="#fff"/>
        <path id="Trazado_771198" data-name="Trazado 771198" d="M54.006,33.754H30.885L52.318,0h-27L0,50.631H19.915L0,97.886Z" transform="translate(423.386 665.583) rotate(-42)" fill="#4d5bf5" opacity="0.481"/>
        <path id="Trazado_771203" data-name="Trazado 771203" d="M31.876,19.923H18.229L30.88,0H14.942L0,29.884H11.754L0,57.776Z" transform="translate(52.651 742.533) rotate(177)" fill="#9ea6fa"/>
        <circle id="Elipse_4726" data-name="Elipse 4726" cx="15.28" cy="15.28" r="15.28" transform="translate(469.699 546.357)" fill="#fff"/>
        <path id="Trazado_771202" data-name="Trazado 771202" d="M5.579,0,0,3.788C3.711,9.254,9.279,9.423,13.754,9.56c4.217.128,6.685.323,8.38,2.819s.965,4.862-.473,8.829c-1.524,4.209-3.421,9.448.29,14.914s9.278,5.635,13.754,5.772c4.217.128,6.685.322,8.379,2.819s.965,4.863-.471,8.83c-1.525,4.209-3.421,9.448.29,14.914s9.279,5.636,13.754,5.773c4.218.129,6.686.324,8.381,2.821l5.579-3.788c-3.711-5.466-9.279-5.637-13.754-5.773-4.217-.129-6.686-.324-8.381-2.821s-.965-4.863.472-8.83c1.524-4.209,3.421-9.448-.29-14.914S40.384,35.29,35.91,35.153c-4.217-.129-6.685-.323-8.38-2.819S26.565,27.471,28,23.5c1.524-4.209,3.421-9.448-.29-14.914S18.434,2.956,13.96,2.819C9.742,2.69,7.274,2.5,5.579,0" transform="matrix(0.559, -0.829, 0.829, 0.559, 835.215, 707.135)" fill="#ff06cc"/>
        <path id="Trazado_771201" data-name="Trazado 771201" d="M3.964,54.737,0,52.046c2.636-3.883,6.592-4,9.771-4.1,3-.091,4.749-.23,5.953-2s.685-3.454-.336-6.272c-1.083-2.99-2.43-6.712.206-10.595s6.591-4,9.771-4.1c3-.091,4.749-.229,5.953-2S32,19.518,30.983,16.7c-1.083-2.99-2.43-6.712.206-10.6s6.592-4,9.771-4.1c3-.091,4.75-.23,5.954-2l3.964,2.691c-2.636,3.883-6.592,4-9.771,4.1-3,.091-4.75.23-5.954,2s-.685,3.455.335,6.273c1.083,2.99,2.43,6.712-.206,10.6s-6.592,4-9.771,4.1c-3,.091-4.749.23-5.953,2s-.685,3.454.336,6.272c1.083,2.99,2.43,6.712-.206,10.595s-6.591,4-9.77,4.1c-3,.091-4.75.23-5.953,2" transform="translate(41.484 89.96) rotate(-135)" fill="#f3bcf9"/>
        <path id="Trazado_818084" data-name="Trazado 818084" d="M3.964,54.737,0,52.046c2.636-3.883,6.592-4,9.771-4.1,3-.091,4.749-.23,5.953-2s.685-3.454-.336-6.272c-1.083-2.99-2.43-6.712.206-10.595s6.591-4,9.771-4.1c3-.091,4.749-.229,5.953-2S32,19.518,30.983,16.7c-1.083-2.99-2.43-6.712.206-10.6s6.592-4,9.771-4.1c3-.091,4.75-.23,5.954-2l3.964,2.691c-2.636,3.883-6.592,4-9.771,4.1-3,.091-4.75.23-5.954,2s-.685,3.455.335,6.273c1.083,2.99,2.43,6.712-.206,10.6s-6.592,4-9.771,4.1c-3,.091-4.749.23-5.953,2s-.685,3.454.336,6.272c1.083,2.99,2.43,6.712-.206,10.595s-6.591,4-9.77,4.1c-3,.091-4.75.23-5.953,2" transform="translate(257.484 748.051) rotate(-135)" fill="#adb3f3"/>
        <path id="Trazado_818215" data-name="Trazado 818215" d="M3.964,54.737,0,52.046c2.636-3.883,6.592-4,9.771-4.1,3-.091,4.749-.23,5.953-2s.685-3.454-.336-6.272c-1.083-2.99-2.43-6.712.206-10.595s6.591-4,9.771-4.1c3-.091,4.749-.229,5.953-2S32,19.518,30.983,16.7c-1.083-2.99-2.43-6.712.206-10.6s6.592-4,9.771-4.1c3-.091,4.75-.23,5.954-2l3.964,2.691c-2.636,3.883-6.592,4-9.771,4.1-3,.091-4.75.23-5.954,2s-.685,3.455.335,6.273c1.083,2.99,2.43,6.712-.206,10.6s-6.592,4-9.771,4.1c-3,.091-4.749.23-5.953,2s-.685,3.454.336,6.272c1.083,2.99,2.43,6.712-.206,10.595s-6.591,4-9.77,4.1c-3,.091-4.75.23-5.953,2" transform="translate(41.484 420.307) rotate(-135)" fill="#adb3f3"/>
        <circle id="Elipse_4728" data-name="Elipse 4728" cx="15.28" cy="15.28" r="15.28" transform="translate(856.617 74.679)" fill="#fff"/>
        <g id="Grupo_1071908" data-name="Grupo 1071908" transform="translate(0 35.535)">
          <path id="Rectangle_652" data-name="Rectangle 652" d="M12.526,0H782.846c6.918,0,12.525,8.311,12.525,18.562V482.62c0,10.252-5.608,18.562-12.525,18.562H12.526C5.608,501.182,0,492.872,0,482.62V18.562C0,8.311,5.608,0,12.526,0Z" transform="translate(21.34 145.285)" fill="none"/>
          <path id="Trazado_818077" data-name="Trazado 818077" d="M0,0,860.152,23.152l18.153,528.8L18.153,528.8Z" transform="translate(0 104.25) rotate(-7)" fill="none"/>
          <circle id="Elipse_4725" data-name="Elipse 4725" cx="4.521" cy="4.521" r="4.521" transform="translate(373.467 309.014)" fill="#fff"/>
          <ellipse id="Elipse_4727" data-name="Elipse 4727" cx="10.548" cy="10.046" rx="10.548" ry="10.046" transform="translate(215.198 204.606)" fill="#fff"/>
          <circle id="Elipse_4731" data-name="Elipse 4731" cx="4.521" cy="4.521" r="4.521" transform="translate(588.108 246.342)" fill="#fff"/>
        </g>
      </g>
    </g>
    <g id="Grupo_1072223" data-name="Grupo 1072223">
      <rect id="Rectángulo_375917" data-name="Rectángulo 375917" width="226" height="28" rx="5" transform="translate(866 1291)" fill="#1425dd"/>
      <text id="Guía_para_elegir_el_controlador_de_juegos_ideal_para_PC" data-name="Guía para elegir el controlador de juegos ideal para PC" transform="translate(509 1291.19)" fill="#222b89" font-size="24" font-family="Roboto-Black, Roboto" font-weight="800"><tspan x="-275.818" y="25">Guía para elegir el controlador de </tspan><tspan y="25" fill="#fff">juegos ideal para </tspan><tspan x="-15.686" y="55" fill="#fff">PC</tspan></text>
    </g>
  </g>
</svg>
