<svg xmlns="http://www.w3.org/2000/svg" xmlns:xlink="http://www.w3.org/1999/xlink" width="551" height="1103" viewBox="0 0 551 1103">
  <defs>
    <clipPath id="clip-path">
      <rect id="Rectángulo_376373" data-name="Rectángulo 376373" width="316.177" height="330.217" fill="#fff" stroke="#707070" stroke-width="1"/>
    </clipPath>
    <clipPath id="clip-path-2">
      <rect id="Rectángulo_376339" data-name="Rectángulo 376339" width="18.071" height="79.68" fill="none"/>
    </clipPath>
    <clipPath id="clip-path-3">
      <rect id="Rectángulo_376341" data-name="Rectángulo 376341" width="49.415" height="43.109" fill="none"/>
    </clipPath>
    <clipPath id="clip-path-4">
      <rect id="Rectángulo_376342" data-name="Rectángulo 376342" width="5.574" height="116.804" fill="none"/>
    </clipPath>
    <clipPath id="clip-path-5">
      <rect id="Rectángulo_376343" data-name="Rectángulo 376343" width="11.526" height="118.534" fill="none"/>
    </clipPath>
    <clipPath id="clip-path-6">
      <rect id="Rectángulo_376344" data-name="Rectángulo 376344" width="21.979" height="120.816" fill="none"/>
    </clipPath>
    <clipPath id="clip-path-7">
      <rect id="Rectángulo_376345" data-name="Rectángulo 376345" width="36.263" height="122.654" fill="none"/>
    </clipPath>
    <clipPath id="clip-path-8">
      <rect id="Rectángulo_376346" data-name="Rectángulo 376346" width="43.151" height="125.825" fill="none"/>
    </clipPath>
    <clipPath id="clip-path-12">
      <rect id="Rectángulo_376355" data-name="Rectángulo 376355" width="11.526" height="118.532" fill="none"/>
    </clipPath>
    <clipPath id="clip-path-13">
      <rect id="Rectángulo_376356" data-name="Rectángulo 376356" width="21.98" height="120.816" fill="none"/>
    </clipPath>
    <clipPath id="clip-path-14">
      <rect id="Rectángulo_376357" data-name="Rectángulo 376357" width="36.264" height="122.655" fill="none"/>
    </clipPath>
    <clipPath id="clip-path-16">
      <rect id="Rectángulo_376368" data-name="Rectángulo 376368" width="9.334" height="9.334" fill="none"/>
    </clipPath>
    <clipPath id="clip-path-18">
      <rect id="Rectángulo_376370" data-name="Rectángulo 376370" width="9.333" height="9.334" fill="none"/>
    </clipPath>
    <clipPath id="clip-path-19">
      <rect id="Rectángulo_376371" data-name="Rectángulo 376371" width="9.334" height="9.333" fill="none"/>
    </clipPath>
  </defs>
  <g id="Grupo_1072649" data-name="Grupo 1072649" transform="translate(-6890 10863)">
    <g id="Grupo_1072222" data-name="Grupo 1072222" transform="translate(6605 -12159)">
      <rect id="Rectángulo_375832" data-name="Rectángulo 375832" width="551" height="1103" rx="31" transform="translate(285 1296)" fill="#fae2fd"/>
      <g id="Grupo_1072225" data-name="Grupo 1072225" transform="translate(294.552 1307.416)">
        <rect id="Rectángulo_375918" data-name="Rectángulo 375918" width="55.815" height="55.814" transform="translate(109.635 370.77)" fill="#f8d8fc"/>
        <rect id="Rectángulo_375919" data-name="Rectángulo 375919" width="55.814" height="55.814" transform="translate(161.464 318.942)" fill="#f8d8fc"/>
        <rect id="Rectángulo_375920" data-name="Rectángulo 375920" width="55.814" height="55.814" transform="translate(211.299 318.942)" fill="#f8d8fc"/>
        <rect id="Rectángulo_375921" data-name="Rectángulo 375921" width="55.814" height="55.814" transform="translate(211.299 370.77)" fill="#f8d8fc"/>
        <rect id="Rectángulo_375922" data-name="Rectángulo 375922" width="55.814" height="55.814" transform="translate(211.299 263.128)" fill="#f8d8fc"/>
        <rect id="Rectángulo_375923" data-name="Rectángulo 375923" width="55.814" height="55.814" transform="translate(263.126 318.942)" fill="#f8d8fc"/>
        <rect id="Rectángulo_375924" data-name="Rectángulo 375924" width="55.814" height="55.814" transform="translate(258.143 222.264)" fill="#f8d8fc"/>
        <rect id="Rectángulo_375925" data-name="Rectángulo 375925" width="55.814" height="55.814" transform="translate(309.971 170.436)" fill="#f8d8fc"/>
        <rect id="Rectángulo_375926" data-name="Rectángulo 375926" width="55.814" height="55.814" transform="translate(359.806 170.436)" fill="#f8d8fc"/>
        <rect id="Rectángulo_375927" data-name="Rectángulo 375927" width="55.814" height="55.814" transform="translate(359.806 222.264)" fill="#f8d8fc"/>
        <rect id="Rectángulo_375928" data-name="Rectángulo 375928" width="55.814" height="55.814" transform="translate(359.806 114.621)" fill="#f8d8fc"/>
        <rect id="Rectángulo_375929" data-name="Rectángulo 375929" width="55.814" height="55.814" transform="translate(411.634 170.436)" fill="#f8d8fc"/>
        <rect id="Rectángulo_375930" data-name="Rectángulo 375930" width="55.814" height="55.814" transform="translate(3.987 271.102)" fill="#f8d8fc"/>
        <rect id="Rectángulo_375931" data-name="Rectángulo 375931" width="55.814" height="55.814" transform="translate(55.815 219.273)" fill="#f8d8fc"/>
        <rect id="Rectángulo_375932" data-name="Rectángulo 375932" width="55.814" height="55.814" transform="translate(105.65 219.273)" fill="#f8d8fc"/>
        <rect id="Rectángulo_375933" data-name="Rectángulo 375933" width="55.814" height="55.814" transform="translate(105.65 271.102)" fill="#f8d8fc"/>
        <rect id="Rectángulo_375934" data-name="Rectángulo 375934" width="55.814" height="55.814" transform="translate(105.65 163.459)" fill="#f8d8fc"/>
        <rect id="Rectángulo_375935" data-name="Rectángulo 375935" width="55.814" height="55.814" transform="translate(157.478 219.273)" fill="#f8d8fc"/>
        <rect id="Rectángulo_375936" data-name="Rectángulo 375936" width="55.814" height="55.814" transform="translate(0 55.815)" fill="#f8d8fc"/>
        <rect id="Rectángulo_375937" data-name="Rectángulo 375937" width="55.814" height="55.814" transform="translate(49.836 55.817)" fill="#f8d8fc"/>
        <rect id="Rectángulo_375938" data-name="Rectángulo 375938" width="55.814" height="55.814" transform="translate(49.836 107.644)" fill="#f8d8fc"/>
        <rect id="Rectángulo_375939" data-name="Rectángulo 375939" width="55.814" height="55.815" transform="translate(49.834)" fill="#f8d8fc"/>
        <rect id="Rectángulo_375940" data-name="Rectángulo 375940" width="55.814" height="55.814" transform="translate(95.683 67.776)" fill="#f8d8fc"/>
        <rect id="Rectángulo_375941" data-name="Rectángulo 375941" width="55.814" height="55.814" transform="translate(152.495 122.594)" fill="#f8d8fc"/>
        <rect id="Rectángulo_375942" data-name="Rectángulo 375942" width="55.814" height="55.814" transform="translate(204.322 70.767)" fill="#f8d8fc"/>
        <rect id="Rectángulo_375943" data-name="Rectángulo 375943" width="55.814" height="55.814" transform="translate(254.156 70.767)" fill="#f8d8fc"/>
        <rect id="Rectángulo_375944" data-name="Rectángulo 375944" width="55.814" height="55.814" transform="translate(254.156 122.594)" fill="#f8d8fc"/>
        <rect id="Rectángulo_375945" data-name="Rectángulo 375945" width="55.814" height="55.814" transform="translate(305.984 70.767)" fill="#f8d8fc"/>
      </g>
      <g id="Grupo_1072644" data-name="Grupo 1072644" transform="translate(312.145 1751.027)">
        <rect id="Rectángulo_375911" data-name="Rectángulo 375911" width="498.727" height="89.5" rx="16" fill="#f3bcf9"/>
        <text id="Compatibilidad_No_todos_los_controladores_funcionan_con_PC_para_juegos." data-name="Compatibilidad
No todos los controladores funcionan con PC para juegos." transform="translate(37 14.279)" fill="#222b89" font-size="20" font-family="Roboto-Black, Roboto" font-weight="800"><tspan x="-68.345" y="21">Compatibilidad</tspan><tspan font-size="16" font-family="Roboto-Regular, Roboto" font-weight="400"><tspan x="-206.914" y="48">No todos los controladores funcionan con PC para juegos.</tspan></tspan></text>
      </g>
      <g id="Enmascarar_grupo_1044167" data-name="Enmascarar grupo 1044167" transform="translate(401.5 1397.283)" clip-path="url(#clip-path)">
        <g id="Grupo_1072639" data-name="Grupo 1072639" transform="translate(-6.188 12.175)">
          <g id="Grupo_1072638" data-name="Grupo 1072638" transform="translate(0 0)">
            <g id="Grupo_1072637" data-name="Grupo 1072637">
              <g id="Grupo_1072636" data-name="Grupo 1072636">
                <path id="Trazado_818805" data-name="Trazado 818805" d="M33.3,520.494l35.3-176.207s-19.844-42.848-19.852-74.045,15.708-25.113,17.189-13.777,2.994,28.095,10.936,16.205S91.225,185.335,95.079,173.3s12.552-7.746,11.859,2.519-4.477,64.339-4.477,64.339,10.792-83.477,16.85-89.017c2.672-2.443,10.089-.64,10.294,6.115s-7.253,89.8-7.253,89.8l2.754.318,18.029-79.356a6.625,6.625,0,0,1,6.152-4.911,6.049,6.049,0,0,1,6.078,6.331l-.586,14.373s7.422-.292,8.381,7.043S166.59,292.918,159.63,319.5c-6.475,24.731-18.894,37.06-18.894,37.06L128.749,524.3Z" transform="translate(-11.911 -134.818)" fill="#ff7898"/>
                <path id="Trazado_818806" data-name="Trazado 818806" d="M123.309,338.14l-.865-.053c2.092-34.812-22.146-43.314-22.39-43.395l-3.738-1.248,58.923,6.1-.089.861L102.8,294.986c6.282,3.268,22.232,14.452,20.507,43.154" transform="translate(-20.331 -153.97)" fill="#231333"/>
                <path id="Trazado_818807" data-name="Trazado 818807" d="M60.694,348.385s15.868,21.145,53.961,1.245c0,0,8.426,32.339,27.659,32.1L40.85,508.828,69.981,371.069Z" transform="translate(-12.92 -161.31)" fill="#f26d93"/>
                <path id="Trazado_818808" data-name="Trazado 818808" d="M69.526,269.026a15.016,15.016,0,0,0-1.882,13.186A16.757,16.757,0,0,0,76.5,292.635s-2.829-.276-4.963-13.25c-.937-5.7-.965-9.193-2.01-10.359" transform="translate(-16.404 -150.707)" fill="#f26d93"/>
                <g id="Grupo_1072584" data-name="Grupo 1072584" transform="translate(113.196 32.874)" opacity="0.56">
                  <g id="Grupo_1072583" data-name="Grupo 1072583">
                    <g id="Grupo_1072582" data-name="Grupo 1072582" clip-path="url(#clip-path-2)">
                      <path id="Trazado_818809" data-name="Trazado 818809" d="M157.336,170.4,149.9,232.391c-.84,7-4.687,13.913-10.631,17.694Z" transform="translate(-139.265 -170.405)" fill="#5c82cc"/>
                    </g>
                  </g>
                </g>
                <path id="Trazado_818810" data-name="Trazado 818810" d="M171.106,201.259s5.114,24.171-3.853,39.935Z" transform="translate(-29.809 -141.653)" fill="#f26d93"/>
                <path id="Trazado_818811" data-name="Trazado 818811" d="M123.7,176.361s3.311,7.17,1.981,22.943-12.228,42.2-12.228,42.2Z" transform="translate(-22.621 -138.326)" fill="#f26d93"/>
                <rect id="Rectángulo_376340" data-name="Rectángulo 376340" width="0.866" height="7.835" transform="translate(106.752 64.301) rotate(-79.139)" fill="#231333"/>
                <path id="Trazado_818812" data-name="Trazado 818812" d="M131.023,370.92c-.074-.1-7.374-10.427-9.563-21.561a49.355,49.355,0,0,1-28.431,9.133h-.171l0-.866h.167a47.918,47.918,0,0,0,28.448-9.376l.574-.481.13.738c1.977,11.2,9.471,21.8,9.547,21.91Z" transform="translate(-19.869 -161.228)" fill="#231333"/>
                <path id="Trazado_818813" data-name="Trazado 818813" d="M54.307,266.787s8.055-2.36,4.019,7.727-2.017,21.52,8.743,30.263,7.45,26.827-8.38,22.492c0,0-8.747-25.478-7.581-41.471s3.2-19.012,3.2-19.012" transform="translate(-14.276 -150.376)" fill="#ffaec1"/>
                <path id="Trazado_818814" data-name="Trazado 818814" d="M105.609,171.956s7.021-1.9,3.659,8.191-4.708,17.486-2.69,28.246-5.951,13.26-9.029,6.966l2.368-16.935s1.593-15.209,2.11-17.415,2.614-7.829,3.583-9.053" transform="translate(-20.496 -137.719)" fill="#ffaec1"/>
                <path id="Trazado_818815" data-name="Trazado 818815" d="M126.189,169.966s5.736,1.866,5.736-5.532,3.362-8.743,5.38-8.07a2.652,2.652,0,0,0,3.384-3.3c-.695-2.08-6.074-4.77-8.764-2.08s-5.736,18.982-5.736,18.982" transform="translate(-24.322 -134.785)" fill="#ffaec1"/>
                <path id="Trazado_818816" data-name="Trazado 818816" d="M158.839,170.767s6.641-1.531,2.606,9.229-4.036,11.433-2.69,22.193-7.11,11.968-7.927,5.984c0,0,6.75-29.151,8.011-37.406" transform="translate(-27.614 -137.569)" fill="#f26d93"/>
                <path id="Trazado_818817" data-name="Trazado 818817" d="M182.634,200.057s-5.31-.408-4.085,6.534,2.042,11.027,0,14.295.3,9.254,5.053,7.895c0,0-.561-24.639-.968-28.724" transform="translate(-31.219 -141.492)" fill="#ffaec1"/>
                <path id="Trazado_818818" data-name="Trazado 818818" d="M49.637,436.727s-12.778,7.4-19.5,26.9-21.521,98.86-21.521,98.86H137.736s9.415-101.55,0-115.673-88.1-10.087-88.1-10.087" transform="translate(-8.613 -173.042)" fill="#222b89"/>
                <g id="Grupo_1072587" data-name="Grupo 1072587" transform="translate(17.24 263.012)" opacity="0.56">
                  <g id="Grupo_1072586" data-name="Grupo 1072586">
                    <g id="Grupo_1072585" data-name="Grupo 1072585" clip-path="url(#clip-path-3)">
                      <path id="Trazado_818819" data-name="Trazado 818819" d="M77.926,439.641l-49.415,39.5S31.447,451.5,52.3,436.034Z" transform="translate(-28.511 -436.033)" fill="#5c82cc"/>
                    </g>
                  </g>
                </g>
                <g id="Grupo_1072590" data-name="Grupo 1072590" transform="translate(120.449 272.696)" opacity="0.61">
                  <g id="Grupo_1072589" data-name="Grupo 1072589">
                    <g id="Grupo_1072588" data-name="Grupo 1072588" clip-path="url(#clip-path-4)">
                      <path id="Trazado_818820" data-name="Trazado 818820" d="M149.366,564.014l-1.729-.11c.044-.7,4.436-70.081,3.773-85.99a203.244,203.244,0,0,0-3.756-30.338l1.694-.365a205.2,205.2,0,0,1,3.793,30.63c.666,16-3.731,85.473-3.775,86.173" transform="translate(-147.637 -447.21)" fill="#aac4f7"/>
                    </g>
                  </g>
                </g>
                <g id="Grupo_1072593" data-name="Grupo 1072593" transform="translate(96.642 270.955)" opacity="0.61">
                  <g id="Grupo_1072592" data-name="Grupo 1072592">
                    <g id="Grupo_1072591" data-name="Grupo 1072591" clip-path="url(#clip-path-5)">
                      <path id="Trazado_818821" data-name="Trazado 818821" d="M121.891,563.734l-1.733-.022c0-.28.382-28.447,3.709-69.7,3.335-41.353,6.093-48.53,6.209-48.815l1.606.651-.8-.326.8.321c-.113.289-2.8,7.532-6.09,48.307-3.322,41.19-3.7,69.3-3.7,69.579" transform="translate(-120.158 -445.2)" fill="#aac4f7"/>
                    </g>
                  </g>
                </g>
                <g id="Grupo_1072596" data-name="Grupo 1072596" transform="translate(65.791 268.738)" opacity="0.61">
                  <g id="Grupo_1072595" data-name="Grupo 1072595">
                    <g id="Grupo_1072594" data-name="Grupo 1072594" clip-path="url(#clip-path-6)">
                      <path id="Trazado_818822" data-name="Trazado 818822" d="M86.276,563.458,84.55,563.3c.036-.407,3.681-41.047,8.343-65.686,4.658-24.62,11.878-54.675,11.951-54.976l1.684.405c-.073.3-7.283,30.316-11.933,54.892-4.646,24.556-8.284,65.111-8.32,65.518" transform="translate(-84.55 -442.642)" fill="#aac4f7"/>
                    </g>
                  </g>
                </g>
                <g id="Grupo_1072599" data-name="Grupo 1072599" transform="translate(31.432 267.007)" opacity="0.61">
                  <g id="Grupo_1072598" data-name="Grupo 1072598">
                    <g id="Grupo_1072597" data-name="Grupo 1072597" clip-path="url(#clip-path-7)">
                      <path id="Trazado_818823" data-name="Trazado 818823" d="M46.587,563.3l-1.694-.367c.016-.078,1.762-8.2,8.4-44.726,6.669-36.68,26.1-77.157,26.3-77.561l1.56.755c-.194.4-19.529,40.672-26.156,77.117-6.65,36.579-8.4,44.705-8.414,44.783" transform="translate(-44.893 -440.643)" fill="#aac4f7"/>
                    </g>
                  </g>
                </g>
                <g id="Grupo_1072602" data-name="Grupo 1072602" transform="translate(7.195 263.783)" opacity="0.61">
                  <g id="Grupo_1072601" data-name="Grupo 1072601">
                    <g id="Grupo_1072600" data-name="Grupo 1072600" clip-path="url(#clip-path-8)">
                      <path id="Trazado_818824" data-name="Trazado 818824" d="M18.631,562.747l-1.714-.262s1.7-11.128,6.408-42.063c4.679-30.742,34.942-82.975,35.246-83.5l1.5.872c-.3.522-30.4,52.472-35.03,82.889-4.707,30.935-6.408,42.065-6.408,42.065" transform="translate(-16.917 -436.923)" fill="#aac4f7"/>
                    </g>
                  </g>
                </g>
                <path id="Trazado_818825" data-name="Trazado 818825" d="M63.527,392.8l-7.564,37.818,88.1,10.087,2.54-40a2.452,2.452,0,0,0-2.208-2.595l-77.79-7.59a2.856,2.856,0,0,0-3.077,2.282" transform="translate(-14.939 -166.938)" fill="#fce249"/>
                <path id="Trazado_818826" data-name="Trazado 818826" d="M131.941,396.9,91.756,434.72l-33.535-3.84-2.257-.931,7.577-37.257a2.741,2.741,0,0,1,2.952-2.182Z" transform="translate(-14.939 -166.937)" fill="#edcc43"/>
                <rect id="Rectángulo_376347" data-name="Rectángulo 376347" width="42.357" height="0.866" transform="translate(122.656 273.069) rotate(-85.642)" fill="#edcc43"/>
                <rect id="Rectángulo_376348" data-name="Rectángulo 376348" width="41.161" height="0.867" transform="translate(113.218 271.047) rotate(-85.299)" fill="#edcc43"/>
                <rect id="Rectángulo_376349" data-name="Rectángulo 376349" width="41.161" height="0.867" transform="translate(103.803 271.047) rotate(-85.299)" fill="#edcc43"/>
                <rect id="Rectángulo_376350" data-name="Rectángulo 376350" width="42.501" height="0.867" transform="matrix(0.08, -0.997, 0.997, 0.08, 92.357, 269.701)" fill="#edcc43"/>
                <rect id="Rectángulo_376351" data-name="Rectángulo 376351" width="59.421" height="0.866" transform="translate(135.787 112.217) rotate(-84.49)" fill="#231333"/>
                <path id="Trazado_818827" data-name="Trazado 818827" d="M341.678,520.144l-35.3-176.207s19.844-42.848,19.852-74.045-15.708-25.113-17.189-13.777-2.994,28.095-10.936,16.205-14.357-87.334-18.21-99.368-12.553-7.745-11.86,2.519,4.477,64.339,4.477,64.339-10.792-83.477-16.85-89.017c-2.673-2.443-10.089-.64-10.294,6.115s7.253,89.8,7.253,89.8l-2.754.318-18.029-79.356a6.625,6.625,0,0,0-6.152-4.911,6.05,6.05,0,0,0-6.079,6.331l.587,14.373s-7.422-.292-8.382,7.043-3.428,102.065,3.531,128.648c6.475,24.731,18.894,37.06,18.894,37.06l11.987,167.734Z" transform="translate(-35.6 -134.772)" fill="#ff7898"/>
                <path id="Trazado_818828" data-name="Trazado 818828" d="M262.8,337.791c-1.725-28.7,14.225-39.886,20.508-43.154l-52.348,5.422-.089-.861,58.9-6.1-3.717,1.246c-.244.081-24.481,8.615-22.39,43.395Z" transform="translate(-38.308 -153.923)" fill="#231333"/>
                <path id="Trazado_818829" data-name="Trazado 818829" d="M318.85,348.034s-15.868,21.145-53.962,1.245c0,0-8.425,32.339-27.658,32.1l101.463,127.1L309.563,370.718Z" transform="translate(-39.158 -161.263)" fill="#f26d93"/>
                <path id="Trazado_818830" data-name="Trazado 818830" d="M324.188,268.676a15.015,15.015,0,0,1,1.882,13.186,16.757,16.757,0,0,1-8.854,10.423s2.829-.276,4.963-13.25c.937-5.7.965-9.193,2.01-10.359" transform="translate(-49.845 -150.66)" fill="#f26d93"/>
                <g id="Grupo_1072605" data-name="Grupo 1072605" transform="translate(196.199 32.571)" opacity="0.56">
                  <g id="Grupo_1072604" data-name="Grupo 1072604">
                    <g id="Grupo_1072603" data-name="Grupo 1072603" clip-path="url(#clip-path-2)">
                      <path id="Trazado_818831" data-name="Trazado 818831" d="M235.068,170.055l7.439,61.986c.84,7,4.686,13.913,10.631,17.7Z" transform="translate(-235.068 -170.055)" fill="#5c82cc"/>
                    </g>
                  </g>
                </g>
                <path id="Trazado_818832" data-name="Trazado 818832" d="M223.267,200.909s-5.114,24.171,3.853,39.936Z" transform="translate(-37.098 -141.606)" fill="#f26d93"/>
                <path id="Trazado_818833" data-name="Trazado 818833" d="M269.554,176.01s-3.311,7.169-1.981,22.943,12.228,42.2,12.228,42.2Z" transform="translate(-43.17 -138.279)" fill="#f26d93"/>
                <path id="Trazado_818834" data-name="Trazado 818834" d="M258.174,370.57l-.705-.5c.075-.106,7.57-10.709,9.546-21.91l.13-.738.575.481a47.923,47.923,0,0,0,28.449,9.377h.166l0,.866h-.169a49.343,49.343,0,0,1-28.432-9.134c-2.189,11.135-9.489,21.456-9.563,21.561" transform="translate(-41.862 -161.181)" fill="#231333"/>
                <path id="Trazado_818835" data-name="Trazado 818835" d="M337.44,266.437s-8.055-2.36-4.019,7.727,2.017,21.52-8.743,30.263-7.45,26.828,8.38,22.492c0,0,8.747-25.478,7.581-41.471s-3.2-19.012-3.2-19.012" transform="translate(-50.005 -150.329)" fill="#ffaec1"/>
                <path id="Trazado_818836" data-name="Trazado 818836" d="M287.634,171.605s-7.021-1.9-3.659,8.191,4.708,17.486,2.69,28.245,5.951,13.261,9.029,6.967l-2.368-16.935s-1.593-15.209-2.11-17.415-2.614-7.829-3.583-9.053" transform="translate(-45.282 -137.672)" fill="#ffaec1"/>
                <path id="Trazado_818837" data-name="Trazado 818837" d="M266.745,169.617s-5.736,1.866-5.736-5.532-3.362-8.743-5.38-8.07a2.652,2.652,0,0,1-3.384-3.3c.694-2.08,6.074-4.77,8.764-2.08s5.736,18.982,5.736,18.982" transform="translate(-41.146 -134.738)" fill="#ffaec1"/>
                <path id="Trazado_818838" data-name="Trazado 818838" d="M234.515,170.417s-6.641-1.531-2.605,9.229,4.035,11.433,2.689,22.194,7.11,11.968,7.927,5.984c0,0-6.75-29.151-8.011-37.406" transform="translate(-38.273 -137.522)" fill="#ffaec1"/>
                <path id="Trazado_818839" data-name="Trazado 818839" d="M211.665,199.706s5.309-.408,4.084,6.534-2.042,11.027,0,14.295-.3,9.254-5.053,7.895c0,0,.561-24.639.969-28.724" transform="translate(-35.613 -141.445)" fill="#ffaec1"/>
                <path id="Trazado_818840" data-name="Trazado 818840" d="M325,436.377s12.778,7.4,19.5,26.9,21.521,98.86,21.521,98.86H236.9s-9.415-101.55,0-115.673S325,436.377,325,436.377" transform="translate(-38.555 -172.995)" fill="#222b89"/>
                <g id="Grupo_1072608" data-name="Grupo 1072608" transform="translate(260.812 262.709)" opacity="0.56">
                  <g id="Grupo_1072607" data-name="Grupo 1072607">
                    <g id="Grupo_1072606" data-name="Grupo 1072606" clip-path="url(#clip-path-3)">
                      <path id="Trazado_818841" data-name="Trazado 818841" d="M309.645,439.29l49.415,39.5s-2.936-27.641-23.784-43.109Z" transform="translate(-309.645 -435.683)" fill="#5c82cc"/>
                    </g>
                  </g>
                </g>
                <g id="Grupo_1072611" data-name="Grupo 1072611" transform="translate(201.444 272.392)" opacity="0.61">
                  <g id="Grupo_1072610" data-name="Grupo 1072610">
                    <g id="Grupo_1072609" data-name="Grupo 1072609" clip-path="url(#clip-path-4)">
                      <path id="Trazado_818842" data-name="Trazado 818842" d="M244.966,563.664c-.045-.7-4.442-70.172-3.775-86.173a204.957,204.957,0,0,1,3.793-30.63l1.694.365a203.133,203.133,0,0,0-3.756,30.338c-.664,15.91,3.728,85.291,3.773,85.99Z" transform="translate(-241.122 -446.859)" fill="#aac4f7"/>
                    </g>
                  </g>
                </g>
                <g id="Grupo_1072614" data-name="Grupo 1072614" transform="translate(219.299 270.652)" opacity="0.61">
                  <g id="Grupo_1072613" data-name="Grupo 1072613">
                    <g id="Grupo_1072612" data-name="Grupo 1072612" clip-path="url(#clip-path-12)">
                      <path id="Trazado_818843" data-name="Trazado 818843" d="M271.523,563.383c0-.279-.381-28.393-3.7-69.579-3.288-40.775-5.977-48.018-6.09-48.307l1.608-.647c.116.286,2.874,7.462,6.209,48.815,3.326,41.249,3.7,69.416,3.708,69.7Z" transform="translate(-261.73 -444.851)" fill="#aac4f7"/>
                    </g>
                  </g>
                </g>
                <g id="Grupo_1072617" data-name="Grupo 1072617" transform="translate(239.695 268.434)" opacity="0.61">
                  <g id="Grupo_1072616" data-name="Grupo 1072616">
                    <g id="Grupo_1072615" data-name="Grupo 1072615" clip-path="url(#clip-path-13)">
                      <path id="Trazado_818844" data-name="Trazado 818844" d="M305.526,563.107c-.036-.407-3.674-40.961-8.321-65.518-4.65-24.575-11.86-54.591-11.933-54.892l1.685-.405c.072.3,7.292,30.357,11.95,54.976,4.662,24.639,8.308,65.278,8.344,65.686Z" transform="translate(-285.272 -442.291)" fill="#aac4f7"/>
                    </g>
                  </g>
                </g>
                <g id="Grupo_1072620" data-name="Grupo 1072620" transform="translate(259.77 266.702)" opacity="0.61">
                  <g id="Grupo_1072619" data-name="Grupo 1072619">
                    <g id="Grupo_1072618" data-name="Grupo 1072618" clip-path="url(#clip-path-14)">
                      <path id="Trazado_818845" data-name="Trazado 818845" d="M343.013,562.946c-.017-.078-1.763-8.2-8.414-44.782-6.627-36.445-25.961-76.716-26.156-77.118l1.559-.755c.2.4,19.632,40.882,26.3,77.562,6.641,36.524,8.387,44.647,8.4,44.725Z" transform="translate(-308.443 -440.292)" fill="#aac4f7"/>
                    </g>
                  </g>
                </g>
                <g id="Grupo_1072623" data-name="Grupo 1072623" transform="translate(277.12 263.479)" opacity="0.61">
                  <g id="Grupo_1072622" data-name="Grupo 1072622">
                    <g id="Grupo_1072621" data-name="Grupo 1072621" clip-path="url(#clip-path-8)">
                      <path id="Trazado_818846" data-name="Trazado 818846" d="M369.907,562.4s-1.7-11.129-6.408-42.065c-4.629-30.416-34.728-82.367-35.031-82.889l1.5-.872c.306.524,30.568,52.757,35.246,83.5,4.708,30.935,6.409,42.063,6.409,42.063Z" transform="translate(-328.468 -436.572)" fill="#aac4f7"/>
                    </g>
                  </g>
                </g>
                <path id="Trazado_818847" data-name="Trazado 818847" d="M317.954,393.808l7.3,36.485-88.1,10.088-2.531-39.859a2.6,2.6,0,0,1,2.344-2.753l76.293-7.443a4.359,4.359,0,0,1,4.7,3.483" transform="translate(-38.809 -166.911)" fill="#fce249"/>
                <path id="Trazado_818848" data-name="Trazado 818848" d="M251.534,396.562l40.185,37.824,33.535-3.84,2.257-.931-7.344-36.109a4.041,4.041,0,0,0-4.352-3.216Z" transform="translate(-41.069 -166.906)" fill="#edcc43"/>
                <rect id="Rectángulo_376359" data-name="Rectángulo 376359" width="0.865" height="42.357" transform="translate(200.71 230.599) rotate(-4.405)" fill="#edcc43"/>
                <rect id="Rectángulo_376360" data-name="Rectángulo 376360" width="0.866" height="41.161" transform="matrix(0.997, -0.082, 0.082, 0.997, 210.017, 229.791)" fill="#edcc43"/>
                <rect id="Rectángulo_376361" data-name="Rectángulo 376361" width="0.866" height="41.161" transform="matrix(0.997, -0.082, 0.082, 0.997, 219.432, 229.791)" fill="#edcc43"/>
                <rect id="Rectángulo_376362" data-name="Rectángulo 376362" width="0.866" height="42.501" transform="translate(230.864 227.1) rotate(-4.539)" fill="#edcc43"/>
                <rect id="Rectángulo_376363" data-name="Rectángulo 376363" width="0.867" height="58.233" transform="translate(185.225 54.033) rotate(-5.51)" fill="#231333"/>
                <path id="Trazado_818849" data-name="Trazado 818849" d="M151.4,181.669s-4-11.333-16.667-10a64.95,64.95,0,0,0-27.475,9.591,5.483,5.483,0,0,0-2.524,4.627v3.781Z" transform="translate(-21.456 -137.685)" fill="#d3d3d3"/>
                <path id="Trazado_818850" data-name="Trazado 818850" d="M181.63,181.774H142.3s-10.667-10-30,0S90.965,193.107,87.632,200.44c0,0-25.415,56.275-26.088,96.185A39.8,39.8,0,0,0,64.726,313.2c3.412,7.842,10.316,16.557,23.8,13.218a28.323,28.323,0,0,0,11.941-6.42l29.294-26.04a32.394,32.394,0,0,1,21.52-8.181H181.63Z" transform="translate(-15.684 -138.456)" fill="#fff"/>
                <path id="Trazado_818851" data-name="Trazado 818851" d="M241.7,181.669s4-11.333,16.667-10a64.95,64.95,0,0,1,27.475,9.591,5.483,5.483,0,0,1,2.524,4.627v3.781Z" transform="translate(-39.755 -137.685)" fill="#d3d3d3"/>
                <path id="Trazado_818852" data-name="Trazado 818852" d="M200.15,181.774h39.332s10.666-10,30,0,21.333,11.333,24.666,18.666c0,0,28,62,26,102,0,0-3.78,29.7-26.892,23.976a28.323,28.323,0,0,1-11.941-6.42l-29.3-26.04a32.39,32.39,0,0,0-21.519-8.181H200.15Z" transform="translate(-34.204 -138.456)" fill="#fff"/>
                <path id="Trazado_818853" data-name="Trazado 818853" d="M196.392,182.459H157.06l12.382,17.1a5.4,5.4,0,0,0,4.376,2.234H214.3a5.4,5.4,0,0,0,4.375-2.234l12.382-17.1Z" transform="translate(-28.447 -139.141)" fill="#f4f4f4"/>
                <path id="Trazado_818854" data-name="Trazado 818854" d="M141.148,212.206a16.666,16.666,0,1,1-16.667-16.667,16.667,16.667,0,0,1,16.667,16.667" transform="translate(-21.867 -140.889)" fill="#d3d3d3"/>
                <path id="Trazado_818855" data-name="Trazado 818855" d="M176.543,267.607a16.666,16.666,0,1,1-16.667-16.667,16.667,16.667,0,0,1,16.667,16.667" transform="translate(-26.596 -148.291)" fill="#d3d3d3"/>
                <path id="Trazado_818856" data-name="Trazado 818856" d="M245.025,267.607a16.666,16.666,0,1,1-16.667-16.667,16.667,16.667,0,0,1,16.667,16.667" transform="translate(-35.746 -148.291)" fill="#d3d3d3"/>
                <path id="Trazado_818857" data-name="Trazado 818857" d="M258.112,219.9a6.666,6.666,0,1,1-6.667-6.667,6.667,6.667,0,0,1,6.667,6.667" transform="translate(-40.167 -143.253)" fill="#29abe2"/>
                <path id="Trazado_818858" data-name="Trazado 818858" d="M291.2,219.9a6.666,6.666,0,1,1-6.667-6.667A6.667,6.667,0,0,1,291.2,219.9" transform="translate(-44.587 -143.253)" fill="red"/>
                <path id="Trazado_818859" data-name="Trazado 818859" d="M275.04,203.745a6.666,6.666,0,1,1-6.666-6.667,6.667,6.667,0,0,1,6.666,6.667" transform="translate(-42.428 -141.094)" fill="#fbb03b"/>
                <path id="Trazado_818860" data-name="Trazado 818860" d="M275.04,234.524a6.666,6.666,0,1,1-6.666-6.667,6.667,6.667,0,0,1,6.666,6.667" transform="translate(-42.428 -145.207)" fill="#72cc8e"/>
                <path id="Trazado_818861" data-name="Trazado 818861" d="M182.091,223.829a3.667,3.667,0,1,1-3.667-3.667,3.667,3.667,0,0,1,3.667,3.667" transform="translate(-30.811 -144.179)" fill="#d3d3d3"/>
                <path id="Trazado_818862" data-name="Trazado 818862" d="M219.794,223.829a3.667,3.667,0,1,1-3.667-3.667,3.667,3.667,0,0,1,3.667,3.667" transform="translate(-35.849 -144.179)" fill="#d3d3d3"/>
                <path id="Trazado_818863" data-name="Trazado 818863" d="M149.337,302.119s-16-8.667-32.666,6.667-32.019,27.675-52.342,18.837c0,0,3.448,14.579,17.9,15.871S110,329.452,110,329.452s22.666-26,39.332-27.333" transform="translate(-16.057 -154.803)" fill="#f4f4f4"/>
                <path id="Trazado_818864" data-name="Trazado 818864" d="M237.457,302.119s16-8.667,32.666,6.667,32.02,27.675,52.342,18.837c0,0-3.447,14.579-17.9,15.871s-27.781-14.042-27.781-14.042-22.666-26-39.332-27.333" transform="translate(-39.188 -154.803)" fill="#f4f4f4"/>
                <rect id="Rectángulo_376364" data-name="Rectángulo 376364" width="7.333" height="20.666" transform="translate(128.613 110.65)" fill="#b5b5b5"/>
                <rect id="Rectángulo_376365" data-name="Rectángulo 376365" width="20.666" height="7.333" transform="translate(121.947 117.316)" fill="#b5b5b5"/>
                <rect id="Rectángulo_376366" data-name="Rectángulo 376366" width="7.333" height="20.666" transform="translate(129.947 109.317)" fill="#f4f4f4"/>
                <rect id="Rectángulo_376367" data-name="Rectángulo 376367" width="20.666" height="7.333" transform="translate(123.281 115.983)" fill="#f4f4f4"/>
                <path id="Trazado_818865" data-name="Trazado 818865" d="M136.256,215.377a13.066,13.066,0,1,1-13.066-13.066,13.067,13.067,0,0,1,13.066,13.066" transform="translate(-22.176 -141.794)" fill="#b5b5b5"/>
                <path id="Trazado_818866" data-name="Trazado 818866" d="M138.41,213.223a13.066,13.066,0,1,1-13.066-13.066,13.066,13.066,0,0,1,13.066,13.066" transform="translate(-22.463 -141.506)" fill="#f4f4f4"/>
                <path id="Trazado_818867" data-name="Trazado 818867" d="M134.463,213.943a8.4,8.4,0,1,1-8.4-8.4,8.4,8.4,0,0,1,8.4,8.4" transform="translate(-23.183 -142.225)" fill="#fff"/>
                <path id="Trazado_818868" data-name="Trazado 818868" d="M240.133,270.009a13.066,13.066,0,1,1-13.066-13.066,13.067,13.067,0,0,1,13.066,13.066" transform="translate(-36.054 -149.093)" fill="#b5b5b5"/>
                <path id="Trazado_818869" data-name="Trazado 818869" d="M242.288,267.855a13.066,13.066,0,1,1-13.066-13.066,13.066,13.066,0,0,1,13.066,13.066" transform="translate(-36.342 -148.805)" fill="#f4f4f4"/>
                <path id="Trazado_818870" data-name="Trazado 818870" d="M238.34,268.575a8.4,8.4,0,1,1-8.4-8.4,8.4,8.4,0,0,1,8.4,8.4" transform="translate(-37.062 -149.525)" fill="#fff"/>
                <path id="Trazado_818871" data-name="Trazado 818871" d="M229.855,277.448a8.961,8.961,0,1,1,8.96-8.96,8.971,8.971,0,0,1-8.96,8.96m0-16.8a7.84,7.84,0,1,0,7.839,7.84,7.849,7.849,0,0,0-7.839-7.84" transform="translate(-36.975 -149.438)" fill="#231333"/>
                <path id="Trazado_818872" data-name="Trazado 818872" d="M125.408,223.217a8.961,8.961,0,1,1,8.96-8.961,8.971,8.971,0,0,1-8.96,8.961m0-16.8a7.84,7.84,0,1,0,7.839,7.839,7.848,7.848,0,0,0-7.839-7.839" transform="translate(-23.021 -142.192)" fill="#231333"/>
                <g id="Grupo_1072626" data-name="Grupo 1072626" transform="translate(219.945 56.651)" opacity="0.17">
                  <g id="Grupo_1072625" data-name="Grupo 1072625">
                    <g id="Grupo_1072624" data-name="Grupo 1072624" clip-path="url(#clip-path-16)">
                      <path id="Trazado_818873" data-name="Trazado 818873" d="M271.81,202.514a4.666,4.666,0,1,1-4.666-4.666,4.667,4.667,0,0,1,4.666,4.666" transform="translate(-262.476 -197.848)" fill="#fff"/>
                    </g>
                  </g>
                </g>
                <g id="Grupo_1072629" data-name="Grupo 1072629" transform="translate(205.279 71.317)" opacity="0.17">
                  <g id="Grupo_1072628" data-name="Grupo 1072628">
                    <g id="Grupo_1072627" data-name="Grupo 1072627" clip-path="url(#clip-path-16)">
                      <path id="Trazado_818874" data-name="Trazado 818874" d="M254.882,219.442a4.667,4.667,0,1,1-4.666-4.666,4.666,4.666,0,0,1,4.666,4.666" transform="translate(-245.548 -214.776)" fill="#fff"/>
                    </g>
                  </g>
                </g>
                <g id="Grupo_1072632" data-name="Grupo 1072632" transform="translate(233.945 71.317)" opacity="0.17">
                  <g id="Grupo_1072631" data-name="Grupo 1072631">
                    <g id="Grupo_1072630" data-name="Grupo 1072630" clip-path="url(#clip-path-18)">
                      <path id="Trazado_818875" data-name="Trazado 818875" d="M287.968,219.442a4.666,4.666,0,1,1-4.666-4.666,4.667,4.667,0,0,1,4.666,4.666" transform="translate(-278.635 -214.776)" fill="#fff"/>
                    </g>
                  </g>
                </g>
                <g id="Grupo_1072635" data-name="Grupo 1072635" transform="translate(219.945 83.317)" opacity="0.17">
                  <g id="Grupo_1072634" data-name="Grupo 1072634">
                    <g id="Grupo_1072633" data-name="Grupo 1072633" clip-path="url(#clip-path-19)">
                      <path id="Trazado_818876" data-name="Trazado 818876" d="M271.81,233.293a4.666,4.666,0,1,1-4.666-4.666,4.667,4.667,0,0,1,4.666,4.666" transform="translate(-262.476 -228.627)" fill="#fff"/>
                    </g>
                  </g>
                </g>
                <path id="Trazado_818877" data-name="Trazado 818877" d="M83.111,340.77a19.935,19.935,0,0,1-8.974-2.072c-5.883-2.967-15.43-11.728-13.272-37.082.033-.245,3.022-21.78,6.942-35.465l1.077.309c-3.9,13.608-6.876,35.063-6.905,35.279-2.1,24.669,7.033,33.119,12.663,35.957,6.946,3.5,16.04,2.213,22.116-3.135l.741.841a21.938,21.938,0,0,1-14.387,5.368" transform="translate(-15.553 -150.323)" fill="#231333"/>
                <path id="Trazado_818878" data-name="Trazado 818878" d="M95.653,196.025l-.958-.583c3.142-5.158,20.777-13.089,21.526-13.425l.457,1.024c-.179.081-18.064,8.122-21.026,12.984" transform="translate(-20.114 -139.082)" fill="#231333"/>
                <path id="Trazado_818879" data-name="Trazado 818879" d="M104.1,187.465c-.016-.047-1.465-4.735,4.586-7.869l1.4-.73a61.941,61.941,0,0,1,23.452-7.709,17.477,17.477,0,0,1,17.809,9.145l-1.014.478a16.076,16.076,0,0,0-16.657-8.511,60.971,60.971,0,0,0-23.069,7.589l-1.4.733c-5.176,2.681-4.084,6.374-4.035,6.529Z" transform="translate(-21.349 -137.61)" fill="#231333"/>
                <rect id="Rectángulo_376372" data-name="Rectángulo 376372" width="17.762" height="1.121" transform="translate(59.474 92.457) rotate(-69.787)" fill="#231333"/>
                <path id="Trazado_818880" data-name="Trazado 818880" d="M211.343,202.629H175.668a8.854,8.854,0,0,1-7.831-4.418l-10.9-15.838.924-.635,10.94,15.9a7.759,7.759,0,0,0,6.871,3.87h35.675Z" transform="translate(-28.43 -139.045)" fill="#231333"/>
                <path id="Trazado_818881" data-name="Trazado 818881" d="M230.2,284.932a10.16,10.16,0,0,1-3.049-.4l.353-1.065c2,.661,7.714.574,12.49-2.615,3.9-2.609,6.077-6.535,6.456-11.675,1.01-13.7-11.451-17.006-11.577-17.037l.273-1.086c.136.034,13.5,3.577,12.423,18.206a15.836,15.836,0,0,1-6.953,12.525,19.385,19.385,0,0,1-10.416,3.142" transform="translate(-37.812 -148.307)" fill="#231333"/>
                <path id="Trazado_818882" data-name="Trazado 818882" d="M161.913,284.932a10.161,10.161,0,0,1-3.049-.4l.352-1.065c2,.66,7.715.575,12.491-2.615,3.9-2.609,6.077-6.535,6.455-11.675,1.008-13.675-11.064-16.905-11.578-17.037l.274-1.086c.135.034,13.5,3.577,12.421,18.206a15.822,15.822,0,0,1-6.95,12.522,19.381,19.381,0,0,1-10.417,3.144" transform="translate(-28.688 -148.307)" fill="#231333"/>
                <path id="Trazado_818883" data-name="Trazado 818883" d="M167.984,279.314h-1.121v-7.521h6.091v-5.957h-6.091v-7.4h1.121v6.282h6.091v8.2h-6.091Z" transform="translate(-29.756 -149.292)" fill="#231333"/>
                <path id="Trazado_818884" data-name="Trazado 818884" d="M71.739,257.485s39.639-.3,51.1,52.97l10.327-8.262s-6.2-53.7-58.072-56.113Z" transform="translate(-17.047 -147.641)" fill="#f4f4f4"/>
                <path id="Trazado_818885" data-name="Trazado 818885" d="M319.113,257.485s-39.639-.3-51.1,52.97l-10.327-8.262s6.2-53.7,58.072-56.113Z" transform="translate(-41.891 -147.641)" fill="#f4f4f4"/>
                <path id="Trazado_818886" data-name="Trazado 818886" d="M342.666,208.466a19.176,19.176,0,0,1-11.573,11.573s9.258,5.788,11.573,11.574c2.315-5.787,11.573-11.574,11.573-11.574a19.176,19.176,0,0,1-11.573-11.573" transform="translate(-34.24 -110.899)" fill="#fce249"/>
                <path id="Trazado_818887" data-name="Trazado 818887" d="M342.666,208.466a19.176,19.176,0,0,1-11.573,11.573s9.258,5.788,11.573,11.574c2.315-5.787,11.573-11.574,11.573-11.574a19.176,19.176,0,0,1-11.573-11.573" transform="translate(-309.239 2.653)" fill="#fce249"/>
                <path id="Trazado_818888" data-name="Trazado 818888" d="M339.758,208.466a14.358,14.358,0,0,1-8.665,8.665s6.932,4.333,8.665,8.666c1.733-4.333,8.665-8.666,8.665-8.666a14.358,14.358,0,0,1-8.665-8.665" transform="translate(-178.671 -197.335)" fill="#fce249"/>
                <path id="Trazado_818889" data-name="Trazado 818889" d="M193.114,385.35a12.565,12.565,0,0,1-7.583,7.583s6.066,3.791,7.583,7.583c1.516-3.791,7.583-7.583,7.583-7.583a12.561,12.561,0,0,1-7.583-7.583" transform="translate(-32.251 -166.249)" fill="#fce249"/>
                <path id="Trazado_818890" data-name="Trazado 818890" d="M84.953,132.461a26.451,26.451,0,0,1-15.964,15.964s12.771,7.981,15.964,15.963c3.193-7.982,15.963-15.963,15.963-15.963a26.451,26.451,0,0,1-15.963-15.964" transform="translate(-16.68 -132.461)" fill="#fce249"/>
                <path id="Trazado_818891" data-name="Trazado 818891" d="M73.839,213.654a5.188,5.188,0,1,1-5.188-5.188,5.188,5.188,0,0,1,5.188,5.188" transform="translate(-24.756 -128.87)" fill="#fff"/>
                <path id="Trazado_818892" data-name="Trazado 818892" d="M212.485,152.321A10.411,10.411,0,1,1,222.9,141.911a10.423,10.423,0,0,1-10.411,10.411m0-19.955a9.544,9.544,0,1,0,9.544,9.544,9.556,9.556,0,0,0-9.544-9.544" transform="translate(46.73 -113.448)" fill="#f4f4f4"/>
                <path id="Trazado_818893" data-name="Trazado 818893" d="M341.342,364.432a5.223,5.223,0,1,1,5.222-5.223,5.228,5.228,0,0,1-5.222,5.223m0-9.579a4.356,4.356,0,1,0,4.355,4.356,4.361,4.361,0,0,0-4.355-4.356" transform="translate(-52.37 -162.059)" fill="#f4f4f4"/>
              </g>
            </g>
          </g>
        </g>
      </g>
      <g id="Grupo_1072641" data-name="Grupo 1072641" transform="translate(311.244 1853.636)">
        <rect id="Rectángulo_375915" data-name="Rectángulo 375915" width="499.627" height="112.674" rx="26" fill="#f3bcf9"/>
        <text id="Ergonomía_La_comodidad_es_fundamental_sobre_todo_si_se_piensa_utilizar_el_mando_durante_muchas_horas." data-name="Ergonomía
La comodidad es fundamental, sobre todo si se piensa utilizar el mando durante muchas horas." transform="translate(25 23.811)" fill="#222b89" font-size="20" font-family="Roboto-Bold, Roboto" font-weight="700"><tspan x="-48.647" y="21">Ergonomía</tspan><tspan font-size="16" font-family="Roboto-Regular, Roboto" font-weight="400"><tspan x="-219.754" y="45">La comodidad es fundamental, sobre todo si se piensa utilizar </tspan><tspan x="-116.637" y="69">el mando durante muchas horas.</tspan></tspan></text>
      </g>
      <g id="Grupo_1072647" data-name="Grupo 1072647" transform="translate(312.145 2103.952)">
        <rect id="Rectángulo_376374" data-name="Rectángulo 376374" width="499.627" height="122.953" rx="22" fill="#f3bcf9"/>
        <text id="Diseño_de_botones_Algunos_controladores_tienen_diferentes_configuraciones_de_botones_y_algunos_pueden_ser_más_útiles_para_tipos_específicos_de_juegos." data-name="Diseño de botones 
Algunos controladores tienen diferentes configuraciones de botones y algunos pueden ser más útiles para tipos específicos de juegos." transform="translate(17.313 12.977)" fill="#222b89" font-size="20" font-family="Roboto-Bold, Roboto" font-weight="700"><tspan x="-83.291" y="21">Diseño de botones </tspan><tspan font-size="16" font-family="Roboto-Regular, Roboto" font-weight="400"><tspan x="-211.746" y="45">Algunos controladores tienen diferentes configuraciones de </tspan><tspan x="-224.988" y="69">botones y algunos pueden ser más útiles para tipos específicos </tspan><tspan x="-36.57" y="93">de juegos.</tspan></tspan></text>
      </g>
      <g id="Grupo_1072648" data-name="Grupo 1072648" transform="translate(311.245 1976.777)">
        <g id="Grupo_1072643" data-name="Grupo 1072643">
          <rect id="Rectángulo_376375" data-name="Rectángulo 376375" width="499.626" height="114.843" rx="26" fill="#f3bcf9"/>
          <text id="Marca_Considere_comprar_marcas_reconocidas_que_produzcan_controladores_de_juegos_de_alta_calidad." data-name="Marca 
Considere comprar marcas reconocidas que produzcan controladores de juegos de alta calidad." transform="translate(36 22.111)" fill="#222b89" font-size="20" font-family="Roboto-Bold, Roboto" font-weight="700"><tspan x="-28.252" y="21">Marca </tspan><tspan font-size="16" font-family="Roboto-Regular, Roboto" font-weight="400"><tspan x="-196.809" y="45">Considere comprar marcas reconocidas que produzcan </tspan><tspan x="-141.703" y="69">controladores de juegos de alta calidad.</tspan></tspan></text>
        </g>
      </g>
      <rect id="Rectángulo_376378" data-name="Rectángulo 376378" width="500" height="125" rx="18" transform="translate(311 2239)" fill="#f3bcf9"/>
      <text id="Con_cable_o_inalámbrico_Los_controladores_inalámbricos_ofrecen_mayor_libertad_de_movimiento_pero_los_controladores_con_cable_generalmente_tienen_menos_retraso_de_entrada_y_una_conexión_más_confiable." data-name="Con cable o inalámbrico
Los controladores inalámbricos ofrecen mayor libertad de movimiento, pero los controladores con cable generalmente tienen menos retraso de entrada y una conexión más confiable." transform="translate(336 2252)" fill="#222b89" font-size="20" font-family="Roboto-Black, Roboto" font-weight="800"><tspan x="-108.574" y="21">Con cable o inalámbrico</tspan><tspan font-size="16" font-family="Roboto-Regular, Roboto" font-weight="400"><tspan x="-205.586" y="45">Los controladores inalámbricos ofrecen mayor libertad de </tspan><tspan x="-212.551" y="69">movimiento, pero los controladores con cable generalmente </tspan><tspan x="-224.418" y="93">tienen menos retraso de entrada y una conexión más confiable.</tspan></tspan></text>
    </g>
    <g id="Grupo_1072640" data-name="Grupo 1072640" transform="translate(5 170)">
      <rect id="Rectángulo_376377" data-name="Rectángulo 376377" width="242" height="28" rx="5" transform="translate(7028 -10973)" fill="#1425dd"/>
      <text id="Guía_para_elegir_el_controlador_de_juegos_ideal_para_PC" data-name="Guía para elegir el controlador de
 juegos ideal para PC" transform="translate(6918.467 -11007.205)" fill="#222b89" font-size="24" font-family="Roboto-Black, Roboto" font-weight="800"><tspan x="-180.41" y="25">Guía para elegir el controlador de</tspan><tspan x="-114.082" y="55"> </tspan><tspan y="55" fill="#fff">juegos ideal para PC</tspan></text>
    </g>
  </g>
</svg>
