<svg xmlns="http://www.w3.org/2000/svg" width="483" height="346.359" viewBox="0 0 483 346.359">
  <g id="Grupo_1072302" data-name="Grupo 1072302" transform="translate(-915 -406)">
    <g id="Grupo_1072301" data-name="Grupo 1072301">
      <rect id="Rectángulo_376010" data-name="Rectángulo 376010" width="483" height="260" rx="12" transform="translate(915 449)" fill="#e8eaff"/>
      <g id="Grupo_1072299" data-name="Grupo 1072299" transform="translate(933 406)">
        <g id="Grupo_1072300" data-name="Grupo 1072300">
          <rect id="Rectángulo_376189" data-name="Rectángulo 376189" width="371.98" height="47.054" transform="translate(38.571 74.187)" fill="#222b89"/>
          <rect id="Rectángulo_376190" data-name="Rectángulo 376190" width="371.98" height="47.054" transform="translate(-7.896 178.688)" fill="#1425dd"/>
          <path id="Trazado_818226" data-name="Trazado 818226" d="M387.363,131.065c-17.431-21.208-48.2-26.019-75.189-21-21.277,3.958-44.526-2.479-61.794-15.524C218.85,70.723,178.133,59.4,138.637,58.148A118.931,118.931,0,0,0,48.261,96.362C25.53,121.305,5.33,145.93,13.8,192.564S82.148,282.9,82.148,282.9c1.389,31.012,20.618,59.646,46.625,76.6s57.993,23.1,89.008,21.8c16.71-.7,33.492-3.513,48.865-10.1,36.043-15.438,54.544-52.441,72.4-87.352,14.2-27.762,40.093-48.321,55.272-75.56,13.363-23.98,10.48-56.012-6.951-77.22" transform="translate(0 -35.106)" fill="#fff"/>
          <rect id="Rectángulo_376078" data-name="Rectángulo 376078" width="230.676" height="148.374" transform="translate(118.247)" fill="#fff"/>
          <rect id="Rectángulo_376079" data-name="Rectángulo 376079" width="230.676" height="15.609" transform="translate(118.247 0.001)" fill="#1425dd"/>
          <path id="Trazado_818227" data-name="Trazado 818227" d="M129.182,7.8a2.328,2.328,0,1,0-2.328,2.328A2.328,2.328,0,0,0,129.182,7.8" fill="#814eff"/>
          <path id="Trazado_818228" data-name="Trazado 818228" d="M139.014,7.8a2.328,2.328,0,1,0-2.328,2.328A2.328,2.328,0,0,0,139.014,7.8" fill="#814eff"/>
          <path id="Trazado_818229" data-name="Trazado 818229" d="M148.846,7.8a2.328,2.328,0,1,0-2.328,2.328A2.328,2.328,0,0,0,148.846,7.8" fill="#814eff"/>
          <path id="Trazado_818601" data-name="Trazado 818601" d="M0,0H88.717V47.4H0Z" transform="translate(106.113 26.63)" fill="#1425dd"/>
          <rect id="Rectángulo_376081" data-name="Rectángulo 376081" width="76.247" height="37.446" transform="translate(141.36 89.239)" fill="#adb3f3"/>
          <line id="Línea_363" data-name="Línea 363" x2="87.695" transform="translate(214.811 31.688)" fill="none" stroke="#060305" stroke-linecap="round" stroke-linejoin="round" stroke-width="1"/>
          <line id="Línea_364" data-name="Línea 364" x2="87.695" transform="translate(214.811 39.145)" fill="none" stroke="#060305" stroke-linecap="round" stroke-linejoin="round" stroke-width="1"/>
          <line id="Línea_365" data-name="Línea 365" x2="87.695" transform="translate(214.811 46.602)" fill="none" stroke="#060305" stroke-linecap="round" stroke-linejoin="round" stroke-width="1"/>
          <line id="Línea_366" data-name="Línea 366" x2="87.695" transform="translate(214.811 54.059)" fill="none" stroke="#060305" stroke-linecap="round" stroke-linejoin="round" stroke-width="1"/>
          <line id="Línea_367" data-name="Línea 367" x2="87.695" transform="translate(214.811 61.516)" fill="none" stroke="#060305" stroke-linecap="round" stroke-linejoin="round" stroke-width="1"/>
          <line id="Línea_368" data-name="Línea 368" x2="87.695" transform="translate(214.811 68.973)" fill="none" stroke="#060305" stroke-linecap="round" stroke-linejoin="round" stroke-width="1"/>
          <line id="Línea_369" data-name="Línea 369" x2="76.437" transform="translate(248.742 126.685)" fill="none" stroke="#060305" stroke-linecap="round" stroke-linejoin="round" stroke-width="1"/>
          <rect id="Rectángulo_376082" data-name="Rectángulo 376082" width="9.686" height="9.686" transform="translate(249.378 96.087) rotate(-45)" fill="#f6921e"/>
          <line id="Línea_370" data-name="Línea 370" x2="12.056" transform="translate(250.199 110.571)" fill="none" stroke="#060305" stroke-linecap="round" stroke-linejoin="round" stroke-width="1"/>
          <line id="Línea_371" data-name="Línea 371" x2="12.056" transform="translate(250.199 115.848)" fill="none" stroke="#060305" stroke-linecap="round" stroke-linejoin="round" stroke-width="1"/>
          <path id="Trazado_818230" data-name="Trazado 818230" d="M285.937,91.53c-5.569-7.724-13.614,6.177,0,10.771,13.614-4.594,5.569-18.5,0-10.771" fill="#ff99a8"/>
          <line id="Línea_372" data-name="Línea 372" x2="12.056" transform="translate(279.835 110.571)" fill="none" stroke="#060305" stroke-linecap="round" stroke-linejoin="round" stroke-width="1"/>
          <line id="Línea_373" data-name="Línea 373" x2="12.056" transform="translate(279.835 115.848)" fill="none" stroke="#060305" stroke-linecap="round" stroke-linejoin="round" stroke-width="1"/>
          <path id="Trazado_818231" data-name="Trazado 818231" d="M315.647,89.239l-6.9,11.951h13.8Z" fill="#9e97ff"/>
          <line id="Línea_374" data-name="Línea 374" x2="12.056" transform="translate(309.072 110.571)" fill="none" stroke="#060305" stroke-linecap="round" stroke-linejoin="round" stroke-width="1"/>
          <line id="Línea_375" data-name="Línea 375" x2="12.056" transform="translate(309.072 115.848)" fill="none" stroke="#060305" stroke-linecap="round" stroke-linejoin="round" stroke-width="1"/>
          <path id="Trazado_818232" data-name="Trazado 818232" d="M362.07,39.112a19.609,19.609,0,1,0-19.609,19.609A19.609,19.609,0,0,0,362.07,39.112" fill="#dc40ed"/>
          <path id="Trazado_818233" data-name="Trazado 818233" d="M342.626,51.3l-15.047-17.79,5.231-4.423,9.076,10.732L355.521,18.7l5.755,3.715Z" fill="#060305"/>
          <path id="Trazado_818234" data-name="Trazado 818234" d="M232.4,172.812l-9.885-5.707v11.414Z" fill="#814eff"/>
          <path id="Trazado_818236" data-name="Trazado 818236" d="M426.166,85.593l-5.707,9.885h11.414Z" fill="#060305"/>
          <path id="Trazado_818237" data-name="Trazado 818237" d="M199.381,376.523l-5.707,9.885h11.414Z" transform="translate(-169.313 -56.853)" fill="none" stroke="#060305" stroke-linecap="round" stroke-linejoin="round" stroke-width="1"/>
          <path id="Trazado_818238" data-name="Trazado 818238" d="M39.624,68.267l5.707-9.885H33.917Z" fill="#060305"/>
          <path id="Trazado_818239" data-name="Trazado 818239" d="M192.292,192.968a1.585,1.585,0,1,0-1.585,1.585,1.585,1.585,0,0,0,1.585-1.585" fill="#814eff"/>
          <path id="Trazado_818240" data-name="Trazado 818240" d="M378.726,157.623a1.585,1.585,0,1,0-1.585,1.585,1.585,1.585,0,0,0,1.585-1.585" fill="#814eff"/>
          <path id="Trazado_818241" data-name="Trazado 818241" d="M219.3,288.976a1.585,1.585,0,1,0-1.585,1.585,1.586,1.586,0,0,0,1.585-1.585" fill="#814eff"/>
          <path id="Trazado_818242" data-name="Trazado 818242" d="M251.407,251.3a1.584,1.584,0,1,0-1.585,1.585A1.585,1.585,0,0,0,251.407,251.3Z" fill="none" stroke="#060305" stroke-linecap="round" stroke-linejoin="round" stroke-width="1"/>
          <path id="Trazado_818243" data-name="Trazado 818243" d="M378.726,96.7a1.585,1.585,0,1,0-1.585,1.585A1.585,1.585,0,0,0,378.726,96.7Z" fill="none" stroke="#060305" stroke-linecap="round" stroke-linejoin="round" stroke-width="1"/>
          <path id="Trazado_818244" data-name="Trazado 818244" d="M369.55,7.408a1.584,1.584,0,1,0-1.585,1.585,1.585,1.585,0,0,0,1.585-1.585" fill="#814eff"/>
          <path id="Trazado_818245" data-name="Trazado 818245" d="M66.126,117.432a1.584,1.584,0,1,0-1.585,1.585,1.585,1.585,0,0,0,1.585-1.585" fill="#814eff"/>
          <path id="Trazado_818246" data-name="Trazado 818246" d="M433.391,61.677a1.585,1.585,0,1,0-1.585,1.585A1.585,1.585,0,0,0,433.391,61.677Z" fill="none" stroke="#060305" stroke-linecap="round" stroke-linejoin="round" stroke-width="1"/>
          <path id="Trazado_818247" data-name="Trazado 818247" d="M422.044,166.415A1.585,1.585,0,1,0,420.459,168,1.585,1.585,0,0,0,422.044,166.415Z" fill="none" stroke="#060305" stroke-linecap="round" stroke-linejoin="round" stroke-width="1"/>
          <path id="Trazado_818248" data-name="Trazado 818248" d="M446.823,107.337a1.585,1.585,0,1,0-1.585,1.585,1.585,1.585,0,0,0,1.585-1.585" fill="#814eff"/>
          <path id="Trazado_818249" data-name="Trazado 818249" d="M369.047,58.72a1.585,1.585,0,1,0-1.585,1.585,1.585,1.585,0,0,0,1.585-1.585" fill="#814eff"/>
          <path id="Trazado_818250" data-name="Trazado 818250" d="M86.954,99.287a1.584,1.584,0,1,0-1.585,1.585A1.585,1.585,0,0,0,86.954,99.287Z" fill="none" stroke="#060305" stroke-linecap="round" stroke-linejoin="round" stroke-width="1"/>
          <path id="Trazado_818251" data-name="Trazado 818251" d="M135.943,173.55a1.584,1.584,0,1,0-1.585,1.585,1.585,1.585,0,0,0,1.585-1.585" fill="#060305"/>
          <path id="Trazado_818252" data-name="Trazado 818252" d="M3.169,169.958a1.585,1.585,0,1,0-1.585,1.585,1.585,1.585,0,0,0,1.585-1.585" fill="#814eff"/>
          <path id="Trazado_818253" data-name="Trazado 818253" d="M75.536,53.867a1.585,1.585,0,1,0-1.585,1.585,1.585,1.585,0,0,0,1.585-1.585" fill="#814eff"/>
          <path id="Trazado_818254" data-name="Trazado 818254" d="M156.495,337.942a1.584,1.584,0,1,0-1.585,1.585,1.585,1.585,0,0,0,1.585-1.585" fill="#060305"/>
          <path id="Trazado_818255" data-name="Trazado 818255" d="M232.388,304.854a1.585,1.585,0,1,0-1.585,1.585,1.585,1.585,0,0,0,1.585-1.585" fill="#814eff"/>
          <path id="Trazado_818258" data-name="Trazado 818258" d="M427.017,136.863h0a3.305,3.305,0,0,1-6.293,0,3.305,3.305,0,0,0-6.293,0,3.305,3.305,0,0,1-6.293,0,3.306,3.306,0,0,0-6.294,0,3.305,3.305,0,0,1-6.293,0,3.305,3.305,0,0,0-6.293,0,3.305,3.305,0,0,1-6.293,0,3.305,3.305,0,0,0-6.293,0,3.306,3.306,0,0,1-6.294,0,3.305,3.305,0,0,0-6.293,0" fill="none" stroke="#060305" stroke-linecap="round" stroke-linejoin="round" stroke-width="1"/>
          <path id="Trazado_818259" data-name="Trazado 818259" d="M125.01,331.848h0a3.305,3.305,0,0,1-6.293,0,3.305,3.305,0,0,0-6.293,0,3.306,3.306,0,0,1-6.294,0,3.305,3.305,0,0,0-6.293,0,3.305,3.305,0,0,1-6.293,0,3.305,3.305,0,0,0-6.293,0,3.305,3.305,0,0,1-6.293,0,3.305,3.305,0,0,0-6.293,0,3.306,3.306,0,0,1-6.294,0,3.305,3.305,0,0,0-6.293,0" fill="none" stroke="#060305" stroke-linecap="round" stroke-linejoin="round" stroke-width="1"/>
          <path id="Trazado_818260" data-name="Trazado 818260" d="M389.285,368.7h0a3.305,3.305,0,0,1-6.293,0,3.305,3.305,0,0,0-6.293,0,3.306,3.306,0,0,1-6.294,0,3.305,3.305,0,0,0-6.293,0,3.305,3.305,0,0,1-6.293,0,3.305,3.305,0,0,0-6.293,0,3.305,3.305,0,0,1-6.293,0,3.305,3.305,0,0,0-6.293,0,3.306,3.306,0,0,1-6.294,0,3.305,3.305,0,0,0-6.293,0" transform="translate(-81.362 -197.81)" fill="none" stroke="#060305" stroke-linecap="round" stroke-linejoin="round" stroke-width="1"/>
          <path id="Trazado_818261" data-name="Trazado 818261" d="M162.055,249.642c9.284-2.627,21.183-.057,28.174,6.593s9.626,17.806,5.492,26.524a26.507,26.507,0,0,1-11.019,11.3,52.161,52.161,0,0,1-15.057,5.316l-72.535,11.1q-2.021-20.916-4.042-41.832c22.767-6.442,46.22-12.555,68.987-19" fill="#1425dd"/>
          <path id="Trazado_818262" data-name="Trazado 818262" d="M183.957,290.967a16.326,16.326,0,0,0,8.472-11.248" fill="none" stroke="#060305" stroke-linecap="round" stroke-linejoin="round" stroke-width="1"/>
          <path id="Trazado_818263" data-name="Trazado 818263" d="M123.353,192.486c-4.885-8.418-12.349-15.969-21.321-19.744-7.16-3.013-14.09-5.827-21.25-8.84a5.749,5.749,0,0,1-5.987,2.5,6.145,6.145,0,0,1-4.669-4.843,129.215,129.215,0,0,0-24.948,4.2c-17.191,4.66-30.214,19.461-37.128,35.875,4.271,1.239,8.258,2.418,12.53,3.655,1.843,15.608,3.772,30.772,5.616,46.379,20.664,2.994,41.811,5.718,60.584,14.858l23.468.213c3.926-16.14,8.007-32.1,11.932-48.245,4.61-2.463,9.712-4.85,14.323-7.315-4.367-6.265-9.317-12.088-13.15-18.694" fill="#fff"/>
          <path id="Trazado_818264" data-name="Trazado 818264" d="M53.294,164.947c2.154,4.713,4.537,9.58,9.014,12.925a22.328,22.328,0,0,0,17.175,3.667c5.973-1.177,11.16-4.911,13.489-9.711" fill="none" stroke="#060305" stroke-linecap="round" stroke-linejoin="round" stroke-width="1"/>
          <path id="Trazado_818265" data-name="Trazado 818265" d="M110.624,177.935a201.628,201.628,0,0,0,1.968,44.229" fill="none" stroke="#060305" stroke-linecap="round" stroke-linejoin="round" stroke-width="1"/>
          <path id="Trazado_818266" data-name="Trazado 818266" d="M44.028,206.783l2.709-22.136a31.761,31.761,0,0,0,.334-7.085,10.681,10.681,0,0,0-2.718-6.424,6.5,6.5,0,0,0-6.489-1.834" fill="none" stroke="#060305" stroke-linecap="round" stroke-linejoin="round" stroke-width="1"/>
          <path id="Trazado_818267" data-name="Trazado 818267" d="M10.734,197.172l33.533,5.01" fill="none" stroke="#060305" stroke-linecap="round" stroke-linejoin="round" stroke-width="1"/>
          <path id="Trazado_818268" data-name="Trazado 818268" d="M113.981,210.569l-17.86,53.38H61.573a2.224,2.224,0,0,0-1.875,3.43,5.965,5.965,0,0,0,4.925,2.607H176.439a5.776,5.776,0,0,0,5.472-3.954l18.557-55.462a3,3,0,0,0-2.828-3.954H119.453a5.776,5.776,0,0,0-5.472,3.953" fill="#adb3f3"/>
          <path id="Trazado_818269" data-name="Trazado 818269" d="M157.216,239.23a3.82,3.82,0,1,0-3.82,3.84,3.83,3.83,0,0,0,3.82-3.84" fill="#814eff"/>
          <line id="Línea_376" data-name="Línea 376" x1="19.716" y2="62.66" transform="translate(98.663 206.721)" fill="none" stroke="#060305" stroke-linecap="round" stroke-linejoin="round" stroke-width="1"/>
          <line id="Línea_377" data-name="Línea 377" x1="48.114" transform="translate(149.576 208.131)" fill="none" stroke="#fff" stroke-linecap="round" stroke-linejoin="round" stroke-width="1"/>
          <path id="Trazado_818270" data-name="Trazado 818270" d="M78.013,239.615a422.449,422.449,0,0,0-39.691-17.236q2.235-7.83,4.469-15.661L11.512,202c-2.886,5.639-5.791,11.323-7.518,17.418s-2.218,12.7-.257,18.726c2.924,8.982,11.3,15.261,20.641,16.67a523.559,523.559,0,0,1,58.694,12.4,6.847,6.847,0,0,0,2.837.354,2.346,2.346,0,0,0,2.029-1.773l-3.22-3.273a4.783,4.783,0,0,0-1.67-1.257c1.468.509,3.14,1.233,4.609,1.742a33.292,33.292,0,0,0,4.486,4.939,2.562,2.562,0,0,0,2.928.2c-1.063-2.91-2.019-5.648-3.082-8.558,2.31,1.461,4.727,3.349,7.232,4.444a2.514,2.514,0,0,0,2.89-.725c-6.639-9.042-14.078-18.653-24.1-23.695" fill="#ff9a7d"/>
          <path id="Trazado_818271" data-name="Trazado 818271" d="M38.571,222.136l-5.593-.036" fill="none" stroke="#060305" stroke-linecap="round" stroke-linejoin="round" stroke-width="1"/>
          <path id="Trazado_818272" data-name="Trazado 818272" d="M84.963,253.214l7.839,7.572" fill="none" stroke="#060305" stroke-linecap="round" stroke-linejoin="round" stroke-width="1"/>
          <path id="Trazado_818273" data-name="Trazado 818273" d="M80.076,259.224q2.579,1.821,5.156,3.643" fill="none" stroke="#060305" stroke-linecap="round" stroke-linejoin="round" stroke-width="1"/>
          <path id="Trazado_818274" data-name="Trazado 818274" d="M76.635,263.633l7.084,4.1" fill="none" stroke="#060305" stroke-linecap="round" stroke-linejoin="round" stroke-width="1"/>
          <path id="Trazado_818275" data-name="Trazado 818275" d="M124.9,281.522a165.647,165.647,0,0,1-20.05-6.23,79.99,79.99,0,0,0-4.291,35.658c11.929,1.149,25.749.974,34.654,8.991,1.857,1.671,3.963,3.262,6.407,2.748Z" fill="#060305"/>
          <line id="Línea_378" data-name="Línea 378" y2="6.96" transform="translate(111.652 304.951)" fill="none" stroke="#fff" stroke-linecap="round" stroke-linejoin="round" stroke-width="1"/>
          <path id="Trazado_818276" data-name="Trazado 818276" d="M115.157,305.075q.156,3.73.313,7.46" fill="none" stroke="#fff" stroke-linecap="round" stroke-linejoin="round" stroke-width="1"/>
          <path id="Trazado_818277" data-name="Trazado 818277" d="M119.363,304.951l-.126,7.333" fill="none" stroke="#fff" stroke-linecap="round" stroke-linejoin="round" stroke-width="1"/>
          <path id="Trazado_818278" data-name="Trazado 818278" d="M78.323,120.034a23.274,23.274,0,0,0,16.284-4.556" fill="none" stroke="#814eff" stroke-linecap="round" stroke-linejoin="round" stroke-width="1"/>
          <path id="Trazado_818279" data-name="Trazado 818279" d="M64.844,121.643q.714,1.1,1.429,2.191" fill="none" stroke="#814eff" stroke-linecap="round" stroke-linejoin="round" stroke-width="1"/>
          <path id="Trazado_818280" data-name="Trazado 818280" d="M100.754,127.057a4.592,4.592,0,0,0-.615-8.169,9.239,9.239,0,0,0-4.184-.359c-5.081.346-10.514,1.194-15.59.786a19.95,19.95,0,0,0-20.634,25.857l31.9,5.954a55.944,55.944,0,0,1,3.452-16.046,12.909,12.909,0,0,0,4.6-.967,5.113,5.113,0,0,0,2.969-3.46,2.955,2.955,0,0,0-1.9-3.6" fill="#1425dd"/>
          <path id="Trazado_818281" data-name="Trazado 818281" d="M92.134,168.557c-2.178-.809-4.171-1.463-6.349-2.273.271-1.153.778-2.586,1.05-3.739a13.852,13.852,0,0,0,8.994-4.322,13.006,13.006,0,0,0,3.551-9.131c-.084-4.495-.343-9.288-2.723-13.1A12.527,12.527,0,0,0,89.2,130.9a5.463,5.463,0,0,1-3.565,2.878,5.23,5.23,0,0,1-4.361-1.014,4.522,4.522,0,0,1-8.057,1.145,8.648,8.648,0,0,1-2.889,7.4c-.675-.825-1.278-1.738-1.954-2.563A7.572,7.572,0,1,0,66.054,153.5c-.793,2.773-1.819,5.318-2.612,8.091-2.085.357-4.305.535-6.389.892,1.418,5.158,3.709,9.87,8.033,13.018a19.658,19.658,0,0,0,15.189,3.535c5.245-1.053,9.819-5.532,11.859-10.477" fill="#ff9a7d"/>
          <path id="Trazado_818282" data-name="Trazado 818282" d="M81.565,146.911a1.6,1.6,0,1,0-1.553,1.654,1.605,1.605,0,0,0,1.553-1.654" fill="#060305"/>
          <path id="Trazado_818283" data-name="Trazado 818283" d="M96.439,145.918a1.6,1.6,0,1,0-1.553,1.654,1.6,1.6,0,0,0,1.553-1.654" fill="#060305"/>
          <path id="Trazado_818284" data-name="Trazado 818284" d="M88.415,145.12l1.143,5.486c-.751-.189-1.757-.052-2.507-.241" fill="none" stroke="#060305" stroke-linecap="round" stroke-linejoin="round" stroke-width="1"/>
          <path id="Trazado_818285" data-name="Trazado 818285" d="M78,139.876a3.685,3.685,0,0,1,6.461-.638" fill="none" stroke="#060305" stroke-linecap="round" stroke-linejoin="round" stroke-width="1"/>
          <path id="Trazado_818286" data-name="Trazado 818286" d="M93.829,137.757l2.981-.273" fill="none" stroke="#060305" stroke-linecap="round" stroke-linejoin="round" stroke-width="1"/>
          <path id="Trazado_818287" data-name="Trazado 818287" d="M81.329,150.708a2.063,2.063,0,0,0,3.41,1.572" fill="none" stroke="#060305" stroke-linecap="round" stroke-linejoin="round" stroke-width="1"/>
          <path id="Trazado_818288" data-name="Trazado 818288" d="M63.286,142.82q1.92.951,3.839,1.9" fill="none" stroke="#060305" stroke-linecap="round" stroke-linejoin="round" stroke-width="1"/>
          <path id="Trazado_818289" data-name="Trazado 818289" d="M65.472,154.053l2.242-.071" fill="none" stroke="#060305" stroke-linecap="round" stroke-linejoin="round" stroke-width="1"/>
          <path id="Trazado_818290" data-name="Trazado 818290" d="M73.972,160.157a17.789,17.789,0,0,0,12.59,3.262" fill="none" stroke="#060305" stroke-linecap="round" stroke-linejoin="round" stroke-width="1"/>
          <path id="Trazado_818291" data-name="Trazado 818291" d="M39.759,252.542c-9.157-3.038-21.16-1-28.44,5.331S.91,275.233,4.651,284.126a26.513,26.513,0,0,0,10.506,11.781,52.2,52.2,0,0,0,14.805,5.981L101.931,316.2q2.951-20.8,5.9-41.61c-22.457-7.45-45.615-14.6-68.072-22.052" fill="#1425dd"/>
          <line id="Línea_379" data-name="Línea 379" x1="13.959" y1="4.639" transform="translate(94.562 269.986)" fill="none" stroke="#060305" stroke-linecap="round" stroke-linejoin="round" stroke-width="1"/>
          <path id="Trazado_818292" data-name="Trazado 818292" d="M102.73,272.642l-8.952,42.31" fill="none" stroke="#060305" stroke-linecap="round" stroke-linejoin="round" stroke-width="1"/>
          <path id="Trazado_818293" data-name="Trazado 818293" d="M8.09,271.015a16.347,16.347,0,0,1,5.3-9.159" fill="none" stroke="#060305" stroke-linecap="round" stroke-linejoin="round" stroke-width="1"/>
          <rect id="Rectángulo_376083" data-name="Rectángulo 376083" width="3.169" height="23.267" transform="translate(328.285 163.535)" fill="#f6921e"/>
          <path id="Trazado_818294" data-name="Trazado 818294" d="M336.191,165.385l-6.321-10.947-6.321,10.947Z" fill="#f6921e"/>
          <rect id="Rectángulo_376084" data-name="Rectángulo 376084" width="3.169" height="38.068" transform="translate(159.537 154.438)" fill="#f6921e"/>
          <path id="Trazado_818295" data-name="Trazado 818295" d="M154.8,190.656l6.321,10.947,6.322-10.947Z" fill="#f6921e"/>
          <rect id="Rectángulo_376085" data-name="Rectángulo 376085" width="179.132" height="31.777" transform="translate(259.953 306.165)" fill="#adb3f3"/>
          <rect id="Rectángulo_376086" data-name="Rectángulo 376086" width="21.946" height="4.184" transform="translate(307.924 315.454)" fill="#ff99a8"/>
          <rect id="Rectángulo_376087" data-name="Rectángulo 376087" width="14.493" height="4.184" transform="translate(332.73 315.454)" fill="#fff"/>
          <rect id="Rectángulo_376088" data-name="Rectángulo 376088" width="13.247" height="4.184" transform="translate(307.923 324.471)" fill="#fff"/>
          <rect id="Rectángulo_376089" data-name="Rectángulo 376089" width="22.884" height="4.184" transform="translate(324.339 324.471)" fill="#fff"/>
          <path id="Trazado_818296" data-name="Trazado 818296" d="M370.1,317.4a2.641,2.641,0,1,0-2.641,2.641A2.64,2.64,0,0,0,370.1,317.4" fill="#fff"/>
          <path id="Trazado_818297" data-name="Trazado 818297" d="M370.1,326.708a2.641,2.641,0,1,0-2.641,2.642,2.64,2.64,0,0,0,2.641-2.642" fill="#fff"/>
          <path id="Trazado_818298" data-name="Trazado 818298" d="M360.461,317.4a2.641,2.641,0,1,0-2.641,2.641,2.64,2.64,0,0,0,2.641-2.641" fill="#f6921e"/>
          <path id="Trazado_818299" data-name="Trazado 818299" d="M360.461,326.708a2.641,2.641,0,1,0-2.641,2.642,2.64,2.64,0,0,0,2.641-2.642" fill="#fff"/>
          <rect id="Rectángulo_376090" data-name="Rectángulo 376090" width="29.52" height="13.201" transform="translate(270.862 315.454)" fill="none" stroke="#fff" stroke-linecap="round" stroke-linejoin="round" stroke-width="1"/>
          <line id="Línea_380" data-name="Línea 380" x2="19.389" transform="translate(275.588 319.996)" fill="none" stroke="#fff" stroke-linecap="round" stroke-linejoin="round" stroke-width="1"/>
          <line id="Línea_381" data-name="Línea 381" x1="19.389" transform="translate(275.587 324.112)" fill="none" stroke="#fff" stroke-linecap="round" stroke-linejoin="round" stroke-width="1"/>
          <rect id="Rectángulo_376091" data-name="Rectángulo 376091" width="57.067" height="31.777" transform="translate(382.018 306.165)" fill="#1425dd"/>
          <rect id="Rectángulo_376092" data-name="Rectángulo 376092" width="14.493" height="4.184" transform="translate(390.901 315.454)" fill="#060305"/>
          <rect id="Rectángulo_376093" data-name="Rectángulo 376093" width="14.493" height="4.184" transform="translate(415.708 315.454)" fill="#9e97ff"/>
          <rect id="Rectángulo_376094" data-name="Rectángulo 376094" width="14.493" height="4.184" transform="translate(390.901 324.471)" fill="#9e97ff"/>
          <rect id="Rectángulo_376095" data-name="Rectángulo 376095" width="14.493" height="4.184" transform="translate(415.708 324.471)" fill="#060305"/>
          <rect id="Rectángulo_376096" data-name="Rectángulo 376096" width="179.132" height="31.777" transform="translate(259.953 192.968)" fill="#adb3f3"/>
          <rect id="Rectángulo_376097" data-name="Rectángulo 376097" width="21.946" height="4.184" transform="translate(307.924 202.256)" fill="#fff"/>
          <rect id="Rectángulo_376098" data-name="Rectángulo 376098" width="14.493" height="4.184" transform="translate(332.73 202.256)" fill="#fff"/>
          <rect id="Rectángulo_376099" data-name="Rectángulo 376099" width="13.247" height="4.184" transform="translate(307.923 211.273)" fill="#ff99a8"/>
          <rect id="Rectángulo_376100" data-name="Rectángulo 376100" width="22.884" height="4.184" transform="translate(324.339 211.273)" fill="#fff"/>
          <path id="Trazado_818300" data-name="Trazado 818300" d="M370.1,204.2a2.641,2.641,0,1,0-2.641,2.641A2.64,2.64,0,0,0,370.1,204.2" fill="#fff"/>
          <path id="Trazado_818301" data-name="Trazado 818301" d="M370.1,213.511a2.641,2.641,0,1,0-2.641,2.641,2.64,2.64,0,0,0,2.641-2.641" fill="#fff"/>
          <path id="Trazado_818302" data-name="Trazado 818302" d="M360.461,204.2a2.641,2.641,0,1,0-2.641,2.641,2.64,2.64,0,0,0,2.641-2.641" fill="#fff"/>
          <path id="Trazado_818303" data-name="Trazado 818303" d="M360.461,213.511a2.641,2.641,0,1,0-2.641,2.641,2.64,2.64,0,0,0,2.641-2.641" fill="#f6921e"/>
          <rect id="Rectángulo_376101" data-name="Rectángulo 376101" width="29.52" height="13.201" transform="translate(270.862 202.256)" fill="none" stroke="#fff" stroke-linecap="round" stroke-linejoin="round" stroke-width="1"/>
          <line id="Línea_382" data-name="Línea 382" x2="19.389" transform="translate(275.588 206.799)" fill="none" stroke="#fff" stroke-linecap="round" stroke-linejoin="round" stroke-width="1"/>
          <line id="Línea_383" data-name="Línea 383" x1="19.389" transform="translate(275.587 210.914)" fill="none" stroke="#fff" stroke-linecap="round" stroke-linejoin="round" stroke-width="1"/>
          <rect id="Rectángulo_376102" data-name="Rectángulo 376102" width="57.067" height="31.777" transform="translate(382.018 192.968)" fill="#1425dd"/>
          <rect id="Rectángulo_376103" data-name="Rectángulo 376103" width="14.493" height="4.184" transform="translate(390.901 202.256)" fill="#9e97ff"/>
          <rect id="Rectángulo_376104" data-name="Rectángulo 376104" width="14.493" height="4.184" transform="translate(415.708 202.256)" fill="#9e97ff"/>
          <rect id="Rectángulo_376105" data-name="Rectángulo 376105" width="14.493" height="4.184" transform="translate(390.901 211.273)" fill="#9e97ff"/>
          <rect id="Rectángulo_376106" data-name="Rectángulo 376106" width="14.493" height="4.184" transform="translate(415.708 211.273)" fill="#060305"/>
          <rect id="Rectángulo_376107" data-name="Rectángulo 376107" width="179.132" height="31.777" transform="translate(259.953 230.7)" fill="#adb3f3"/>
          <rect id="Rectángulo_376108" data-name="Rectángulo 376108" width="21.946" height="4.184" transform="translate(307.924 239.989)" fill="#fff"/>
          <rect id="Rectángulo_376109" data-name="Rectángulo 376109" width="14.493" height="4.184" transform="translate(332.73 239.989)" fill="#fff"/>
          <rect id="Rectángulo_376110" data-name="Rectángulo 376110" width="13.247" height="4.184" transform="translate(307.923 249.005)" fill="#fff"/>
          <rect id="Rectángulo_376111" data-name="Rectángulo 376111" width="22.884" height="4.184" transform="translate(324.339 249.005)" fill="#ff99a8"/>
          <path id="Trazado_818304" data-name="Trazado 818304" d="M370.1,241.934a2.641,2.641,0,1,0-2.641,2.641,2.64,2.64,0,0,0,2.641-2.641" fill="#f6921e"/>
          <path id="Trazado_818305" data-name="Trazado 818305" d="M370.1,251.243a2.641,2.641,0,1,0-2.641,2.641,2.64,2.64,0,0,0,2.641-2.641" fill="#fff"/>
          <path id="Trazado_818306" data-name="Trazado 818306" d="M360.461,241.934a2.641,2.641,0,1,0-2.641,2.641,2.64,2.64,0,0,0,2.641-2.641" fill="#fff"/>
          <path id="Trazado_818307" data-name="Trazado 818307" d="M360.461,251.243a2.641,2.641,0,1,0-2.641,2.641,2.64,2.64,0,0,0,2.641-2.641" fill="#fff"/>
          <rect id="Rectángulo_376112" data-name="Rectángulo 376112" width="29.52" height="13.201" transform="translate(270.862 239.988)" fill="none" stroke="#fff" stroke-linecap="round" stroke-linejoin="round" stroke-width="1"/>
          <line id="Línea_384" data-name="Línea 384" x2="19.389" transform="translate(275.588 244.531)" fill="none" stroke="#fff" stroke-linecap="round" stroke-linejoin="round" stroke-width="1"/>
          <line id="Línea_385" data-name="Línea 385" x1="19.389" transform="translate(275.587 248.647)" fill="none" stroke="#fff" stroke-linecap="round" stroke-linejoin="round" stroke-width="1"/>
          <rect id="Rectángulo_376113" data-name="Rectángulo 376113" width="57.067" height="31.777" transform="translate(382.018 230.7)" fill="#1425dd"/>
          <rect id="Rectángulo_376114" data-name="Rectángulo 376114" width="14.493" height="4.184" transform="translate(390.901 239.989)" fill="#060305"/>
          <rect id="Rectángulo_376115" data-name="Rectángulo 376115" width="14.493" height="4.184" transform="translate(415.708 239.989)" fill="#9e97ff"/>
          <rect id="Rectángulo_376116" data-name="Rectángulo 376116" width="14.493" height="4.184" transform="translate(390.901 249.005)" fill="#9e97ff"/>
          <rect id="Rectángulo_376117" data-name="Rectángulo 376117" width="14.493" height="4.184" transform="translate(415.708 249.005)" fill="#9e97ff"/>
          <rect id="Rectángulo_376118" data-name="Rectángulo 376118" width="179.132" height="31.777" transform="translate(259.953 268.433)" fill="#adb3f3"/>
          <rect id="Rectángulo_376119" data-name="Rectángulo 376119" width="21.946" height="4.184" transform="translate(307.924 277.721)" fill="#fff"/>
          <rect id="Rectángulo_376120" data-name="Rectángulo 376120" width="14.493" height="4.184" transform="translate(332.73 277.721)" fill="#fff"/>
          <rect id="Rectángulo_376121" data-name="Rectángulo 376121" width="13.247" height="4.184" transform="translate(307.923 286.738)" fill="#ff99a8"/>
          <rect id="Rectángulo_376122" data-name="Rectángulo 376122" width="22.884" height="4.184" transform="translate(324.339 286.738)" fill="#fff"/>
          <path id="Trazado_818308" data-name="Trazado 818308" d="M370.1,279.667a2.641,2.641,0,1,0-2.641,2.641,2.64,2.64,0,0,0,2.641-2.641" fill="#fff"/>
          <path id="Trazado_818309" data-name="Trazado 818309" d="M370.1,288.976a2.641,2.641,0,1,0-2.641,2.641,2.64,2.64,0,0,0,2.641-2.641" fill="#f6921e"/>
          <path id="Trazado_818310" data-name="Trazado 818310" d="M360.461,279.667a2.641,2.641,0,1,0-2.641,2.641,2.64,2.64,0,0,0,2.641-2.641" fill="#fff"/>
          <path id="Trazado_818311" data-name="Trazado 818311" d="M360.461,288.976a2.641,2.641,0,1,0-2.641,2.641,2.64,2.64,0,0,0,2.641-2.641" fill="#fff"/>
          <rect id="Rectángulo_376123" data-name="Rectángulo 376123" width="29.52" height="13.201" transform="translate(270.862 277.721)" fill="none" stroke="#fff" stroke-linecap="round" stroke-linejoin="round" stroke-width="1"/>
          <line id="Línea_386" data-name="Línea 386" x2="19.389" transform="translate(275.588 282.264)" fill="none" stroke="#fff" stroke-linecap="round" stroke-linejoin="round" stroke-width="1"/>
          <line id="Línea_387" data-name="Línea 387" x1="19.389" transform="translate(275.587 286.379)" fill="none" stroke="#fff" stroke-linecap="round" stroke-linejoin="round" stroke-width="1"/>
          <rect id="Rectángulo_376124" data-name="Rectángulo 376124" width="57.067" height="31.777" transform="translate(382.018 268.433)" fill="#1425dd"/>
          <rect id="Rectángulo_376125" data-name="Rectángulo 376125" width="14.493" height="4.184" transform="translate(390.901 277.721)" fill="#060305"/>
          <rect id="Rectángulo_376126" data-name="Rectángulo 376126" width="14.493" height="4.184" transform="translate(415.708 277.721)" fill="#9e97ff"/>
          <rect id="Rectángulo_376127" data-name="Rectángulo 376127" width="14.493" height="4.184" transform="translate(390.901 286.738)" fill="#9e97ff"/>
          <rect id="Rectángulo_376128" data-name="Rectángulo 376128" width="14.493" height="4.184" transform="translate(415.708 286.738)" fill="#9e97ff"/>
        </g>
      </g>
    </g>
    <path id="Trazado_771198" data-name="Trazado 771198" d="M49.83,31.144H28.5L48.273,0H23.358L0,46.716H18.375L0,90.318Z" transform="translate(936.248 673.881) rotate(-42)" fill="#f7df3f"/>
    <path id="Trazado_771203" data-name="Trazado 771203" d="M31.876,19.923H18.229L30.88,0H14.942L0,29.884H11.754L0,57.776Z" transform="translate(1358.951 468.111) rotate(177)" fill="#1425dd"/>
  </g>
</svg>
