<svg xmlns="http://www.w3.org/2000/svg" xmlns:xlink="http://www.w3.org/1999/xlink" width="505" height="527.321" viewBox="0 0 505 527.321">
  <defs>
    <clipPath id="clip-path">
      <rect id="Rectángulo_376196" data-name="Rectángulo 376196" width="194.365" height="403.714" fill="none"/>
    </clipPath>
    <clipPath id="clip-path-2">
      <rect id="Rectángulo_376202" data-name="Rectángulo 376202" width="203.158" height="139.099" fill="none"/>
    </clipPath>
    <clipPath id="clip-path-3">
      <rect id="Rectángulo_376191" data-name="Rectángulo 376191" width="412.618" height="407.5" fill="none"/>
    </clipPath>
  </defs>
  <g id="Grupo_1072472" data-name="Grupo 1072472" transform="translate(0)">
    <rect id="Rectángulo_376007" data-name="Rectángulo 376007" width="377" height="376" rx="16" transform="translate(113 94.827)" fill="#adb3f3"/>
    <g id="Grupo_1072463" data-name="Grupo 1072463" transform="translate(33.25 59.97)">
      <rect id="Rectángulo_376192" data-name="Rectángulo 376192" width="159.522" height="19.943" transform="translate(17.422 64.788)" fill="#430f76"/>
      <g id="Grupo_1072462" data-name="Grupo 1072462">
        <g id="Grupo_1072461" data-name="Grupo 1072461" clip-path="url(#clip-path)">
          <path id="Trazado_818578" data-name="Trazado 818578" d="M7.889,64.788H186.475a7.891,7.891,0,0,0,7.891-7.889V7.889A7.891,7.891,0,0,0,186.475,0H7.889A7.889,7.889,0,0,0,0,7.889V56.9a7.889,7.889,0,0,0,7.889,7.889" transform="translate(0)" fill="#a36eed"/>
          <path id="Trazado_818579" data-name="Trazado 818579" d="M73.316,20.828h52.951a6.074,6.074,0,0,0,0-12.147H73.316a6.074,6.074,0,0,0,0,12.147" transform="translate(-49.821 5.758)" fill="#bcf275"/>
          <path id="Trazado_818580" data-name="Trazado 818580" d="M73.316,34.938h52.951a6.074,6.074,0,0,0,6.073-6.073v0a6.074,6.074,0,0,0-6.073-6.073H73.316a6.073,6.073,0,0,0-6.073,6.073v0a6.073,6.073,0,0,0,6.073,6.073" transform="translate(-49.821 15.118)" fill="#430f76"/>
          <rect id="Rectángulo_376193" data-name="Rectángulo 376193" width="159.522" height="19.943" transform="translate(17.422 149.519)" fill="#430f76"/>
          <path id="Trazado_818581" data-name="Trazado 818581" d="M7.889,115.729H186.475a7.891,7.891,0,0,0,7.891-7.889V58.83a7.891,7.891,0,0,0-7.891-7.889H7.889A7.889,7.889,0,0,0,0,58.83v49.01a7.889,7.889,0,0,0,7.889,7.889" transform="translate(0 33.791)" fill="#a36eed"/>
          <path id="Trazado_818582" data-name="Trazado 818582" d="M73.316,71.769h52.951a6.074,6.074,0,0,0,0-12.147H73.316a6.074,6.074,0,0,0,0,12.147" transform="translate(-49.821 39.549)" fill="#bcf275"/>
          <path id="Trazado_818583" data-name="Trazado 818583" d="M73.316,85.879h52.951a6.074,6.074,0,0,0,0-12.147H73.316a6.074,6.074,0,0,0,0,12.147" transform="translate(-49.821 48.909)" fill="#430f76"/>
          <rect id="Rectángulo_376194" data-name="Rectángulo 376194" width="159.522" height="19.943" transform="translate(17.422 234.25)" fill="#430f76"/>
          <path id="Trazado_818584" data-name="Trazado 818584" d="M7.889,166.67H186.475a7.891,7.891,0,0,0,7.891-7.889v-49.01a7.891,7.891,0,0,0-7.891-7.889H7.889A7.889,7.889,0,0,0,0,109.771v49.01a7.889,7.889,0,0,0,7.889,7.889" transform="translate(0 67.582)" fill="#a36eed"/>
          <path id="Trazado_818585" data-name="Trazado 818585" d="M73.316,122.709h52.951a6.074,6.074,0,0,0,0-12.147H73.316a6.074,6.074,0,0,0,0,12.147" transform="translate(-49.821 73.339)" fill="#bcf275"/>
          <path id="Trazado_818586" data-name="Trazado 818586" d="M73.316,136.82h52.951a6.074,6.074,0,0,0,0-12.147H73.316a6.074,6.074,0,0,0,0,12.147" transform="translate(-49.821 82.7)" fill="#430f76"/>
          <rect id="Rectángulo_376195" data-name="Rectángulo 376195" width="159.522" height="19.943" transform="translate(17.422 318.982)" fill="#430f76"/>
          <path id="Trazado_818587" data-name="Trazado 818587" d="M7.889,217.61H186.475a7.891,7.891,0,0,0,7.891-7.889v-49.01a7.891,7.891,0,0,0-7.891-7.889H7.889A7.889,7.889,0,0,0,0,160.711v49.01a7.889,7.889,0,0,0,7.889,7.889" transform="translate(0 101.372)" fill="#a36eed"/>
          <path id="Trazado_818588" data-name="Trazado 818588" d="M73.316,173.65h52.951a6.074,6.074,0,0,0,0-12.147H73.316a6.074,6.074,0,0,0,0,12.147" transform="translate(-49.821 107.13)" fill="#bcf275"/>
          <path id="Trazado_818589" data-name="Trazado 818589" d="M73.316,187.76h52.951a6.074,6.074,0,0,0,0-12.147H73.316a6.074,6.074,0,0,0,0,12.147" transform="translate(-49.821 116.49)" fill="#430f76"/>
          <path id="Trazado_818590" data-name="Trazado 818590" d="M7.889,268.551H186.475a7.891,7.891,0,0,0,7.891-7.889v-49.01a7.891,7.891,0,0,0-7.891-7.889H7.889A7.889,7.889,0,0,0,0,211.652v49.01a7.889,7.889,0,0,0,7.889,7.889" transform="translate(0 135.163)" fill="#a36eed"/>
          <path id="Trazado_818591" data-name="Trazado 818591" d="M73.316,224.591h52.951a6.074,6.074,0,0,0,0-12.147H73.316a6.074,6.074,0,0,0,0,12.147" transform="translate(-49.821 140.921)" fill="#bcf275"/>
          <path id="Trazado_818592" data-name="Trazado 818592" d="M73.316,238.7h52.951a6.074,6.074,0,0,0,0-12.147H73.316a6.074,6.074,0,0,0,0,12.147" transform="translate(-49.821 150.281)" fill="#430f76"/>
        </g>
      </g>
    </g>
    <g id="Grupo_1072465" data-name="Grupo 1072465" transform="translate(301.842 13.827)">
      <g id="Grupo_1072464" data-name="Grupo 1072464" transform="translate(0)" clip-path="url(#clip-path-2)">
        <path id="Trazado_818593" data-name="Trazado 818593" d="M203.158,10.748v117.6A10.755,10.755,0,0,1,192.4,139.1H10.76A10.755,10.755,0,0,1,0,128.35V10.748A10.754,10.754,0,0,1,10.76,0H192.4a10.754,10.754,0,0,1,10.76,10.748" fill="#e8eaff"/>
        <path id="Trazado_818594" data-name="Trazado 818594" d="M203.158,10.748V24.641H0V10.748A10.754,10.754,0,0,1,10.76,0H192.4a10.754,10.754,0,0,1,10.76,10.748" fill="#361fa0"/>
        <path id="Trazado_818595" data-name="Trazado 818595" d="M159.56,46.82c-18.181,0-32.92,9.814-32.92,21.919,0,9.482,9.059,17.533,21.714,20.589l-.056.011-4.923,20.6,19.232-19.383c16.751-1.025,29.873-10.4,29.873-21.817,0-12.105-14.739-21.919-32.92-21.919" transform="translate(0 0)" fill="#5c7cef"/>
        <line id="Línea_411" data-name="Línea 411" y2="93.621" transform="translate(116.716 35.2)" fill="none" stroke="#361fa0" stroke-linecap="round" stroke-linejoin="round" stroke-width="2" stroke-dasharray="4 13"/>
        <rect id="Rectángulo_376197" data-name="Rectángulo 376197" width="32.864" height="11.351" transform="translate(40.85 37.544)" fill="#afb4e8"/>
        <rect id="Rectángulo_376198" data-name="Rectángulo 376198" width="32.864" height="11.351" transform="translate(14.794 75.209)" fill="#361fa0"/>
        <rect id="Rectángulo_376199" data-name="Rectángulo 376199" width="32.864" height="11.351" transform="translate(68.715 75.209)" fill="#a36eed"/>
        <rect id="Rectángulo_376200" data-name="Rectángulo 376200" width="32.864" height="11.351" transform="translate(14.794 107.211)" fill="#a36eed"/>
        <rect id="Rectángulo_376201" data-name="Rectángulo 376201" width="32.864" height="11.351" transform="translate(68.715 107.211)" fill="#361fa0"/>
        <path id="Trazado_818596" data-name="Trazado 818596" d="M31.226,75.209V61.322H85.147V75.209" transform="translate(0 0)" fill="none" stroke="#430f76" stroke-linecap="round" stroke-linejoin="round" stroke-width="1"/>
        <line id="Línea_412" data-name="Línea 412" y2="12.427" transform="translate(57.282 48.895)" fill="none" stroke="#430f76" stroke-linecap="round" stroke-linejoin="round" stroke-width="1"/>
        <line id="Línea_413" data-name="Línea 413" y2="20.651" transform="translate(31.226 86.56)" fill="none" stroke="#430f76" stroke-linecap="round" stroke-linejoin="round" stroke-width="1"/>
        <line id="Línea_414" data-name="Línea 414" y2="20.651" transform="translate(85.147 86.56)" fill="none" stroke="#430f76" stroke-linecap="round" stroke-linejoin="round" stroke-width="1"/>
        <path id="Trazado_818597" data-name="Trazado 818597" d="M21.881,12.321a4.806,4.806,0,1,0-4.807,4.806,4.807,4.807,0,0,0,4.807-4.806" transform="translate(0 0)" fill="#a36eed"/>
        <path id="Trazado_818598" data-name="Trazado 818598" d="M38.544,12.321a4.806,4.806,0,1,0-4.806,4.806,4.807,4.807,0,0,0,4.806-4.806" transform="translate(0 0)" fill="#bcf275"/>
        <path id="Trazado_818599" data-name="Trazado 818599" d="M55.206,12.321A4.807,4.807,0,1,0,50.4,17.127a4.807,4.807,0,0,0,4.806-4.806" transform="translate(0 0)" fill="#77f792"/>
      </g>
    </g>
    <g id="Grupo_1072471" data-name="Grupo 1072471" transform="translate(0 0)">
      <path id="Trazado_771199" data-name="Trazado 771199" d="M44.168,27.605H25.259L42.788,0H20.7L0,41.408H16.287L0,80.056Z" transform="matrix(-1, 0.017, -0.017, -1, 286.182, 125.191)" fill="#1425dd"/>
      <ellipse id="Elipse_4729" data-name="Elipse 4729" cx="9.261" cy="9.724" rx="9.261" ry="9.724" transform="translate(146.791 480.257)" fill="#dc40ed"/>
      <ellipse id="Elipse_4724" data-name="Elipse 4724" cx="9.261" cy="9.724" rx="9.261" ry="9.724" transform="translate(106.406 15.95)" fill="#fff"/>
      <path id="Trazado_771200" data-name="Trazado 771200" d="M42.032,26.27h-18L40.719,0H19.7L0,39.405H15.5L0,76.184Z" transform="matrix(0.951, 0.309, -0.309, 0.951, 435.842, 426.638)" fill="#dc40ed"/>
      <path id="Trazado_771198" data-name="Trazado 771198" d="M54.006,64.132H30.885L52.318,97.886h-27L0,47.255H19.915L0,0Z" transform="translate(40.134 113.645) rotate(-138)" fill="#4d5bf5"/>
      <circle id="Elipse_4726" data-name="Elipse 4726" cx="15.28" cy="15.28" r="15.28" transform="translate(103.571 110.682)" fill="#fff"/>
      <path id="Trazado_771202" data-name="Trazado 771202" d="M5.579,0,0,3.788C3.711,9.254,9.279,9.423,13.754,9.56c4.217.128,6.685.323,8.38,2.819s.965,4.862-.473,8.829c-1.524,4.209-3.421,9.448.29,14.914s9.278,5.635,13.754,5.772c4.217.128,6.685.322,8.379,2.819s.965,4.863-.471,8.83c-1.525,4.209-3.421,9.448.29,14.914s9.279,5.636,13.754,5.773c4.218.129,6.686.324,8.381,2.821l5.579-3.788c-3.711-5.466-9.279-5.637-13.754-5.773-4.217-.129-6.686-.324-8.381-2.821s-.965-4.863.472-8.83c1.524-4.209,3.421-9.448-.29-14.914S40.384,35.29,35.91,35.153c-4.217-.129-6.685-.323-8.38-2.819S26.565,27.471,28,23.5c1.524-4.209,3.421-9.448-.29-14.914S18.434,2.956,13.96,2.819C9.742,2.69,7.274,2.5,5.579,0" transform="translate(259.977 150.21) rotate(124)" fill="#ff06cc"/>
      <path id="Trazado_771201" data-name="Trazado 771201" d="M3.964,54.737,0,52.046c2.636-3.883,6.592-4,9.771-4.1,3-.091,4.749-.23,5.953-2s.685-3.454-.336-6.272c-1.083-2.99-2.43-6.712.206-10.595s6.591-4,9.771-4.1c3-.091,4.749-.229,5.953-2S32,19.518,30.983,16.7c-1.083-2.99-2.43-6.712.206-10.6s6.592-4,9.771-4.1c3-.091,4.75-.23,5.954-2l3.964,2.691c-2.636,3.883-6.592,4-9.771,4.1-3,.091-4.75.23-5.954,2s-.685,3.455.335,6.273c1.083,2.99,2.43,6.712-.206,10.6s-6.592,4-9.771,4.1c-3,.091-4.749.23-5.953,2s-.685,3.454.336,6.272c1.083,2.99,2.43,6.712-.206,10.595s-6.591,4-9.77,4.1c-3,.091-4.75.23-5.953,2" transform="translate(236.564 452.641) rotate(45)" fill="#f3bcf9"/>
      <path id="Trazado_818084" data-name="Trazado 818084" d="M3.964,54.737,0,52.046c2.636-3.883,6.592-4,9.771-4.1,3-.091,4.749-.23,5.953-2s.685-3.454-.336-6.272c-1.083-2.99-2.43-6.712.206-10.595s6.591-4,9.771-4.1c3-.091,4.749-.229,5.953-2S32,19.518,30.983,16.7c-1.083-2.99-2.43-6.712.206-10.6s6.592-4,9.771-4.1c3-.091,4.75-.23,5.954-2l3.964,2.691c-2.636,3.883-6.592,4-9.771,4.1-3,.091-4.75.23-5.954,2s-.685,3.455.335,6.273c1.083,2.99,2.43,6.712-.206,10.6s-6.592,4-9.771,4.1c-3,.091-4.749.23-5.953,2s-.685,3.454.336,6.272c1.083,2.99,2.43,6.712-.206,10.595s-6.591,4-9.77,4.1c-3,.091-4.75.23-5.953,2" transform="matrix(-0.883, -0.469, 0.469, -0.883, 149.921, 72.215)" fill="#adb3f3"/>
      <path id="Trazado_818215" data-name="Trazado 818215" d="M3.964,54.737,0,52.046c2.636-3.883,6.592-4,9.771-4.1,3-.091,4.749-.23,5.953-2s.685-3.454-.336-6.272c-1.083-2.99-2.43-6.712.206-10.595s6.591-4,9.771-4.1c3-.091,4.749-.229,5.953-2S32,19.518,30.983,16.7c-1.083-2.99-2.43-6.712.206-10.6s6.592-4,9.771-4.1c3-.091,4.75-.23,5.954-2l3.964,2.691c-2.636,3.883-6.592,4-9.771,4.1-3,.091-4.75.23-5.954,2s-.685,3.455.335,6.273c1.083,2.99,2.43,6.712-.206,10.6s-6.592,4-9.771,4.1c-3,.091-4.749.23-5.953,2s-.685,3.454.336,6.272c1.083,2.99,2.43,6.712-.206,10.595s-6.591,4-9.77,4.1c-3,.091-4.75.23-5.953,2" transform="translate(426.445 172.243) rotate(45)" fill="#dc40ed"/>
      <circle id="Elipse_4728" data-name="Elipse 4728" cx="15.28" cy="15.28" r="15.28" transform="translate(96.078 388.595)" fill="#1425dd"/>
      <path id="Rectangle_652" data-name="Rectangle 652" d="M380.784,220.569H6.092C2.728,220.569,0,216.912,0,212.4V8.169C0,3.658,2.728,0,6.092,0H380.784c3.365,0,6.093,3.658,6.093,8.169V212.4C386.876,216.912,384.149,220.569,380.784,220.569Z" transform="translate(92.744 178.364)" fill="none"/>
      <path id="Trazado_818077" data-name="Trazado 818077" d="M0,0,417.924,15.024,429.7,248.212,11.78,233.188Z" transform="translate(490 416.992) rotate(173)" fill="none"/>
      <circle id="Elipse_4725" data-name="Elipse 4725" cx="4.521" cy="4.521" r="4.521" transform="translate(449.147 279.606)" fill="#1425dd"/>
      <ellipse id="Elipse_4727" data-name="Elipse 4727" cx="10.548" cy="10.046" rx="10.548" ry="10.046" transform="translate(366.644 356.406)" fill="#1425dd"/>
      <circle id="Elipse_4731" data-name="Elipse 4731" cx="4.521" cy="4.521" r="4.521" transform="translate(188.818 394.834)" fill="#1425dd"/>
    </g>
    <g id="Grupo_1072460" data-name="Grupo 1072460" transform="translate(59.303 106.327)">
      <g id="Grupo_1072459" data-name="Grupo 1072459" clip-path="url(#clip-path-3)">
        <path id="Trazado_818562" data-name="Trazado 818562" d="M286.634,41l2.524-3.434a8.309,8.309,0,0,1,6.692-3.387h39.2a8.306,8.306,0,0,1,8.306,8.307v77.27a8.306,8.306,0,0,1-8.306,8.306H222.483a8.306,8.306,0,0,1-8.306-8.306V52.689a8.306,8.306,0,0,1,8.306-8.306h57.459A8.306,8.306,0,0,0,286.634,41" transform="translate(-214.177 11.052)" fill="#89f9db"/>
        <line id="Línea_409" data-name="Línea 409" x1="49.889" transform="translate(75.52 56.461)" fill="none" stroke="#430f76" stroke-linecap="round" stroke-linejoin="round" stroke-width="1"/>
        <path id="Trazado_818563" data-name="Trazado 818563" d="M270.352,54.445l2.524-3.434a8.309,8.309,0,0,1,6.692-3.387h39.2a8.306,8.306,0,0,1,8.306,8.307V133.2a8.306,8.306,0,0,1-8.306,8.306H206.2a8.306,8.306,0,0,1-8.306-8.306V66.137a8.306,8.306,0,0,1,8.306-8.306H263.66a8.306,8.306,0,0,0,6.692-3.387" transform="translate(-176.347 15.401)" fill="#e4e5f8"/>
        <line id="Línea_410" data-name="Línea 410" x1="49.889" transform="translate(97.068 74.257)" fill="none" stroke="#430f76" stroke-linecap="round" stroke-linejoin="round" stroke-width="1"/>
        <path id="Trazado_818564" data-name="Trazado 818564" d="M15.89,185.9q.536,4.189,1.1,8.615c22.418-7.808,34.527-16.887,40.5-22.67a31.424,31.424,0,0,0,5.016-5.863q-1.886-4.208-3.891-8.112s-14,19.335-42.719,28.03" transform="translate(329.089 51.054)" fill="#5c7cef"/>
        <path id="Trazado_818565" data-name="Trazado 818565" d="M177.262,156.529c-1.019,2.779-1.959,5.664-2.832,8.681a36.489,36.489,0,0,0,5.995,5.73c6.749,5.439,19.93,13.79,43.01,20.7l.384.026.635-8.5c-.794-.185-30.412-6.974-47.192-26.64" transform="translate(-42.677 50.621)" fill="#5c7cef"/>
        <path id="Trazado_818566" data-name="Trazado 818566" d="M66.83,114.285l.318.556c18.977,14.134,42.865,20.8,58.243,23.821a96.907,96.907,0,0,0,40.311-.185c30.147-6.921,43.831-25.621,43.831-25.621a67.389,67.389,0,0,0-14.319-4.261c-.913-.066-1.813-.172-2.673-.3,0,0-22.6,15.246-51.811,14.571,0,0-34.17.953-56.324-16.251,0,0-7.424,1.787-17.575,7.676" transform="translate(114.643 34.477)" fill="#5c7cef"/>
        <path id="Trazado_818567" data-name="Trazado 818567" d="M229.223,200.949c28.718-8.695,42.719-28.03,42.719-28.03-19.851-38.8-47.1-55.027-63.523-61.591,0,0-13.684,18.7-43.831,25.621a96.907,96.907,0,0,1-40.311.185c-15.378-3.017-39.265-9.687-58.243-23.821l-.318-.556c-14.676,8.509-35.044,25.634-46.888,58.388,16.781,19.666,46.4,26.455,47.192,26.64l-.635,8.5L62.5,244.846l-8.668,115.81s121.951,24.39,190.543,0c0,0-2.581-35.467-6.339-76.81-2.25-24.787-4.936-51.679-7.715-74.282q-.556-4.427-1.1-8.615" transform="translate(115.755 36.003)" fill="#89f9db"/>
        <path id="Trazado_818568" data-name="Trazado 818568" d="M0,191.1c2.779,22.6,5.466,49.495,7.715,74.282,0,0,14.61,14.346,30.306,18.25a22.784,22.784,0,0,0,28.255-20.407c1.244-15.312-1.032-46.345-25.78-94.795C34.527,174.212,22.418,183.291,0,191.1" transform="translate(346.078 54.469)" fill="#f1ba9d"/>
        <path id="Trazado_818569" data-name="Trazado 818569" d="M206.473,159.425c1.535,100.234,22.987,134.708,34.157,145.9a18.669,18.669,0,0,0,18.925,4.777c23.437-7.768,41.436-53.955,41.436-53.955l2.885-38.564-.384-.026c-23.08-6.908-36.261-15.259-43.01-20.7,0,0-3.772,11.831-7.808,26.508l-23.08-71.318,6.26-13.724a49.83,49.83,0,0,0,4.354-24.3l-1.323-18.183a5.44,5.44,0,0,0-10.852.013l-1.337,19.3S215.671,98.1,210.073,78.526a2.923,2.923,0,0,0-5.744.768c0,.119.013.251.026.384.794,5.664,2.964,19.375,6.882,29.644-.569-1.072-9.687-18.355-14.6-29.353a4.07,4.07,0,0,0-7.795,1.654,4.04,4.04,0,0,0,.291,1.522l11.487,28.585c-.675-.979-11.421-16.887-15.537-24.642a2.989,2.989,0,0,0-5.624,1.4,3.285,3.285,0,0,0,.079.715,120.612,120.612,0,0,0,11.937,29.578L181.2,105.616a3.512,3.512,0,0,0-4.91-.622,3.459,3.459,0,0,0-1.376,2.766,3.362,3.362,0,0,0,.172,1.072c2.938,9.237,14.676,42.865,31.391,50.593" transform="translate(-122.732 24.698)" fill="#f1ba9d"/>
        <path id="Trazado_818570" data-name="Trazado 818570" d="M79.67,133.968c22.154,17.2,56.324,16.251,56.324,16.251,29.207.675,51.811-14.571,51.811-14.571-26.891-4.036-26.15-36.01-26.111-37.359a37.106,37.106,0,0,1-23.517-2.382,25.066,25.066,0,0,1-8.02-4.552c-4.936-3.983-10.759-11.156-13.1-23.6a9.157,9.157,0,0,0,1.773-.86,12.4,12.4,0,0,0,5.545-10.733c.013-10.1-5.744-11.858-9.2-12a10.342,10.342,0,0,0-5.492-4.989s-10.322-4.7-19.163-17.164c-.265,1.548-6.22,36.01-2.462,55.688a14.726,14.726,0,0,0,6.577,9.634c.754.476,1.6.979,2.528,1.469l.2.106a.182.182,0,0,0,.053.04c.953.821,12.956,11.778-2.925,31.14A88.732,88.732,0,0,1,79.67,133.968" transform="translate(119.378 7.118)" fill="#f5b594"/>
        <path id="Trazado_818571" data-name="Trazado 818571" d="M155.716,105.407A46.481,46.481,0,0,0,177.631,93.02c16.172-21.055,3.084-47.5,3.084-47.5,2.726,0,8.351,2.647,8.708,2.806a23.424,23.424,0,0,0-9.74-12.308,28.982,28.982,0,0,0,1.588-12.943c.212,3.838-7.239,5.757-7.239,5.757-8.086-19.917-27.05-26.441-42.1-28.347A74.8,74.8,0,0,0,102.608,3.1C84.345,8.191,73.93,4.459,73.93,4.459A65.966,65.966,0,0,0,84.544,29.127c8.84,12.466,19.163,17.164,19.163,17.164A10.342,10.342,0,0,1,109.2,51.28c3.454.146,9.211,1.906,9.2,12a12.4,12.4,0,0,1-5.545,10.733,9.158,9.158,0,0,1-1.773.86c2.342,12.44,8.165,19.613,13.1,23.6a25.066,25.066,0,0,0,8.02,4.552,37.106,37.106,0,0,0,23.517,2.382" transform="translate(125.356 0)" fill="#361fa0"/>
        <path id="Trazado_818572" data-name="Trazado 818572" d="M135.051,38.911a11.1,11.1,0,0,1,2.541-.159c3.454.146,9.211,1.906,9.2,12a12.4,12.4,0,0,1-5.545,10.733,9.157,9.157,0,0,1-1.773.86c-3.1,1.138-7.133.728-11.871-4.01" transform="translate(96.963 12.528)" fill="none" stroke="#430f76" stroke-linecap="round" stroke-linejoin="round" stroke-width="1"/>
        <path id="Trazado_818573" data-name="Trazado 818573" d="M125.55,103.729c26.825,1.469,32.6-28.109,32.6-28.109-13.247,3.242-23.331.265-29.671-3.031.953.821,12.956,11.778-2.925,31.14" transform="translate(88.32 23.475)" fill="#430f76"/>
        <path id="Trazado_818574" data-name="Trazado 818574" d="M58.326,197.153q-.556-4.427-1.1-8.615c-2.329-17.6-4.7-31.735-6.948-38.828" transform="translate(287.751 48.415)" fill="none" stroke="#430f76" stroke-linecap="round" stroke-linejoin="round" stroke-width="1"/>
        <path id="Trazado_818575" data-name="Trazado 818575" d="M178.6,149.709l-2.673,35.666-.635,8.5-2.885,38.564" transform="translate(5.847 48.415)" fill="none" stroke="#430f76" stroke-linecap="round" stroke-linejoin="round" stroke-width="1"/>
        <path id="Trazado_818576" data-name="Trazado 818576" d="M223.3,167.419s-3.772,11.831-7.808,26.508c-2.9,10.574-5.929,22.617-7.795,32.781" transform="translate(-85.555 54.143)" fill="none" stroke="#430f76" stroke-linecap="round" stroke-linejoin="round" stroke-width="1"/>
        <path id="Trazado_818577" data-name="Trazado 818577" d="M245.44,119.486c5.463,10.954,12.809,21.976,21.5,26A17.568,17.568,0,0,0,271,146.8" transform="translate(-183.201 38.641)" fill="none" stroke="#430f76" stroke-linecap="round" stroke-linejoin="round" stroke-width="1"/>
      </g>
    </g>
  </g>
</svg>
