<svg xmlns="http://www.w3.org/2000/svg" xmlns:xlink="http://www.w3.org/1999/xlink" width="122" height="122" viewBox="0 0 122 122">
  <defs>
    <filter id="Elipse_9677" x="0" y="0" width="122" height="122" filterUnits="userSpaceOnUse">
      <feOffset dy="1" input="SourceAlpha"/>
      <feGaussianBlur stdDeviation="8" result="blur"/>
      <feFlood flood-color="#fff"/>
      <feComposite operator="in" in2="blur"/>
      <feComposite in="SourceGraphic"/>
    </filter>
  </defs>
  <g id="Grupo_1072581" data-name="Grupo 1072581" transform="translate(24 23)">
    <g id="Grupo_61577" data-name="Grupo 61577" transform="translate(14.547 14.183)">
      <g id="Grupo_61576" data-name="Grupo 61576">
        <g id="Grupo_61574" data-name="Grupo 61574" transform="translate(0.73 0.73)">
          <g id="Grupo_61556" data-name="Grupo 61556">
            <path id="Trazado_110567" data-name="Trazado 110567" d="M839.564,3366.281h23.369v24.83H839.564Z" transform="translate(-839.564 -3366.281)" fill="#b8aff8"/>
          </g>
          <g id="Grupo_61557" data-name="Grupo 61557" transform="translate(20.448 18.987)">
            <path id="Trazado_110568" data-name="Trazado 110568" d="M882.286,3405.95h23.369v24.83H882.286Z" transform="translate(-882.286 -3405.95)" fill="#b8aff8"/>
          </g>
          <g id="Grupo_61558" data-name="Grupo 61558" transform="translate(5.842 2.921)">
            <path id="Trazado_110569" data-name="Trazado 110569" d="M863.455,3376.283a5.392,5.392,0,0,1-2.132,4.294l-.066.052h-.007a.987.987,0,0,0,.015-.212v-2.4a.741.741,0,0,0-.5-.694,7.545,7.545,0,0,1-2.958-1.826l-.2-.2-.2.2a7.546,7.546,0,0,1-2.958,1.826.74.74,0,0,0-.5.694v2.4a1.016,1.016,0,0,0,.014.212h-.007l-.066-.052a5.394,5.394,0,0,1-2.133-4.294,3.894,3.894,0,0,1,3.9-3.9h3.885a3.893,3.893,0,0,1,3.9,3.9Z" transform="translate(-851.77 -3372.384)" fill="#b27946"/>
          </g>
          <g id="Grupo_61559" data-name="Grupo 61559" transform="translate(4.382 16.066)">
            <path id="Trazado_110570" data-name="Trazado 110570" d="M863.325,3403.879v4.732H848.719v-4.732a3.661,3.661,0,0,1,2.95-3.6l2.161-.431.08.154a2.357,2.357,0,0,0,4.221,0l.08-.154,2.161.431a3.661,3.661,0,0,1,2.951,3.6Z" transform="translate(-848.719 -3399.847)" fill="#68d0e8"/>
          </g>
          <g id="Grupo_61560" data-name="Grupo 61560" transform="translate(26.29 21.908)">
            <path id="Trazado_110571" data-name="Trazado 110571" d="M896.625,3420.248a5.393,5.393,0,0,1-2.133-4.294,3.895,3.895,0,0,1,3.9-3.9h6.324a1.464,1.464,0,0,1,1.461,1.461,4.339,4.339,0,0,1-1.286,3.1,4.488,4.488,0,0,1-.905.7,4.342,4.342,0,0,1-2.191.584h-.19a2.241,2.241,0,0,1-1.022-.241,1.771,1.771,0,0,1-.978-1.585.258.258,0,0,1,.007-.073H899.6l-1.541.621a2.181,2.181,0,0,0-1.38,2.03v1.439a1.014,1.014,0,0,0,.014.212h-.007Z" transform="translate(-894.492 -3412.054)" fill="#b27946"/>
          </g>
          <g id="Grupo_61561" data-name="Grupo 61561" transform="translate(22.398 35.053)">
            <path id="Trazado_110572" data-name="Trazado 110572" d="M903.4,3443.55v4.732H886.36a3.9,3.9,0,0,0,3.892-3.893v-3.768a3.692,3.692,0,0,1,1.49-.672l2.161-.43.081.153a2.357,2.357,0,0,0,4.221,0l.08-.153,2.161.43a3.661,3.661,0,0,1,2.95,3.6Z" transform="translate(-886.36 -3439.519)" fill="#f1bf5e"/>
          </g>
          <g id="Grupo_61562" data-name="Grupo 61562" transform="translate(9.494 14.123)">
            <path id="Trazado_110573" data-name="Trazado 110573" d="M859.779,3395.789l1.811.481a3.628,3.628,0,0,0,1.811-.481l.379,1.943-.08.153a2.357,2.357,0,0,1-4.221,0l-.08-.153Z" transform="translate(-859.399 -3395.789)" fill="#f0d0b4"/>
          </g>
          <g id="Grupo_61563" data-name="Grupo 61563" transform="translate(8.033 5.842)">
            <path id="Trazado_110574" data-name="Trazado 110574" d="M863.651,3381.2v2.4a.981.981,0,0,1-.015.212A3.641,3.641,0,0,1,860,3387.25l-1.811-.482a3.574,3.574,0,0,1-1.826-2.958,1.013,1.013,0,0,1-.014-.212v-2.4a.74.74,0,0,1,.5-.694,7.548,7.548,0,0,0,2.958-1.825l.2-.2.2.2a7.547,7.547,0,0,0,2.958,1.825A.741.741,0,0,1,863.651,3381.2Z" transform="translate(-856.348 -3378.487)" fill="#f0d0b4"/>
          </g>
          <g id="Grupo_61564" data-name="Grupo 61564" transform="translate(29.942 33.111)">
            <path id="Trazado_110575" data-name="Trazado 110575" d="M902.5,3435.46a3.645,3.645,0,0,0,3.622,0l.38,1.942-.08.154a2.358,2.358,0,0,1-4.221,0l-.08-.154Z" transform="translate(-902.121 -3435.46)" fill="#f0d0b4"/>
          </g>
          <g id="Grupo_61565" data-name="Grupo 61565" transform="translate(28.481 25.852)">
            <path id="Trazado_110576" data-name="Trazado 110576" d="M901.991,3420.366a1.771,1.771,0,0,0,.978,1.584,2.242,2.242,0,0,0,1.022.24h.19a4.337,4.337,0,0,0,2.191-.584v2.775a3.668,3.668,0,0,1-1.066,2.585,3.586,3.586,0,0,1-.774.584,3.643,3.643,0,0,1-5.448-2.958,1.018,1.018,0,0,1-.014-.211v-1.438a2.181,2.181,0,0,1,1.38-2.031l1.541-.621H902A.255.255,0,0,0,901.991,3420.366Z" transform="translate(-899.07 -3420.292)" fill="#f0d0b4"/>
          </g>
          <g id="Grupo_61566" data-name="Grupo 61566" transform="translate(17.527 1.46)">
            <path id="Trazado_110577" data-name="Trazado 110577" d="M898.091,3369.332H880.565a4.385,4.385,0,0,0-4.382,4.382v6.332a3.889,3.889,0,0,0,3.892,3.892,3.818,3.818,0,0,0,1.943-.526,3.86,3.86,0,0,0,1.176-1.029,3.4,3.4,0,0,1,2.724-1.366h6.82a3.4,3.4,0,0,1,2.724,1.366,3.9,3.9,0,0,0,7.01-2.337v-6.332A4.385,4.385,0,0,0,898.091,3369.332Z" transform="translate(-876.183 -3369.332)" fill="#aab2bd"/>
          </g>
          <g id="Grupo_61567" data-name="Grupo 61567" transform="translate(0 29.211)">
            <path id="Trazado_110578" data-name="Trazado 110578" d="M861.473,3427.312H843.946a4.385,4.385,0,0,0-4.382,4.382v6.331a3.89,3.89,0,0,0,3.893,3.893,3.817,3.817,0,0,0,1.942-.526,3.865,3.865,0,0,0,1.176-1.03A3.392,3.392,0,0,1,849.3,3439h6.821a3.393,3.393,0,0,1,2.724,1.365,3.9,3.9,0,0,0,7.01-2.337v-6.331A4.385,4.385,0,0,0,861.473,3427.312Z" transform="translate(-839.564 -3427.312)" fill="#aab2bd"/>
          </g>
          <g id="Grupo_61568" data-name="Grupo 61568" transform="translate(20.448 4.381)">
            <path id="Trazado_110579" data-name="Trazado 110579" d="M888.128,3377.626v1.461a.732.732,0,0,1-.73.73h-.73v.73a.733.733,0,0,1-.73.731h-1.461a.733.733,0,0,1-.73-.731v-.73h-.73a.732.732,0,0,1-.73-.73v-1.461a.732.732,0,0,1,.73-.73h.73v-.731a.732.732,0,0,1,.73-.73h1.461a.733.733,0,0,1,.73.73v.731h.73A.732.732,0,0,1,888.128,3377.626Z" transform="translate(-882.286 -3375.435)" fill="#f7d99e"/>
          </g>
          <g id="Grupo_61569" data-name="Grupo 61569" transform="translate(29.211 4.381)">
            <path id="Trazado_110580" data-name="Trazado 110580" d="M900.6,3375.435h2.921v2.921H900.6Z" transform="translate(-900.595 -3375.435)" fill="#69e9f8"/>
          </g>
          <g id="Grupo_61570" data-name="Grupo 61570" transform="translate(29.211 1.46)">
            <path id="Trazado_110581" data-name="Trazado 110581" d="M900.6,3369.332h2.921v2.921H900.6Z" transform="translate(-900.595 -3369.332)" fill="#69e9f8"/>
          </g>
          <g id="Grupo_61571" data-name="Grupo 61571" transform="translate(11.685 32.132)">
            <path id="Trazado_110582" data-name="Trazado 110582" d="M863.977,3433.415H866.9v2.921h-2.921Z" transform="translate(-863.977 -3433.415)" fill="#fcd770"/>
          </g>
          <g id="Grupo_61572" data-name="Grupo 61572" transform="translate(11.685 29.211)">
            <path id="Trazado_110583" data-name="Trazado 110583" d="M863.977,3427.312H866.9v2.921h-2.921Z" transform="translate(-863.977 -3427.312)" fill="#fcd770"/>
          </g>
          <g id="Grupo_61573" data-name="Grupo 61573" transform="translate(2.921 32.132)">
            <path id="Trazado_110584" data-name="Trazado 110584" d="M851.51,3435.605v1.461a.732.732,0,0,1-.73.73h-.73v.73a.733.733,0,0,1-.73.73h-1.46a.733.733,0,0,1-.73-.73v-.73h-.73a.733.733,0,0,1-.73-.73v-1.461a.733.733,0,0,1,.73-.73h.73v-.73a.733.733,0,0,1,.73-.73h1.46a.733.733,0,0,1,.73.73v.73h.73A.732.732,0,0,1,851.51,3435.605Z" transform="translate(-845.667 -3433.415)" fill="#05dbf3"/>
          </g>
        </g>
        <g id="Grupo_61575" data-name="Grupo 61575">
          <path id="Trazado_110585" data-name="Trazado 110585" d="M849.984,3433.35a1.462,1.462,0,0,0-1.461-1.461h-1.46a16476.281,16476.281,0,0,1-2.921,2.921v1.461a5492.094,5492.094,0,0,0,2.921,2.921h1.46a4942.7,4942.7,0,0,0,2.921-2.921v-1.461A1.462,1.462,0,0,0,849.984,3433.35Zm0,2.921h-1.461v1.461h-1.46v-1.461H845.6v-1.461h1.461v-1.46h1.46v1.46h1.461Z" transform="translate(-841.22 -3399.757)" fill="#453d7a"/>
          <path id="Trazado_110586" data-name="Trazado 110586" d="M862.451,3444.1h1.46v1.46h-1.46Z" transform="translate(-850.766 -3406.121)" fill="#453d7a"/>
          <path id="Trazado_110587" data-name="Trazado 110587" d="M868.554,3444.1h1.461v1.46h-1.461Z" transform="translate(-853.948 -3406.121)" fill="#453d7a"/>
          <path id="Trazado_110588" data-name="Trazado 110588" d="M877.709,3444.1h1.46v1.46h-1.46Z" transform="translate(-858.721 -3406.121)" fill="#453d7a"/>
          <path id="Trazado_110589" data-name="Trazado 110589" d="M883.812,3444.1h1.46v1.46h-1.46Z" transform="translate(-861.903 -3406.121)" fill="#453d7a"/>
          <circle id="Elipse_4466" data-name="Elipse 4466" cx="0.73" cy="0.73" r="0.73" transform="translate(20.448 32.133)" fill="#453d7a"/>
          <circle id="Elipse_4467" data-name="Elipse 4467" cx="0.73" cy="0.73" r="0.73" transform="translate(20.448 35.054)" fill="#453d7a"/>
          <circle id="Elipse_4468" data-name="Elipse 4468" cx="0.73" cy="0.73" r="0.73" transform="translate(18.988 33.593)" fill="#453d7a"/>
          <circle id="Elipse_4469" data-name="Elipse 4469" cx="0.73" cy="0.73" r="0.73" transform="translate(21.909 33.593)" fill="#453d7a"/>
          <path id="Trazado_110590" data-name="Trazado 110590" d="M886.6,3375.37a1.462,1.462,0,0,0-1.461-1.46h-1.461a9885.768,9885.768,0,0,0-2.921,2.921v1.46a9886.182,9886.182,0,0,1,2.921,2.921h1.461a10984.3,10984.3,0,0,0,2.921-2.921v-1.46A1.462,1.462,0,0,0,886.6,3375.37Zm0,2.921h-1.461v1.461h-1.461v-1.461h-1.46v-1.46h1.46v-1.461h1.461v1.461l1.461,0Z" transform="translate(-860.312 -3369.528)" fill="#453d7a"/>
          <path id="Trazado_110591" data-name="Trazado 110591" d="M863.89,3380.432a2.691,2.691,0,0,1,2.142-1.071h6.817a2.693,2.693,0,0,1,2.142,1.07,4.625,4.625,0,0,0,8.325-2.774v-6.329a5.119,5.119,0,0,0-5.112-5.112H862.868v-1.461h-24.83v26.29h20.448v2.921H843.15a5.119,5.119,0,0,0-5.112,5.112v6.33a4.625,4.625,0,0,0,8.325,2.775,2.692,2.692,0,0,1,2.142-1.072h6.817a2.7,2.7,0,0,1,2.143,1.071,4.644,4.644,0,0,0,3.7,1.851h22.152v-26.29H862.868v-2.325A4.622,4.622,0,0,0,863.89,3380.432Zm17.965-9.1v6.329a3.164,3.164,0,0,1-5.7,1.9,4.159,4.159,0,0,0-3.31-1.655h-6.817a4.157,4.157,0,0,0-3.31,1.656,3.165,3.165,0,0,1-5.7-1.9v-6.329a3.656,3.656,0,0,1,3.651-3.652h6.572v5.843h4.381v-5.843H878.2A3.656,3.656,0,0,1,881.855,3371.328Zm-28.018,1.332a6.857,6.857,0,0,1-2.667-1.649l-.716-.716-.716.716a6.853,6.853,0,0,1-2.666,1.648,1.458,1.458,0,0,0-1,1.386v.757a4.686,4.686,0,0,1-.73-2.5,3.167,3.167,0,0,1,3.168-3.167H852.4a3.167,3.167,0,0,1,3.167,3.168,4.683,4.683,0,0,1-.73,2.5v-.757a1.458,1.458,0,0,0-1-1.385Zm3.189,16.925H843.881v-4a2.942,2.942,0,0,1,2.366-2.885l1.64-.328a3.088,3.088,0,0,0,5.133,0l1.64.328a2.942,2.942,0,0,1,2.365,2.885Zm-5.149-8.152a1.619,1.619,0,0,1-2.848,0l.155-.8a4.349,4.349,0,0,0,2.538,0Zm-1.424-2.072a2.924,2.924,0,0,1-2.921-2.922v-2.395a8.316,8.316,0,0,0,2.921-1.7,8.325,8.325,0,0,0,2.921,1.7v2.395A2.924,2.924,0,0,1,850.453,3379.361Zm18.257-8.764h1.461v1.461H868.71Zm1.461-1.46H868.71v-1.461h1.461Zm-30.672-2.921h21.178a5.12,5.12,0,0,0-4.722,3.155c-.055-.067-.1-.142-.158-.206a4.64,4.64,0,0,0-3.4-1.489h-3.889a4.629,4.629,0,0,0-4.628,4.628,6.155,6.155,0,0,0,2.235,4.719,4.378,4.378,0,0,0,1.715,2.918l-.192.991-1.678.335a4.4,4.4,0,0,0-3.54,4.317v4H839.5Zm11.684,32.133h1.461v1.46h-1.461Zm1.461-1.461h-1.461v-1.46h1.461Zm5.988,10.418a4.16,4.16,0,0,0-3.31-1.655h-6.817a4.158,4.158,0,0,0-3.31,1.656,3.165,3.165,0,0,1-5.7-1.9v-6.33a3.655,3.655,0,0,1,3.651-3.651h6.573v5.842H854.1v-5.842h6.573a3.656,3.656,0,0,1,3.651,3.651v6.33a3.165,3.165,0,0,1-5.7,1.9Zm7.157-1.9v-3.356a2.946,2.946,0,0,1,.905-.365l1.64-.328a3.089,3.089,0,0,0,5.134,0l1.64.328a2.942,2.942,0,0,1,2.365,2.885v4H864.528a4.6,4.6,0,0,0,1.261-3.164Zm.743-11.6a4.691,4.691,0,0,1-.743-2.521,3.167,3.167,0,0,1,3.167-3.167h6.327a.731.731,0,0,1,.73.73,3.656,3.656,0,0,1-3.651,3.652h-.193a1.552,1.552,0,0,1-.692-.164,1.042,1.042,0,0,1,0-1.864l.481-.24-.653-1.307-.481.24a2.483,2.483,0,0,0-1.307,1.641l-1.161.465a2.9,2.9,0,0,0-1.823,2.535Zm1.447.177a1.451,1.451,0,0,1,.918-1.355l.726-.29a2.482,2.482,0,0,0,1.2,1.3,3.016,3.016,0,0,0,1.345.318h.193a5.084,5.084,0,0,0,1.461-.216v1.675a2.921,2.921,0,1,1-5.843,0Zm2.922,5.819a4.356,4.356,0,0,0,1.268-.189l.155.8a1.618,1.618,0,0,1-2.847,0l.155-.8A4.363,4.363,0,0,0,870.9,3399.808Zm10.954-14.605v23.369h-2.921v-4a4.4,4.4,0,0,0-3.539-4.317l-1.679-.336-.192-.99a4.376,4.376,0,0,0,1.759-3.5v-2.382a5.109,5.109,0,0,0,2.191-4.189,2.193,2.193,0,0,0-2.191-2.19h-6.327a4.627,4.627,0,0,0-4.627,4.627,6.154,6.154,0,0,0,2.234,4.719,4.382,4.382,0,0,0,1.715,2.918l-.192.99-1.678.336a4.271,4.271,0,0,0-.619.178v-1.355a5.118,5.118,0,0,0-5.112-5.112h-.73v-2.921h2.921V3385.2Zm-20.448,4.382h-2.921v-4a4.4,4.4,0,0,0-3.539-4.317l-1.679-.335-.192-.991a4.376,4.376,0,0,0,1.715-2.918,6.07,6.07,0,0,0,.774-.759v1.393a4.63,4.63,0,0,0,4.625,4.625,4.577,4.577,0,0,0,1.217-.172Z" transform="translate(-838.038 -3364.755)" fill="#12263f"/>
          <path id="Trazado_110592" data-name="Trazado 110592" d="M899.07,3386.116h1.46v1.46h-1.46Z" transform="translate(-869.858 -3375.892)" fill="#453d7a"/>
          <path id="Trazado_110593" data-name="Trazado 110593" d="M905.173,3386.116h1.46v1.46h-1.46Z" transform="translate(-873.04 -3375.892)" fill="#453d7a"/>
          <path id="Trazado_110594" data-name="Trazado 110594" d="M914.327,3386.116h1.461v1.46h-1.461Z" transform="translate(-877.813 -3375.892)" fill="#453d7a"/>
          <path id="Trazado_110595" data-name="Trazado 110595" d="M920.431,3386.116h1.46v1.46h-1.46Z" transform="translate(-880.995 -3375.892)" fill="#453d7a"/>
          <circle id="Elipse_4470" data-name="Elipse 4470" cx="0.73" cy="0.73" r="0.73" transform="translate(37.975 4.382)" fill="#453d7a"/>
          <circle id="Elipse_4471" data-name="Elipse 4471" cx="0.73" cy="0.73" r="0.73" transform="translate(37.975 7.303)" fill="#453d7a"/>
          <circle id="Elipse_4472" data-name="Elipse 4472" cx="0.73" cy="0.73" r="0.73" transform="translate(36.514 5.842)" fill="#453d7a"/>
          <circle id="Elipse_4473" data-name="Elipse 4473" cx="0.73" cy="0.73" r="0.73" transform="translate(39.436 5.842)" fill="#453d7a"/>
        </g>
      </g>
    </g>
    <g transform="matrix(1, 0, 0, 1, -24, -23)" filter="url(#Elipse_9677)">
      <path id="Elipse_9677-2" data-name="Elipse 9677" d="M37,4.353A32.647,32.647,0,1,0,69.647,37,32.684,32.684,0,0,0,37,4.353M37,0A37,37,0,1,1,0,37,37,37,0,0,1,37,0Z" transform="translate(24 23)" fill="#fff"/>
    </g>
  </g>
</svg>
