<svg xmlns="http://www.w3.org/2000/svg" xmlns:xlink="http://www.w3.org/1999/xlink" width="85" height="85" viewBox="0 0 85 85">
  <defs>
    <clipPath id="clip-path">
      <path id="path7077" d="M0-682.665H67.844v67.844H0Z" transform="translate(0 682.665)"/>
    </clipPath>
  </defs>
  <g id="Grupo_1072564" data-name="Grupo 1072564" transform="translate(-180.156 -2347)">
    <circle id="Elipse_9685" data-name="Elipse 9685" cx="42.5" cy="42.5" r="42.5" transform="translate(180.156 2347)" fill="#dc40ed"/>
    <g id="g7071" transform="translate(189.156 3038.665)">
      <g id="g7073" transform="translate(0 -682.665)">
        <g id="g7075" clip-path="url(#clip-path)">
          <g id="g7081" transform="translate(0.994 1.049)">
            <path id="path7083" d="M-596.809-33.25V4.074a3.667,3.667,0,0,1-3.668,3.668H-659a3.667,3.667,0,0,1-3.668-3.668V-33.25A3.668,3.668,0,0,1-659-36.919h58.521a3.668,3.668,0,0,1,3.668,3.669" transform="translate(662.665 36.919)" fill="#555760"/>
          </g>
          <g id="g7085" transform="translate(59.21 1.049)">
            <path id="path7087" d="M-69.239-33.25V4.074a3.667,3.667,0,0,1-3.668,3.668H-76.88a3.667,3.667,0,0,0,3.668-3.668V-33.25a3.668,3.668,0,0,0-3.668-3.669h3.973a3.668,3.668,0,0,1,3.668,3.669" transform="translate(76.88 36.919)" fill="#36383f"/>
          </g>
          <path id="path7089" d="M49.972-595.4h57.912v-36.709H49.972Z" transform="translate(-45.006 637.13)" fill="#52deff"/>
          <path id="path7091" d="M590.935-595.4h4.151v-36.709h-4.151Z" transform="translate(-532.207 637.13)" fill="#55baff"/>
          <g id="g7093" transform="translate(9.065 39.2)">
            <path id="path7095" d="M-426.977-230.835a6.41,6.41,0,0,1-2.824,1.881,6.492,6.492,0,0,1-3.716.05c-2.861-.765-5.7-3.261-7.7-6.828a5.088,5.088,0,0,1-2.478.639,5.112,5.112,0,0,1-3.667-1.544,2.726,2.726,0,0,0-.856-.6,2.531,2.531,0,0,0-1.016-.215,2.623,2.623,0,0,0-1.872.81,5.107,5.107,0,0,1-3.665,1.544,5.084,5.084,0,0,1-2.478-.639c-2.887,5.135-7.5,8.048-11.419,6.778a6.417,6.417,0,0,1-2.824-1.881,12.291,12.291,0,0,1-2.6-8.16,20.725,20.725,0,0,1,1.03-6.322c2.107-6.529,6.86-11.007,11.253-10.99h25.176a6.538,6.538,0,0,1,.835.053c4.14.521,8.421,4.833,10.391,10.937,1.866,5.781,1.11,11.475-1.569,14.482" transform="translate(474.092 256.307)" fill="#eef6ff"/>
          </g>
          <g id="g7097" transform="translate(42.8 39.253)">
            <path id="path7099" d="M-135.477-99.115c1.866,5.781,1.11,11.475-1.569,14.482a6.41,6.41,0,0,1-2.824,1.881,6.492,6.492,0,0,1-3.715.05,6.417,6.417,0,0,0,2.816-1.879c2.679-3.007,3.435-8.7,1.569-14.48-2.1-6.518-6.84-10.991-11.226-10.991h4.558c4.14.521,8.421,4.833,10.391,10.937" transform="translate(150.426 110.052)" fill="#dae6ef"/>
          </g>
          <g id="g7101" transform="translate(25.578 51.713)">
            <path id="path7103" d="M-37.954-36.9a2.417,2.417,0,0,1-2.958.458,2.419,2.419,0,0,1-.46-.337,2.423,2.423,0,0,1-.123-3.421,2.4,2.4,0,0,1,.583-.461,2.416,2.416,0,0,1,2.834.338,2.424,2.424,0,0,1,.123,3.423" transform="translate(42.142 40.969)" fill="#555760"/>
          </g>
          <g id="g7105" transform="translate(26.809 51.713)">
            <path id="path7107" d="M-26.8-36.9a2.417,2.417,0,0,1-2.958.458,2.361,2.361,0,0,0,.582-.458,2.425,2.425,0,0,0-.122-3.423,2.486,2.486,0,0,0-.46-.338,2.416,2.416,0,0,1,2.834.338A2.424,2.424,0,0,1-26.8-36.9" transform="translate(29.76 40.969)" fill="#36383f"/>
          </g>
          <g id="g7109" transform="translate(37.403 51.713)">
            <path id="path7111" d="M-37.954-36.9a2.417,2.417,0,0,1-2.958.458,2.419,2.419,0,0,1-.46-.337,2.423,2.423,0,0,1-.123-3.421,2.4,2.4,0,0,1,.583-.461,2.416,2.416,0,0,1,2.834.338,2.424,2.424,0,0,1,.123,3.423" transform="translate(42.142 40.969)" fill="#555760"/>
          </g>
          <g id="g7113" transform="translate(38.634 51.713)">
            <path id="path7115" d="M-26.8-36.9a2.417,2.417,0,0,1-2.958.458,2.361,2.361,0,0,0,.582-.458,2.425,2.425,0,0,0-.122-3.423,2.486,2.486,0,0,0-.46-.338,2.416,2.416,0,0,1,2.834.338A2.424,2.424,0,0,1-26.8-36.9" transform="translate(29.76 40.969)" fill="#36383f"/>
          </g>
          <g id="g7117" transform="translate(25.514 39.2)">
            <path id="path7119" d="M-152.147,0l-2.65,7.508h-11.489L-168.936,0Z" transform="translate(168.936)" fill="#a8b3ba"/>
          </g>
          <g id="g7121" transform="translate(36.219 39.2)">
            <path id="path7123" d="M-24.016,0l-2.65,7.508h3.435L-20.582,0Z" transform="translate(26.667)" fill="#879299"/>
          </g>
          <g id="g7125" transform="translate(10.732 12.685)">
            <path id="path7127" d="M-152.5-135.057a9.309,9.309,0,0,1-7.434,3.782H-160a9.336,9.336,0,0,1-9.33-9.343A9.335,9.335,0,0,1-160-149.96h.057a9.3,9.3,0,0,1,7.2,3.466l-5.588,5.6Z" transform="translate(169.333 149.96)" fill="#fff148"/>
          </g>
          <g id="g7129" transform="translate(19.078 12.686)">
            <path id="path7131" d="M-76.865-135.045a9.309,9.309,0,0,1-7.434,3.782c1.374-.077,3.678-2.551,3.678-3.792l-3.951-3.957a2.649,2.649,0,0,1,0-3.745l3.607-3.613c0-.921-2.116-3.5-3.342-3.576a9.3,9.3,0,0,1,7.2,3.466l-5.588,5.6Z" transform="translate(85.346 149.946)" fill="#ffcf4a"/>
          </g>
          <g id="g7133" transform="translate(46.827 22.028)">
            <path id="path7135" d="M-59.622-54.876a3.292,3.292,0,0,1-3.289,3.288,3.245,3.245,0,0,1-.824-.1,3.3,3.3,0,0,1-2.433-3.653l.792-5.585h4.929l.791,5.585a3.344,3.344,0,0,1,.033.47" transform="translate(66.201 60.932)" fill="#eef6ff"/>
          </g>
          <g id="g7137" transform="translate(49.293 22.028)">
            <path id="path7139" d="M-37.274-54.876a3.292,3.292,0,0,1-3.289,3.288,3.245,3.245,0,0,1-.824-.1c.863-.371,1.485-1.675,1.485-3.181,0-.155-.007-.313-.02-.472l-.478-5.585h2.3l.791,5.585a3.344,3.344,0,0,1,.033.47" transform="translate(41.387 60.932)" fill="#dae6ef"/>
          </g>
          <g id="g7141" transform="translate(43.677 12.685)">
            <path id="path7143" d="M-116.72-84.67H-129.6l.606-4.273a5.894,5.894,0,0,1,5.015-5.013,5.973,5.973,0,0,1,.819-.057,5.894,5.894,0,0,1,5.833,5.07Z" transform="translate(129.6 94.013)" fill="#ff455c"/>
          </g>
          <g id="g7145" transform="translate(49.298 12.685)">
            <path id="path7147" d="M-65.781-84.67h-3.79l-.375-4.273c-.231-2.634-1.511-4.655-3.094-5.013a5.973,5.973,0,0,1,.819-.057,5.894,5.894,0,0,1,5.833,5.07Z" transform="translate(73.04 94.013)" fill="#e51c5f"/>
          </g>
          <g id="g7149" transform="translate(0 0)">
            <path id="path7151" d="M-109.873-413.289h-7.462A4.67,4.67,0,0,1-122-417.956V-455.33A4.67,4.67,0,0,1-117.335-460h58.493a4.67,4.67,0,0,1,4.662,4.668v8.2a.994.994,0,0,1-.994.994.994.994,0,0,1-.994-.994v-8.2a2.68,2.68,0,0,0-2.675-2.68h-58.493a2.68,2.68,0,0,0-2.675,2.68v37.374a2.68,2.68,0,0,0,2.675,2.68h7.462a.994.994,0,0,1,.994.994A.994.994,0,0,1-109.873-413.289Z" transform="translate(121.997 459.997)"/>
          </g>
          <g id="g7153" transform="translate(54.726 16.47)">
            <path id="path7155" d="M-113.541,20.238H-121a.994.994,0,0,1-.994-.994.994.994,0,0,1,.994-.994h7.462a2.68,2.68,0,0,0,2.675-2.68V-9.006a.994.994,0,0,1,.994-.994.994.994,0,0,1,.994.994V15.571A4.67,4.67,0,0,1-113.541,20.238Z" transform="translate(121.997 10)"/>
          </g>
          <g id="g7157" transform="translate(16.827 3.981)">
            <path id="path7159" d="M36.051,28.747H25.6a.994.994,0,0,1,0-1.988h9.455V-8.012H-9.006A.994.994,0,0,1-10-9.006.994.994,0,0,1-9.006-10H36.051a.994.994,0,0,1,.994.994V27.753A.994.994,0,0,1,36.051,28.747Z" transform="translate(10 10)"/>
          </g>
          <g id="g7161" transform="translate(3.972 3.981)">
            <path id="path7163" d="M-103.7-341.133h-10.449a.994.994,0,0,1-.994-.994v-36.759a.994.994,0,0,1,.994-.994h8.178a.994.994,0,0,1,.994.994.994.994,0,0,1-.994.994h-7.184v34.771h9.455a.994.994,0,0,1,.994.994A.994.994,0,0,1-103.7-341.133Z" transform="translate(115.142 379.879)"/>
          </g>
          <g id="g7165" transform="translate(8.064 38.206)">
            <path id="path7167" d="M-192.074,19.639c-3.53,0-7.256-2.507-9.918-6.8a6.136,6.136,0,0,1-2.074.362,6.07,6.07,0,0,1-4.377-1.844,1.622,1.622,0,0,0-1.161-.509,1.623,1.623,0,0,0-1.162.509,6.069,6.069,0,0,1-4.377,1.844,6.136,6.136,0,0,1-2.074-.362c-2.662,4.291-6.388,6.8-9.918,6.8a7.147,7.147,0,0,1-2.21-.346,7.38,7.38,0,0,1-3.26-2.167c-3.013-3.382-3.709-9.446-1.773-15.447,2.225-6.9,7.243-11.7,12.2-11.679h10.114a.994.994,0,0,1,.994.994.994.994,0,0,1-.994.994h-10.118c-4.042-.016-8.375,4.317-10.306,10.3-1.7,5.262-1.149,10.693,1.365,13.515a5.42,5.42,0,0,0,2.388,1.6c3.334,1.079,7.547-1.52,10.247-6.319a.994.994,0,0,1,1.348-.382,4.126,4.126,0,0,0,2,.514,4.1,4.1,0,0,0,2.955-1.245,3.594,3.594,0,0,1,2.584-1.108,3.594,3.594,0,0,1,2.583,1.108,4.1,4.1,0,0,0,2.955,1.245,4.125,4.125,0,0,0,2-.514.994.994,0,0,1,1.348.382c2.7,4.8,6.913,7.4,10.247,6.319a5.421,5.421,0,0,0,2.388-1.6c2.514-2.822,3.063-8.253,1.365-13.515-1.931-5.985-6.264-10.318-10.3-10.3h-10.387a.994.994,0,0,1-.994-.994.994.994,0,0,1,.994-.994h10.383c4.954-.019,9.973,4.783,12.2,11.679,1.936,6,1.24,12.065-1.773,15.447a7.381,7.381,0,0,1-3.26,2.167A7.151,7.151,0,0,1-192.074,19.639Z" transform="translate(235.463 10.001)"/>
          </g>
          <g id="g7169" transform="translate(24.586 50.719)">
            <path id="path7171" d="M-47.482-16.529a3.4,3.4,0,0,1,2.324.916,3.422,3.422,0,0,1,.173,4.826,3.422,3.422,0,0,1-2.5,1.089,3.4,3.4,0,0,1-2.324-.916,3.421,3.421,0,0,1-.173-4.826A3.422,3.422,0,0,1-47.482-16.529Zm0,4.843a1.409,1.409,0,0,0,1.043-.455,1.431,1.431,0,0,0-.072-2.019,1.418,1.418,0,0,0-.969-.382,1.409,1.409,0,0,0-1.043.455,1.431,1.431,0,0,0,.072,2.019A1.418,1.418,0,0,0-47.483-11.686Z" transform="translate(50.893 16.529)"/>
          </g>
          <g id="g7173" transform="translate(36.411 50.719)">
            <path id="path7175" d="M-47.482-16.529a3.4,3.4,0,0,1,2.324.916,3.422,3.422,0,0,1,.173,4.826,3.422,3.422,0,0,1-2.5,1.089,3.4,3.4,0,0,1-2.324-.916,3.421,3.421,0,0,1-.173-4.826A3.422,3.422,0,0,1-47.482-16.529Zm0,4.843a1.409,1.409,0,0,0,1.043-.455,1.431,1.431,0,0,0-.072-2.019,1.418,1.418,0,0,0-.969-.382,1.409,1.409,0,0,0-1.043.455,1.431,1.431,0,0,0,.072,2.019A1.418,1.418,0,0,0-47.483-11.686Z" transform="translate(50.893 16.529)"/>
          </g>
          <g id="g7177" transform="translate(19.168 44.059)">
            <path id="path7179" d="M-9.006-2.048A.994.994,0,0,1-10-3.042V-9.006A.994.994,0,0,1-9.006-10a.994.994,0,0,1,.994.994v5.964A.994.994,0,0,1-9.006-2.048Z" transform="translate(10 10)"/>
          </g>
          <g id="g7181" transform="translate(16.19 47.04)">
            <path id="path7183" d="M-62.98-8.012h-5.956a.994.994,0,0,1-.994-.994A.994.994,0,0,1-68.935-10h5.956a.994.994,0,0,1,.994.994A.994.994,0,0,1-62.98-8.012Z" transform="translate(69.929 10)"/>
          </g>
          <g id="g7185" transform="translate(47.656 51.016)">
            <path id="path7187"/>
          </g>
          <g id="g7189" transform="translate(47.656 45.052)">
            <path id="path7191"/>
          </g>
          <g id="g7193" transform="translate(44.678 48.034)">
            <path id="path7195"/>
          </g>
          <g id="g7197" transform="translate(50.634 48.034)">
            <path id="path7199"/>
          </g>
          <g id="g7201" transform="translate(24.577 38.869)">
            <path id="path7203" d="M-163.289,5.5h-11.489a.994.994,0,0,1-.937-.663l-2.65-7.508,1.874-.662,2.416,6.845h10.082l2.416-6.845,1.874.662-2.65,7.508A.994.994,0,0,1-163.289,5.5Z" transform="translate(178.365 3.329)"/>
          </g>
          <g id="g7205" transform="translate(9.738 11.691)">
            <path id="path7207" d="M-110.333-101.2a10.281,10.281,0,0,1,8.028,3.837.994.994,0,0,1-.07,1.327l-4.887,4.894,5.131,5.137a.994.994,0,0,1,.1,1.294,10.37,10.37,0,0,1-8.3,4.185,10.342,10.342,0,0,1-10.324-10.337A10.342,10.342,0,0,1-110.333-101.2Zm5.887,4.425a8.294,8.294,0,0,0-5.887-2.437,8.352,8.352,0,0,0-8.337,8.349,8.352,8.352,0,0,0,8.337,8.349,8.25,8.25,0,0,0,6.161-2.722l-5.2-5.2a.994.994,0,0,1,0-1.4Z" transform="translate(120.657 101.201)"/>
          </g>
          <g id="g7209" transform="translate(19.544 17.158)">
            <path id="path7211"/>
          </g>
          <g id="g7213" transform="translate(45.833 21.034)">
            <path id="path7215" d="M-66.08-10h4.929a.994.994,0,0,1,.984.854l.792,5.586A4.289,4.289,0,0,1-60.383-.144a4.28,4.28,0,0,1-3.233,1.475A4.28,4.28,0,0,1-66.848-.144,4.289,4.289,0,0,1-67.856-3.56l.792-5.586A.994.994,0,0,1-66.08-10Zm4.066,1.988h-3.2l-.671,4.732a2.3,2.3,0,0,0,.541,1.833,2.293,2.293,0,0,0,1.732.791,2.293,2.293,0,0,0,1.732-.791,2.3,2.3,0,0,0,.541-1.833Z" transform="translate(67.899 10)"/>
          </g>
          <g id="g7217" transform="translate(42.683 11.691)">
            <path id="path7219" d="M-67.366-10a6.922,6.922,0,0,1,6.818,5.925L-59.943.2a.994.994,0,0,1-.234.791.994.994,0,0,1-.75.342h-12.88a.994.994,0,0,1-.75-.342A.994.994,0,0,1-74.79.2l.606-4.272A6.921,6.921,0,0,1-67.366-10Zm5.3,9.343L-62.516-3.8a4.925,4.925,0,0,0-4.85-4.217A4.924,4.924,0,0,0-72.216-3.8l-.445,3.139Z" transform="translate(74.8 10)"/>
          </g>
          <g id="g7221" transform="translate(35.632 21.941)">
            <path id="path7223"/>
          </g>
          <g id="g7225" transform="translate(39.391 22.028)">
            <path id="path7227"/>
          </g>
          <g id="g7229" transform="translate(32.009 21.941)">
            <path id="path7231"/>
          </g>
          <g id="g7233" transform="translate(28.454 21.941)">
            <path id="path7235"/>
          </g>
        </g>
      </g>
    </g>
  </g>
</svg>
