<svg xmlns="http://www.w3.org/2000/svg" xmlns:xlink="http://www.w3.org/1999/xlink" width="1030" height="520" viewBox="0 0 1030 520">
  <defs>
    <clipPath id="clip-path">
      <rect id="Rectángulo_376383" data-name="Rectángulo 376383" width="1030" height="520" rx="15" transform="translate(285 4652)" fill="#e8eaff"/>
    </clipPath>
  </defs>
  <g id="Grupo_1072656" data-name="Grupo 1072656" transform="translate(-285 -4652)">
    <rect id="Rectángulo_376380" data-name="Rectángulo 376380" width="1030" height="520" rx="15" transform="translate(285 4652)" fill="#e8eaff"/>
    <g id="Enmascarar_grupo_1044167" data-name="Enmascarar grupo 1044167" clip-path="url(#clip-path)">
      <g id="Grupo_1072640" data-name="Grupo 1072640" transform="translate(3.74 3397.933)">
        <g id="Grupo_1072225" data-name="Grupo 1072225" transform="translate(268.552 1228.831)" opacity="0.534">
          <rect id="Rectángulo_375918" data-name="Rectángulo 375918" width="29.077" height="29.077" transform="translate(57.115 193.156)" fill="#adb3f3"/>
          <rect id="Rectángulo_375919" data-name="Rectángulo 375919" width="29.077" height="29.077" transform="translate(84.116 166.155)" fill="#adb3f3"/>
          <rect id="Rectángulo_375920" data-name="Rectángulo 375920" width="29.077" height="29.077" transform="translate(110.078 166.155)" fill="#adb3f3"/>
          <rect id="Rectángulo_375921" data-name="Rectángulo 375921" width="29.077" height="29.077" transform="translate(110.078 193.156)" fill="#adb3f3"/>
          <rect id="Rectángulo_375922" data-name="Rectángulo 375922" width="29.077" height="29.077" transform="translate(110.078 137.078)" fill="#adb3f3"/>
          <rect id="Rectángulo_375923" data-name="Rectángulo 375923" width="29.077" height="29.077" transform="translate(137.078 166.155)" fill="#adb3f3"/>
          <rect id="Rectángulo_375924" data-name="Rectángulo 375924" width="29.077" height="29.077" transform="translate(134.482 115.79)" fill="#adb3f3"/>
          <rect id="Rectángulo_375925" data-name="Rectángulo 375925" width="29.077" height="29.077" transform="translate(161.482 88.79)" fill="#adb3f3"/>
          <rect id="Rectángulo_375926" data-name="Rectángulo 375926" width="29.077" height="29.077" transform="translate(187.444 88.79)" fill="#adb3f3"/>
          <rect id="Rectángulo_375927" data-name="Rectángulo 375927" width="29.077" height="29.077" transform="translate(187.444 115.79)" fill="#adb3f3"/>
          <rect id="Rectángulo_375928" data-name="Rectángulo 375928" width="29.077" height="29.077" transform="translate(187.444 59.713)" fill="#adb3f3"/>
          <rect id="Rectángulo_375929" data-name="Rectángulo 375929" width="29.077" height="29.077" transform="translate(214.444 88.79)" fill="#adb3f3"/>
          <rect id="Rectángulo_375930" data-name="Rectángulo 375930" width="29.077" height="29.077" transform="translate(2.077 141.233)" fill="#adb3f3"/>
          <rect id="Rectángulo_375931" data-name="Rectángulo 375931" width="29.077" height="29.077" transform="translate(29.077 114.232)" fill="#adb3f3"/>
          <rect id="Rectángulo_375932" data-name="Rectángulo 375932" width="29.077" height="29.077" transform="translate(55.039 114.232)" fill="#adb3f3"/>
          <rect id="Rectángulo_375933" data-name="Rectángulo 375933" width="29.077" height="29.077" transform="translate(55.039 141.233)" fill="#adb3f3"/>
          <rect id="Rectángulo_375934" data-name="Rectángulo 375934" width="29.077" height="29.077" transform="translate(55.039 85.155)" fill="#adb3f3"/>
          <rect id="Rectángulo_375935" data-name="Rectángulo 375935" width="29.077" height="29.077" transform="translate(82.039 114.232)" fill="#adb3f3"/>
          <rect id="Rectángulo_375936" data-name="Rectángulo 375936" width="29.077" height="29.077" transform="translate(0 29.077)" fill="#adb3f3"/>
          <rect id="Rectángulo_375937" data-name="Rectángulo 375937" width="29.077" height="29.077" transform="translate(25.962 29.078)" fill="#adb3f3"/>
          <rect id="Rectángulo_375938" data-name="Rectángulo 375938" width="29.077" height="29.077" transform="translate(25.962 56.078)" fill="#adb3f3"/>
          <rect id="Rectángulo_375939" data-name="Rectángulo 375939" width="29.077" height="29.077" transform="translate(25.962 0)" fill="#adb3f3"/>
          <rect id="Rectángulo_375940" data-name="Rectángulo 375940" width="29.077" height="29.077" transform="translate(49.847 35.309)" fill="#adb3f3"/>
          <rect id="Rectángulo_375941" data-name="Rectángulo 375941" width="29.077" height="29.077" transform="translate(79.443 63.866)" fill="#adb3f3"/>
          <rect id="Rectángulo_375942" data-name="Rectángulo 375942" width="29.077" height="29.077" transform="translate(106.443 36.867)" fill="#adb3f3"/>
          <rect id="Rectángulo_375943" data-name="Rectángulo 375943" width="29.077" height="29.077" transform="translate(132.405 36.867)" fill="#adb3f3"/>
          <rect id="Rectángulo_375944" data-name="Rectángulo 375944" width="29.077" height="29.077" transform="translate(132.405 63.866)" fill="#adb3f3"/>
          <rect id="Rectángulo_375945" data-name="Rectángulo 375945" width="29.077" height="29.077" transform="translate(159.405 36.867)" fill="#adb3f3"/>
        </g>
        <g id="Grupo_1072221" data-name="Grupo 1072221" transform="translate(318.493 1268.946)">
          <path id="Trazado_771199" data-name="Trazado 771199" d="M297.39,353.151H170.07L288.1,539.02H139.4L0,260.217H109.662L0,0Z" transform="matrix(-1, -0.017, 0.017, -1, 1090.302, 388.87)" fill="#7f87e3"/>
          <ellipse id="Elipse_4729" data-name="Elipse 4729" cx="6.202" cy="6.512" rx="6.202" ry="6.512" transform="translate(390.884 41.933)" fill="#fff"/>
          <ellipse id="Elipse_4724" data-name="Elipse 4724" cx="6.202" cy="6.512" rx="6.202" ry="6.512" transform="translate(716.046 473.421)" fill="#fff"/>
          <path id="Trazado_771203" data-name="Trazado 771203" d="M191.128,119.455H109.3L185.155,0H89.591L0,179.183H70.478L0,346.42Z" transform="translate(72.611 632.96) rotate(180)" fill="#7f87e3"/>
          <circle id="Elipse_4726" data-name="Elipse 4726" cx="10.233" cy="10.233" r="10.233" transform="translate(390.884 429.921)" fill="#fff"/>
          <path id="Trazado_771202" data-name="Trazado 771202" d="M6.548,0,0,4.445c4.355,6.414,10.89,6.613,16.14,6.774,4.949.15,7.846.379,9.835,3.308s1.132,5.706-.555,10.361c-1.788,4.94-4.015,11.088.34,17.5S36.649,49,41.9,49.164c4.949.15,7.846.378,9.834,3.308s1.132,5.707-.553,10.362c-1.789,4.94-4.015,11.088.34,17.5s10.89,6.614,16.14,6.775c4.95.151,7.847.38,9.836,3.31l6.548-4.445C79.691,79.562,73.156,79.362,67.9,79.2c-4.949-.151-7.846-.38-9.836-3.31s-1.132-5.707.554-10.362c1.788-4.94,4.015-11.088-.34-17.5s-10.89-6.613-16.14-6.774c-4.949-.151-7.846-.379-9.835-3.308s-1.132-5.706.555-10.361c1.788-4.94,4.015-11.088-.34-17.5S21.633,3.469,16.382,3.308C11.433,3.157,8.536,2.929,6.548,0" transform="matrix(0.559, -0.829, 0.829, 0.559, 876.815, 478.307)" fill="#ff06cc"/>
          <path id="Trazado_818215" data-name="Trazado 818215" d="M2.654,36.657,0,34.855c1.765-2.6,4.415-2.681,6.543-2.746,2.006-.061,3.181-.154,3.987-1.341s.459-2.313-.225-4.2c-.725-2-1.627-4.495.138-7.1s4.414-2.681,6.543-2.746c2.006-.061,3.181-.153,3.987-1.341s.459-2.314-.224-4.2c-.725-2-1.627-4.495.138-7.1S25.3,1.407,27.43,1.342c2.007-.061,3.181-.154,3.987-1.342l2.654,1.8c-1.765,2.6-4.415,2.682-6.544,2.746-2.006.061-3.181.154-3.987,1.342s-.459,2.314.225,4.2c.725,2,1.627,4.495-.138,7.1s-4.415,2.681-6.543,2.746c-2.006.061-3.181.154-3.987,1.341s-.459,2.313.225,4.2c.725,2,1.627,4.495-.138,7.1S8.77,35.251,6.641,35.316c-2.007.061-3.181.154-3.987,1.341" transform="translate(27.782 281.776) rotate(-135)" fill="#adb3f3"/>
          <circle id="Elipse_4728" data-name="Elipse 4728" cx="10.233" cy="10.233" r="10.233" transform="translate(808.147 13.206)" fill="#fff"/>
          <g id="Grupo_1071908" data-name="Grupo 1071908" transform="translate(0 0)">
            <path id="Rectangle_652" data-name="Rectangle 652" d="M12.623,0H788.941c6.971,0,12.623,5.08,12.623,11.347V295.015c0,6.267-5.651,11.347-12.623,11.347H12.623C5.652,306.362,0,301.282,0,295.015V11.347C0,5.08,5.652,0,12.623,0Z" transform="translate(21.506 132.775)" fill="none"/>
            <path id="Trazado_818077" data-name="Trazado 818077" d="M0,0,862.894,55.543l43.55,327.228L43.55,327.228Z" transform="translate(0 107.692) rotate(-7)" fill="none"/>
            <circle id="Elipse_4725" data-name="Elipse 4725" cx="3.028" cy="3.028" r="3.028" transform="translate(377.602 232.603)" fill="#fff"/>
            <ellipse id="Elipse_4727" data-name="Elipse 4727" cx="7.064" cy="6.728" rx="7.064" ry="6.728" transform="translate(218.546 168.624)" fill="#fff"/>
            <circle id="Elipse_4731" data-name="Elipse 4731" cx="3.028" cy="3.028" r="3.028" transform="translate(594.62 194.337)" fill="#fff"/>
          </g>
        </g>
      </g>
    </g>
  </g>
</svg>
