<svg xmlns="http://www.w3.org/2000/svg" xmlns:xlink="http://www.w3.org/1999/xlink" width="1328.156" height="593" viewBox="0 0 1328.156 593">
  <defs>
    <clipPath id="clip-path">
      <rect id="Rectángulo_376415" data-name="Rectángulo 376415" width="1328" height="593" transform="translate(-13 4652)" fill="#e8eaff"/>
    </clipPath>
  </defs>
  <g id="Grupo_1072655" data-name="Grupo 1072655" transform="translate(-136 -5796)">
    <rect id="Rectángulo_376386" data-name="Rectángulo 376386" width="1328" height="593" transform="translate(136.156 5796)" fill="#adb3f3"/>
    <g id="Enmascarar_grupo_1044168" data-name="Enmascarar grupo 1044168" transform="translate(149 1144)" clip-path="url(#clip-path)">
      <g id="Grupo_1072654" data-name="Grupo 1072654" transform="translate(-260.434 3460.092)">
        <g id="Grupo_1072651" data-name="Grupo 1072651" transform="translate(226.552 1459.95)" opacity="0.534">
          <rect id="Rectángulo_376387" data-name="Rectángulo 376387" width="45.96" height="45.959" transform="translate(90.277 305.304)" fill="#e8eaff"/>
          <rect id="Rectángulo_376388" data-name="Rectángulo 376388" width="45.959" height="45.959" transform="translate(132.954 262.626)" fill="#e8eaff"/>
          <rect id="Rectángulo_376389" data-name="Rectángulo 376389" width="45.959" height="45.959" transform="translate(173.99 262.626)" fill="#e8eaff"/>
          <rect id="Rectángulo_376390" data-name="Rectángulo 376390" width="45.959" height="45.959" transform="translate(173.99 305.304)" fill="#e8eaff"/>
          <rect id="Rectángulo_376391" data-name="Rectángulo 376391" width="45.959" height="45.959" transform="translate(173.99 216.667)" fill="#e8eaff"/>
          <rect id="Rectángulo_376392" data-name="Rectángulo 376392" width="45.959" height="45.959" transform="translate(216.666 262.626)" fill="#e8eaff"/>
          <rect id="Rectángulo_376393" data-name="Rectángulo 376393" width="45.959" height="45.959" transform="translate(212.563 183.019)" fill="#e8eaff"/>
          <rect id="Rectángulo_376394" data-name="Rectángulo 376394" width="45.959" height="45.959" transform="translate(255.24 140.342)" fill="#e8eaff"/>
          <rect id="Rectángulo_376395" data-name="Rectángulo 376395" width="45.959" height="45.959" transform="translate(296.275 140.342)" fill="#e8eaff"/>
          <rect id="Rectángulo_376396" data-name="Rectángulo 376396" width="45.959" height="45.959" transform="translate(296.275 183.019)" fill="#e8eaff"/>
          <rect id="Rectángulo_376397" data-name="Rectángulo 376397" width="45.959" height="45.959" transform="translate(296.275 94.383)" fill="#e8eaff"/>
          <rect id="Rectángulo_376398" data-name="Rectángulo 376398" width="45.959" height="45.959" transform="translate(338.952 140.342)" fill="#e8eaff"/>
          <rect id="Rectángulo_376399" data-name="Rectángulo 376399" width="45.959" height="45.959" transform="translate(3.283 223.234)" fill="#e8eaff"/>
          <rect id="Rectángulo_376400" data-name="Rectángulo 376400" width="45.959" height="45.959" transform="translate(45.96 180.556)" fill="#e8eaff"/>
          <rect id="Rectángulo_376401" data-name="Rectángulo 376401" width="45.959" height="45.959" transform="translate(86.995 180.556)" fill="#e8eaff"/>
          <rect id="Rectángulo_376402" data-name="Rectángulo 376402" width="45.959" height="45.959" transform="translate(86.995 223.234)" fill="#e8eaff"/>
          <rect id="Rectángulo_376403" data-name="Rectángulo 376403" width="45.959" height="45.959" transform="translate(86.995 134.597)" fill="#e8eaff"/>
          <rect id="Rectángulo_376404" data-name="Rectángulo 376404" width="45.959" height="45.959" transform="translate(129.672 180.556)" fill="#e8eaff"/>
          <rect id="Rectángulo_376405" data-name="Rectángulo 376405" width="45.959" height="45.959" transform="translate(0 45.96)" fill="#e8eaff"/>
          <rect id="Rectángulo_376406" data-name="Rectángulo 376406" width="45.959" height="45.959" transform="translate(41.036 45.961)" fill="#e8eaff"/>
          <rect id="Rectángulo_376407" data-name="Rectángulo 376407" width="45.959" height="45.959" transform="translate(41.036 88.637)" fill="#e8eaff"/>
          <rect id="Rectángulo_376408" data-name="Rectángulo 376408" width="45.959" height="45.96" transform="translate(41.035 0)" fill="#e8eaff"/>
          <rect id="Rectángulo_376409" data-name="Rectángulo 376409" width="45.959" height="45.959" transform="translate(78.788 55.809)" fill="#e8eaff"/>
          <rect id="Rectángulo_376410" data-name="Rectángulo 376410" width="45.959" height="45.959" transform="translate(125.569 100.948)" fill="#e8eaff"/>
          <rect id="Rectángulo_376411" data-name="Rectángulo 376411" width="45.959" height="45.959" transform="translate(168.245 58.272)" fill="#e8eaff"/>
          <rect id="Rectángulo_376412" data-name="Rectángulo 376412" width="45.959" height="45.959" transform="translate(209.28 58.272)" fill="#e8eaff"/>
          <rect id="Rectángulo_376413" data-name="Rectángulo 376413" width="45.959" height="45.959" transform="translate(209.28 100.948)" fill="#e8eaff"/>
          <rect id="Rectángulo_376414" data-name="Rectángulo 376414" width="45.959" height="45.959" transform="translate(251.957 58.272)" fill="#e8eaff"/>
        </g>
        <path id="Trazado_818825" data-name="Trazado 818825" d="M297.39,353.151H170.07L288.1,539.02H139.4L0,260.217H109.662L0,0Z" transform="matrix(-1, -0.017, 0.017, -1, 1657.968, 1666.816)" fill="#e8eaff"/>
        <ellipse id="Elipse_9702" data-name="Elipse 9702" cx="6.202" cy="6.512" rx="6.202" ry="6.512" transform="translate(805.977 1304.067)" fill="#e8eaff"/>
        <ellipse id="Elipse_9703" data-name="Elipse 9703" cx="6.202" cy="6.512" rx="6.202" ry="6.512" transform="translate(1202.376 1700.956)" fill="#e8eaff"/>
        <circle id="Elipse_9704" data-name="Elipse 9704" cx="10.233" cy="10.233" r="10.233" transform="translate(806.729 1660.489)" fill="#e8eaff"/>
        <path id="Trazado_818827" data-name="Trazado 818827" d="M6.548,0,0,4.445c4.355,6.414,10.89,6.613,16.14,6.774,4.949.15,7.846.379,9.835,3.308s1.132,5.706-.555,10.361c-1.788,4.94-4.015,11.088.34,17.5S36.649,49,41.9,49.164c4.949.15,7.846.378,9.834,3.308s1.132,5.707-.553,10.362c-1.789,4.94-4.015,11.088.34,17.5s10.89,6.614,16.14,6.775c4.95.151,7.847.38,9.836,3.31l6.548-4.445C79.691,79.562,73.156,79.362,67.9,79.2c-4.949-.151-7.846-.38-9.836-3.31s-1.132-5.707.554-10.362c1.788-4.94,4.015-11.088-.34-17.5s-10.89-6.613-16.14-6.774c-4.949-.151-7.846-.379-9.835-3.308s-1.132-5.706.555-10.361c1.788-4.94,4.015-11.088-.34-17.5S21.633,3.469,16.382,3.308C11.433,3.157,8.536,2.929,6.548,0" transform="matrix(0.559, -0.829, 0.829, 0.559, 1444.481, 1694.094)" fill="#e8eaff"/>
        <path id="Trazado_818828" data-name="Trazado 818828" d="M12.965,179.05,0,170.248c8.623-12.7,21.563-13.095,31.96-13.413,9.8-.3,15.535-.751,19.474-6.551s2.242-11.3-1.1-20.517c-3.541-9.781-7.949-21.955.674-34.656S72.571,82.016,82.97,81.7c9.8-.3,15.535-.749,19.472-6.551s2.242-11.3-1.095-20.519c-3.543-9.781-7.949-21.955.674-34.658s21.563-13.1,31.96-13.415c9.8-.3,15.537-.753,19.476-6.555l12.965,8.8c-8.623,12.7-21.563,13.1-31.962,13.415-9.8.3-15.537.753-19.476,6.555s-2.242,11.3,1.1,20.519c3.541,9.781,7.949,21.955-.674,34.658S93.844,97.044,83.447,97.362c-9.8.3-15.535.751-19.474,6.551s-2.242,11.3,1.1,20.517c3.541,9.781,7.949,21.955-.674,34.656S42.837,172.181,32.439,172.5c-9.8.3-15.537.751-19.474,6.551" transform="translate(405.861 1407.037) rotate(-135)" fill="#e8eaff"/>
        <circle id="Elipse_9705" data-name="Elipse 9705" cx="10.233" cy="10.233" r="10.233" transform="translate(1373.021 1550.513)" fill="#e8eaff"/>
        <g id="Grupo_1072652" data-name="Grupo 1072652" transform="translate(66.809 1262.894)">
          <path id="Rectangle_652" data-name="Rectangle 652" d="M19.616,0H1226c10.834,0,19.616,3.736,19.616,8.344v208.6c0,4.608-8.782,8.344-19.616,8.344H19.616C8.782,225.288,0,221.552,0,216.944V8.344C0,3.736,8.782,0,19.616,0Z" transform="translate(33.419 121.477)" fill="none"/>
          <path id="Trazado_818829" data-name="Trazado 818829" d="M0,0,1335.928,126.964l99.548,248.923L99.548,248.923Z" transform="translate(0 103.031) rotate(-7)" fill="none"/>
          <circle id="Elipse_9706" data-name="Elipse 9706" cx="11.528" cy="11.528" r="11.528" transform="translate(712.237 222.593)" fill="#e8eaff"/>
          <ellipse id="Elipse_9707" data-name="Elipse 9707" cx="7.064" cy="6.728" rx="7.064" ry="6.728" transform="translate(341.451 146.49)" fill="#e8eaff"/>
          <circle id="Elipse_9708" data-name="Elipse 9708" cx="3.028" cy="3.028" r="3.028" transform="translate(926.148 166.075)" fill="#e8eaff"/>
        </g>
      </g>
    </g>
  </g>
</svg>
